# This file uses centimeters as units for non-parametric coordinates.

mtllib AronFrontRightLeg.mtl
g default
v 0.301094 -1.006576 0.855886
v -0.945446 -0.587024 1.121500
v 0.533919 -0.420429 0.392936
v -0.758101 0.185481 0.909700
v 0.347938 -0.714616 -0.557310
v -0.905356 -0.256951 -0.581030
v -0.047140 -1.550840 -0.238903
v -1.031693 -1.227516 -0.201209
v 0.498047 0.155417 0.425152
v -0.472497 0.480842 0.443370
v -0.638277 0.343717 -0.509102
v 0.603631 -0.264650 -0.598452
v -0.248935 -2.114282 0.606357
v -1.010017 -1.688403 0.516476
v -1.196680 -1.307623 1.268372
v -0.190727 -1.549338 1.134946
v -0.709937 -2.191135 0.950041
v -0.981571 -2.184295 1.016939
v -0.919553 -1.931976 1.241817
v -0.658733 -1.981537 1.236536
v -1.218862 -0.874109 0.424962
v -1.349998 -1.448578 0.811316
v -1.074801 -2.079759 1.109328
v -0.704234 -2.120130 1.096132
v -0.169088 -1.877272 0.894472
v 0.300264 -1.313667 0.507873
v 0.576281 -0.622076 -0.033847
v 0.592023 -0.226195 -0.265785
v -0.597246 0.537425 0.026971
v -0.926258 -0.123215 -0.125225
v -0.313980 -0.654396 1.268943
v -0.065207 0.028608 1.033634
v 0.131354 0.415364 0.464274
v 0.173181 0.399093 0.009596
v 0.108081 -0.239967 -0.564951
v -0.447840 -0.490978 -0.806779
v -0.583455 -1.250126 -0.430475
v -0.633115 -1.849725 0.536117
v -0.850635 -2.194102 0.986861
v -0.920304 -2.144587 1.133101
v -0.806657 -1.954124 1.251106
v -0.572487 -1.375983 1.372891
vt 0.797698 0.153630
vt 0.838728 0.131757
vt 0.794246 0.099601
vt 0.833657 0.098703
vt 0.948402 0.170283
vt 0.928000 0.161889
vt 0.955338 0.185862
vt 0.873967 0.190984
vt 0.953144 0.090106
vt 0.928531 0.103035
vt 0.955634 0.144447
vt 0.921039 0.134637
vt 0.889901 0.017964
vt 0.876135 0.012820
vt 0.886214 0.023900
vt 0.877511 0.028366
vt 0.903141 0.125415
vt 0.909632 0.096844
vt 0.891148 0.123178
vt 0.886438 0.097166
vt 0.987881 0.152267
vt 0.993741 0.067334
vt 0.831817 0.169546
vt 0.853693 0.165496
vt 0.880996 0.148326
vt 0.897225 0.146915
vt 0.931062 0.030563
vt 0.915974 0.048968
vt 0.898445 0.067209
vt 0.882427 0.072110
vt 0.840697 0.060918
vt 0.818827 0.049731
vt 0.941000 0.010236
vt 0.885769 0.032217
vt 0.879334 0.039806
vt 0.864087 0.029834
vt 0.860399 0.022485
vt 0.864486 0.070333
vt 0.859821 0.097181
vt 0.866429 0.037714
vt 0.812103 0.022851
vt 0.765351 0.088090
vt 0.772413 0.171131
vt 0.798265 0.202169
vt 0.861750 0.122945
vt 0.866983 0.145037
vn 0.776519 0.170623 0.606552
vn 0.776519 0.170623 0.606552
vn 0.776519 0.170623 0.606552
vn 0.687225 0.120158 0.716439
vn 0.687225 0.120158 0.716439
vn 0.582402 0.066978 0.810137
vn 0.041785 0.992683 -0.113290
vn 0.249138 0.861379 -0.442669
vn 0.249138 0.861379 -0.442669
vn 0.249138 0.861379 -0.442669
vn 0.249138 0.861379 -0.442669
vn 0.414455 0.584739 -0.697357
vn 0.103637 -0.396317 -0.912246
vn 0.124567 -0.428603 -0.894865
vn 0.124567 -0.428603 -0.894865
vn 0.124567 -0.428603 -0.894865
vn 0.124567 -0.428603 -0.894865
vn 0.145275 -0.460124 -0.875889
vn 0.131165 -0.893629 0.429212
vn 0.150075 -0.900365 0.408437
vn 0.150075 -0.900365 0.408437
vn 0.150075 -0.900365 0.408437
vn 0.150075 -0.900365 0.408437
vn 0.168860 -0.906350 0.387320
vn -0.992184 0.099877 -0.074803
vn -0.971674 0.107262 -0.210583
vn -0.971674 0.107262 -0.210583
vn -0.971674 0.107262 -0.210583
vn -0.971674 0.107262 -0.210583
vn -0.932788 0.112618 -0.342380
vn 0.825591 -0.493934 -0.272816
vn 0.828674 -0.501233 -0.249130
vn 0.828674 -0.501233 -0.249130
vn 0.828674 -0.501233 -0.249130
vn 0.828674 -0.501233 -0.249130
vn 0.831239 -0.508218 -0.225289
vn 0.733041 0.007614 0.680141
vn 0.656009 0.333962 0.676847
vn 0.656009 0.333962 0.676847
vn 0.656009 0.333962 0.676847
vn 0.656009 0.333962 0.676847
vn 0.505210 0.622757 0.597442
vn -0.881370 0.461847 -0.099425
vn -0.888409 0.439815 -0.131504
vn -0.888409 0.439815 -0.131504
vn -0.888409 0.439815 -0.131504
vn -0.888409 0.439815 -0.131504
vn -0.894058 0.417095 -0.163377
vn 0.334757 0.154201 -0.929602
vn 0.136052 0.052827 -0.989292
vn 0.136052 0.052827 -0.989292
vn 0.136052 0.052827 -0.989292
vn 0.136052 0.052827 -0.989292
vn -0.069909 -0.051364 -0.996230
vn 0.869547 -0.486207 0.086545
vn 0.916362 -0.376192 -0.136971
vn 0.916362 -0.376192 -0.136971
vn 0.916362 -0.376192 -0.136971
vn 0.916362 -0.376192 -0.136971
vn 0.904296 -0.242004 -0.351686
vn -0.391008 -0.720022 -0.573307
vn -0.331767 -0.768448 -0.547192
vn -0.331767 -0.768448 -0.547192
vn -0.331767 -0.768448 -0.547192
vn -0.331767 -0.768448 -0.547192
vn -0.270358 -0.811850 -0.517499
vn -0.955455 -0.260617 -0.138506
vn -0.875807 -0.269615 -0.400338
vn -0.875807 -0.269615 -0.400338
vn -0.875807 -0.269615 -0.400338
vn -0.875807 -0.269615 -0.400338
vn -0.730490 -0.258396 -0.632152
vn 0.508768 -0.058534 0.858911
vn 0.522405 -0.055455 0.850892
vn 0.522405 -0.055455 0.850892
vn 0.522405 -0.055455 0.850892
vn 0.522405 -0.055455 0.850892
vn 0.535906 -0.052362 0.842652
vn 0.817702 -0.534691 0.213235
vn 0.825250 -0.564645 0.011820
vn 0.825250 -0.564645 0.011820
vn 0.825250 -0.564645 0.011820
vn 0.825250 -0.564645 0.011820
vn 0.798531 -0.571153 -0.190086
vn -0.357302 -0.686888 -0.632867
vn -0.256699 -0.721669 -0.642883
vn -0.256699 -0.721669 -0.642883
vn -0.256699 -0.721669 -0.642883
vn -0.256699 -0.721669 -0.642883
vn -0.153162 -0.748202 -0.645551
vn -0.831436 -0.417590 -0.366514
vn -0.787161 -0.471668 -0.397376
vn -0.787161 -0.471668 -0.397376
vn -0.787161 -0.471668 -0.397376
vn -0.787161 -0.471668 -0.397376
vn -0.738290 -0.522994 -0.425918
vn 0.053791 -0.226641 0.972492
vn 0.243955 -0.245974 0.938074
vn 0.243955 -0.245974 0.938074
vn 0.243955 -0.245974 0.938074
vn 0.243955 -0.245974 0.938074
vn 0.424917 -0.256030 0.868271
vn 0.495177 -0.788832 0.364066
vn 0.487317 -0.765288 0.420543
vn 0.487317 -0.765288 0.420543
vn 0.487317 -0.765288 0.420543
vn 0.487317 -0.765288 0.420543
vn 0.477602 -0.738831 0.475420
vn -0.916893 0.344668 0.201275
vn -0.913206 0.352161 0.205029
vn -0.913206 0.352161 0.205029
vn -0.913206 0.352161 0.205029
vn -0.913206 0.352161 0.205029
vn -0.909443 0.359624 0.208767
vn -0.676427 0.051951 0.734675
vn -0.787339 -0.174483 0.591315
vn -0.787339 -0.174483 0.591315
vn -0.787339 -0.174483 0.591315
vn -0.787339 -0.174483 0.591315
vn -0.832015 -0.386238 0.398211
vn -0.059809 -0.700649 0.710995
vn 0.071045 -0.656905 0.750619
vn 0.071045 -0.656905 0.750619
vn 0.071045 -0.656905 0.750619
vn 0.071045 -0.656905 0.750619
vn 0.200435 -0.599625 0.774775
vn 0.572234 -0.460068 0.678886
vn 0.545627 -0.580987 0.603941
vn 0.545627 -0.580987 0.603941
vn 0.545627 -0.580987 0.603941
vn 0.545627 -0.580987 0.603941
vn 0.507591 -0.689737 0.516347
vn 0.769150 -0.480092 0.421806
vn 0.788308 -0.401262 0.466433
vn 0.788308 -0.401262 0.466433
vn 0.788308 -0.401262 0.466433
vn 0.788308 -0.401262 0.466433
vn 0.800708 -0.318992 0.507061
vn 0.953833 -0.223721 0.200380
vn 0.954215 -0.224114 0.198107
vn 0.954215 -0.224114 0.198107
vn 0.954215 -0.224114 0.198107
vn 0.954215 -0.224114 0.198107
vn 0.954593 -0.224505 0.195832
vn 0.992986 0.056033 0.104111
vn 0.994554 0.035195 0.098105
vn 0.994554 0.035195 0.098105
vn 0.994554 0.035195 0.098105
vn 0.994554 0.035195 0.098105
vn 0.995651 0.014339 0.092052
vn 0.756971 0.610109 -0.234013
vn 0.680413 0.725007 -0.106788
vn 0.680413 0.725007 -0.106788
vn 0.680413 0.725007 -0.106788
vn 0.680413 0.725007 -0.106788
vn 0.579870 0.814350 0.024201
vn -0.767147 0.638100 -0.065684
vn -0.846795 0.516527 0.127034
vn -0.846795 0.516527 0.127034
vn -0.846795 0.516527 0.127034
vn -0.846795 0.516527 0.127034
vn -0.877106 0.364859 0.312351
vn -0.925264 0.291078 0.243228
vn -0.929840 0.340278 0.140033
vn -0.929840 0.340278 0.140033
vn -0.929840 0.340278 0.140033
vn -0.929840 0.340278 0.140033
vn -0.922243 0.385023 0.035004
vn -0.086818 0.352622 0.931730
vn -0.136707 0.327588 0.934878
vn -0.136707 0.327588 0.934878
vn -0.136707 0.327588 0.934878
vn -0.136707 0.327588 0.934878
vn -0.186170 0.301530 0.935105
vn 0.068320 0.814149 0.576623
vn 0.075859 0.816097 0.572914
vn 0.075859 0.816097 0.572914
vn 0.075859 0.816097 0.572914
vn 0.075859 0.816097 0.572914
vn 0.083391 0.817984 0.569164
vn 0.177907 0.980792 0.079976
vn 0.143564 0.989266 0.027259
vn 0.143564 0.989266 0.027259
vn 0.143564 0.989266 0.027259
vn 0.143564 0.989266 0.027259
vn 0.108643 0.993752 -0.025567
vn 0.407036 0.587406 -0.699483
vn 0.293883 0.786156 -0.543683
vn 0.293883 0.786156 -0.543683
vn 0.293883 0.786156 -0.543683
vn 0.293883 0.786156 -0.543683
vn 0.158224 0.924704 -0.346249
vn -0.321373 0.252193 -0.912753
vn -0.050839 0.325163 -0.944290
vn -0.050839 0.325163 -0.944290
vn -0.050839 0.325163 -0.944290
vn -0.050839 0.325163 -0.944290
vn 0.223738 0.372280 -0.900749
vn -0.448829 -0.274391 -0.850448
vn -0.495071 -0.284887 -0.820819
vn -0.495071 -0.284887 -0.820819
vn -0.495071 -0.284887 -0.820819
vn -0.495071 -0.284887 -0.820819
vn -0.539765 -0.294492 -0.788624
vn -0.317070 -0.802344 -0.505678
vn -0.310121 -0.802566 -0.509620
vn -0.310121 -0.802566 -0.509620
vn -0.310121 -0.802566 -0.509620
vn -0.310121 -0.802566 -0.509620
vn -0.303153 -0.802736 -0.513530
vn -0.204889 -0.727556 -0.654739
vn -0.233387 -0.710694 -0.663660
vn -0.233387 -0.710694 -0.663660
vn -0.233387 -0.710694 -0.663660
vn -0.233387 -0.710694 -0.663660
vn -0.261611 -0.692997 -0.671800
vn -0.401335 -0.780931 0.478620
vn -0.204729 -0.888092 0.411556
vn -0.204729 -0.888092 0.411556
vn -0.204729 -0.888092 0.411556
vn -0.204729 -0.888092 0.411556
vn 0.003063 -0.946733 0.322006
vn -0.160406 -0.448926 0.879054
vn -0.236631 -0.441678 0.865405
vn -0.236631 -0.441678 0.865405
vn -0.236631 -0.441678 0.865405
vn -0.236631 -0.441678 0.865405
vn -0.311425 -0.431758 0.846522
vn -0.176721 -0.119991 0.976920
vn -0.144606 -0.140633 0.979445
vn -0.144606 -0.140633 0.979445
vn -0.144606 -0.140633 0.979445
vn -0.144606 -0.140633 0.979445
vn -0.112280 -0.161070 0.980535
vn -0.134303 0.242648 0.960773
vn -0.167781 0.226408 0.959473
vn -0.167781 0.226408 0.959473
vn -0.167781 0.226408 0.959473
vn -0.167781 0.226408 0.959473
vn -0.201027 0.209855 0.956843
s off
g rightFrontLeg
usemtl initialShadingGroup
f 3/1/1 32/2/2 1/3/3
f 1/3/4 32/2/5 31/4/6
f 12/5/7 35/6/8 28/7/9
f 28/7/10 35/6/11 34/8/12
f 7/9/13 37/10/14 5/11/15
f 5/11/16 37/10/17 36/12/18
f 17/13/19 24/14/20 39/15/21
f 39/15/22 24/14/23 40/16/24
f 6/17/25 8/18/26 30/19/27
f 30/19/28 8/18/29 21/20/30
f 5/11/31 27/21/32 7/9/33
f 7/9/34 27/21/35 26/22/36
f 3/1/37 9/23/38 32/2/39
f 32/2/40 9/23/41 33/24/42
f 29/25/43 11/26/44 30/19/45
f 30/19/46 11/26/47 6/17/48
f 36/12/49 35/6/50 5/11/51
f 5/11/52 35/6/53 12/5/54
f 12/5/55 28/7/56 5/11/57
f 5/11/58 28/7/59 27/21/60
f 13/27/61 38/28/62 7/9/63
f 7/9/64 38/28/65 37/10/66
f 8/18/67 14/29/68 21/20/69
f 21/20/70 14/29/71 22/30/72
f 42/31/73 16/32/74 31/4/75
f 31/4/76 16/32/77 1/3/78
f 25/33/79 13/27/80 26/22/81
f 26/22/82 13/27/83 7/9/84
f 13/27/85 17/13/86 38/28/87
f 38/28/88 17/13/89 39/15/90
f 18/34/91 23/35/92 14/29/93
f 14/29/94 23/35/95 22/30/96
f 41/36/97 20/37/98 42/31/99
f 42/31/100 20/37/101 16/32/102
f 24/14/103 17/13/104 25/33/105
f 25/33/106 17/13/107 13/27/108
f 22/30/109 15/38/110 21/20/111
f 21/20/112 15/38/113 2/39/114
f 23/35/115 19/40/116 22/30/117
f 22/30/118 19/40/119 15/38/120
f 20/37/121 41/36/122 24/14/123
f 24/14/124 41/36/125 40/16/126
f 16/32/127 20/37/128 25/41/129
f 25/41/130 20/37/131 24/14/132
f 1/3/133 16/32/134 26/42/135
f 26/42/136 16/32/137 25/41/138
f 27/43/139 3/1/140 26/42/141
f 26/42/142 3/1/143 1/3/144
f 9/23/145 3/1/146 28/44/147
f 28/44/148 3/1/149 27/43/150
f 28/44/151 34/8/152 9/23/153
f 9/23/154 34/8/155 33/24/156
f 4/45/157 10/46/158 30/19/159
f 30/19/160 10/46/161 29/25/162
f 2/39/163 4/45/164 21/20/165
f 21/20/166 4/45/167 30/19/168
f 32/2/169 4/45/170 31/4/171
f 31/4/172 4/45/173 2/39/174
f 33/24/175 10/46/176 32/2/177
f 32/2/178 10/46/179 4/45/180
f 29/25/181 10/46/182 34/8/183
f 34/8/184 10/46/185 33/24/186
f 35/6/187 11/26/188 34/8/189
f 34/8/190 11/26/191 29/25/192
f 6/17/193 11/26/194 36/12/195
f 36/12/196 11/26/197 35/6/198
f 8/18/199 6/17/200 37/10/201
f 37/10/202 6/17/203 36/12/204
f 14/29/205 8/18/206 38/28/207
f 38/28/208 8/18/209 37/10/210
f 39/15/211 18/34/212 38/28/213
f 38/28/214 18/34/215 14/29/216
f 23/35/217 18/34/218 40/16/219
f 40/16/220 18/34/221 39/15/222
f 41/36/223 19/40/224 40/16/225
f 40/16/226 19/40/227 23/35/228
f 15/38/229 19/40/230 42/31/231
f 42/31/232 19/40/233 41/36/234
f 15/38/235 42/31/236 2/39/237
f 2/39/238 42/31/239 31/4/240
