# This file uses centimeters as units for non-parametric coordinates.

mtllib BlastoiseLeftArm.mtl
g default
v 2.173013 3.059973 1.756227
v 2.093829 2.850768 2.095802
v 2.281191 2.726448 2.091799
v 2.425429 2.919360 1.681216
v 1.920179 3.071087 1.789693
v 1.906461 2.864999 2.063561
v 1.791019 2.814767 1.756675
v 1.821090 2.685513 1.982729
v 1.835354 2.555498 1.722973
v 1.846479 2.506027 1.901898
v 2.086334 2.418809 1.649610
v 2.032397 2.378886 1.896575
v 2.337699 2.401980 1.614703
v 2.218313 2.366016 1.928874
v 2.455162 2.659416 1.647668
v 2.292588 2.546230 2.010336
v 2.012748 2.555965 2.123452
v 2.086334 2.418809 1.649610
v 1.823554 2.785968 0.865636
v 2.065517 2.890044 0.667416
v 2.337699 2.401980 1.614703
v 1.588120 3.080669 1.458699
v 1.397684 3.330262 1.344387
v 1.661142 2.788555 1.183350
v 2.334284 3.109012 0.838422
v 2.028982 3.565353 0.691313
v 2.121347 3.721556 0.981469
v 2.399822 3.245047 1.121249
v 2.144117 3.415486 1.418449
v 1.941687 3.720884 1.351527
v 1.637986 3.597600 1.437628
v 1.815145 3.424612 1.618614
v 2.173013 3.059973 1.756227
v 2.144117 3.415486 1.418449
v 1.815145 3.424612 1.618614
v 1.920179 3.071087 1.789693
v 2.334284 3.109012 0.838422
v 2.455162 2.659416 1.647668
v 1.835354 2.555498 1.722973
v 1.661142 2.788555 1.183350
v 1.791019 2.814767 1.756675
v 1.588120 3.080669 1.458699
v 2.399822 3.245047 1.121249
v 2.425429 2.919360 1.681216
v 1.536972 3.783662 0.916171
v 1.788042 3.301740 0.447324
v 1.937024 2.451178 2.324859
v 2.190927 2.511703 1.963418
v 2.279482 2.731885 2.073351
v 2.025132 2.776983 2.035028
v 1.797357 2.654315 2.266872
v 1.916475 2.847481 2.060009
v 2.040343 2.657132 2.009748
v 2.061639 2.795143 2.070834
v 2.049095 2.251513 2.158143
v 2.237097 2.514400 1.995056
v 2.095654 2.568627 1.985853
v 2.212070 2.374505 1.932340
vt 0.358725 0.934199
vt 0.335777 0.948155
vt 0.329382 0.940989
vt 0.340708 0.913854
vt 0.361276 0.958096
vt 0.337045 0.956684
vt 0.341010 0.979966
vt 0.329217 0.962977
vt 0.312707 0.977975
vt 0.319309 0.962988
vt 0.292530 0.955135
vt 0.312305 0.954450
vt 0.295315 0.929086
vt 0.312474 0.945664
vt 0.317069 0.913854
vt 0.320650 0.940755
vt 0.324380 0.952362
vt 0.308143 0.855884
vt 0.285712 0.807712
vt 0.315238 0.790557
vt 0.312844 0.854014
vt 0.381749 0.918925
vt 0.402554 0.906397
vt 0.385417 0.948355
vt 0.374464 0.810482
vt 0.401981 0.832846
vt 0.390362 0.847259
vt 0.361348 0.828647
vt 0.361348 0.860626
vt 0.384721 0.866719
vt 0.390726 0.884389
vt 0.369935 0.889044
vt 0.319717 0.875258
vt 0.354595 0.892162
vt 0.314265 0.913782
vt 0.308982 0.879746
vt 0.353289 0.811300
vt 0.318195 0.857500
vt 0.303958 0.861279
vt 0.271954 0.838831
vt 0.301680 0.869399
vt 0.271954 0.884606
vt 0.361276 0.841771
vt 0.323646 0.864218
vt 0.421612 0.864793
vt 0.423122 0.815278
vt 0.393589 0.790557
vt 0.446610 0.810448
vt 0.460823 0.790557
vt 0.460823 0.830195
vt 0.423195 0.817693
vt 0.426676 0.845882
vt 0.423195 0.863596
vt 0.423195 0.830268
vt 0.444065 0.845176
vt 0.379268 0.965862
vt 0.380194 0.948428
vt 0.394610 0.969385
vt 0.361348 0.969385
vn 0.507455 0.687386 0.519606
vn 0.507455 0.687386 0.519606
vn 0.507455 0.687386 0.519606
vn 0.507455 0.687386 0.519606
vn 0.048993 0.823631 0.565007
vn 0.048993 0.823631 0.565007
vn 0.048993 0.823631 0.565007
vn 0.048993 0.823631 0.565007
vn -0.889191 0.365983 0.274584
vn -0.889191 0.365983 0.274584
vn -0.889191 0.365983 0.274584
vn -0.889191 0.365983 0.274584
vn -0.986066 -0.163991 0.027934
vn -0.986066 -0.163991 0.027934
vn -0.986066 -0.163991 0.027934
vn -0.986066 -0.163991 0.027934
vn -0.533049 -0.815676 -0.224794
vn -0.533049 -0.815676 -0.224794
vn -0.533049 -0.815676 -0.224794
vn -0.533049 -0.815676 -0.224794
vn -0.067866 -0.985696 -0.154267
vn -0.067866 -0.985696 -0.154267
vn -0.067866 -0.985696 -0.154267
vn -0.067866 -0.985696 -0.154267
vn 0.930637 -0.008630 0.365843
vn 0.930636 -0.008630 0.365843
vn 0.930637 -0.008630 0.365843
vn 0.930636 -0.008630 0.365843
vn -0.616824 -0.060051 0.784807
vn -0.616824 -0.060051 0.784807
vn -0.616824 -0.060051 0.784807
vn -0.158044 0.135207 0.978132
vn -0.158044 0.135207 0.978132
vn -0.158044 0.135207 0.978132
vn 0.070328 0.073959 0.994778
vn 0.070328 0.073959 0.994778
vn 0.070328 0.073959 0.994778
vn -0.699643 -0.373321 0.609205
vn -0.699643 -0.373321 0.609205
vn -0.699643 -0.373321 0.609205
vn -0.473368 -0.713811 0.516137
vn -0.473368 -0.713811 0.516137
vn -0.473368 -0.713811 0.516137
vn -0.158394 -0.784964 0.598952
vn -0.158394 -0.784964 0.598952
vn -0.158394 -0.784964 0.598952
vn 0.310793 -0.494899 0.811469
vn 0.310793 -0.494899 0.811469
vn 0.310793 -0.494899 0.811469
vn 0.337069 -0.370012 0.865723
vn 0.337069 -0.370012 0.865723
vn 0.337069 -0.370012 0.865723
vn 0.857779 -0.443666 0.259569
vn 0.857779 -0.443666 0.259569
vn 0.857779 -0.443666 0.259569
vn 0.857779 -0.443666 0.259569
vn -0.044491 -0.901076 -0.431373
vn -0.044491 -0.901076 -0.431373
vn -0.044491 -0.901076 -0.431373
vn -0.044491 -0.901076 -0.431373
vn -0.819655 -0.487886 0.300221
vn -0.819655 -0.487886 0.300221
vn -0.819655 -0.487886 0.300221
vn 0.821150 0.384043 -0.422166
vn 0.821150 0.384043 -0.422166
vn 0.821150 0.384043 -0.422166
vn 0.821150 0.384043 -0.422166
vn 0.241725 0.590732 0.769808
vn 0.241725 0.590732 0.769808
vn 0.241725 0.590732 0.769808
vn 0.241725 0.590732 0.769808
vn 0.318047 0.591703 0.740766
vn 0.318048 0.591703 0.740766
vn 0.318048 0.591703 0.740766
vn 0.318047 0.591703 0.740766
vn 0.784654 -0.456603 -0.419323
vn 0.784654 -0.456603 -0.419323
vn 0.784654 -0.456603 -0.419323
vn 0.784654 -0.456603 -0.419323
vn 0.753679 0.556136 0.350257
vn 0.753679 0.556136 0.350257
vn 0.753679 0.556136 0.350257
vn 0.753679 0.556136 0.350257
vn -0.491737 -0.842564 -0.219730
vn -0.491737 -0.842564 -0.219730
vn -0.491737 -0.842564 -0.219730
vn -0.491737 -0.842564 -0.219730
vn -0.920410 -0.320993 0.223179
vn -0.920410 -0.320993 0.223179
vn -0.920410 -0.320993 0.223179
vn -0.920410 -0.320993 0.223179
vn -0.560681 0.087649 0.823380
vn -0.560681 0.087649 0.823380
vn -0.560681 0.087649 0.823380
vn -0.560681 0.087649 0.823380
vn -0.691028 0.185497 0.698621
vn -0.691028 0.185497 0.698621
vn -0.691028 0.185497 0.698621
vn -0.691028 0.185497 0.698621
vn 0.994116 -0.003385 -0.108271
vn 0.994116 -0.003385 -0.108271
vn 0.994116 -0.003385 -0.108271
vn 0.994116 -0.003385 -0.108271
vn 0.099984 0.993715 0.050345
vn 0.099984 0.993715 0.050345
vn 0.099984 0.993715 0.050345
vn -0.258015 0.893050 0.368632
vn -0.258015 0.893050 0.368632
vn -0.258015 0.893050 0.368632
vn -0.754662 0.557924 0.345262
vn -0.754662 0.557924 0.345262
vn -0.754662 0.557924 0.345262
vn 0.677069 0.605466 0.418316
vn 0.677069 0.605466 0.418316
vn 0.677069 0.605466 0.418316
vn 0.677069 0.605466 0.418316
vn 0.146808 0.850716 -0.504708
vn 0.146808 0.850716 -0.504708
vn 0.146808 0.850716 -0.504708
vn -0.023828 0.690713 -0.722736
vn -0.023828 0.690713 -0.722736
vn -0.023828 0.690713 -0.722736
vn 0.595118 0.060554 -0.801354
vn 0.595118 0.060554 -0.801354
vn 0.595118 0.060554 -0.801354
vn 0.595118 0.060554 -0.801354
vn 0.739964 -0.514150 0.433709
vn 0.739964 -0.514150 0.433709
vn 0.739964 -0.514150 0.433709
vn -0.751684 -0.313097 -0.580467
vn -0.751684 -0.313097 -0.580467
vn -0.751684 -0.313097 -0.580467
vn 0.005039 0.663885 0.747818
vn 0.005039 0.663885 0.747818
vn 0.005039 0.663885 0.747818
vn -0.696497 -0.278637 -0.661252
vn -0.696496 -0.278637 -0.661252
vn -0.696496 -0.278637 -0.661252
vn 0.184911 0.662917 0.725499
vn 0.184911 0.662917 0.725499
vn 0.184911 0.662917 0.725499
vn 0.673283 -0.383652 0.632061
vn 0.673283 -0.383652 0.632061
vn 0.673283 -0.383652 0.632061
vn 0.119280 0.460411 0.879656
vn 0.119280 0.460411 0.879656
vn 0.119280 0.460411 0.879656
vn 0.840696 -0.339520 0.421849
vn 0.840696 -0.339520 0.421849
vn 0.840696 -0.339520 0.421849
vn -0.715693 -0.249364 -0.652381
vn -0.715693 -0.249364 -0.652381
vn -0.715693 -0.249364 -0.652381
s off
g polySurface25
usemtl Material_002
f 1/1/1 2/2/2 3/3/3 4/4/4
f 5/5/5 6/6/6 2/2/7 1/1/8
f 7/7/9 8/8/10 6/6/11 5/5/12
f 9/9/13 10/10/14 8/8/15 7/7/16
f 11/11/17 12/12/18 10/10/19 9/9/20
f 13/13/21 14/14/22 12/12/23 11/11/24
f 15/15/25 4/4/26 3/3/27 16/16/28
f 17/17/29 6/6/30 8/8/31
f 17/17/32 2/2/33 6/6/34
f 3/3/35 2/2/36 17/17/37
f 10/10/38 17/17/39 8/8/40
f 10/10/41 12/12/42 17/17/43
f 14/14/44 17/17/45 12/12/46
f 14/14/47 16/16/48 17/17/49
f 17/17/50 16/16/51 3/3/52
f 16/16/53 14/14/54 13/13/55 15/15/56
f 18/18/57 19/19/58 20/20/59 21/21/60
f 22/22/61 23/23/62 24/24/63
f 25/25/64 26/26/65 27/27/66 28/28/67
f 29/29/68 30/30/69 31/31/70 32/32/71
f 33/33/72 34/34/73 35/35/74 36/36/75
f 21/21/76 20/20/77 37/37/78 38/38/79
f 28/28/80 27/27/81 30/30/82 29/29/83
f 19/19/84 18/18/85 39/39/86 40/40/87
f 41/41/88 42/42/89 40/40/90 39/39/91
f 32/32/92 31/31/93 23/23/94 22/22/95
f 36/36/96 35/35/97 42/42/98 41/41/99
f 37/37/100 43/43/101 44/44/102 38/38/103
f 45/45/104 30/30/105 27/27/106
f 31/31/107 30/30/108 45/45/109
f 45/45/110 23/23/111 31/31/112
f 44/44/113 43/43/114 34/34/115 33/33/116
f 26/26/117 45/45/118 27/27/119
f 26/26/120 46/46/121 45/45/122
f 25/25/123 20/47/124 46/46/125 26/26/126
f 47/48/127 48/49/128 49/50/129
f 47/48/130 50/51/131 48/49/132
f 49/50/133 50/51/134 47/48/135
f 51/52/136 52/53/137 53/54/138
f 51/52/139 54/55/140 52/53/141
f 53/54/142 54/55/143 51/52/144
f 55/56/145 56/57/146 57/58/147
f 55/56/148 58/59/149 56/57/150
f 57/58/151 58/59/152 55/56/153
