# This file uses centimeters as units for non-parametric coordinates.

mtllib BlastoiseLeftLegCon.mtl
g default
v 1.214721 0.013840 -0.370040
v 0.932559 0.007140 -0.042710
v 0.855802 0.254205 -0.162048
v 1.131488 0.261568 -0.528675
v 1.763421 0.691958 0.844790
v 1.422280 0.679182 0.902096
v 1.438696 0.256141 0.627605
v 1.668099 0.262257 0.557346
v 2.026980 0.684316 0.635723
v 1.994967 1.204974 0.582485
v 1.762189 1.202137 0.825011
v 0.839104 0.246843 0.276604
v 0.759319 0.687250 0.416233
v 0.860582 0.717241 -0.018125
v 1.579248 0.268934 -0.499421
v 1.944032 0.276296 -0.209432
v 1.950794 0.027226 -0.173565
v 1.678107 0.020530 -0.361169
v 1.213314 0.745751 -0.393686
v 1.636239 1.135781 -0.558453
v 1.969519 1.161698 -0.255921
v 2.096138 0.712738 -0.187112
v 1.696745 0.728842 -0.427608
v 1.213314 0.745751 -0.393686
v 1.131488 0.261568 -0.528675
v 1.214721 0.013840 -0.370040
v 0.946322 0.000447 0.356647
v 1.337817 1.555609 -0.556158
v 0.736234 1.133287 -0.098205
v 0.731996 1.153350 0.395311
v 1.340518 1.581622 0.557346
v 1.021865 0.667481 0.741659
v 1.008881 1.178340 0.728109
v 1.037174 0.037185 0.401206
v 1.415420 0.009146 0.494598
v 1.955643 0.210461 0.753022
v 1.779513 0.264550 0.494380
v 1.251838 0.253815 0.590266
v 0.946322 0.000447 0.356647
v 1.239895 0.047945 0.899104
v 1.837695 0.018186 0.184510
v 1.897503 0.268373 0.383676
v 1.019783 0.044377 -0.745145
v 1.067312 0.011250 -0.710722
v 1.011492 0.010593 -0.759127
v 1.423755 0.012881 -0.363225
v 1.087713 0.191125 -0.613713
v 1.423755 0.012881 -0.363225
v 1.083282 0.007140 -0.206705
v 1.083282 0.007140 -0.206705
v 2.160722 0.679512 0.197656
v 2.016961 0.272331 0.074422
v 2.056107 1.181322 0.152603
v 1.017705 0.009925 -0.686759
v 2.066387 0.057838 0.923600
v 2.006128 0.025435 0.934677
v 2.097473 0.027763 0.966944
v 1.950794 0.027226 -0.173565
v 2.246169 0.023271 0.070732
v 2.299675 0.022706 0.115485
v 2.232031 0.022141 0.129987
v 1.415420 0.009146 0.494598
v 0.932559 0.007140 -0.042710
v 1.214721 0.013840 -0.370040
v 1.678107 0.020530 -0.361169
v 1.629854 1.553054 -0.336291
v 1.616534 1.609444 -0.086091
v 1.616634 1.584665 0.319974
v 1.514560 1.583147 0.527295
v 1.401320 1.200183 0.894972
v 1.100457 1.113223 -0.591721
v 1.277026 0.001660 0.885503
v 1.236708 -0.000088 0.930352
v 2.090519 0.027691 0.880254
v 1.189070 0.000011 0.859643
v 1.189070 0.000011 0.859643
v 1.236708 -0.000088 0.930352
v 2.253425 0.079028 0.105314
vt 0.782597 0.732775
vt 0.814688 0.719344
vt 0.818964 0.740906
vt 0.787352 0.757408
vt 0.633951 0.831856
vt 0.631812 0.853626
vt 0.589657 0.849944
vt 0.587384 0.827131
vt 0.635971 0.810322
vt 0.667564 0.814644
vt 0.663417 0.833671
vt 0.847340 0.722450
vt 0.875706 0.746837
vt 0.846125 0.767076
vt 0.761756 0.868021
vt 0.765624 0.903140
vt 0.746407 0.907076
vt 0.743343 0.881461
vt 0.811524 0.791357
vt 0.828500 0.863618
vt 0.834252 0.895684
vt 0.800797 0.910099
vt 0.798266 0.873525
vt 0.794832 0.834961
vt 0.754616 0.834603
vt 0.733681 0.846715
vt 0.840855 0.700982
vt 0.851870 0.845708
vt 0.861358 0.795140
vt 0.893692 0.779166
vt 0.927660 0.834195
vt 0.628997 0.916253
vt 0.628804 0.881894
vt 0.663839 0.881636
vt 0.670107 0.914549
vt 0.586575 0.916253
vt 0.588983 0.886209
vt 0.566453 0.851594
vt 0.559006 0.809588
vt 0.588268 0.810127
vt 0.537912 0.778156
vt 0.535737 0.809799
vt 0.535185 0.809757
vt 0.512774 0.773614
vt 0.579413 0.762916
vt 0.594389 0.790761
vt 0.752901 0.947948
vt 0.752471 0.949991
vt 0.752482 0.948192
vt 0.770035 0.977629
vt 0.761508 0.943728
vt 0.770700 0.977635
vt 0.770700 0.939502
vt 0.738004 0.910761
vt 0.738510 0.910194
vt 0.653254 0.752543
vt 0.642260 0.779974
vt 0.611641 0.762300
vt 0.617313 0.740670
vt 0.691510 0.760810
vt 0.677243 0.789034
vt 0.749517 0.946808
vt 0.547285 0.808639
vt 0.541086 0.812826
vt 0.548115 0.807477
vt 0.862411 0.866467
vt 0.733585 0.774547
vt 0.727857 0.795453
vt 0.709366 0.825008
vt 0.701902 0.843391
vt 0.662850 0.854688
vt 0.700940 0.858961
vt 0.827789 0.824009
vt 0.513239 0.769488
vt 0.509448 0.770947
vt 0.538184 0.756800
vt 0.537929 0.756236
vt 0.509340 0.770949
vt 0.509322 0.764789
vt 0.549516 0.806873
vt 0.737402 0.911197
vt 0.770796 0.960672
vt 0.770796 0.910194
vt 0.771677 0.960672
vt 0.926975 0.836237
vt 0.926218 0.835044
vt 0.926218 0.835181
vt 0.600011 0.739454
vt 0.600034 0.739152
vt 0.600173 0.752788
vt 0.598920 0.751099
vt 0.598805 0.751670
vt 0.597636 0.751874
vt 0.587339 0.866597
vt 0.564770 0.903240
vt 0.560078 0.858193
vt 0.589263 0.718903
vt 0.511825 0.778976
vt 0.508897 0.773985
vt 0.733681 0.981170
vt 0.882115 0.863717
vn -0.661330 -0.518404 -0.542126
vn -0.661330 -0.518404 -0.542126
vn -0.661330 -0.518404 -0.542126
vn -0.661330 -0.518404 -0.542126
vn -0.661330 -0.518404 -0.542126
vn -0.661330 -0.518404 -0.542126
vn 0.199309 -0.551998 0.809676
vn 0.199309 -0.551998 0.809676
vn 0.199309 -0.551998 0.809676
vn 0.199309 -0.551998 0.809676
vn 0.199309 -0.551998 0.809676
vn 0.199309 -0.551998 0.809676
vn 0.671533 0.073881 0.737282
vn 0.671533 0.073881 0.737282
vn 0.671533 0.073881 0.737282
vn 0.671533 0.073881 0.737282
vn 0.671533 0.073881 0.737282
vn 0.671533 0.073881 0.737282
vn -0.989988 -0.039674 -0.135464
vn -0.989988 -0.039674 -0.135464
vn -0.989988 -0.039674 -0.135464
vn -0.989988 -0.039674 -0.135464
vn -0.989988 -0.039674 -0.135464
vn -0.989988 -0.039674 -0.135464
vn 0.594917 -0.150074 -0.789653
vn 0.594917 -0.150074 -0.789653
vn 0.594917 -0.150074 -0.789653
vn 0.594917 -0.150074 -0.789653
vn 0.594917 -0.150074 -0.789653
vn 0.594917 -0.150074 -0.789653
vn -0.744827 0.250237 -0.618558
vn -0.744827 0.250237 -0.618558
vn -0.744827 0.250237 -0.618558
vn -0.744827 0.250237 -0.618558
vn -0.744827 0.250237 -0.618558
vn -0.744827 0.250237 -0.618558
vn 0.594971 -0.056939 -0.801728
vn 0.594971 -0.056939 -0.801728
vn 0.594971 -0.056939 -0.801728
vn 0.594971 -0.056939 -0.801728
vn 0.594971 -0.056939 -0.801728
vn 0.594971 -0.056939 -0.801728
vn -0.002698 0.214518 -0.976716
vn -0.002698 0.214518 -0.976716
vn -0.002698 0.214518 -0.976716
vn -0.002698 0.214518 -0.976716
vn -0.002698 0.214518 -0.976716
vn -0.002698 0.214518 -0.976716
vn 0.043894 -0.501081 -0.864286
vn 0.043894 -0.501081 -0.864286
vn 0.043894 -0.501081 -0.864286
vn 0.043894 -0.501081 -0.864286
vn 0.043894 -0.501081 -0.864286
vn 0.043894 -0.501081 -0.864286
vn -0.935737 -0.352580 -0.009191
vn -0.935737 -0.352580 -0.009191
vn -0.935737 -0.352580 -0.009191
vn -0.935737 -0.352580 -0.009191
vn -0.935737 -0.352580 -0.009191
vn -0.935737 -0.352580 -0.009191
vn -0.578803 0.815116 -0.023924
vn -0.578803 0.815116 -0.023924
vn -0.578803 0.815116 -0.023924
vn -0.578803 0.815116 -0.023924
vn -0.578803 0.815116 -0.023924
vn -0.578803 0.815116 -0.023924
vn -0.773376 -0.009541 0.633876
vn -0.773376 -0.009541 0.633876
vn -0.773376 -0.009541 0.633876
vn -0.773376 -0.009541 0.633876
vn -0.773376 -0.009541 0.633876
vn -0.773376 -0.009541 0.633876
vn 0.567552 -0.084701 -0.818969
vn 0.567552 -0.084701 -0.818969
vn 0.567552 -0.084701 -0.818969
vn 0.567552 -0.084701 -0.818969
vn 0.567552 -0.084701 -0.818969
vn 0.567552 -0.084701 -0.818969
vn -0.738664 -0.329320 0.588153
vn -0.738664 -0.329320 0.588153
vn -0.738664 -0.329320 0.588153
vn -0.738664 -0.329320 0.588153
vn -0.738664 -0.329320 0.588153
vn -0.738664 -0.329320 0.588153
vn -0.500402 0.713769 0.490032
vn -0.500402 0.713770 0.490032
vn -0.500402 0.713770 0.490032
vn -0.742119 0.570606 0.351665
vn 0.000000 0.000000 0.000000
vn 0.000000 0.000000 0.000000
vn 0.000000 0.000000 0.000000
vn -0.742119 0.570606 0.351665
vn -0.742119 0.570606 0.351665
vn 0.560805 -0.593565 0.577216
vn 0.560805 -0.593565 0.577216
vn 0.560805 -0.593565 0.577216
vn 0.646640 0.150774 -0.747746
vn 0.646640 0.150774 -0.747746
vn 0.646640 0.150774 -0.747746
vn 0.675670 0.248024 -0.694229
vn 0.675670 0.248024 -0.694229
vn 0.675670 0.248024 -0.694229
vn 0.667408 0.301083 -0.681114
vn 0.667408 0.301083 -0.681114
vn 0.667408 0.301083 -0.681114
vn 0.000000 0.000000 0.000000
vn 0.000000 0.000000 0.000000
vn 0.672840 0.361237 -0.645596
vn 0.672840 0.361237 -0.645596
vn 0.672840 0.361237 -0.645596
vn 0.000000 0.000000 0.000000
vn -0.913230 0.374913 0.159535
vn 0.000000 0.000000 0.000000
vn 0.000000 0.000000 0.000000
vn 0.000000 0.000000 0.000000
vn -0.913230 0.374913 0.159535
vn -0.913230 0.374913 0.159535
vn 0.933630 -0.291506 -0.208231
vn 0.933630 -0.291506 -0.208231
vn 0.933630 -0.291506 -0.208231
vn 0.933630 -0.291506 -0.208231
vn 0.933630 -0.291506 -0.208231
vn 0.933630 -0.291506 -0.208231
vn 0.960626 0.212143 -0.179422
vn 0.960626 0.212143 -0.179422
vn 0.960626 0.212143 -0.179422
vn 0.960626 0.212143 -0.179422
vn 0.960626 0.212143 -0.179422
vn 0.960626 0.212143 -0.179422
vn -0.975240 0.203907 0.085609
vn -0.975240 0.203907 0.085609
vn -0.975240 0.203907 0.085609
vn -0.253668 0.699963 0.667611
vn -0.253668 0.699963 0.667611
vn -0.253668 0.699963 0.667611
vn -0.357521 0.818563 0.449593
vn -0.357521 0.818563 0.449593
vn -0.357521 0.818563 0.449593
vn -0.515923 0.444249 0.732438
vn -0.515923 0.444249 0.732439
vn -0.515923 0.444249 0.732439
vn 0.860020 -0.418550 0.291858
vn 0.860020 -0.418550 0.291858
vn 0.860020 -0.418550 0.291858
vn 0.860020 -0.418550 0.291858
vn 0.860020 -0.418550 0.291858
vn 0.860020 -0.418550 0.291858
vn 0.965789 0.149430 0.211951
vn 0.965789 0.149430 0.211951
vn 0.965789 0.149430 0.211951
vn 0.965789 0.149430 0.211951
vn 0.965789 0.149430 0.211951
vn 0.965789 0.149430 0.211951
vn 0.582003 0.389083 -0.714063
vn 0.582003 0.389083 -0.714063
vn 0.582003 0.389083 -0.714063
vn 0.582003 0.389083 -0.714063
vn 0.582003 0.389083 -0.714063
vn 0.582003 0.389083 -0.714063
vn 0.745538 0.647549 -0.157648
vn 0.745538 0.647549 -0.157648
vn 0.745538 0.647549 -0.157648
vn 0.745538 0.647549 -0.157648
vn 0.745538 0.647549 -0.157648
vn 0.745538 0.647549 -0.157648
vn 0.685776 0.726020 0.051054
vn 0.685776 0.726020 0.051054
vn 0.685776 0.726020 0.051054
vn 0.685776 0.726020 0.051054
vn 0.685776 0.726020 0.051054
vn 0.685776 0.726020 0.051054
vn 0.535971 0.740133 0.406125
vn 0.535971 0.740133 0.406125
vn 0.535971 0.740133 0.406125
vn 0.535971 0.740133 0.406125
vn 0.535971 0.740133 0.406125
vn 0.535971 0.740133 0.406125
vn -0.343217 0.591264 0.729801
vn -0.343217 0.591264 0.729801
vn -0.343217 0.591264 0.729801
vn 0.001574 -0.390595 -0.920561
vn 0.001574 -0.390595 -0.920561
vn 0.001574 -0.390595 -0.920561
vn 0.001574 -0.390595 -0.920561
vn 0.001574 -0.390595 -0.920561
vn 0.001574 -0.390595 -0.920561
vn 0.685374 0.364597 0.630343
vn 0.685374 0.364597 0.630343
vn 0.685374 0.364597 0.630343
vn 0.132963 0.665674 0.734302
vn 0.132963 0.665674 0.734302
vn 0.132963 0.665674 0.734302
vn 0.132963 0.665674 0.734302
vn 0.132963 0.665674 0.734302
vn 0.132963 0.665674 0.734302
vn -0.381786 0.005958 0.924232
vn -0.381786 0.005958 0.924232
vn -0.381786 0.005958 0.924232
vn -0.381786 0.005958 0.924232
vn -0.381786 0.005958 0.924232
vn -0.381786 0.005958 0.924232
vn 0.177705 0.029487 0.983642
vn 0.177705 0.029487 0.983642
vn 0.177705 0.029487 0.983642
vn 0.177705 0.029487 0.983642
vn 0.177705 0.029487 0.983642
vn 0.177705 0.029487 0.983642
vn 0.840275 0.435562 0.322838
vn 0.840275 0.435562 0.322838
vn 0.840275 0.435562 0.322838
vn 0.000000 0.000000 0.000000
vn 0.000000 0.000000 0.000000
vn 0.786410 0.545996 0.288873
vn 0.786410 0.545996 0.288873
vn 0.786410 0.545996 0.288873
vn 0.000000 0.000000 0.000000
vn 0.000000 0.000000 0.000000
vn 0.000000 0.000000 0.000000
vn 0.000000 0.000000 0.000000
vn 0.059887 0.048020 -0.997049
vn 0.059887 0.048020 -0.997050
vn 0.059887 0.048020 -0.997049
vn -0.976983 -0.180917 -0.113021
vn -0.976983 -0.180917 -0.113021
vn -0.976983 -0.180917 -0.113021
vn -0.976983 -0.180917 -0.113021
vn -0.976983 -0.180917 -0.113021
vn -0.976983 -0.180917 -0.113021
vn -0.592004 0.673962 0.441935
vn -0.592004 0.673962 0.441935
vn -0.592004 0.673962 0.441935
vn -0.718230 0.429378 -0.547522
vn -0.718230 0.429378 -0.547522
vn -0.718230 0.429378 -0.547522
vn 0.899339 0.322228 -0.295564
vn 0.899339 0.322228 -0.295564
vn 0.899339 0.322228 -0.295564
vn -0.580563 -0.783459 0.221672
vn -0.580563 -0.783459 0.221672
vn -0.580563 -0.783459 0.221672
vn -0.939421 0.316060 0.132645
vn -0.939421 0.316060 0.132645
vn 0.000000 0.000000 0.000000
vn 0.000000 0.000000 0.000000
vn 0.000000 0.000000 0.000000
vn -0.939421 0.316060 0.132645
vn 0.000000 0.000000 0.000000
vn -0.950878 0.280238 0.131519
vn -0.950878 0.280238 0.131519
vn -0.950878 0.280238 0.131519
vn 0.000000 0.000000 0.000000
vn 0.000000 0.000000 0.000000
vn 0.000000 0.000000 0.000000
vn 0.000000 0.000000 0.000000
vn 0.000000 0.000000 0.000000
vn 0.707372 0.611965 -0.353728
vn 0.707372 0.611965 -0.353728
vn 0.707372 0.611965 -0.353728
vn 0.322427 -0.518249 0.792123
vn 0.322427 -0.518249 0.792123
vn 0.322427 -0.518249 0.792123
vn 0.322427 -0.518249 0.792123
vn 0.322427 -0.518249 0.792123
vn 0.322427 -0.518249 0.792123
vn 0.735754 0.674623 -0.059580
vn 0.735754 0.674623 -0.059580
vn 0.735754 0.674623 -0.059580
vn 0.000000 0.000000 0.000000
vn 0.000000 0.000000 0.000000
vn 0.968467 -0.009557 -0.248957
vn 0.968467 -0.009557 -0.248957
vn 0.968467 -0.009557 -0.248957
vn 0.000000 0.000000 0.000000
vn 0.834308 -0.451398 0.316498
vn 0.834308 -0.451398 0.316498
vn 0.834308 -0.451398 0.316498
vn 0.133269 0.313289 0.940260
vn 0.133269 0.313289 0.940260
vn 0.133269 0.313289 0.940260
vn 0.522418 0.532653 -0.665853
vn 0.522418 0.532653 -0.665853
vn 0.522418 0.532653 -0.665853
vn 0.596075 0.365761 -0.714782
vn 0.596075 0.365761 -0.714782
vn 0.596075 0.365761 -0.714782
vn 0.599848 0.363898 -0.712573
vn 0.599848 0.363898 -0.712573
vn 0.599848 0.363898 -0.712573
vn 0.195453 0.327439 0.924436
vn 0.195453 0.327439 0.924436
vn 0.195453 0.327439 0.924436
vn 0.124546 0.355014 0.926528
vn 0.124546 0.355014 0.926528
vn 0.124546 0.355014 0.926528
vn 0.025184 -0.999675 0.003918
vn 0.025184 -0.999675 0.003918
vn 0.025184 -0.999675 0.003918
vn 0.025184 -0.999675 0.003918
vn 0.025184 -0.999675 0.003918
vn 0.025184 -0.999675 0.003918
vn -0.269629 -0.485548 0.831591
vn -0.269629 -0.485548 0.831591
vn -0.269629 -0.485548 0.831591
vn -0.269629 -0.485548 0.831591
vn -0.269629 -0.485548 0.831591
vn -0.269629 -0.485548 0.831591
vn -0.295371 -0.383752 0.874923
vn -0.295371 -0.383752 0.874923
vn -0.295371 -0.383752 0.874923
vn -0.295371 -0.383752 0.874923
vn -0.295371 -0.383752 0.874923
vn -0.295371 -0.383752 0.874923
vn 0.021968 -0.999692 -0.011543
vn 0.021968 -0.999692 -0.011543
vn 0.021968 -0.999692 -0.011543
vn 0.021968 -0.999692 -0.011543
vn 0.021968 -0.999692 -0.011543
vn 0.021968 -0.999692 -0.011543
vn 0.016355 -0.999797 -0.011813
vn 0.016355 -0.999797 -0.011813
vn 0.016355 -0.999797 -0.011813
vn 0.016355 -0.999797 -0.011813
vn 0.016355 -0.999796 -0.011813
vn 0.016355 -0.999797 -0.011813
vn 0.773262 -0.512319 -0.373624
vn 0.773262 -0.512319 -0.373624
vn 0.773262 -0.512319 -0.373624
vn 0.764724 -0.386263 -0.515750
vn 0.764724 -0.386263 -0.515750
vn 0.764724 -0.386263 -0.515750
vn -0.169054 -0.454905 0.874347
vn -0.169054 -0.454905 0.874347
vn -0.169054 -0.454905 0.874347
vn 0.513225 -0.544019 0.663810
vn 0.513225 -0.544019 0.663810
vn 0.513225 -0.544019 0.663810
vn 0.513225 -0.544019 0.663810
vn 0.513225 -0.544019 0.663810
vn 0.513225 -0.544019 0.663810
vn -0.698884 -0.417675 -0.580611
vn -0.698884 -0.417675 -0.580611
vn -0.698884 -0.417675 -0.580611
vn -0.698884 -0.417675 -0.580611
vn -0.698884 -0.417675 -0.580611
vn -0.698884 -0.417675 -0.580611
vn 0.014265 -0.999861 -0.008646
vn 0.014265 -0.999861 -0.008646
vn 0.014265 -0.999861 -0.008646
vn 0.014265 -0.999861 -0.008646
vn 0.014265 -0.999861 -0.008646
vn 0.014265 -0.999861 -0.008646
vn -0.057031 0.997884 -0.031218
vn -0.057031 0.997884 -0.031218
vn -0.057031 0.997884 -0.031218
vn -0.057031 0.997884 -0.031218
vn -0.057031 0.997884 -0.031218
vn -0.057031 0.997884 -0.031218
f 1/1/1 2/2/2 3/3/3
f 3/3/4 4/4/5 1/1/6
f 5/5/7 6/6/8 7/7/9
f 7/7/10 8/8/11 5/5/12
f 9/9/13 10/10/14 11/11/15
f 11/11/16 5/5/17 9/9/18
f 3/3/19 12/12/20 13/13/21
f 13/13/22 14/14/23 3/3/24
f 15/15/25 16/16/26 17/17/27
f 17/17/28 18/18/29 15/15/30
f 4/4/31 3/3/32 14/14/33
f 14/14/34 19/19/35 4/4/36
f 20/20/37 21/21/38 22/22/39
f 22/22/40 23/23/41 20/20/42
f 24/24/43 23/23/44 15/15/45
f 15/15/46 25/25/47 24/24/48
f 25/25/49 15/15/50 18/18/51
f 18/18/52 26/26/53 25/25/54
f 2/2/55 27/27/56 12/12/57
f 12/12/58 3/3/59 2/2/60
f 28/28/61 29/29/62 30/30/63
f 30/30/64 31/31/65 28/28/66
f 13/32/67 32/33/68 33/34/69
f 33/34/70 30/35/71 13/32/72
f 23/23/73 22/22/74 16/16/75
f 16/16/76 15/15/77 23/23/78
f 12/36/79 34/37/80 32/33/81
f 32/33/82 13/32/83 12/36/84
f 35/38/85 36/39/86 37/40/87
f 38/41/88 39/42/89 27/43/90
f 27/43/91 40/44/92 38/41/93
f 37/40/94 41/45/95 42/46/96
f 43/47/97 44/48/98 45/49/99
f 43/47/100 46/50/101 44/48/102
f 47/51/103 46/50/104 43/47/105
f 48/52/106 46/50/107 47/51/108
f 47/51/109 4/53/110 48/52/111
f 47/51/112 49/54/113 50/55/114
f 50/55/115 4/53/116 47/51/117
f 22/56/118 51/57/119 52/58/120
f 52/58/121 16/59/122 22/56/123
f 21/60/124 53/61/125 51/57/126
f 51/57/127 22/56/128 21/60/129
f 54/62/130 43/47/131 45/49/132
f 55/63/133 56/64/134 57/65/135
f 55/63/136 35/38/137 56/64/138
f 36/39/139 35/38/140 55/63/141
f 52/58/142 51/57/143 9/9/144
f 9/9/145 42/46/146 52/58/147
f 10/10/148 9/9/149 51/57/150
f 51/57/151 53/61/152 10/10/153
f 28/28/154 66/66/155 21/21/156
f 21/21/157 20/20/158 28/28/159
f 53/61/160 21/60/161 66/67/162
f 66/67/163 67/68/164 53/61/165
f 68/69/166 10/10/167 53/61/168
f 53/61/169 67/68/170 68/69/171
f 68/69/172 69/70/173 11/11/174
f 11/11/175 10/10/176 68/69/177
f 70/71/178 31/72/179 33/34/180
f 71/73/181 20/20/182 23/23/183
f 23/23/184 24/24/185 71/73/186
f 72/74/187 40/44/188 73/75/189
f 11/11/190 69/70/191 31/72/192
f 31/72/193 70/71/194 11/11/195
f 6/6/196 70/71/197 33/34/198
f 33/34/199 32/33/200 6/6/201
f 5/5/202 11/11/203 70/71/204
f 70/71/205 6/6/206 5/5/207
f 40/44/208 35/76/209 38/41/210
f 62/77/211 35/76/212 40/44/213
f 40/44/214 72/74/215 62/77/216
f 77/78/217 73/75/218 76/79/219
f 20/20/220 71/73/221 28/28/222
f 30/30/223 29/29/224 14/14/225
f 14/14/226 13/13/227 30/30/228
f 33/34/229 31/72/230 30/35/231
f 71/73/232 29/29/233 28/28/234
f 36/39/235 55/63/236 41/45/237
f 41/45/238 74/80/239 55/63/240
f 47/51/241 43/47/242 50/81/243
f 50/81/244 49/54/245 47/51/246
f 50/82/247 43/47/248 54/83/249
f 54/83/250 49/84/251 50/82/252
f 54/85/253 49/86/254 50/87/255
f 37/40/256 36/39/257 41/45/258
f 7/7/259 35/38/260 37/40/261
f 37/40/262 8/8/263 7/7/264
f 57/65/265 74/80/266 55/63/267
f 58/88/268 17/89/269 16/59/270
f 16/59/271 52/58/272 58/88/273
f 41/45/274 52/58/275 42/46/276
f 78/90/277 52/58/278 41/45/279
f 52/58/280 78/90/281 58/88/282
f 58/88/283 78/90/284 59/91/285
f 59/91/286 78/90/287 60/92/288
f 78/90/289 61/93/290 60/92/291
f 78/90/292 41/45/293 61/93/294
f 56/64/295 62/77/296 41/45/297
f 41/45/298 74/80/299 56/64/300
f 32/33/301 34/37/302 38/94/303
f 38/94/304 7/7/305 32/33/306
f 12/36/307 39/95/308 35/96/309
f 35/96/310 38/94/311 12/36/312
f 62/77/313 72/74/314 73/75/315
f 73/75/316 76/79/317 62/77/318
f 65/97/319 58/88/320 59/91/321
f 59/91/322 60/92/323 65/97/324
f 75/98/325 27/43/326 40/44/327
f 75/98/328 40/44/329 77/99/330
f 35/38/331 7/7/332 38/94/333
f 42/46/334 9/9/335 5/5/336
f 5/5/337 8/8/338 42/46/339
f 19/19/340 14/14/341 29/29/342
f 29/29/343 71/73/344 19/19/345
f 44/48/346 46/50/347 50/100/348
f 50/100/349 54/62/350 44/48/351
f 67/101/352 66/66/353 28/28/354
f 28/28/355 31/31/356 67/101/357
