# This file uses centimeters as units for non-parametric coordinates.

mtllib BlastoiseRightArmCon.mtl
g default
v -1.936495 2.478715 1.600872
v -1.673715 2.845873 0.816898
v -1.915679 2.949949 0.618678
v -2.187860 2.461886 1.565964
v -1.438282 3.140575 1.409961
v -1.247845 3.390167 1.295649
v -1.511304 2.848460 1.134612
v -2.184446 3.168918 0.789684
v -1.879143 3.625258 0.642575
v -1.971509 3.781461 0.932731
v -2.249984 3.304953 1.072511
v -1.994279 3.475391 1.369711
v -1.791848 3.780789 1.302789
v -1.488148 3.657506 1.388890
v -1.665306 3.484517 1.569876
v -2.023175 3.119879 1.707489
v -1.994279 3.475391 1.369711
v -1.665306 3.484517 1.569876
v -1.770340 3.130993 1.740955
v -2.184446 3.168918 0.789684
v -2.305323 2.719321 1.598930
v -1.685516 2.615403 1.674235
v -1.511304 2.848460 1.134612
v -1.641181 2.874672 1.707937
v -1.438282 3.140575 1.409961
v -2.249984 3.304953 1.072511
v -2.275590 2.979265 1.632478
v -1.387133 3.843568 0.867433
v -1.638203 3.361645 0.398586
v -2.023175 3.119879 1.707489
v -1.943990 2.910673 2.047064
v -2.131353 2.786354 2.043061
v -2.275590 2.979265 1.632478
v -1.770340 3.130993 1.740955
v -1.756623 2.924905 2.014823
v -1.641181 2.874672 1.707937
v -1.671251 2.745419 1.933991
v -1.685516 2.615403 1.674235
v -1.696641 2.565932 1.853160
v -1.936495 2.478715 1.600872
v -1.882558 2.438792 1.847837
v -2.187860 2.461886 1.565964
v -2.068475 2.425922 1.880136
v -2.305323 2.719321 1.598930
v -2.142749 2.606136 1.961598
v -1.862909 2.615870 2.074713
v -1.647518 2.714220 2.218134
v -1.766636 2.907386 2.011271
v -1.890504 2.717038 1.961010
v -1.911800 2.855049 2.022096
v -1.787185 2.511084 2.276120
v -2.041089 2.571609 1.914680
v -2.129643 2.791791 2.024613
v -1.875293 2.836889 1.986290
v -1.899256 2.311419 2.109405
v -2.087258 2.574306 1.946318
v -1.945815 2.628533 1.937114
v -2.062231 2.434410 1.883602
vt 0.308463 0.856155
vt 0.286062 0.808048
vt 0.315548 0.790916
vt 0.313158 0.854287
vt 0.381971 0.919112
vt 0.402747 0.906600
vt 0.385634 0.948502
vt 0.374696 0.810814
vt 0.402175 0.833148
vt 0.390572 0.847542
vt 0.361597 0.828954
vt 0.361597 0.860891
vt 0.384939 0.866976
vt 0.390935 0.884621
vt 0.370172 0.889271
vt 0.320022 0.875503
vt 0.354853 0.892384
vt 0.314577 0.913975
vt 0.309302 0.879985
vt 0.353549 0.811631
vt 0.318502 0.857769
vt 0.304284 0.861543
vt 0.272323 0.839125
vt 0.302009 0.869652
vt 0.272323 0.884839
vt 0.361525 0.842061
vt 0.323945 0.864477
vt 0.421380 0.865452
vt 0.421889 0.816204
vt 0.393795 0.790916
vt 0.358978 0.934365
vt 0.336060 0.948302
vt 0.329673 0.941146
vt 0.340984 0.914048
vt 0.361525 0.958230
vt 0.337326 0.956820
vt 0.341286 0.980071
vt 0.329509 0.963104
vt 0.313021 0.978082
vt 0.319614 0.963115
vt 0.292871 0.955273
vt 0.312620 0.954589
vt 0.295652 0.929259
vt 0.312788 0.945815
vt 0.317378 0.914048
vt 0.320953 0.940912
vt 0.324678 0.952503
vt 0.427247 0.846081
vt 0.443760 0.845518
vt 0.422735 0.864072
vt 0.422761 0.830118
vt 0.445890 0.810687
vt 0.459611 0.791166
vt 0.423468 0.818070
vt 0.459681 0.830125
vt 0.379493 0.965986
vt 0.380418 0.948575
vt 0.394814 0.969504
vt 0.361597 0.969504
vn -0.044492 0.901076 0.431372
vn -0.044492 0.901076 0.431372
vn -0.044492 0.901076 0.431372
vn -0.044492 0.901076 0.431372
vn -0.044492 0.901076 0.431372
vn -0.044492 0.901076 0.431372
vn -0.819653 0.487888 -0.300225
vn -0.819653 0.487888 -0.300225
vn -0.819653 0.487888 -0.300225
vn 0.821149 -0.384043 0.422167
vn 0.821149 -0.384043 0.422167
vn 0.821149 -0.384043 0.422167
vn 0.821149 -0.384043 0.422167
vn 0.821149 -0.384043 0.422167
vn 0.821149 -0.384043 0.422167
vn 0.241726 -0.590732 -0.769808
vn 0.241726 -0.590732 -0.769808
vn 0.241726 -0.590732 -0.769808
vn 0.241726 -0.590732 -0.769808
vn 0.241726 -0.590732 -0.769808
vn 0.241726 -0.590732 -0.769808
vn 0.318046 -0.591704 -0.740766
vn 0.318046 -0.591704 -0.740766
vn 0.318046 -0.591704 -0.740766
vn 0.318046 -0.591704 -0.740766
vn 0.318046 -0.591704 -0.740766
vn 0.318046 -0.591704 -0.740766
vn 0.784655 0.456603 0.419322
vn 0.784655 0.456603 0.419322
vn 0.784655 0.456603 0.419322
vn 0.784655 0.456603 0.419322
vn 0.784655 0.456603 0.419322
vn 0.784655 0.456603 0.419322
vn 0.753678 -0.556137 -0.350258
vn 0.753678 -0.556137 -0.350258
vn 0.753678 -0.556137 -0.350258
vn 0.753678 -0.556137 -0.350258
vn 0.753678 -0.556137 -0.350258
vn 0.753678 -0.556137 -0.350258
vn -0.491738 0.842563 0.219730
vn -0.491738 0.842563 0.219730
vn -0.491738 0.842563 0.219730
vn -0.491738 0.842563 0.219730
vn -0.491738 0.842563 0.219730
vn -0.491738 0.842563 0.219730
vn -0.920410 0.320992 -0.223179
vn -0.920410 0.320992 -0.223179
vn -0.920410 0.320992 -0.223179
vn -0.920410 0.320992 -0.223179
vn -0.920410 0.320992 -0.223179
vn -0.920410 0.320992 -0.223179
vn -0.560681 -0.087648 -0.823380
vn -0.560681 -0.087648 -0.823380
vn -0.560681 -0.087648 -0.823380
vn -0.560681 -0.087648 -0.823380
vn -0.560681 -0.087648 -0.823380
vn -0.560681 -0.087648 -0.823380
vn -0.691029 -0.185495 -0.698620
vn -0.691029 -0.185495 -0.698620
vn -0.691029 -0.185495 -0.698620
vn -0.691029 -0.185495 -0.698620
vn -0.691029 -0.185495 -0.698620
vn -0.691029 -0.185495 -0.698620
vn 0.994116 0.003384 0.108270
vn 0.994116 0.003384 0.108270
vn 0.994116 0.003384 0.108270
vn 0.994116 0.003384 0.108270
vn 0.994116 0.003384 0.108270
vn 0.994116 0.003384 0.108270
vn 0.099985 -0.993714 -0.050347
vn 0.099985 -0.993714 -0.050347
vn 0.099985 -0.993714 -0.050347
vn -0.258012 -0.893051 -0.368633
vn -0.258012 -0.893051 -0.368633
vn -0.258012 -0.893051 -0.368633
vn -0.754662 -0.557923 -0.345264
vn -0.754662 -0.557923 -0.345264
vn -0.754662 -0.557923 -0.345264
vn 0.677070 -0.605465 -0.418316
vn 0.677070 -0.605465 -0.418316
vn 0.677070 -0.605465 -0.418316
vn 0.677070 -0.605465 -0.418316
vn 0.677070 -0.605465 -0.418316
vn 0.677070 -0.605465 -0.418316
vn 0.146809 -0.850715 0.504709
vn 0.146809 -0.850715 0.504709
vn 0.146809 -0.850715 0.504709
vn -0.023828 -0.690713 0.722737
vn -0.023828 -0.690713 0.722737
vn -0.023828 -0.690713 0.722737
vn 0.595117 -0.060555 0.801354
vn 0.595117 -0.060555 0.801354
vn 0.595117 -0.060555 0.801354
vn 0.595117 -0.060555 0.801354
vn 0.595117 -0.060555 0.801354
vn 0.595117 -0.060555 0.801354
vn 0.507455 -0.687386 -0.519605
vn 0.507455 -0.687386 -0.519605
vn 0.507455 -0.687386 -0.519605
vn 0.507455 -0.687386 -0.519605
vn 0.507455 -0.687386 -0.519605
vn 0.507455 -0.687386 -0.519605
vn 0.048995 -0.823630 -0.565008
vn 0.048995 -0.823630 -0.565008
vn 0.048995 -0.823630 -0.565008
vn 0.048995 -0.823630 -0.565008
vn 0.048995 -0.823630 -0.565008
vn 0.048995 -0.823630 -0.565008
vn -0.889191 -0.365983 -0.274583
vn -0.889191 -0.365983 -0.274583
vn -0.889191 -0.365983 -0.274583
vn -0.889191 -0.365983 -0.274583
vn -0.889191 -0.365983 -0.274583
vn -0.889191 -0.365983 -0.274583
vn -0.986066 0.163992 -0.027932
vn -0.986066 0.163992 -0.027932
vn -0.986066 0.163992 -0.027932
vn -0.986066 0.163992 -0.027932
vn -0.986066 0.163992 -0.027932
vn -0.986066 0.163992 -0.027932
vn -0.533048 0.815676 0.224794
vn -0.533048 0.815676 0.224794
vn -0.533048 0.815676 0.224794
vn -0.533048 0.815676 0.224794
vn -0.533048 0.815676 0.224794
vn -0.533048 0.815676 0.224794
vn -0.067866 0.985696 0.154266
vn -0.067866 0.985696 0.154266
vn -0.067866 0.985696 0.154266
vn -0.067866 0.985696 0.154266
vn -0.067866 0.985696 0.154266
vn -0.067866 0.985696 0.154266
vn 0.930637 0.008632 -0.365841
vn 0.930637 0.008632 -0.365841
vn 0.930637 0.008632 -0.365841
vn 0.930637 0.008632 -0.365841
vn 0.930637 0.008632 -0.365841
vn 0.930637 0.008632 -0.365841
vn -0.616821 0.060050 -0.784809
vn -0.616822 0.060050 -0.784809
vn -0.616822 0.060050 -0.784809
vn -0.158044 -0.135204 -0.978132
vn -0.158044 -0.135204 -0.978132
vn -0.158044 -0.135204 -0.978132
vn 0.070325 -0.073956 -0.994779
vn 0.070325 -0.073956 -0.994779
vn 0.070325 -0.073956 -0.994779
vn -0.699643 0.373321 -0.609205
vn -0.699643 0.373321 -0.609205
vn -0.699643 0.373321 -0.609205
vn -0.473365 0.713812 -0.516137
vn -0.473365 0.713812 -0.516137
vn -0.473365 0.713812 -0.516137
vn -0.158393 0.784964 -0.598952
vn -0.158393 0.784964 -0.598952
vn -0.158393 0.784964 -0.598952
vn 0.310793 0.494899 -0.811469
vn 0.310793 0.494899 -0.811469
vn 0.310793 0.494899 -0.811469
vn 0.337066 0.370013 -0.865723
vn 0.337066 0.370013 -0.865723
vn 0.337066 0.370013 -0.865723
vn 0.857780 0.443665 -0.259568
vn 0.857780 0.443665 -0.259568
vn 0.857780 0.443665 -0.259568
vn 0.857780 0.443665 -0.259568
vn 0.857780 0.443665 -0.259568
vn 0.857780 0.443665 -0.259568
vn -0.696497 0.278639 0.661251
vn -0.696497 0.278639 0.661251
vn -0.696497 0.278639 0.661251
vn 0.184908 -0.662919 -0.725498
vn 0.184908 -0.662919 -0.725498
vn 0.184908 -0.662919 -0.725498
vn 0.673284 0.383653 -0.632059
vn 0.673284 0.383653 -0.632059
vn 0.673284 0.383653 -0.632059
vn 0.739964 0.514147 -0.433713
vn 0.739964 0.514147 -0.433713
vn 0.739964 0.514147 -0.433713
vn -0.751682 0.313097 0.580470
vn -0.751682 0.313097 0.580470
vn -0.751682 0.313097 0.580470
vn 0.005038 -0.663883 -0.747819
vn 0.005038 -0.663883 -0.747819
vn 0.005038 -0.663883 -0.747819
vn 0.119273 -0.460414 -0.879655
vn 0.119273 -0.460414 -0.879655
vn 0.119273 -0.460414 -0.879655
vn 0.840698 0.339516 -0.421849
vn 0.840698 0.339516 -0.421849
vn 0.840698 0.339516 -0.421849
vn -0.715693 0.249367 0.652380
vn -0.715693 0.249367 0.652380
vn -0.715693 0.249367 0.652380
f 1/1/1 2/2/2 3/3/3
f 3/3/4 4/4/5 1/1/6
f 5/5/7 6/6/8 7/7/9
f 8/8/10 9/9/11 10/10/12
f 10/10/13 11/11/14 8/8/15
f 12/12/16 13/13/17 14/14/18
f 14/14/19 15/15/20 12/12/21
f 16/16/22 17/17/23 18/18/24
f 18/18/25 19/19/26 16/16/27
f 4/4/28 3/3/29 20/20/30
f 20/20/31 21/21/32 4/4/33
f 11/11/34 10/10/35 13/13/36
f 13/13/37 12/12/38 11/11/39
f 2/2/40 1/1/41 22/22/42
f 22/22/43 23/23/44 2/2/45
f 24/24/46 25/25/47 23/23/48
f 23/23/49 22/22/50 24/24/51
f 15/15/52 14/14/53 6/6/54
f 6/6/55 5/5/56 15/15/57
f 19/19/58 18/18/59 25/25/60
f 25/25/61 24/24/62 19/19/63
f 20/20/64 26/26/65 27/27/66
f 27/27/67 21/21/68 20/20/69
f 28/28/70 13/13/71 10/10/72
f 14/14/73 13/13/74 28/28/75
f 28/28/76 6/6/77 14/14/78
f 27/27/79 26/26/80 17/17/81
f 17/17/82 16/16/83 27/27/84
f 9/9/85 28/28/86 10/10/87
f 9/9/88 29/29/89 28/28/90
f 8/8/91 3/30/92 29/29/93
f 29/29/94 9/9/95 8/8/96
f 30/31/97 31/32/98 32/33/99
f 32/33/100 33/34/101 30/31/102
f 34/35/103 35/36/104 31/32/105
f 31/32/106 30/31/107 34/35/108
f 36/37/109 37/38/110 35/36/111
f 35/36/112 34/35/113 36/37/114
f 38/39/115 39/40/116 37/38/117
f 37/38/118 36/37/119 38/39/120
f 40/41/121 41/42/122 39/40/123
f 39/40/124 38/39/125 40/41/126
f 42/43/127 43/44/128 41/42/129
f 41/42/130 40/41/131 42/43/132
f 44/45/133 33/34/134 32/33/135
f 32/33/136 45/46/137 44/45/138
f 46/47/139 35/36/140 37/38/141
f 46/47/142 31/32/143 35/36/144
f 32/33/145 31/32/146 46/47/147
f 39/40/148 46/47/149 37/38/150
f 39/40/151 41/42/152 46/47/153
f 43/44/154 46/47/155 41/42/156
f 43/44/157 45/46/158 46/47/159
f 46/47/160 45/46/161 32/33/162
f 45/46/163 43/44/164 42/43/165
f 42/43/166 44/45/167 45/46/168
f 47/48/169 48/49/170 49/50/171
f 47/48/172 50/51/173 48/49/174
f 49/50/175 50/51/176 47/48/177
f 51/52/178 52/53/179 53/54/180
f 51/52/181 54/55/182 52/53/183
f 53/54/184 54/55/185 51/52/186
f 55/56/187 56/57/188 57/58/189
f 55/56/190 58/59/191 56/57/192
f 57/58/193 58/59/194 55/56/195
