# This file uses centimeters as units for non-parametric coordinates.

mtllib BlastoiseHead.mtl
v -0.217979 3.569086 1.301314
v -0.498673 3.755829 1.313423
v -0.382202 3.778772 0.954705
v -0.154945 3.581502 1.107177
v -0.768808 5.139391 1.191520
v -0.739756 5.238229 1.227890
v -0.462738 5.002778 0.972942
v -0.512167 4.866226 0.909121
v -0.686386 4.035562 1.331372
v -0.534209 4.065538 0.862684
v -0.642030 5.246584 1.271794
v -0.213256 5.169641 1.305703
v -0.181739 5.175848 1.208635
v -0.352135 5.091157 1.061100
v -0.752542 4.365696 1.352430
v -0.587827 4.398142 0.845125
v -0.653979 4.696009 1.373365
v -0.577891 4.710997 1.139021
v -0.501802 4.725985 0.904677
v -0.135045 4.084394 0.572793
v -0.076694 3.793204 0.732831
v 0.008804 5.129581 1.085097
v -0.077954 5.013484 0.810469
v -0.155774 4.418552 0.531349
v -0.135726 4.744805 0.614810
v 0.010394 3.589313 0.987100
v 0.358640 4.084927 0.572427
v 0.301155 3.793612 0.732551
v 0.213295 5.129802 1.084945
v 0.299896 5.013892 0.810189
v 0.378586 4.419128 0.530953
v 0.357958 4.745338 0.614444
v 0.214885 3.589533 0.986949
v 0.758273 4.066933 0.861726
v 0.607022 3.779840 0.953971
v 0.403920 5.176481 1.208200
v 0.574280 5.092157 1.060413
v 0.684943 5.003960 0.972130
v 0.811147 4.399652 0.844088
v 0.724503 4.727309 0.903767
v 0.380418 3.582080 1.106780
v 0.734571 4.867571 0.908196
v 0.911210 4.037286 1.330187
v 0.724074 3.757149 1.312516
v 0.864078 5.248210 1.270676
v 0.435595 5.170341 1.305222
v 0.467269 5.164201 1.402244
v 0.578497 5.070797 1.396211
v 0.976684 4.367563 1.351147
v 0.800971 4.712485 1.137998
v 0.877440 4.697661 1.372229
v 0.443767 3.569800 1.300823
v 0.991127 5.141291 1.190215
v 0.961830 5.240066 1.226628
v 0.689726 4.977394 1.352792
v 0.783583 4.837528 1.381204
v 0.759060 4.005214 1.831812
v 0.607603 3.734206 1.671234
v 0.404235 5.151784 1.596380
v 0.573255 4.954451 1.748897
v 0.811995 4.333021 1.891388
v 0.758563 4.462942 1.827864
v 0.380733 3.557384 1.494960
v 0.369411 3.961116 2.347813
v 0.309509 3.752370 2.177588
v 0.213804 5.089842 1.713034
v 0.300836 4.940055 1.970745
v 0.369411 3.992668 2.399596
v 0.359398 4.444086 2.117755
v 0.390145 4.351340 2.306020
v 0.215394 3.549573 1.615037
v -0.143206 3.960563 2.348193
v -0.082831 3.751946 2.177879
v 0.009313 5.089621 1.713185
v -0.077014 4.939648 1.971025
v -0.164707 4.350741 2.306431
v -0.164707 4.307629 2.374537
v 0.390145 4.308228 2.374126
v -0.134287 4.443553 2.118121
v 0.010903 3.549352 1.615189
v -0.533424 4.003819 1.832770
v -0.381621 3.733139 1.671968
v -0.181424 5.151152 1.596815
v -0.349791 4.953455 1.749581
v -0.586978 4.331511 1.892425
v -0.143206 3.992115 2.399976
v -0.533921 4.461546 1.828822
v -0.154631 3.556806 1.495357
v 0.112962 3.503761 1.296890
v -0.244772 5.163432 1.402772
v 0.111236 5.175394 1.403244
v -0.355808 5.069789 1.396904
v -0.466843 4.976146 1.353650
v -0.560411 4.836077 1.382201
vt 0.040522 0.885238
vt 0.019629 0.871514
vt 0.038601 0.858484
vt 0.048690 0.873865
vt 0.029336 0.793783
vt 0.030349 0.792347
vt 0.038274 0.799559
vt 0.035097 0.804529
vt 0.004537 0.851997
vt 0.033638 0.842971
vt 0.031222 0.790486
vt 0.041952 0.776338
vt 0.046391 0.781723
vt 0.041187 0.793654
vt 0.000188 0.827648
vt 0.031445 0.827465
vt 0.054228 0.839740
vt 0.055682 0.853372
vt 0.053866 0.826937
vt 0.034613 0.810904
vt 0.054440 0.814521
vt 0.058675 0.869189
vt 0.073092 0.839405
vt 0.071818 0.853221
vt 0.055457 0.801440
vt 0.057902 0.786638
vt 0.068185 0.786787
vt 0.071241 0.801300
vt 0.073526 0.826477
vt 0.072656 0.814020
vt 0.069063 0.868910
vt 0.093988 0.841711
vt 0.089026 0.857738
vt 0.095560 0.826103
vt 0.091952 0.809951
vt 0.079229 0.873875
vt 0.122736 0.848960
vt 0.109716 0.870588
vt 0.094730 0.789849
vt 0.083854 0.776186
vt 0.087867 0.770751
vt 0.096791 0.775147
vt 0.126077 0.825185
vt 0.087842 0.885393
vt 0.096668 0.793039
vt 0.095634 0.791654
vt 0.105423 0.780365
vt 0.113491 0.789427
vt 0.240224 0.765682
vt 0.250489 0.785834
vt 0.221221 0.791308
vt 0.219228 0.774151
vt 0.253759 0.808454
vt 0.221556 0.807967
vt 0.249512 0.831552
vt 0.222758 0.814978
vt 0.225181 0.748231
vt 0.212616 0.754326
vt 0.198228 0.795322
vt 0.197625 0.786443
vt 0.216986 0.842321
vt 0.213192 0.860690
vt 0.197467 0.857090
vt 0.199465 0.838217
vt 0.197545 0.796620
vt 0.200698 0.814833
vt 0.199371 0.807499
vt 0.198487 0.755713
vt 0.184447 0.795316
vt 0.184987 0.786234
vt 0.183751 0.855964
vt 0.181797 0.838156
vt 0.182515 0.807336
vt 0.183480 0.804820
vt 0.198501 0.805147
vt 0.180734 0.815187
vt 0.185562 0.754014
vt 0.160193 0.790172
vt 0.162940 0.772425
vt 0.168577 0.860135
vt 0.164314 0.842191
vt 0.159481 0.807457
vt 0.185214 0.796854
vt 0.158162 0.814667
vt 0.170727 0.751910
vt 0.063965 0.887868
vt 0.037786 0.770905
vt 0.062928 0.767594
vt 0.079576 0.781574
vt 0.084130 0.900736
vt 0.084708 0.755637
vt 0.071723 0.910408
vt 0.070620 0.745028
vt 0.056047 0.910264
vt 0.055114 0.745028
vt 0.043904 0.900435
vt 0.040964 0.755678
vt 0.129830 0.783870
vt 0.141198 0.762892
vt 0.126131 0.807631
vt 0.130809 0.831735
vt 0.157694 0.745028
vt 0.021209 0.807202
vt 0.004852 0.802412
vt 0.012003 0.790531
vt 0.020062 0.781057
vt 0.028772 0.775543
vt 0.088042 0.798943
vt 0.085006 0.793226
vt 0.104964 0.805946
vt 0.120769 0.800794
vt 0.091298 0.803723
vt 0.244078 0.841633
vt 0.238296 0.851519
vt 0.136717 0.841967
vt 0.142978 0.851987
vt 0.231999 0.859142
vt 0.225703 0.866764
vt 0.149624 0.859376
vt 0.156269 0.866764
vn -0.546034 -0.805905 -0.228833
vn -0.546034 -0.805905 -0.228833
vn -0.546034 -0.805905 -0.228833
vn -0.546034 -0.805905 -0.228833
vn -0.367430 0.465272 -0.805305
vn -0.367430 0.465272 -0.805305
vn -0.367430 0.465272 -0.805305
vn -0.367430 0.465272 -0.805305
vn -0.802351 -0.519565 -0.293743
vn -0.802351 -0.519565 -0.293743
vn -0.802351 -0.519565 -0.293743
vn -0.802351 -0.519565 -0.293743
vn 0.094706 0.931007 -0.352501
vn 0.094706 0.931007 -0.352501
vn 0.094706 0.931007 -0.352501
vn 0.094706 0.931007 -0.352501
vn -0.934535 -0.167236 -0.314127
vn -0.934535 -0.167236 -0.314127
vn -0.934535 -0.167236 -0.314127
vn -0.934535 -0.167236 -0.314127
vn -0.496090 -0.492441 -0.715120
vn -0.496090 -0.492441 -0.715120
vn -0.496090 -0.492441 -0.715120
vn -0.496090 -0.492441 -0.715120
vn -0.577992 -0.135657 -0.804688
vn -0.577992 -0.135657 -0.804688
vn -0.577992 -0.135657 -0.804688
vn -0.577992 -0.135657 -0.804688
vn -0.590228 0.262611 -0.763326
vn -0.590228 0.262611 -0.763326
vn -0.590228 0.262611 -0.763326
vn -0.590228 0.262611 -0.763326
vn -0.337432 -0.787428 -0.515845
vn -0.337432 -0.787428 -0.515845
vn -0.337432 -0.787428 -0.515845
vn -0.337432 -0.787428 -0.515845
vn -0.000130 -0.481669 -0.876353
vn -0.000130 -0.481669 -0.876353
vn -0.000130 -0.481669 -0.876353
vn -0.000130 -0.481669 -0.876353
vn -0.001284 0.921222 -0.389035
vn -0.001284 0.921222 -0.389035
vn -0.001284 0.921222 -0.389035
vn -0.001284 0.921222 -0.389035
vn -0.000603 -0.123119 -0.992392
vn -0.000603 -0.123119 -0.992392
vn -0.000603 -0.123119 -0.992392
vn -0.000603 -0.123119 -0.992392
vn -0.000986 0.247892 -0.968787
vn -0.000986 0.247892 -0.968787
vn -0.000986 0.247892 -0.968787
vn -0.000986 0.247892 -0.968787
vn 0.000378 -0.780093 -0.625663
vn 0.000378 -0.780093 -0.625663
vn 0.000378 -0.780093 -0.625663
vn 0.000378 -0.780093 -0.625663
vn -0.001235 0.588848 -0.808243
vn -0.001235 0.588848 -0.808243
vn -0.001235 0.588848 -0.808243
vn -0.001235 0.588848 -0.808243
vn 0.496092 -0.491369 -0.715856
vn 0.496092 -0.491369 -0.715856
vn 0.496092 -0.491369 -0.715856
vn 0.496092 -0.491369 -0.715856
vn 0.577090 -0.134410 -0.805544
vn 0.577090 -0.134410 -0.805544
vn 0.577090 -0.134410 -0.805544
vn 0.577090 -0.134410 -0.805544
vn 0.588527 0.263881 -0.764201
vn 0.588527 0.263881 -0.764201
vn 0.588527 0.263881 -0.764201
vn 0.588527 0.263881 -0.764201
vn 0.338366 -0.786698 -0.516347
vn 0.338366 -0.786698 -0.516347
vn 0.338366 -0.786698 -0.516347
vn 0.338366 -0.786698 -0.516347
vn 0.803033 -0.517833 -0.294935
vn 0.803033 -0.517833 -0.294935
vn 0.803033 -0.517833 -0.294935
vn 0.803033 -0.517833 -0.294935
vn 0.072243 0.727435 0.682363
vn 0.072243 0.727435 0.682364
vn 0.072243 0.727435 0.682364
vn 0.072243 0.727435 0.682363
vn 0.934427 -0.165219 -0.315515
vn 0.934427 -0.165219 -0.315515
vn 0.934427 -0.165219 -0.315515
vn 0.934427 -0.165219 -0.315515
vn 0.547433 -0.804723 -0.229646
vn 0.547433 -0.804723 -0.229646
vn 0.547433 -0.804723 -0.229646
vn 0.547433 -0.804723 -0.229646
vn 0.393237 0.172657 0.903081
vn 0.393237 0.172657 0.903081
vn 0.393237 0.172657 0.903081
vn 0.393237 0.172657 0.903080
vn 0.799956 -0.560633 0.213917
vn 0.799956 -0.560633 0.213917
vn 0.799956 -0.560633 0.213917
vn 0.799956 -0.560633 0.213917
vn 0.940423 -0.202624 0.273035
vn 0.940423 -0.202624 0.273035
vn 0.940423 -0.202624 0.273035
vn 0.940423 -0.202624 0.273035
vn 0.883047 0.324365 0.339139
vn 0.883047 0.324365 0.339139
vn 0.883047 0.324365 0.339139
vn 0.883047 0.324365 0.339139
vn 0.547719 -0.827283 0.124926
vn 0.547719 -0.827283 0.124926
vn 0.547719 -0.827283 0.124926
vn 0.547719 -0.827283 0.124926
vn 0.672251 -0.597535 0.437069
vn 0.672252 -0.597535 0.437069
vn 0.672251 -0.597535 0.437069
vn 0.672251 -0.597535 0.437069
vn 0.252631 0.810638 0.528246
vn 0.252631 0.810638 0.528246
vn 0.252631 0.810638 0.528246
vn 0.252631 0.810638 0.528246
vn 0.617818 -0.671497 0.409137
vn 0.617818 -0.671497 0.409137
vn 0.617818 -0.671497 0.409137
vn 0.436777 0.741330 0.509565
vn 0.436777 0.741330 0.509565
vn 0.436777 0.741330 0.509565
vn 0.436777 0.741330 0.509565
vn 0.373135 -0.881089 0.290607
vn 0.373135 -0.881089 0.290607
vn 0.373135 -0.881089 0.290607
vn 0.373135 -0.881089 0.290607
vn 0.565508 0.314166 0.762562
vn 0.565508 0.314166 0.762562
vn 0.565508 0.314166 0.762562
vn 0.565508 0.314166 0.762562
vn 0.001257 -0.632190 0.774812
vn 0.001257 -0.632190 0.774812
vn 0.001257 -0.632191 0.774812
vn 0.001257 -0.632190 0.774812
vn -0.000560 0.864492 0.502646
vn -0.000560 0.864492 0.502646
vn -0.000560 0.864492 0.502646
vn -0.000560 0.864492 0.502646
vn -0.000516 0.844943 0.534856
vn -0.000516 0.844944 0.534855
vn -0.000516 0.844943 0.534856
vn -0.000516 0.844944 0.534855
vn -0.000641 0.897012 0.442007
vn -0.000641 0.897012 0.442007
vn -0.000641 0.897012 0.442007
vn -0.000641 0.897012 0.442007
vn 0.001269 -0.940806 0.338944
vn 0.001269 -0.940806 0.338944
vn 0.001269 -0.940806 0.338944
vn 0.001269 -0.940806 0.338944
vn 0.000404 0.284232 0.958756
vn 0.000404 0.284232 0.958756
vn 0.000404 0.284232 0.958756
vn 0.000404 0.284232 0.958756
vn -0.670275 -0.599193 0.437835
vn -0.670275 -0.599193 0.437835
vn -0.670275 -0.599193 0.437835
vn -0.670275 -0.599193 0.437835
vn -0.253596 0.810092 0.528621
vn -0.253596 0.810092 0.528621
vn -0.253596 0.810092 0.528621
vn -0.253596 0.810092 0.528621
vn -0.786614 -0.123966 0.604873
vn -0.786614 -0.123966 0.604873
vn -0.786614 -0.123966 0.604873
vn -0.786614 -0.123966 0.604873
vn -0.437580 0.740510 0.510067
vn -0.437580 0.740510 0.510068
vn -0.437580 0.740510 0.510067
vn -0.437580 0.740510 0.510068
vn -0.370804 -0.881894 0.291150
vn -0.370804 -0.881894 0.291150
vn -0.370804 -0.881894 0.291150
vn -0.370804 -0.881894 0.291150
vn -0.565055 0.312946 0.763399
vn -0.565055 0.312946 0.763399
vn -0.565055 0.312946 0.763399
vn -0.565055 0.312946 0.763399
vn -0.193743 -0.973039 -0.125134
vn -0.193743 -0.973039 -0.125134
vn -0.193743 -0.973039 -0.125134
vn -0.033602 0.998033 0.052920
vn -0.033602 0.998033 0.052920
vn -0.033602 0.998033 0.052920
vn -0.033602 0.998033 0.052920
vn -0.119454 -0.966459 -0.227349
vn -0.119454 -0.966459 -0.227349
vn -0.119454 -0.966459 -0.227349
vn 0.120718 0.976331 -0.179457
vn 0.120718 0.976331 -0.179457
vn 0.120718 0.976331 -0.179457
vn 0.000840 -0.963847 -0.266456
vn 0.000840 -0.963847 -0.266456
vn 0.000840 -0.963847 -0.266456
vn -0.001177 0.989843 -0.142159
vn -0.001177 0.989843 -0.142159
vn -0.001177 0.989843 -0.142159
vn 0.121205 -0.966200 -0.227524
vn 0.121205 -0.966200 -0.227524
vn 0.121205 -0.966200 -0.227524
vn -0.123094 0.976068 -0.179276
vn -0.123094 0.976068 -0.179276
vn -0.123094 0.976068 -0.179276
vn 0.195656 -0.972619 -0.125427
vn 0.195656 -0.972619 -0.125427
vn 0.195656 -0.972619 -0.125427
vn 0.031527 0.998103 0.052872
vn 0.031527 0.998103 0.052872
vn 0.031527 0.998103 0.052872
vn 0.031527 0.998103 0.052872
vn 0.195758 -0.980652 0.000841
vn 0.195758 -0.980652 0.000841
vn 0.195758 -0.980652 0.000841
vn 0.031545 0.996760 0.073994
vn 0.031545 0.996760 0.073994
vn 0.031545 0.996760 0.073994
vn 0.121476 -0.987231 0.103048
vn 0.121476 -0.987231 0.103048
vn 0.121476 -0.987231 0.103048
vn -0.122702 0.945465 0.301728
vn -0.122703 0.945465 0.301728
vn -0.122703 0.945465 0.301728
vn 0.001175 -0.989844 0.142154
vn 0.001175 -0.989844 0.142154
vn 0.001175 -0.989844 0.142154
vn -0.000844 0.963846 0.266457
vn -0.000844 0.963846 0.266457
vn -0.000844 0.963846 0.266457
vn -0.119192 -0.987491 0.103224
vn -0.119192 -0.987491 0.103224
vn -0.119192 -0.987491 0.103224
vn 0.121112 0.945729 0.301545
vn 0.121112 0.945729 0.301545
vn 0.121112 0.945729 0.301545
vn -0.798427 -0.562357 0.215102
vn -0.798427 -0.562357 0.215102
vn -0.798427 -0.562357 0.215102
vn -0.798427 -0.562357 0.215102
vn -0.939578 -0.204654 0.274428
vn -0.939578 -0.204654 0.274428
vn -0.939578 -0.204654 0.274428
vn -0.939578 -0.204654 0.274428
vn -0.193640 -0.981072 0.001128
vn -0.193640 -0.981072 0.001128
vn -0.193640 -0.981072 0.001128
vn -0.033587 0.996689 0.074044
vn -0.033587 0.996689 0.074044
vn -0.033587 0.996689 0.074044
vn -0.883241 0.322458 0.340450
vn -0.883241 0.322458 0.340450
vn -0.883241 0.322458 0.340450
vn -0.883241 0.322458 0.340450
vn -0.545745 -0.828464 0.125736
vn -0.545745 -0.828464 0.125736
vn -0.545745 -0.828464 0.125736
vn -0.545745 -0.828464 0.125736
vn -0.865621 -0.263790 -0.425576
vn -0.865621 -0.263790 -0.425576
vn -0.865621 -0.263790 -0.425576
vn -0.865621 -0.263790 -0.425576
vn -0.969184 -0.183683 0.164144
vn -0.969184 -0.183683 0.164144
vn -0.969184 -0.183683 0.164144
vn -0.969184 -0.183683 0.164144
vn -0.392317 0.171783 0.903647
vn -0.392317 0.171783 0.903647
vn -0.392317 0.171783 0.903647
vn -0.392317 0.171783 0.903647
vn 0.029970 0.783244 -0.620992
vn 0.029970 0.783244 -0.620992
vn 0.029970 0.783244 -0.620992
vn 0.029970 0.783244 -0.620992
vn -0.394507 0.022487 0.918618
vn -0.394507 0.022487 0.918618
vn -0.394507 0.022487 0.918618
vn -0.394508 0.022487 0.918617
vn -0.072790 0.727270 0.682481
vn -0.072790 0.727270 0.682481
vn -0.072790 0.727270 0.682481
vn -0.072790 0.727270 0.682481
vn 0.395719 0.023608 0.918068
vn 0.395719 0.023608 0.918068
vn 0.395719 0.023608 0.918068
vn 0.395719 0.023608 0.918068
vn -0.032438 0.783021 -0.621149
vn -0.032438 0.783021 -0.621149
vn -0.032438 0.783021 -0.621149
vn -0.032438 0.783021 -0.621149
vn -0.097252 0.930799 -0.352358
vn -0.097252 0.930799 -0.352358
vn -0.097252 0.930799 -0.352358
vn -0.097252 0.930799 -0.352358
vn 0.969782 -0.181738 0.162773
vn 0.969782 -0.181738 0.162773
vn 0.969782 -0.181738 0.162773
vn 0.969782 -0.181738 0.162773
vn 0.865498 -0.262026 -0.426913
vn 0.865498 -0.262026 -0.426913
vn 0.865498 -0.262026 -0.426913
vn 0.865498 -0.262026 -0.426913
vn 0.364842 0.466322 -0.805875
vn 0.364842 0.466322 -0.805875
vn 0.364843 0.466322 -0.805875
vn 0.364842 0.466322 -0.805875
vn -0.490504 0.736315 0.466097
vn -0.490504 0.736315 0.466097
vn -0.490504 0.736315 0.466097
vn 0.000652 0.080410 0.996762
vn 0.000652 0.080410 0.996762
vn 0.000652 0.080410 0.996762
vn 0.000652 0.080410 0.996762
vn -0.615987 -0.672720 0.409888
vn -0.615987 -0.672720 0.409888
vn -0.615987 -0.672720 0.409888
vn 0.787549 -0.122198 0.604016
vn 0.787548 -0.122198 0.604016
vn 0.787549 -0.122198 0.604016
vn 0.787549 -0.122198 0.604016
vn 0.001307 -0.853964 0.520330
vn 0.001307 -0.853964 0.520330
vn 0.001307 -0.853965 0.520329
vn 0.001307 -0.853964 0.520330
vn 0.490193 0.736462 0.466191
vn 0.490193 0.736462 0.466191
vn 0.490193 0.736462 0.466191
vn 0.819573 0.440555 0.366349
vn 0.819573 0.440555 0.366349
vn 0.819573 0.440555 0.366349
vn 0.819573 0.440555 0.366349
vn 0.819573 0.440555 0.366349
vn -0.819964 0.438832 0.367541
vn -0.819964 0.438832 0.367541
vn -0.819964 0.438832 0.367541
vn -0.819964 0.438832 0.367541
vn -0.819964 0.438832 0.367541
vn -0.437720 0.448561 -0.779226
vn -0.437720 0.448561 -0.779226
vn -0.437720 0.448561 -0.779226
vn -0.437720 0.448561 -0.779226
vn -0.437720 0.448561 -0.779226
vn -0.120572 0.894368 -0.430777
vn -0.120572 0.894368 -0.430777
vn -0.120572 0.894368 -0.430777
vn -0.120572 0.894368 -0.430777
vn -0.120572 0.894368 -0.430777
vn 0.646438 0.721649 0.247670
vn 0.646438 0.721649 0.247670
vn 0.646438 0.721649 0.247670
vn 0.646438 0.721649 0.247670
vn 0.646438 0.721649 0.247670
vn -0.647687 0.720203 0.248615
vn -0.647687 0.720203 0.248615
vn -0.647687 0.720203 0.248615
vn -0.647687 0.720203 0.248615
vn -0.647687 0.720203 0.248615
vn 0.435613 0.449587 -0.779816
vn 0.435613 0.449587 -0.779816
vn 0.435613 0.449587 -0.779816
vn 0.435613 0.449587 -0.779816
vn 0.435613 0.449587 -0.779816
vn 0.118082 0.894580 -0.431025
vn 0.118082 0.894580 -0.431025
vn 0.118082 0.894580 -0.431025
vn 0.118082 0.894580 -0.431025
vn 0.118082 0.894580 -0.431025
vn -0.915329 0.290785 -0.278598
vn -0.915329 0.290785 -0.278598
vn -0.915329 0.290785 -0.278598
vn -0.915329 0.290785 -0.278598
vn -0.915329 0.290785 -0.278598
vn 0.914285 0.292760 -0.279955
vn 0.914285 0.292760 -0.279955
vn 0.914285 0.292760 -0.279955
vn 0.914285 0.292760 -0.279955
vn 0.914285 0.292760 -0.279955
s off
usemtl BlastoiseHead:Material_012
f 1/1/1 2/2/2 3/3/3
f 3/3/3 4/4/4 1/1/1
f 5/5/5 6/6/6 7/7/7
f 7/7/7 8/8/8 5/5/5
f 2/2/9 9/9/10 10/10/11
f 10/10/11 3/3/12 2/2/9
f 11/11/13 12/12/14 13/13/15
f 13/13/15 14/14/16 11/11/13
f 9/9/17 15/15/18 16/16/19
f 16/16/19 10/10/20 9/9/17
f 3/3/21 10/10/22 20/17/23
f 20/17/23 21/18/24 3/3/21
f 10/10/25 16/16/26 24/19/27
f 24/19/27 20/17/28 10/10/25
f 16/16/29 19/20/30 25/21/31
f 25/21/31 24/19/32 16/16/29
f 4/4/33 3/3/34 21/18/35
f 21/18/35 26/22/36 4/4/33
f 21/18/37 20/17/38 27/23/39
f 27/23/39 28/24/40 21/18/37
f 23/25/41 22/26/42 29/27/43
f 29/27/43 30/28/44 23/25/41
f 20/17/45 24/19/46 31/29/47
f 31/29/47 27/23/48 20/17/45
f 24/19/49 25/21/50 32/30/51
f 32/30/51 31/29/52 24/19/49
f 26/22/53 21/18/54 28/24/55
f 28/24/55 33/31/56 26/22/53
f 25/21/57 23/25/58 30/28/59
f 30/28/59 32/30/60 25/21/57
f 28/24/61 27/23/62 34/32/63
f 34/32/63 35/33/64 28/24/61
f 27/23/65 31/29/66 39/34/67
f 39/34/67 34/32/68 27/23/65
f 31/29/69 32/30/70 40/35/71
f 40/35/71 39/34/72 31/29/69
f 33/31/73 28/24/74 35/33/75
f 35/33/75 41/36/76 33/31/73
f 35/33/77 34/32/78 43/37/79
f 43/37/79 44/38/80 35/33/77
f 45/39/81 46/40/82 47/41/83
f 47/41/83 48/42/84 45/39/81
f 34/32/85 39/34/86 49/43/87
f 49/43/87 43/37/88 34/32/85
f 41/36/89 35/33/90 44/38/91
f 44/38/91 52/44/92 41/36/89
f 53/45/93 54/46/94 55/47/95
f 55/47/95 56/48/96 53/45/93
f 44/49/97 43/50/98 57/51/99
f 57/51/99 58/52/100 44/49/97
f 43/50/101 49/53/102 61/54/103
f 61/54/103 57/51/104 43/50/101
f 49/53/105 51/55/106 62/56/107
f 62/56/107 61/54/108 49/53/105
f 52/57/109 44/49/110 58/52/111
f 58/52/111 63/58/112 52/57/109
f 58/52/113 57/51/114 64/59/115
f 64/59/115 65/60/116 58/52/113
f 60/61/117 59/62/118 66/63/119
f 66/63/119 67/64/120 60/61/117
f 57/51/121 68/65/122 64/59/123
f 61/54/124 62/56/125 69/66/126
f 69/66/126 70/67/127 61/54/124
f 63/58/128 58/52/129 65/60/130
f 65/60/130 71/68/131 63/58/128
f 62/56/132 60/61/133 67/64/134
f 67/64/134 69/66/135 62/56/132
f 65/60/136 64/59/137 72/69/138
f 72/69/138 73/70/139 65/60/136
f 67/64/140 66/63/141 74/71/142
f 74/71/142 75/72/143 67/64/140
f 70/67/144 76/73/145 77/74/146
f 77/74/146 78/75/147 70/67/144
f 70/67/148 69/66/149 79/76/150
f 79/76/150 76/73/151 70/67/148
f 71/68/152 65/60/153 73/70/154
f 73/70/154 80/77/155 71/68/152
f 69/66/156 67/64/157 75/72/158
f 75/72/158 79/76/159 69/66/156
f 73/70/160 72/69/161 81/78/162
f 81/78/162 82/79/163 73/70/160
f 75/72/164 74/71/165 83/80/166
f 83/80/166 84/81/167 75/72/164
f 77/74/168 85/82/169 81/78/170
f 81/78/170 86/83/171 77/74/168
f 76/73/172 79/76/173 87/84/174
f 87/84/174 85/82/175 76/73/172
f 80/77/176 73/70/177 82/79/178
f 82/79/178 88/85/179 80/77/176
f 79/76/180 75/72/181 84/81/182
f 84/81/182 87/84/183 79/76/180
f 89/86/184 1/1/185 4/4/186
f 90/87/187 91/88/188 13/13/189
f 13/13/189 12/12/190 90/87/187
f 89/86/191 4/4/192 26/22/193
f 13/13/194 91/88/195 22/26/196
f 89/86/197 26/22/198 33/31/199
f 22/26/200 91/88/201 29/27/202
f 89/86/203 33/31/204 41/36/205
f 29/27/206 91/88/207 36/89/208
f 89/86/209 41/36/210 52/44/211
f 36/89/212 91/88/213 47/41/214
f 47/41/214 46/40/215 36/89/212
f 89/86/216 52/44/217 63/90/218
f 47/41/219 91/88/220 59/91/221
f 89/86/222 63/90/223 71/92/224
f 59/91/225 91/88/226 66/93/227
f 89/86/228 71/92/229 80/94/230
f 66/93/231 91/88/232 74/95/233
f 89/86/234 80/94/235 88/96/236
f 74/95/237 91/88/238 83/97/239
f 82/79/240 81/78/241 9/98/242
f 9/98/242 2/99/243 82/79/240
f 81/78/244 85/82/245 15/100/246
f 15/100/246 9/98/247 81/78/244
f 88/96/248 1/1/249 89/86/250
f 83/97/251 91/88/252 90/87/253
f 85/82/254 87/84/255 17/101/256
f 17/101/256 15/100/257 85/82/254
f 2/99/258 1/102/259 88/85/260
f 88/85/260 82/79/261 2/99/258
f 18/103/262 5/5/263 8/8/264
f 8/8/264 19/20/265 18/103/262
f 17/104/266 94/105/267 5/5/268
f 5/5/268 18/103/269 17/104/266
f 94/105/270 93/106/271 6/6/272
f 6/6/272 5/5/273 94/105/270
f 6/6/274 11/11/275 14/14/276
f 14/14/276 7/7/277 6/6/274
f 93/106/278 92/107/279 11/11/280
f 11/11/280 6/6/281 93/106/278
f 92/107/282 90/87/283 12/12/284
f 12/12/284 11/11/285 92/107/282
f 54/46/286 45/39/287 48/42/288
f 48/42/288 55/47/289 54/46/286
f 38/108/290 37/109/291 45/39/292
f 45/39/292 54/46/293 38/108/290
f 37/109/294 36/89/295 46/40/296
f 46/40/296 45/39/297 37/109/294
f 50/110/298 53/45/299 56/48/300
f 56/48/300 51/111/301 50/110/298
f 40/35/302 42/112/303 53/45/304
f 53/45/304 50/110/305 40/35/302
f 42/112/306 38/108/307 54/46/308
f 54/46/308 53/45/309 42/112/306
f 77/74/310 76/73/311 85/82/312
f 68/65/313 78/75/314 77/74/315
f 77/74/315 86/83/316 68/65/313
f 72/69/317 86/83/318 81/78/319
f 61/54/320 78/75/321 68/65/322
f 68/65/322 57/51/323 61/54/320
f 72/69/324 64/59/325 68/65/326
f 68/65/326 86/83/327 72/69/324
f 78/75/328 61/54/329 70/67/330
f 60/61/331 62/56/332 51/55/333
f 51/55/333 56/113/334 60/61/331
f 94/115/336 17/101/337 87/84/338
f 87/84/338 84/81/339 94/115/336
f 7/7/341 23/25/342 25/21/343
f 25/21/343 19/20/344 7/7/341
f 7/7/346 14/14/347 13/13/348
f 13/13/348 22/26/349 7/7/346
f 59/62/351 60/61/352 55/114/353
f 55/114/353 48/117/354 59/62/351
f 92/119/356 93/116/357 84/81/358
f 84/81/358 83/80/359 92/119/356
f 38/108/361 42/112/362 40/35/363
f 40/35/363 32/30/364 38/108/361
f 37/109/366 38/108/367 30/28/368
f 30/28/368 29/27/369 37/109/366
f 17/104/371 18/103/372 19/20/373
f 19/20/373 16/16/374 17/104/371
f 51/111/376 49/43/377 39/34/378
f 39/34/378 40/35/379 51/111/376
