# This file uses centimeters as units for non-parametric coordinates.

mtllib BlastoiseLeftArm.mtl
g default
v 2.021908 1.887047 2.505319
v 2.212831 2.170927 2.386946
v 2.071652 2.226532 2.384122
v 2.188435 2.042348 2.303266
v 2.153398 2.746822 2.233294
v 2.068803 2.488600 2.535805
v 2.255944 2.365541 2.515533
v 2.406593 2.618214 2.141289
v 1.900124 2.753788 2.264475
v 1.881959 2.508390 2.503460
v 1.770927 2.506064 2.190896
v 1.797408 2.343707 2.394980
v 1.815210 2.254784 2.118653
v 1.823605 2.178547 2.288071
v 2.066954 2.129810 2.028855
v 2.009315 2.052907 2.266044
v 2.318768 2.117422 1.995357
v 2.194710 2.034460 2.298634
v 2.436272 2.366306 2.068887
v 2.268158 2.199814 2.407690
v 1.986710 2.193381 2.516987
v 1.907820 2.059420 2.698948
v 2.167125 2.173288 2.354616
v 2.254517 2.373736 2.498109
v 2.000851 2.425247 2.463514
v 1.769443 2.269625 2.670667
v 1.891987 2.491576 2.497418
v 2.016181 2.310592 2.420457
v 2.036867 2.437575 2.502186
v 2.066954 2.129810 2.028855
v 1.816473 2.613408 1.306452
v 2.061535 2.745466 1.129890
v 2.318768 2.117422 1.995357
v 1.572978 2.815186 1.934145
v 1.384762 3.080115 1.856575
v 1.649422 2.568190 1.618504
v 2.328221 2.934621 1.336105
v 2.026064 3.409374 1.256049
v 2.114488 3.519080 1.567926
v 2.389886 3.025630 1.637280
v 2.130204 3.149828 1.953354
v 1.929416 3.462730 1.930960
v 1.624228 3.329061 1.992922
v 1.798350 3.129724 2.147881
v 2.153398 2.746822 2.233294
v 2.130204 3.149828 1.953354
v 1.798350 3.129724 2.147881
v 1.900124 2.753788 2.264475
v 2.328221 2.934621 1.336105
v 2.436272 2.366306 2.068887
v 1.815210 2.254784 2.118653
v 1.649422 2.568190 1.618504
v 1.770927 2.506064 2.190896
v 1.572978 2.815186 1.934145
v 2.389886 3.025630 1.637280
v 2.406593 2.618214 2.141289
v 1.531265 3.592936 1.504590
v 1.788180 3.187112 0.971295
vt 0.379268 0.965862
vt 0.380194 0.948428
vt 0.394610 0.969385
vt 0.361348 0.969385
vt 0.358725 0.934199
vt 0.335777 0.948155
vt 0.329382 0.940989
vt 0.340708 0.913854
vt 0.361276 0.958096
vt 0.337045 0.956684
vt 0.341010 0.979966
vt 0.329217 0.962977
vt 0.312707 0.977975
vt 0.319309 0.962988
vt 0.292530 0.955135
vt 0.312305 0.954450
vt 0.295315 0.929086
vt 0.312474 0.945664
vt 0.317069 0.913854
vt 0.320650 0.940755
vt 0.324380 0.952362
vt 0.446610 0.810448
vt 0.460823 0.790557
vt 0.460823 0.830195
vt 0.423195 0.817693
vt 0.426676 0.845882
vt 0.423195 0.863596
vt 0.423195 0.830268
vt 0.444065 0.845176
vt 0.308143 0.855884
vt 0.285712 0.807712
vt 0.315238 0.790557
vt 0.312844 0.854014
vt 0.381749 0.918925
vt 0.402554 0.906397
vt 0.385417 0.948355
vt 0.374464 0.810482
vt 0.401981 0.832846
vt 0.390362 0.847259
vt 0.361348 0.828647
vt 0.361348 0.860626
vt 0.384721 0.866719
vt 0.390726 0.884389
vt 0.369935 0.889044
vt 0.319717 0.875258
vt 0.354595 0.892162
vt 0.314265 0.913782
vt 0.308982 0.879746
vt 0.353289 0.811300
vt 0.318195 0.857500
vt 0.303958 0.861279
vt 0.271954 0.838831
vt 0.301680 0.869399
vt 0.271954 0.884606
vt 0.361276 0.841771
vt 0.323646 0.864218
vt 0.421612 0.864793
vt 0.423122 0.815278
vt 0.393589 0.790557
vn 0.107322 0.320294 0.941219
vn 0.107322 0.320294 0.941219
vn 0.107322 0.320294 0.941219
vn 0.833705 -0.403521 0.376971
vn 0.833705 -0.403521 0.376971
vn 0.833705 -0.403521 0.376971
vn -0.706563 -0.143829 -0.692879
vn -0.706563 -0.143829 -0.692879
vn -0.706563 -0.143829 -0.692879
vn 0.501211 0.597872 0.625569
vn 0.501211 0.597872 0.625569
vn 0.501211 0.597872 0.625569
vn 0.501211 0.597872 0.625569
vn 0.042418 0.727567 0.684724
vn 0.042418 0.727567 0.684724
vn 0.042418 0.727567 0.684724
vn 0.042418 0.727567 0.684724
vn -0.892358 0.323629 0.314584
vn -0.892358 0.323629 0.314584
vn -0.892358 0.323629 0.314584
vn -0.892358 0.323629 0.314584
vn -0.986710 -0.162088 -0.011408
vn -0.986710 -0.162088 -0.011408
vn -0.986710 -0.162088 -0.011408
vn -0.986710 -0.162088 -0.011408
vn -0.531396 -0.769528 -0.354183
vn -0.531396 -0.769528 -0.354183
vn -0.531396 -0.769528 -0.354183
vn -0.531396 -0.769528 -0.354183
vn -0.067654 -0.950318 -0.303839
vn -0.067654 -0.950318 -0.303839
vn -0.067654 -0.950318 -0.303839
vn -0.067654 -0.950318 -0.303839
vn 0.925148 -0.068351 0.373401
vn 0.925148 -0.068351 0.373402
vn 0.925148 -0.068351 0.373401
vn 0.925148 -0.068351 0.373402
vn -0.628397 -0.176430 0.757621
vn -0.628397 -0.176430 0.757621
vn -0.628397 -0.176430 0.757621
vn -0.172096 -0.014930 0.984967
vn -0.172096 -0.014930 0.984967
vn -0.172096 -0.014930 0.984967
vn 0.055879 -0.078983 0.995309
vn 0.055879 -0.078983 0.995309
vn 0.055879 -0.078983 0.995309
vn -0.709285 -0.458882 0.535109
vn -0.709285 -0.458882 0.535109
vn -0.709285 -0.458882 0.535109
vn -0.482380 -0.782157 0.394386
vn -0.482380 -0.782157 0.394386
vn -0.482380 -0.782157 0.394386
vn -0.168805 -0.866467 0.469830
vn -0.168805 -0.866467 0.469830
vn -0.168805 -0.866467 0.469830
vn 0.297819 -0.614244 0.730759
vn 0.297819 -0.614244 0.730759
vn 0.297819 -0.614244 0.730759
vn 0.323556 -0.499210 0.803804
vn 0.323556 -0.499210 0.803804
vn 0.323556 -0.499210 0.803804
vn 0.852949 -0.481762 0.200956
vn 0.852949 -0.481762 0.200956
vn 0.852949 -0.481762 0.200956
vn 0.852949 -0.481762 0.200956
vn 0.732445 -0.577481 0.360611
vn 0.732445 -0.577481 0.360611
vn 0.732445 -0.577481 0.360611
vn -0.743738 -0.217632 -0.632052
vn -0.743738 -0.217632 -0.632052
vn -0.743738 -0.217632 -0.632052
vn -0.004547 0.541991 0.840372
vn -0.004547 0.541991 0.840372
vn -0.004547 0.541991 0.840372
vn -0.687300 -0.171488 -0.705840
vn -0.687299 -0.171488 -0.705841
vn -0.687299 -0.171488 -0.705841
vn 0.175631 0.543665 0.820720
vn 0.175631 0.543665 0.820720
vn 0.175631 0.543665 0.820720
vn 0.663134 -0.478488 0.575590
vn 0.663134 -0.478488 0.575590
vn 0.663134 -0.478488 0.575590
vn -0.040039 -0.824513 -0.564425
vn -0.040039 -0.824513 -0.564425
vn -0.040039 -0.824513 -0.564425
vn -0.040039 -0.824513 -0.564425
vn -0.824989 -0.524447 0.210590
vn -0.824989 -0.524447 0.210590
vn -0.824989 -0.524447 0.210590
vn 0.828056 0.440419 -0.346921
vn 0.828056 0.440419 -0.346921
vn 0.828056 0.440419 -0.346921
vn 0.828056 0.440419 -0.346921
vn 0.231637 0.465321 0.854295
vn 0.231637 0.465321 0.854295
vn 0.231637 0.465321 0.854295
vn 0.231637 0.465321 0.854295
vn 0.308379 0.470383 0.826827
vn 0.308380 0.470383 0.826826
vn 0.308380 0.470383 0.826826
vn 0.308379 0.470383 0.826827
vn 0.789767 -0.390654 -0.472925
vn 0.789767 -0.390654 -0.472925
vn 0.789767 -0.390654 -0.472925
vn 0.789767 -0.390654 -0.472925
vn 0.749619 0.492938 0.441682
vn 0.749619 0.492938 0.441682
vn 0.749619 0.492938 0.441682
vn 0.749619 0.492938 0.441682
vn -0.490219 -0.797051 -0.352696
vn -0.490219 -0.797051 -0.352696
vn -0.490219 -0.797051 -0.352696
vn -0.490219 -0.797051 -0.352696
vn -0.924254 -0.347321 0.158500
vn -0.924254 -0.347321 0.158500
vn -0.924254 -0.347321 0.158500
vn -0.924254 -0.347321 0.158500
vn -0.572518 -0.036588 0.819076
vn -0.572518 -0.036588 0.819076
vn -0.572518 -0.036588 0.819076
vn -0.572518 -0.036588 0.819076
vn -0.700815 0.079709 0.708875
vn -0.700815 0.079709 0.708875
vn -0.700815 0.079709 0.708875
vn -0.700815 0.079709 0.708875
vn 0.995588 0.008895 -0.093410
vn 0.995588 0.008895 -0.093410
vn 0.995588 0.008895 -0.093410
vn 0.995588 0.008895 -0.093410
vn 0.101310 0.973960 0.202825
vn 0.101310 0.973960 0.202825
vn 0.101310 0.973960 0.202825
vn -0.261530 0.827455 0.496911
vn -0.261530 0.827455 0.496911
vn -0.261530 0.827455 0.496911
vn -0.758480 0.501958 0.415628
vn -0.758480 0.501958 0.415628
vn -0.758480 0.501958 0.415628
vn 0.672122 0.531636 0.515379
vn 0.672122 0.531636 0.515379
vn 0.672122 0.531636 0.515379
vn 0.672122 0.531636 0.515379
vn 0.155974 0.917120 -0.366829
vn 0.155974 0.917120 -0.366829
vn 0.155974 0.917120 -0.366829
vn -0.011778 0.792990 -0.609120
vn -0.011778 0.792990 -0.609120
vn -0.011778 0.792990 -0.609120
vn 0.606937 0.179545 -0.774203
vn 0.606937 0.179545 -0.774203
vn 0.606937 0.179545 -0.774203
vn 0.606937 0.179545 -0.774203
s off
usemtl BlastoiseLeftArm:Material_002
f 1/1/1 2/2/2 3/3/3
f 1/1/4 4/4/5 2/2/6
f 3/3/7 4/4/8 1/1/9
f 5/5/10 6/6/11 7/7/12
f 7/7/12 8/8/13 5/5/10
f 9/9/14 10/10/15 6/6/16
f 6/6/16 5/5/17 9/9/14
f 11/11/18 12/12/19 10/10/20
f 10/10/20 9/9/21 11/11/18
f 13/13/22 14/14/23 12/12/24
f 12/12/24 11/11/25 13/13/22
f 15/15/26 16/16/27 14/14/28
f 14/14/28 13/13/29 15/15/26
f 17/17/30 18/18/31 16/16/32
f 16/16/32 15/15/33 17/17/30
f 19/19/34 8/8/35 7/7/36
f 7/7/36 20/20/37 19/19/34
f 21/21/38 10/10/39 12/12/40
f 21/21/41 6/6/42 10/10/43
f 7/7/44 6/6/45 21/21/46
f 14/14/47 21/21/48 12/12/49
f 14/14/50 16/16/51 21/21/52
f 18/18/53 21/21/54 16/16/55
f 18/18/56 20/20/57 21/21/58
f 21/21/59 20/20/60 7/7/61
f 20/20/62 18/18/63 17/17/64
f 17/17/64 19/19/65 20/20/62
f 22/22/66 23/23/67 24/24/68
f 22/22/69 25/25/70 23/23/71
f 24/24/72 25/25/73 22/22/74
f 26/26/75 27/27/76 28/28/77
f 26/26/78 29/29/79 27/27/80
f 28/28/81 29/29/82 26/26/83
f 30/30/84 31/31/85 32/32/86
f 32/32/86 33/33/87 30/30/84
f 34/34/88 35/35/89 36/36/90
f 37/37/91 38/38/92 39/39/93
f 39/39/93 40/40/94 37/37/91
f 41/41/95 42/42/96 43/43/97
f 43/43/97 44/44/98 41/41/95
f 45/45/99 46/46/100 47/47/101
f 47/47/101 48/48/102 45/45/99
f 33/33/103 32/32/104 49/49/105
f 49/49/105 50/50/106 33/33/103
f 40/40/107 39/39/108 42/42/109
f 42/42/109 41/41/110 40/40/107
f 31/31/111 30/30/112 51/51/113
f 51/51/113 52/52/114 31/31/111
f 53/53/115 54/54/116 52/52/117
f 52/52/117 51/51/118 53/53/115
f 44/44/119 43/43/120 35/35/121
f 35/35/121 34/34/122 44/44/119
f 48/48/123 47/47/124 54/54/125
f 54/54/125 53/53/126 48/48/123
f 49/49/127 55/55/128 56/56/129
f 56/56/129 50/50/130 49/49/127
f 57/57/131 42/42/132 39/39/133
f 43/43/134 42/42/135 57/57/136
f 57/57/137 35/35/138 43/43/139
f 56/56/140 55/55/141 46/46/142
f 46/46/142 45/45/143 56/56/140
f 38/38/144 57/57/145 39/39/146
f 38/38/147 58/58/148 57/57/149
f 37/37/150 32/59/151 58/58/152
f 58/58/152 38/38/153 37/37/150
