# This file uses centimeters as units for non-parametric coordinates.

mtllib BlastoiseRightLeg.mtl
v -1.137889 0.013840 -0.237609
v -0.855727 0.007140 0.089721
v -0.778970 0.254205 -0.029617
v -1.054656 0.261568 -0.396244
v -1.686589 0.691958 0.977221
v -1.345448 0.679182 1.034527
v -1.361864 0.256141 0.760036
v -1.591267 0.262257 0.689777
v -1.950148 0.684316 0.768154
v -1.918135 1.204974 0.714916
v -1.685357 1.202137 0.957442
v -0.762272 0.246843 0.409035
v -0.682487 0.687250 0.548664
v -0.783750 0.717241 0.114306
v -1.502416 0.268934 -0.366990
v -1.867200 0.276296 -0.077001
v -1.873962 0.027226 -0.041134
v -1.601275 0.020530 -0.228738
v -1.136482 0.745751 -0.261255
v -1.559407 1.135781 -0.426022
v -1.892687 1.161698 -0.123490
v -2.019306 0.712738 -0.054681
v -1.619913 0.728842 -0.295177
v -1.136482 0.745751 -0.261255
v -1.054656 0.261568 -0.396244
v -1.137889 0.013840 -0.237609
v -0.869490 0.000447 0.489078
v -1.260985 1.555609 -0.423727
v -0.659402 1.133287 0.034226
v -0.655164 1.153350 0.527742
v -1.263686 1.581622 0.689777
v -0.945033 0.667481 0.874090
v -0.932049 1.178340 0.860540
v -0.926874 0.059273 0.582101
v -1.338588 0.009146 0.627029
v -1.878811 0.210461 0.885453
v -1.702681 0.264550 0.626811
v -1.175006 0.253815 0.722697
v -0.869490 0.000447 0.489078
v -1.163063 0.047945 1.031535
v -1.760863 0.018186 0.316941
v -1.820671 0.268373 0.516107
v -0.942951 0.044377 -0.612714
v -0.990480 0.011250 -0.578291
v -0.934660 0.010593 -0.626696
v -1.346923 0.012881 -0.230794
v -1.010881 0.191125 -0.481282
v -1.346923 0.012881 -0.230794
v -1.006450 0.007140 -0.074274
v -1.006450 0.007140 -0.074274
v -2.083890 0.679512 0.330087
v -1.940129 0.272331 0.206853
v -1.979275 1.181322 0.285034
v -0.940873 0.009925 -0.554328
v -1.989555 0.057838 1.056031
v -1.929296 0.025435 1.067108
v -2.020641 0.027763 1.099375
v -1.873962 0.027226 -0.041134
v -2.169337 0.023271 0.203163
v -2.222843 0.022706 0.247916
v -2.155199 0.022141 0.262418
v -1.338588 0.009146 0.627029
v -0.855727 0.007140 0.089721
v -1.137889 0.013840 -0.237609
v -1.601275 0.020530 -0.228738
v -1.553022 1.553054 -0.203860
v -1.539702 1.609444 0.046340
v -1.539802 1.584665 0.452405
v -1.437728 1.583147 0.659726
v -1.324488 1.200183 1.027403
v -1.023625 1.113223 -0.459290
v -1.200194 0.001660 1.017934
v -1.159876 -0.000088 1.062783
v -2.013687 0.027691 1.012685
v -1.112238 0.000011 0.992074
v -1.112238 0.000011 0.992074
v -1.159876 -0.000088 1.062783
v -2.176593 0.079028 0.237745
vt 0.782597 0.732775
vt 0.814688 0.719344
vt 0.818964 0.740906
vt 0.787352 0.757408
vt 0.633951 0.831856
vt 0.631812 0.853626
vt 0.589657 0.849944
vt 0.587384 0.827131
vt 0.635971 0.810322
vt 0.667564 0.814644
vt 0.663417 0.833671
vt 0.847340 0.722450
vt 0.875706 0.746837
vt 0.846125 0.767076
vt 0.761756 0.868021
vt 0.765624 0.903140
vt 0.746407 0.907076
vt 0.743343 0.881461
vt 0.811524 0.791357
vt 0.828500 0.863618
vt 0.834252 0.895684
vt 0.800797 0.910099
vt 0.798266 0.873525
vt 0.794832 0.834961
vt 0.754616 0.834603
vt 0.733681 0.846715
vt 0.840855 0.700982
vt 0.851870 0.845708
vt 0.861358 0.795140
vt 0.893692 0.779166
vt 0.927660 0.834195
vt 0.628997 0.916253
vt 0.628804 0.881894
vt 0.663839 0.881636
vt 0.670107 0.914549
vt 0.586575 0.916253
vt 0.588983 0.886209
vt 0.566453 0.851594
vt 0.559006 0.809588
vt 0.588268 0.810127
vt 0.537912 0.778156
vt 0.535737 0.809799
vt 0.535185 0.809757
vt 0.512774 0.773614
vt 0.579413 0.762916
vt 0.594389 0.790761
vt 0.752901 0.947948
vt 0.752471 0.949991
vt 0.752482 0.948192
vt 0.770035 0.977629
vt 0.761508 0.943728
vt 0.770700 0.977635
vt 0.770700 0.939502
vt 0.738004 0.910761
vt 0.738510 0.910194
vt 0.653254 0.752543
vt 0.642260 0.779974
vt 0.611641 0.762300
vt 0.617313 0.740670
vt 0.691510 0.760810
vt 0.677243 0.789034
vt 0.749517 0.946808
vt 0.547285 0.808639
vt 0.541086 0.812826
vt 0.548115 0.807477
vt 0.862411 0.866467
vt 0.733585 0.774547
vt 0.727857 0.795453
vt 0.709366 0.825008
vt 0.701902 0.843391
vt 0.662850 0.854688
vt 0.700940 0.858961
vt 0.827789 0.824009
vt 0.513239 0.769488
vt 0.509448 0.770947
vt 0.538184 0.756800
vt 0.537929 0.756236
vt 0.509340 0.770949
vt 0.509322 0.764789
vt 0.549516 0.806873
vt 0.737402 0.911197
vt 0.770796 0.960672
vt 0.770796 0.910194
vt 0.771677 0.960672
vt 0.926975 0.836237
vt 0.926218 0.835044
vt 0.926218 0.835181
vt 0.600011 0.739454
vt 0.600034 0.739152
vt 0.600173 0.752788
vt 0.598920 0.751099
vt 0.598805 0.751670
vt 0.597636 0.751874
vt 0.587339 0.866597
vt 0.564770 0.903240
vt 0.560078 0.858193
vt 0.519612 0.727842
vt 0.589263 0.718903
vt 0.536544 0.706511
vt 0.563459 0.700982
vt 0.511825 0.778976
vt 0.508897 0.773985
vt 0.733681 0.981170
vt 0.882115 0.863717
vt 0.927660 0.847876
vt 0.913180 0.858400
vn -0.661330 0.518404 0.542126
vn -0.661330 0.518404 0.542126
vn -0.661330 0.518404 0.542126
vn -0.661330 0.518404 0.542126
vn 0.199309 0.551998 -0.809676
vn 0.199309 0.551998 -0.809676
vn 0.199309 0.551998 -0.809676
vn 0.199309 0.551998 -0.809676
vn 0.671533 -0.073881 -0.737283
vn 0.671533 -0.073881 -0.737282
vn 0.671533 -0.073881 -0.737283
vn 0.671533 -0.073881 -0.737283
vn -0.989988 0.039674 0.135464
vn -0.989988 0.039674 0.135464
vn -0.989988 0.039674 0.135464
vn -0.989988 0.039674 0.135464
vn 0.594917 0.150074 0.789653
vn 0.594917 0.150074 0.789653
vn 0.594917 0.150074 0.789653
vn 0.594917 0.150074 0.789653
vn -0.744827 -0.250237 0.618558
vn -0.744827 -0.250237 0.618558
vn -0.744827 -0.250237 0.618558
vn -0.744827 -0.250237 0.618558
vn 0.594971 0.056939 0.801728
vn 0.594971 0.056939 0.801728
vn 0.594971 0.056939 0.801728
vn 0.594971 0.056939 0.801728
vn -0.002698 -0.214518 0.976716
vn -0.002698 -0.214518 0.976716
vn -0.002698 -0.214518 0.976716
vn -0.002698 -0.214518 0.976716
vn 0.043894 0.501081 0.864286
vn 0.043894 0.501081 0.864286
vn 0.043894 0.501081 0.864286
vn 0.043894 0.501081 0.864286
vn -0.935737 0.352580 0.009191
vn -0.935737 0.352580 0.009191
vn -0.935737 0.352580 0.009191
vn -0.935737 0.352580 0.009191
vn -0.578803 -0.815116 0.023924
vn -0.578803 -0.815116 0.023924
vn -0.578803 -0.815116 0.023924
vn -0.578803 -0.815116 0.023924
vn -0.773376 0.009541 -0.633876
vn -0.773376 0.009541 -0.633876
vn -0.773376 0.009541 -0.633876
vn -0.773376 0.009541 -0.633876
vn 0.567552 0.084701 0.818969
vn 0.567552 0.084701 0.818969
vn 0.567552 0.084701 0.818969
vn 0.567552 0.084701 0.818969
vn -0.783597 0.275294 -0.556946
vn -0.783597 0.275294 -0.556946
vn -0.783597 0.275294 -0.556946
vn -0.783597 0.275294 -0.556945
vn -0.500402 -0.713769 -0.490032
vn -0.500402 -0.713769 -0.490032
vn -0.500402 -0.713769 -0.490032
vn -0.742119 -0.570606 -0.351665
vn 0.000000 0.000000 0.000000
vn 0.000000 0.000000 0.000000
vn -0.742119 -0.570606 -0.351665
vn 0.560805 0.593565 -0.577216
vn 0.560805 0.593565 -0.577216
vn 0.560805 0.593565 -0.577216
vn 0.646642 -0.150770 0.747745
vn 0.646642 -0.150770 0.747745
vn 0.646641 -0.150770 0.747745
vn 0.675669 -0.248030 0.694228
vn 0.675669 -0.248030 0.694228
vn 0.675669 -0.248030 0.694228
vn 0.667408 -0.301083 0.681114
vn 0.667408 -0.301083 0.681114
vn 0.667408 -0.301083 0.681114
vn 0.000000 -0.000000 0.000000
vn 0.000000 -0.000000 0.000000
vn 0.672840 -0.361235 0.645597
vn 0.672840 -0.361235 0.645597
vn -0.913229 -0.374914 -0.159535
vn 0.000000 0.000000 0.000000
vn 0.000000 0.000000 0.000000
vn -0.913229 -0.374914 -0.159535
vn 0.933630 0.291506 0.208231
vn 0.933630 0.291506 0.208231
vn 0.933630 0.291506 0.208231
vn 0.933630 0.291506 0.208231
vn 0.960626 -0.212144 0.179422
vn 0.960626 -0.212144 0.179422
vn 0.960626 -0.212144 0.179422
vn 0.960626 -0.212144 0.179422
vn -0.975241 -0.203901 -0.085610
vn -0.975241 -0.203901 -0.085610
vn -0.975241 -0.203901 -0.085610
vn -0.253669 -0.699963 -0.667610
vn -0.253669 -0.699963 -0.667610
vn -0.253669 -0.699963 -0.667610
vn -0.357519 -0.818564 -0.449592
vn -0.357519 -0.818564 -0.449592
vn -0.357519 -0.818564 -0.449592
vn -0.515923 -0.444248 -0.732439
vn -0.515923 -0.444248 -0.732439
vn -0.515923 -0.444248 -0.732439
vn 0.860020 0.418551 -0.291857
vn 0.860020 0.418551 -0.291857
vn 0.860020 0.418551 -0.291857
vn 0.860020 0.418551 -0.291857
vn 0.965789 -0.149429 -0.211951
vn 0.965789 -0.149429 -0.211951
vn 0.965789 -0.149429 -0.211951
vn 0.965789 -0.149429 -0.211951
vn 0.582003 -0.389083 0.714064
vn 0.582003 -0.389083 0.714064
vn 0.582003 -0.389083 0.714063
vn 0.582003 -0.389083 0.714063
vn 0.745538 -0.647549 0.157649
vn 0.745538 -0.647549 0.157649
vn 0.745538 -0.647549 0.157649
vn 0.745538 -0.647549 0.157649
vn 0.685776 -0.726020 -0.051054
vn 0.685776 -0.726020 -0.051054
vn 0.685776 -0.726020 -0.051054
vn 0.685776 -0.726020 -0.051054
vn 0.535971 -0.740133 -0.406125
vn 0.535971 -0.740133 -0.406125
vn 0.535971 -0.740133 -0.406125
vn 0.535971 -0.740133 -0.406125
vn -0.343217 -0.591264 -0.729801
vn -0.343217 -0.591264 -0.729801
vn -0.343217 -0.591264 -0.729801
vn 0.001574 0.390595 0.920561
vn 0.001574 0.390595 0.920561
vn 0.001574 0.390595 0.920561
vn 0.001574 0.390595 0.920561
vn 0.685372 -0.364597 -0.630344
vn 0.685372 -0.364597 -0.630344
vn 0.685372 -0.364597 -0.630344
vn 0.132963 -0.665674 -0.734302
vn 0.132963 -0.665674 -0.734302
vn 0.132963 -0.665674 -0.734302
vn 0.132963 -0.665674 -0.734302
vn -0.381786 -0.005958 -0.924232
vn -0.381786 -0.005958 -0.924232
vn -0.381786 -0.005958 -0.924232
vn -0.381786 -0.005958 -0.924232
vn 0.177705 -0.029487 -0.983642
vn 0.177705 -0.029487 -0.983642
vn 0.177705 -0.029487 -0.983642
vn 0.177705 -0.029487 -0.983642
vn 0.840275 -0.435562 -0.322838
vn 0.840275 -0.435562 -0.322838
vn 0.840275 -0.435562 -0.322838
vn 0.000000 0.000000 0.000000
vn 0.000000 0.000000 0.000000
vn 0.786413 -0.545992 -0.288873
vn 0.786413 -0.545992 -0.288873
vn 0.000000 0.000000 0.000000
vn 0.000000 0.000000 0.000000
vn 0.000000 0.000000 0.000000
vn 0.059887 -0.048020 0.997050
vn 0.059887 -0.048020 0.997049
vn 0.059887 -0.048020 0.997049
vn -0.976983 0.180917 0.113021
vn -0.976983 0.180917 0.113021
vn -0.976983 0.180917 0.113021
vn -0.976983 0.180917 0.113021
vn -0.592005 -0.673962 -0.441934
vn -0.592005 -0.673962 -0.441934
vn -0.592005 -0.673962 -0.441934
vn -0.718230 -0.429378 0.547522
vn -0.718230 -0.429378 0.547522
vn -0.718230 -0.429377 0.547522
vn 0.899339 -0.322230 0.295564
vn 0.899339 -0.322230 0.295564
vn 0.899339 -0.322230 0.295564
vn -0.580569 0.783454 -0.221674
vn -0.580569 0.783454 -0.221674
vn -0.580569 0.783454 -0.221674
vn -0.939421 -0.316059 -0.132645
vn -0.939421 -0.316059 -0.132645
vn 0.000000 0.000000 0.000000
vn 0.000000 0.000000 0.000000
vn 0.000000 0.000000 0.000000
vn -0.950878 -0.280238 -0.131519
vn -0.950878 -0.280238 -0.131519
vn 0.000000 0.000000 0.000000
vn 0.000000 0.000000 0.000000
vn 0.000000 0.000000 0.000000
vn 0.000000 0.000000 0.000000
vn 0.707373 -0.611964 0.353729
vn 0.707373 -0.611964 0.353729
vn 0.707373 -0.611964 0.353729
vn 0.322427 0.518249 -0.792123
vn 0.322427 0.518249 -0.792123
vn 0.322427 0.518249 -0.792123
vn 0.322427 0.518249 -0.792123
vn 0.735758 -0.674618 0.059582
vn 0.735758 -0.674618 0.059582
vn 0.735758 -0.674618 0.059582
vn 0.000000 0.000000 0.000000
vn 0.000000 0.000000 0.000000
vn 0.968468 0.009558 0.248956
vn 0.968468 0.009558 0.248956
vn 0.834308 0.451396 -0.316498
vn 0.834308 0.451396 -0.316498
vn 0.834308 0.451396 -0.316498
vn 0.133268 -0.313289 -0.940260
vn 0.133268 -0.313289 -0.940260
vn 0.133268 -0.313289 -0.940260
vn 0.522418 -0.532653 0.665853
vn 0.522418 -0.532653 0.665853
vn 0.522418 -0.532653 0.665853
vn 0.596076 -0.365759 0.714782
vn 0.596076 -0.365759 0.714782
vn 0.596076 -0.365759 0.714783
vn 0.599848 -0.363895 0.712574
vn 0.599848 -0.363895 0.712574
vn 0.599848 -0.363895 0.712574
vn 0.195453 -0.327442 -0.924435
vn 0.195453 -0.327442 -0.924435
vn 0.195453 -0.327442 -0.924435
vn 0.124546 -0.355013 -0.926528
vn 0.124546 -0.355013 -0.926528
vn 0.124546 -0.355013 -0.926528
vn 0.025184 0.999675 -0.003918
vn 0.025184 0.999675 -0.003918
vn 0.025184 0.999675 -0.003918
vn 0.025184 0.999675 -0.003918
vn 0.025184 0.999675 -0.003918
vn -0.233516 0.472193 -0.850002
vn -0.233516 0.472193 -0.850002
vn -0.233516 0.472193 -0.850002
vn -0.233516 0.472193 -0.850002
vn -0.233516 0.472193 -0.850002
vn -0.293291 0.507901 -0.809949
vn -0.293291 0.507901 -0.809949
vn -0.293291 0.507901 -0.809949
vn -0.293291 0.507901 -0.809949
vn -0.293291 0.507901 -0.809949
vn 0.021968 0.999692 0.011543
vn 0.021968 0.999692 0.011543
vn 0.021968 0.999692 0.011543
vn 0.021968 0.999692 0.011543
vn 0.021968 0.999692 0.011543
vn 0.016355 0.999796 0.011813
vn 0.016355 0.999796 0.011813
vn 0.016355 0.999797 0.011813
vn 0.016355 0.999797 0.011813
vn 0.016355 0.999797 0.011813
vn 0.016355 0.999796 0.011813
vn 0.016355 0.999797 0.011813
vn 0.016355 0.999797 0.011813
vn 0.016355 0.999797 0.011813
vn 0.016355 0.999797 0.011813
vn 0.773262 0.512320 0.373623
vn 0.773262 0.512320 0.373623
vn 0.773262 0.512320 0.373623
vn 0.764724 0.386262 0.515752
vn 0.764724 0.386262 0.515752
vn 0.764724 0.386262 0.515752
vn -0.169055 0.454904 -0.874347
vn -0.169055 0.454905 -0.874347
vn -0.169055 0.454905 -0.874347
vn 0.513225 0.544019 -0.663810
vn 0.513225 0.544019 -0.663810
vn 0.513225 0.544019 -0.663810
vn 0.513225 0.544019 -0.663810
vn 0.513225 0.544019 -0.663810
vn -0.698884 0.417675 0.580611
vn -0.698884 0.417675 0.580611
vn -0.698884 0.417675 0.580611
vn -0.698884 0.417675 0.580611
vn 0.014265 0.999861 0.008646
vn 0.014265 0.999861 0.008646
vn 0.014265 0.999861 0.008646
vn 0.014265 0.999861 0.008646
vn 0.014265 0.999861 0.008646
vn -0.057031 -0.997884 0.031218
vn -0.057031 -0.997884 0.031218
vn -0.057031 -0.997884 0.031218
vn -0.057031 -0.997884 0.031218
vn -0.057031 -0.997884 0.031218
vn -0.057031 -0.997884 0.031218
s off
usemtl initialShadingGroup
f 1/1/1 2/2/2 3/3/3
f 3/3/3 4/4/4 1/1/1
f 5/5/5 6/6/6 7/7/7
f 7/7/7 8/8/8 5/5/5
f 9/9/9 10/10/10 11/11/11
f 11/11/11 5/5/12 9/9/9
f 3/3/13 12/12/14 13/13/15
f 13/13/15 14/14/16 3/3/13
f 15/15/17 16/16/18 17/17/19
f 17/17/19 18/18/20 15/15/17
f 4/4/21 3/3/22 14/14/23
f 14/14/23 19/19/24 4/4/21
f 20/20/25 21/21/26 22/22/27
f 22/22/27 23/23/28 20/20/25
f 24/24/29 23/23/30 15/15/31
f 15/15/31 25/25/32 24/24/29
f 25/25/33 15/15/34 18/18/35
f 18/18/35 26/26/36 25/25/33
f 2/2/37 27/27/38 12/12/39
f 12/12/39 3/3/40 2/2/37
f 28/28/41 29/29/42 30/30/43
f 30/30/43 31/31/44 28/28/41
f 13/32/45 32/33/46 33/34/47
f 33/34/47 30/35/48 13/32/45
f 23/23/49 22/22/50 16/16/51
f 16/16/51 15/15/52 23/23/49
f 12/36/53 34/37/54 32/33/55
f 32/33/55 13/32/56 12/36/53
f 35/38/57 36/39/58 37/40/59
f 38/41/60 39/42/61 27/43/62
f 27/43/62 40/44/63 38/41/60
f 37/40/64 41/45/65 42/46/66
f 43/47/67 44/48/68 45/49/69
f 43/47/70 46/50/71 44/48/72
f 47/51/73 46/50/74 43/47/75
f 48/52/76 46/50/77 47/51/78
f 47/51/78 4/53/79 48/52/76
f 47/51/80 49/54/81 50/55/82
f 50/55/82 4/53/83 47/51/80
f 22/56/84 51/57/85 52/58/86
f 52/58/86 16/59/87 22/56/84
f 21/60/88 53/61/89 51/57/90
f 51/57/90 22/56/91 21/60/88
f 54/62/92 43/47/93 45/49/94
f 55/63/95 56/64/96 57/65/97
f 55/63/98 35/38/99 56/64/100
f 36/39/101 35/38/102 55/63/103
f 52/58/104 51/57/105 9/9/106
f 9/9/106 42/46/107 52/58/104
f 10/10/108 9/9/109 51/57/110
f 51/57/110 53/61/111 10/10/108
f 28/28/112 66/66/113 21/21/114
f 21/21/114 20/20/115 28/28/112
f 53/61/116 21/60/117 66/67/118
f 66/67/118 67/68/119 53/61/116
f 68/69/120 10/10/121 53/61/122
f 53/61/122 67/68/123 68/69/120
f 68/69/124 69/70/125 11/11/126
f 11/11/126 10/10/127 68/69/124
f 70/71/128 31/72/129 33/34/130
f 71/73/131 20/20/132 23/23/133
f 23/23/133 24/24/134 71/73/131
f 72/74/135 40/44/136 73/75/137
f 11/11/138 69/70/139 31/72/140
f 31/72/140 70/71/141 11/11/138
f 6/6/142 70/71/143 33/34/144
f 33/34/144 32/33/145 6/6/142
f 5/5/146 11/11/147 70/71/148
f 70/71/148 6/6/149 5/5/146
f 40/44/150 35/76/151 38/41/152
f 62/77/153 35/76/154 40/44/155
f 40/44/155 72/74/156 62/77/153
f 77/78/157 73/75/158 76/79/159
f 20/20/160 71/73/161 28/28/162
f 30/30/163 29/29/164 14/14/165
f 14/14/165 13/13/166 30/30/163
f 33/34/167 31/72/168 30/35/169
f 71/73/170 29/29/171 28/28/172
f 36/39/173 55/63/174 41/45/175
f 41/45/176 74/80/177 55/63/178
f 47/51/179 43/47/180 50/81/181
f 50/81/181 49/54/182 47/51/179
f 50/82/183 43/47/184 54/83/185
f 54/83/185 49/84/186 50/82/183
f 54/85/187 49/86/188 50/87/189
f 37/40/190 36/39/191 41/45/192
f 7/7/193 35/38/194 37/40/195
f 37/40/195 8/8/196 7/7/193
f 57/65/197 74/80/198 55/63/199
f 58/88/200 17/89/201 16/59/202
f 16/59/202 52/58/203 58/88/200
f 41/45/204 52/58/205 42/46/206
f 78/90/207 52/58/208 41/45/209
f 52/58/210 78/90/211 58/88/212
f 58/88/213 78/90/214 59/91/215
f 59/91/216 78/90/217 60/92/218
f 78/90/219 61/93/220 60/92/221
f 78/90/222 41/45/223 61/93/224
f 56/64/225 62/77/226 41/45/227
f 41/45/227 74/80/228 56/64/225
f 32/33/230 34/37/231 38/94/232
f 38/94/232 7/7/233 32/33/230
f 12/36/235 39/95/236 35/96/237
f 35/96/237 38/94/238 12/36/235
f 62/77/240 72/74/241 73/75/242
f 73/75/242 76/79/243 62/77/240
f 65/98/245 58/88/246 59/91/247
f 59/91/247 60/92/248 65/98/245
f 75/101/255 27/43/256 40/44/257
f 75/101/258 40/44/259 77/102/260
f 35/38/261 7/7/262 38/94/263
f 42/46/264 9/9/265 5/5/266
f 5/5/266 8/8/267 42/46/264
f 19/19/269 14/14/270 29/29/271
f 29/29/271 71/73/272 19/19/269
f 44/48/273 46/50/274 50/103/275
f 50/103/275 54/62/276 44/48/273
f 67/104/278 66/66/279 28/28/280
f 28/28/280 31/31/281 67/104/278
