# This file uses centimeters as units for non-parametric coordinates.

mtllib BlastoiseLeftLegCon.mtl
v 0.183721 -1.376160 -0.522040
v -0.098441 -1.382860 -0.194710
v -0.175198 -1.135795 -0.314048
v 0.100488 -1.128432 -0.680675
v 0.732421 -0.698042 0.692790
v 0.391280 -0.710818 0.750096
v 0.407696 -1.133859 0.475605
v 0.637099 -1.127743 0.405346
v 0.995980 -0.705684 0.483723
v 0.963967 -0.185026 0.430485
v 0.731189 -0.187863 0.673011
v -0.191896 -1.143157 0.124604
v -0.271681 -0.702750 0.264233
v -0.170418 -0.672759 -0.170125
v 0.548248 -1.121066 -0.651421
v 0.913032 -1.113704 -0.361432
v 0.919794 -1.362774 -0.325565
v 0.647107 -1.369470 -0.513169
v 0.182314 -0.644249 -0.545686
v 0.605239 -0.254219 -0.710453
v 0.938519 -0.228302 -0.407921
v 1.065138 -0.677262 -0.339112
v 0.665745 -0.661158 -0.579608
v 0.182314 -0.644249 -0.545686
v 0.100488 -1.128432 -0.680675
v 0.183721 -1.376160 -0.522040
v -0.084678 -1.389553 0.204647
v 0.306817 0.165609 -0.708158
v -0.294766 -0.256713 -0.250205
v -0.299004 -0.236650 0.243311
v 0.309518 0.191622 0.405346
v -0.009135 -0.722519 0.589659
v -0.022119 -0.211660 0.576109
v 0.006174 -1.352815 0.249206
v 0.384420 -1.380854 0.342598
v 0.924643 -1.179539 0.601022
v 0.748513 -1.125450 0.342380
v 0.220838 -1.136185 0.438266
v -0.084678 -1.389553 0.204647
v 0.208895 -1.342055 0.747104
v 0.806695 -1.371814 0.032510
v 0.866503 -1.121627 0.231676
v -0.011217 -1.345623 -0.897145
v 0.036312 -1.378750 -0.862722
v -0.019508 -1.379407 -0.911127
v 0.392755 -1.377119 -0.515225
v 0.056713 -1.198875 -0.765713
v 0.392755 -1.377119 -0.515225
v 0.052282 -1.382860 -0.358705
v 0.052282 -1.382860 -0.358705
v 1.129722 -0.710488 0.045656
v 0.985961 -1.117669 -0.077578
v 1.025107 -0.208678 0.000603
v -0.013295 -1.380075 -0.838759
v 1.035387 -1.332162 0.771600
v 0.975128 -1.364565 0.782677
v 1.066473 -1.362237 0.814944
v 0.919794 -1.362774 -0.325565
v 1.215169 -1.366729 -0.081268
v 1.268675 -1.367294 -0.036515
v 1.201031 -1.367859 -0.022013
v 0.384420 -1.380854 0.342598
v -0.098441 -1.382860 -0.194710
v 0.183721 -1.376160 -0.522040
v 0.647107 -1.369470 -0.513169
v 0.598854 0.163054 -0.488291
v 0.585534 0.219444 -0.238091
v 0.585634 0.194665 0.167974
v 0.483560 0.193147 0.375295
v 0.370320 -0.189817 0.742972
v 0.069457 -0.276777 -0.743721
v 0.246026 -1.388340 0.733503
v 0.205708 -1.390088 0.778352
v 1.059519 -1.362309 0.728254
v 0.158070 -1.389989 0.707643
v 0.158070 -1.389989 0.707643
v 0.205708 -1.390088 0.778352
v 1.222425 -1.310972 -0.046686
vt 0.782597 0.732775
vt 0.814688 0.719344
vt 0.818964 0.740906
vt 0.787352 0.757408
vt 0.633951 0.831856
vt 0.631812 0.853626
vt 0.589657 0.849944
vt 0.587384 0.827131
vt 0.635971 0.810322
vt 0.667564 0.814644
vt 0.663417 0.833671
vt 0.847340 0.722450
vt 0.875706 0.746837
vt 0.846125 0.767076
vt 0.761756 0.868021
vt 0.765624 0.903140
vt 0.746407 0.907076
vt 0.743343 0.881461
vt 0.811524 0.791357
vt 0.828500 0.863618
vt 0.834252 0.895684
vt 0.800797 0.910099
vt 0.798266 0.873525
vt 0.794832 0.834961
vt 0.754616 0.834603
vt 0.733681 0.846715
vt 0.840855 0.700982
vt 0.851870 0.845708
vt 0.861358 0.795140
vt 0.893692 0.779166
vt 0.927660 0.834195
vt 0.628997 0.916253
vt 0.628804 0.881894
vt 0.663839 0.881636
vt 0.670107 0.914549
vt 0.586575 0.916253
vt 0.588983 0.886209
vt 0.566453 0.851594
vt 0.559006 0.809588
vt 0.588268 0.810127
vt 0.537912 0.778156
vt 0.535737 0.809799
vt 0.535185 0.809757
vt 0.512774 0.773614
vt 0.579413 0.762916
vt 0.594389 0.790761
vt 0.752901 0.947948
vt 0.752471 0.949991
vt 0.752482 0.948192
vt 0.770035 0.977629
vt 0.761508 0.943728
vt 0.770700 0.977635
vt 0.770700 0.939502
vt 0.738004 0.910761
vt 0.738510 0.910194
vt 0.653254 0.752543
vt 0.642260 0.779974
vt 0.611641 0.762300
vt 0.617313 0.740670
vt 0.691510 0.760810
vt 0.677243 0.789034
vt 0.749517 0.946808
vt 0.547285 0.808639
vt 0.541086 0.812826
vt 0.548115 0.807477
vt 0.862411 0.866467
vt 0.733585 0.774547
vt 0.727857 0.795453
vt 0.709366 0.825008
vt 0.701902 0.843391
vt 0.662850 0.854688
vt 0.700940 0.858961
vt 0.827789 0.824009
vt 0.513239 0.769488
vt 0.509448 0.770947
vt 0.538184 0.756800
vt 0.537929 0.756236
vt 0.509340 0.770949
vt 0.509322 0.764789
vt 0.549516 0.806873
vt 0.737402 0.911197
vt 0.770796 0.960672
vt 0.770796 0.910194
vt 0.771677 0.960672
vt 0.926975 0.836237
vt 0.926218 0.835044
vt 0.926218 0.835181
vt 0.600011 0.739454
vt 0.600034 0.739152
vt 0.600173 0.752788
vt 0.598920 0.751099
vt 0.598805 0.751670
vt 0.597636 0.751874
vt 0.587339 0.866597
vt 0.564770 0.903240
vt 0.560078 0.858193
vt 0.519612 0.727842
vt 0.589263 0.718903
vt 0.536544 0.706511
vt 0.563459 0.700982
vt 0.511825 0.778976
vt 0.508897 0.773985
vt 0.733681 0.981170
vt 0.882115 0.863717
vt 0.927660 0.847876
vt 0.913180 0.858400
vn -0.661330 -0.518404 -0.542126
vn -0.661330 -0.518404 -0.542126
vn -0.661330 -0.518404 -0.542126
vn -0.661330 -0.518404 -0.542126
vn 0.199309 -0.551998 0.809676
vn 0.199309 -0.551998 0.809676
vn 0.199309 -0.551998 0.809676
vn 0.199309 -0.551998 0.809676
vn 0.671533 0.073881 0.737282
vn 0.671533 0.073881 0.737282
vn 0.671533 0.073881 0.737282
vn 0.671533 0.073881 0.737282
vn -0.989988 -0.039674 -0.135464
vn -0.989988 -0.039674 -0.135464
vn -0.989988 -0.039674 -0.135464
vn -0.989988 -0.039674 -0.135464
vn 0.594917 -0.150074 -0.789653
vn 0.594917 -0.150074 -0.789653
vn 0.594917 -0.150074 -0.789653
vn 0.594917 -0.150074 -0.789653
vn -0.744827 0.250237 -0.618558
vn -0.744827 0.250237 -0.618558
vn -0.744827 0.250237 -0.618558
vn -0.744827 0.250237 -0.618558
vn 0.594971 -0.056939 -0.801728
vn 0.594971 -0.056939 -0.801728
vn 0.594971 -0.056939 -0.801728
vn 0.594971 -0.056939 -0.801728
vn -0.002698 0.214518 -0.976716
vn -0.002698 0.214518 -0.976716
vn -0.002698 0.214518 -0.976716
vn -0.002698 0.214518 -0.976716
vn 0.043894 -0.501081 -0.864286
vn 0.043894 -0.501081 -0.864286
vn 0.043894 -0.501081 -0.864286
vn 0.043894 -0.501081 -0.864286
vn -0.935737 -0.352580 -0.009191
vn -0.935737 -0.352580 -0.009191
vn -0.935737 -0.352580 -0.009191
vn -0.935737 -0.352580 -0.009191
vn -0.578803 0.815116 -0.023924
vn -0.578803 0.815116 -0.023924
vn -0.578803 0.815116 -0.023924
vn -0.578803 0.815116 -0.023924
vn -0.773376 -0.009541 0.633876
vn -0.773376 -0.009541 0.633876
vn -0.773376 -0.009541 0.633876
vn -0.773376 -0.009541 0.633876
vn 0.567552 -0.084701 -0.818969
vn 0.567552 -0.084701 -0.818969
vn 0.567552 -0.084701 -0.818969
vn 0.567552 -0.084701 -0.818969
vn -0.738664 -0.329320 0.588153
vn -0.738664 -0.329320 0.588153
vn -0.738664 -0.329320 0.588153
vn -0.738664 -0.329320 0.588153
vn -0.500402 0.713769 0.490032
vn -0.500402 0.713770 0.490032
vn -0.500402 0.713770 0.490032
vn 0.000000 0.000000 0.000000
vn -0.742119 0.570606 0.351665
vn 0.000000 0.000000 0.000000
vn -0.742119 0.570606 0.351665
vn 0.560805 -0.593565 0.577216
vn 0.560805 -0.593565 0.577216
vn 0.560805 -0.593565 0.577216
vn 0.646640 0.150774 -0.747746
vn 0.646640 0.150774 -0.747746
vn 0.646640 0.150774 -0.747746
vn 0.675670 0.248024 -0.694229
vn 0.675670 0.248024 -0.694229
vn 0.675670 0.248024 -0.694229
vn 0.667408 0.301083 -0.681114
vn 0.667408 0.301083 -0.681114
vn 0.667408 0.301083 -0.681114
vn 0.000000 0.000000 0.000000
vn 0.672840 0.361237 -0.645596
vn 0.000000 0.000000 0.000000
vn 0.672840 0.361237 -0.645596
vn 0.000000 0.000000 0.000000
vn -0.913230 0.374913 0.159535
vn 0.000000 0.000000 0.000000
vn -0.913230 0.374913 0.159535
vn 0.933630 -0.291506 -0.208231
vn 0.933630 -0.291506 -0.208231
vn 0.933630 -0.291506 -0.208231
vn 0.933630 -0.291506 -0.208231
vn 0.960626 0.212143 -0.179422
vn 0.960626 0.212143 -0.179422
vn 0.960626 0.212143 -0.179422
vn 0.960626 0.212143 -0.179422
vn -0.975240 0.203907 0.085609
vn -0.975240 0.203907 0.085609
vn -0.975240 0.203907 0.085609
vn -0.253668 0.699963 0.667611
vn -0.253668 0.699963 0.667611
vn -0.253668 0.699963 0.667611
vn -0.357521 0.818563 0.449593
vn -0.357521 0.818563 0.449593
vn -0.357521 0.818563 0.449593
vn -0.515923 0.444249 0.732438
vn -0.515923 0.444249 0.732439
vn -0.515923 0.444249 0.732439
vn 0.860020 -0.418550 0.291858
vn 0.860020 -0.418550 0.291858
vn 0.860020 -0.418550 0.291858
vn 0.860020 -0.418550 0.291858
vn 0.965789 0.149430 0.211951
vn 0.965789 0.149430 0.211951
vn 0.965789 0.149430 0.211951
vn 0.965789 0.149430 0.211951
vn 0.582003 0.389083 -0.714063
vn 0.582003 0.389083 -0.714063
vn 0.582003 0.389083 -0.714063
vn 0.582003 0.389083 -0.714063
vn 0.745538 0.647549 -0.157648
vn 0.745538 0.647549 -0.157648
vn 0.745538 0.647549 -0.157648
vn 0.745538 0.647549 -0.157648
vn 0.685776 0.726020 0.051054
vn 0.685776 0.726020 0.051054
vn 0.685776 0.726020 0.051054
vn 0.685776 0.726020 0.051054
vn 0.535971 0.740133 0.406125
vn 0.535971 0.740133 0.406125
vn 0.535971 0.740133 0.406125
vn 0.535971 0.740133 0.406125
vn -0.343217 0.591264 0.729801
vn -0.343217 0.591264 0.729801
vn -0.343217 0.591264 0.729801
vn 0.001574 -0.390595 -0.920561
vn 0.001574 -0.390595 -0.920561
vn 0.001574 -0.390595 -0.920561
vn 0.001574 -0.390595 -0.920561
vn 0.685374 0.364597 0.630343
vn 0.685374 0.364597 0.630343
vn 0.685374 0.364597 0.630343
vn 0.132963 0.665674 0.734302
vn 0.132963 0.665674 0.734302
vn 0.132963 0.665674 0.734302
vn 0.132963 0.665674 0.734302
vn -0.381786 0.005958 0.924232
vn -0.381786 0.005958 0.924232
vn -0.381786 0.005958 0.924232
vn -0.381786 0.005958 0.924232
vn 0.177705 0.029487 0.983642
vn 0.177705 0.029487 0.983642
vn 0.177705 0.029487 0.983642
vn 0.177705 0.029487 0.983642
vn 0.840275 0.435562 0.322838
vn 0.840275 0.435562 0.322838
vn 0.840275 0.435562 0.322838
vn 0.000000 0.000000 0.000000
vn 0.786410 0.545996 0.288873
vn 0.000000 0.000000 0.000000
vn 0.786410 0.545996 0.288873
vn 0.000000 0.000000 0.000000
vn 0.000000 0.000000 0.000000
vn 0.000000 0.000000 0.000000
vn 0.059887 0.048020 -0.997049
vn 0.059887 0.048020 -0.997050
vn 0.059887 0.048020 -0.997049
vn -0.976983 -0.180917 -0.113021
vn -0.976983 -0.180917 -0.113021
vn -0.976983 -0.180917 -0.113021
vn -0.976983 -0.180917 -0.113021
vn -0.592004 0.673962 0.441935
vn -0.592004 0.673962 0.441935
vn -0.592004 0.673962 0.441935
vn -0.718230 0.429378 -0.547522
vn -0.718230 0.429378 -0.547522
vn -0.718230 0.429378 -0.547522
vn 0.899339 0.322228 -0.295564
vn 0.899339 0.322228 -0.295564
vn 0.899339 0.322228 -0.295564
vn -0.580563 -0.783459 0.221672
vn -0.580563 -0.783459 0.221672
vn -0.580563 -0.783459 0.221672
vn 0.000000 0.000000 0.000000
vn -0.939421 0.316060 0.132645
vn 0.000000 0.000000 0.000000
vn -0.939421 0.316060 0.132645
vn 0.000000 0.000000 0.000000
vn 0.000000 0.000000 0.000000
vn -0.950878 0.280238 0.131519
vn -0.950878 0.280238 0.131519
vn 0.000000 0.000000 0.000000
vn 0.000000 0.000000 0.000000
vn 0.000000 0.000000 0.000000
vn 0.707372 0.611965 -0.353728
vn 0.707372 0.611965 -0.353728
vn 0.707372 0.611965 -0.353728
vn 0.322427 -0.518249 0.792123
vn 0.322427 -0.518249 0.792123
vn 0.322427 -0.518249 0.792123
vn 0.322427 -0.518249 0.792123
vn 0.735754 0.674623 -0.059580
vn 0.735754 0.674623 -0.059580
vn 0.735754 0.674623 -0.059580
vn 0.000000 0.000000 0.000000
vn 0.968467 -0.009557 -0.248957
vn 0.000000 0.000000 0.000000
vn 0.968467 -0.009557 -0.248957
vn 0.834308 -0.451398 0.316498
vn 0.834308 -0.451398 0.316498
vn 0.834308 -0.451398 0.316498
vn 0.133269 0.313289 0.940260
vn 0.133269 0.313289 0.940260
vn 0.133269 0.313289 0.940260
vn 0.522418 0.532653 -0.665853
vn 0.522418 0.532653 -0.665853
vn 0.522418 0.532653 -0.665853
vn 0.596075 0.365761 -0.714782
vn 0.596075 0.365761 -0.714782
vn 0.596075 0.365761 -0.714782
vn 0.599848 0.363898 -0.712573
vn 0.599848 0.363898 -0.712573
vn 0.599848 0.363898 -0.712573
vn 0.195453 0.327439 0.924436
vn 0.195453 0.327439 0.924436
vn 0.195453 0.327439 0.924436
vn 0.124546 0.355014 0.926528
vn 0.124546 0.355014 0.926528
vn 0.124546 0.355014 0.926528
vn 0.025184 -0.999675 0.003918
vn 0.025184 -0.999675 0.003918
vn 0.025184 -0.999675 0.003918
vn 0.025184 -0.999675 0.003918
vn 0.025184 -0.999675 0.003918
vn -0.269629 -0.485548 0.831591
vn -0.269629 -0.485548 0.831591
vn -0.269629 -0.485548 0.831591
vn -0.269629 -0.485548 0.831591
vn -0.269629 -0.485548 0.831591
vn -0.295371 -0.383752 0.874923
vn -0.295371 -0.383752 0.874923
vn -0.295371 -0.383752 0.874923
vn -0.295371 -0.383752 0.874923
vn -0.295371 -0.383752 0.874923
vn 0.021968 -0.999692 -0.011543
vn 0.021968 -0.999692 -0.011543
vn 0.021968 -0.999692 -0.011543
vn 0.021968 -0.999692 -0.011543
vn 0.021968 -0.999692 -0.011543
vn 0.016355 -0.999796 -0.011813
vn 0.016355 -0.999797 -0.011813
vn 0.016355 -0.999797 -0.011813
vn 0.016355 -0.999796 -0.011813
vn 0.016355 -0.999797 -0.011813
vn 0.016355 -0.999797 -0.011813
vn 0.016355 -0.999796 -0.011813
vn 0.016355 -0.999796 -0.011813
vn 0.016355 -0.999797 -0.011813
vn 0.016355 -0.999797 -0.011813
vn 0.773262 -0.512319 -0.373624
vn 0.773262 -0.512319 -0.373624
vn 0.773262 -0.512319 -0.373624
vn 0.764724 -0.386263 -0.515750
vn 0.764724 -0.386263 -0.515750
vn 0.764724 -0.386263 -0.515750
vn -0.169054 -0.454905 0.874347
vn -0.169054 -0.454905 0.874347
vn -0.169054 -0.454905 0.874347
vn 0.513225 -0.544019 0.663810
vn 0.513225 -0.544019 0.663810
vn 0.513225 -0.544019 0.663810
vn 0.513225 -0.544019 0.663810
vn 0.513225 -0.544019 0.663810
vn -0.698884 -0.417675 -0.580611
vn -0.698884 -0.417675 -0.580611
vn -0.698884 -0.417675 -0.580611
vn -0.698884 -0.417675 -0.580611
vn 0.014265 -0.999861 -0.008646
vn 0.014265 -0.999861 -0.008646
vn 0.014265 -0.999861 -0.008646
vn 0.014265 -0.999861 -0.008646
vn 0.014265 -0.999861 -0.008646
vn -0.057031 0.997884 -0.031218
vn -0.057031 0.997884 -0.031218
vn -0.057031 0.997884 -0.031218
vn -0.057031 0.997884 -0.031218
vn -0.057031 0.997884 -0.031218
vn -0.057031 0.997884 -0.031218
s 1
usemtl initialShadingGroup
f 2/2/1 3/3/2 1/1/3
f 1/1/3 3/3/2 4/4/4
s 2
f 6/6/5 7/7/6 5/5/7
f 5/5/7 7/7/6 8/8/8
s 3
f 10/10/9 11/11/10 9/9/11
f 9/9/11 11/11/10 5/5/12
s 4
f 3/3/13 12/12/14 14/14/15
f 14/14/15 12/12/14 13/13/16
s 5
f 15/15/17 16/16/18 18/18/19
f 18/18/19 16/16/18 17/17/20
s 6
f 4/4/21 3/3/22 19/19/23
f 19/19/23 3/3/22 14/14/24
s 7
f 20/20/25 21/21/26 23/23/27
f 23/23/27 21/21/26 22/22/28
s 8
f 23/23/29 15/15/30 24/24/31
f 24/24/31 15/15/30 25/25/32
s 9
f 25/25/33 15/15/34 26/26/35
f 26/26/35 15/15/34 18/18/36
s 10
f 27/27/37 12/12/38 2/2/39
f 2/2/39 12/12/38 3/3/40
s 11
f 28/28/41 29/29/42 31/31/43
f 31/31/43 29/29/42 30/30/44
s 12
f 32/33/45 33/34/46 13/32/47
f 13/32/47 33/34/46 30/35/48
s 13
f 22/22/49 16/16/50 23/23/51
f 23/23/51 16/16/50 15/15/52
s 14
f 34/37/53 32/33/54 12/36/55
f 12/36/55 32/33/54 13/32/56
s off
f 35/38/57 36/39/58 37/40/59
s 15
f 27/43/60 40/44/61 39/42/62
f 38/41/63 39/42/62 40/44/61
s off
f 37/40/64 41/45/65 42/46/66
f 43/47/67 44/48/68 45/49/69
f 43/47/70 46/50/71 44/48/72
f 47/51/73 46/50/74 43/47/75
s 16
f 46/50/76 47/51/77 48/52/78
f 48/52/78 47/51/77 4/53/79
s 17
f 50/55/80 4/53/81 49/54/82
f 47/51/83 49/54/82 4/53/81
s 18
f 51/57/84 52/58/85 22/56/86
f 22/56/86 52/58/85 16/59/87
s 19
f 21/60/88 53/61/89 22/56/90
f 22/56/90 53/61/89 51/57/91
s off
f 54/62/92 43/47/93 45/49/94
f 55/63/95 56/64/96 57/65/97
f 55/63/98 35/38/99 56/64/100
f 36/39/101 35/38/102 55/63/103
s 20
f 52/58/104 51/57/105 42/46/106
f 42/46/106 51/57/105 9/9/107
s 21
f 9/9/108 51/57/109 10/10/110
f 10/10/110 51/57/109 53/61/111
s 22
f 28/28/112 66/66/113 20/20/114
f 20/20/114 66/66/113 21/21/115
s 23
f 53/61/116 21/60/117 67/68/118
f 67/68/118 21/60/117 66/67/119
s 24
f 10/10/120 53/61/121 68/69/122
f 68/69/122 53/61/121 67/68/123
s 25
f 68/69/124 69/70/125 10/10/126
f 10/10/126 69/70/125 11/11/127
s off
f 70/71/128 31/72/129 33/34/130
s 26
f 71/73/131 20/20/132 24/24/133
f 24/24/133 20/20/132 23/23/134
s off
f 72/74/135 40/44/136 73/75/137
s 27
f 11/11/138 69/70/139 70/71/140
f 70/71/140 69/70/139 31/72/141
s 28
f 70/71/142 33/34/143 6/6/144
f 6/6/144 33/34/143 32/33/145
s 29
f 11/11/146 70/71/147 5/5/148
f 5/5/148 70/71/147 6/6/149
s off
f 40/44/150 35/76/151 38/41/152
s 30
f 35/76/153 40/44/154 62/77/155
f 62/77/155 40/44/154 72/74/156
s off
f 77/78/157 73/75/158 76/79/159
f 20/20/160 71/73/161 28/28/162
s 31
f 29/29/163 14/14/164 30/30/165
f 30/30/165 14/14/164 13/13/166
s off
f 33/34/167 31/72/168 30/35/169
f 71/73/170 29/29/171 28/28/172
f 36/39/173 55/63/174 41/45/175
f 41/45/176 74/80/177 55/63/178
s 32
f 49/54/179 47/51/180 50/81/181
f 47/51/180 43/47/182 50/81/181
s off
f 49/84/183 50/82/184 54/83/185
f 50/82/184 43/47/186 54/83/185
f 54/85/187 49/86/188 50/87/189
f 37/40/190 36/39/191 41/45/192
s 33
f 7/7/193 35/38/194 8/8/195
f 8/8/195 35/38/194 37/40/196
s off
f 57/65/197 74/80/198 55/63/199
s 34
f 17/89/200 16/59/201 58/88/202
f 58/88/202 16/59/201 52/58/203
s off
f 41/45/204 52/58/205 42/46/206
f 78/90/207 52/58/208 41/45/209
f 52/58/210 78/90/211 58/88/212
f 58/88/213 78/90/214 59/91/215
f 59/91/216 78/90/217 60/92/218
f 78/90/219 61/93/220 60/92/221
f 78/90/222 41/45/223 61/93/224
s 35
f 57/65/225 56/64/226 74/80/227
f 74/80/227 56/64/226 41/45/228
f 56/64/226 62/77/229 41/45/228
s 36
f 34/37/230 38/94/231 32/33/232
f 32/33/232 38/94/231 6/6/233
f 38/94/231 7/7/234 6/6/233
s 37
f 12/36/235 39/95/236 34/37/237
f 39/95/236 35/96/238 34/37/237
f 35/96/238 38/94/239 34/37/237
s 38
f 73/75/240 76/79/241 72/74/242
f 72/74/242 76/79/241 62/77/243
f 62/77/243 76/79/241 39/97/244
s 39
f 60/92/245 61/93/246 59/91/247
f 39/97/248 63/99/249 62/77/250
f 62/77/250 63/99/249 41/45/251
f 63/99/249 64/100/252 41/45/251
f 64/100/252 65/98/253 41/45/251
f 65/98/253 58/88/254 41/45/251
f 61/93/246 41/45/251 59/91/247
f 58/88/254 59/91/247 41/45/251
s off
f 75/101/255 27/43/256 40/44/257
f 75/101/258 40/44/259 77/102/260
f 35/38/261 7/7/262 38/94/263
s 41
f 5/5/264 8/8/265 9/9/266
f 8/8/265 37/40/267 9/9/266
f 42/46/268 9/9/266 37/40/267
s 42
f 14/14/269 29/29/270 19/19/271
f 19/19/271 29/29/270 71/73/272
s 43
f 45/49/273 44/48/274 54/62/275
f 54/62/275 44/48/274 50/103/276
f 44/48/274 46/50/277 50/103/276
s 44
f 28/28/278 31/31/279 66/66/280
f 66/66/280 31/31/279 67/104/281
f 31/31/279 69/105/282 67/104/281
f 67/104/281 69/105/282 68/106/283
