# This file uses centimeters as units for non-parametric coordinates.

mtllib mossyrock.mtl
g default
v -1.010134 -0.008134 1.010134
v 1.010134 -0.008134 1.010134
v -0.595332 2.153854 0.595332
v 0.595332 2.153854 0.595332
v -0.595332 2.153854 -0.595332
v 0.595332 2.153854 -0.595332
v -1.010134 -0.008134 -1.010134
v 1.010134 -0.008134 -1.010134
v 0.980007 1.484812 0.980007
v -0.980007 1.484812 0.980007
v -0.980007 1.484812 -0.980007
v 0.980007 1.484812 -0.980007
v -1.178400 0.255863 1.178400
v -1.178400 0.255863 -1.178400
v 1.178400 0.255863 -1.178400
v 1.178400 0.255863 1.178400
vt 0.025643 0.984537
vt 0.025643 0.675319
vt 0.334860 0.675319
vt 0.334860 0.984537
vt 0.718700 0.721697
vt 0.963669 0.721697
vt 0.963669 0.966666
vt 0.718700 0.966666
vt 0.698297 0.701294
vt 0.984073 0.701294
vt 0.984073 0.987070
vt 0.698297 0.987070
vt 0.116332 0.212741
vt 0.459033 0.212741
vt 0.394659 0.324562
vt 0.180625 0.324562
vt 0.083173 0.007337
vt 0.492234 0.007337
vt 0.116332 0.553499
vt 0.459033 0.553499
vt 0.394659 0.665462
vt 0.180625 0.665462
vt 0.097827 0.347836
vt 0.492234 0.347836
vt 0.805621 0.665462
vt 0.602123 0.665462
vt 0.537748 0.553499
vt 0.869996 0.553499
vt 0.504547 0.347836
vt 0.903197 0.347836
vt 0.537748 0.212741
vt 0.869996 0.212741
vt 0.805621 0.324562
vt 0.602123 0.324562
vt 0.504547 0.007337
vt 0.903197 0.007337
vn 0.000000 -0.537486 0.843272
vn 0.000000 -0.537486 0.843272
vn 0.000000 -0.537486 0.843272
vn 0.000000 -0.537486 0.843272
vn 0.000000 1.000000 0.000000
vn 0.000000 1.000000 0.000000
vn 0.000000 1.000000 0.000000
vn 0.000000 1.000000 0.000000
vn 0.000000 -0.537486 -0.843272
vn 0.000000 -0.537486 -0.843272
vn 0.000000 -0.537486 -0.843272
vn 0.000000 -0.537486 -0.843272
vn 0.000000 -1.000000 0.000000
vn 0.000000 -1.000000 0.000000
vn 0.000000 -1.000000 0.000000
vn 0.000000 -1.000000 0.000000
vn 0.843272 -0.537486 0.000000
vn 0.843272 -0.537486 0.000000
vn 0.843272 -0.537486 0.000000
vn 0.843272 -0.537486 0.000000
vn -0.843272 -0.537486 0.000000
vn -0.843272 -0.537486 0.000000
vn -0.843272 -0.537486 0.000000
vn -0.843272 -0.537486 0.000000
vn 0.000000 0.498448 0.866920
vn 0.000000 0.498448 0.866920
vn 0.000000 0.498448 0.866920
vn 0.000000 0.498448 0.866920
vn -0.866920 0.498448 0.000000
vn -0.866920 0.498448 0.000000
vn -0.866920 0.498448 0.000000
vn -0.866920 0.498448 0.000000
vn 0.000000 0.498448 -0.866920
vn 0.000000 0.498448 -0.866920
vn 0.000000 0.498448 -0.866920
vn 0.000000 0.498448 -0.866920
vn 0.866920 0.498448 0.000000
vn 0.866920 0.498448 0.000000
vn 0.866920 0.498448 0.000000
vn 0.866920 0.498448 0.000000
vn -0.987219 0.159369 0.000000
vn -0.987219 0.159369 0.000000
vn -0.987219 0.159369 0.000000
vn -0.987219 0.159369 0.000000
vn 0.000000 0.159369 -0.987219
vn 0.000000 0.159369 -0.987219
vn 0.000000 0.159369 -0.987219
vn 0.000000 0.159369 -0.987219
vn 0.987219 0.159369 0.000000
vn 0.987219 0.159369 0.000000
vn 0.987219 0.159369 0.000000
vn 0.987219 0.159369 0.000000
vn 0.000000 0.159369 0.987219
vn 0.000000 0.159369 0.987219
vn 0.000000 0.159369 0.987219
vn 0.000000 0.159369 0.987219
s off
g moss_stone
usemtl lambert2SG
f 1/8/1 2/7/2 16/11/3 13/12/4
f 3/1/5 4/2/6 6/3/7 5/4/8
f 14/9/9 15/10/10 8/6/11 7/5/12
f 7/5/13 8/6/14 2/7/15 1/8/16
f 2/7/17 8/6/18 15/10/19 16/11/20
f 7/5/21 1/8/22 13/12/23 14/9/24
f 10/13/25 9/14/26 4/15/27 3/16/28
f 11/19/29 10/20/30 3/21/31 5/22/32
f 5/25/33 6/26/34 12/27/35 11/28/36
f 9/31/37 12/32/38 6/33/39 4/34/40
f 14/23/41 13/24/42 10/20/43 11/19/44
f 11/28/45 12/27/46 15/29/47 14/30/48
f 16/35/49 15/36/50 12/32/51 9/31/52
f 13/17/53 16/18/54 9/14/55 10/13/56
