# This file uses centimeters as units for non-parametric coordinates.

mtllib TurtwigTail.mtl
g default
v -0.223943 -0.286803 0.114311
v 0.159675 -0.286803 0.114311
v -0.223943 0.084753 0.209749
v 0.159675 0.084753 0.209749
v -0.585941 0.338824 -0.161808
v 0.521673 0.338824 -0.161808
v -0.585941 -0.471135 -0.064002
v 0.521673 -0.471135 -0.064002
v -0.224511 0.376320 -0.722625
v 0.160243 0.376320 -0.722625
v 0.160243 -0.136564 -0.737305
v -0.224511 -0.136564 -0.737305
v -0.063958 0.384972 -0.997425
v -0.000310 0.384972 -0.997425
v -0.000310 0.264344 -0.996089
v -0.063958 0.264344 -0.996089
vt 0.898137 0.391991
vt 0.933376 0.396782
vt 0.890894 0.421384
vt 0.942967 0.437511
vt 0.905567 0.467098
vt 0.908075 0.470625
vt 0.900631 0.474101
vt 0.903086 0.478856
vt 0.865570 0.413123
vt 0.811384 0.438336
vt 0.859317 0.394875
vt 0.830702 0.408601
vt 0.965175 0.398858
vt 0.986558 0.428607
vt 0.900983 0.447779
vt 0.925459 0.458692
vt 0.953664 0.477898
vt 0.853430 0.473972
vt 0.869068 0.455336
vn 0.000000 0.825465 0.564453
vn 0.000000 0.825465 0.564453
vn 0.000000 0.825465 0.564453
vn 0.000000 0.825464 0.564454
vn 0.000000 0.825464 0.564454
vn 0.000000 0.825464 0.564454
vn 0.000000 -0.011075 -0.999939
vn 0.000000 -0.011075 -0.999939
vn 0.000000 -0.011075 -0.999939
vn 0.000000 -0.011075 -0.999939
vn 0.000000 -0.011075 -0.999939
vn 0.000000 -0.011075 -0.999939
vn 0.000000 -0.695274 0.718745
vn 0.000000 -0.695274 0.718745
vn 0.000000 -0.695274 0.718745
vn 0.000000 -0.695274 0.718745
vn 0.000000 -0.695274 0.718745
vn 0.000000 -0.695274 0.718745
vn 0.330693 -0.234788 0.914066
vn 0.524379 -0.076159 0.848072
vn 0.524379 -0.076159 0.848072
vn 0.524379 -0.076159 0.848072
vn 0.524379 -0.076159 0.848072
vn 0.682914 0.087574 0.725230
vn -0.330693 -0.234788 0.914066
vn -0.524379 -0.076159 0.848072
vn -0.524379 -0.076159 0.848072
vn -0.524379 -0.076159 0.848072
vn -0.524379 -0.076159 0.848072
vn -0.682914 0.087574 0.725230
vn 0.000000 0.997773 0.066709
vn 0.000000 0.997772 0.066709
vn 0.000000 0.997772 0.066709
vn 0.000000 0.997772 0.066709
vn 0.000000 0.997772 0.066709
vn 0.000000 0.997773 0.066709
vn 0.866825 -0.059775 -0.495017
vn 0.854780 -0.022170 -0.518516
vn 0.854780 -0.022170 -0.518516
vn 0.854780 -0.022170 -0.518516
vn 0.854780 -0.022170 -0.518516
vn 0.840931 0.015482 -0.540921
vn 0.000000 -0.895531 -0.444999
vn 0.000000 -0.895531 -0.444999
vn 0.000000 -0.895531 -0.444999
vn 0.000000 -0.895531 -0.444999
vn 0.000000 -0.895531 -0.444999
vn 0.000000 -0.895531 -0.444999
vn -0.866825 -0.059775 -0.495016
vn -0.854780 -0.022170 -0.518516
vn -0.854780 -0.022170 -0.518516
vn -0.854780 -0.022170 -0.518516
vn -0.854780 -0.022170 -0.518516
vn -0.840931 0.015482 -0.540921
vn 0.000000 0.999505 0.031472
vn 0.000000 0.999505 0.031471
vn 0.000000 0.999505 0.031471
vn 0.000000 0.999505 0.031471
vn 0.000000 0.999505 0.031471
vn 0.000000 0.999505 0.031470
vn 0.859641 0.014617 -0.510689
vn 0.861541 0.004514 -0.507668
vn 0.861541 0.004514 -0.507668
vn 0.861541 0.004514 -0.507668
vn 0.861541 0.004514 -0.507668
vn 0.863342 -0.005589 -0.504588
vn 0.000000 -0.542325 -0.840169
vn 0.000000 -0.542325 -0.840169
vn 0.000000 -0.542325 -0.840169
vn 0.000000 -0.542325 -0.840169
vn 0.000000 -0.542325 -0.840169
vn 0.000000 -0.542325 -0.840169
vn -0.859641 0.014617 -0.510689
vn -0.861541 0.004514 -0.507668
vn -0.861541 0.004514 -0.507668
vn -0.861541 0.004514 -0.507668
vn -0.861541 0.004514 -0.507668
vn -0.863342 -0.005589 -0.504588
s off
g tail
usemtl initialShadingGroup1
f 3/1/1 4/2/2 5/3/3
f 5/3/4 4/2/5 6/4/6
f 13/5/7 14/6/8 16/7/9
f 16/7/10 14/6/11 15/8/12
f 7/9/13 8/10/14 1/11/15
f 1/11/16 8/10/17 2/12/18
f 2/13/19 8/14/20 4/2/21
f 4/2/22 8/14/23 6/4/24
f 1/11/25 3/1/26 7/9/27
f 7/9/28 3/1/29 5/3/30
f 5/3/31 6/4/32 9/15/33
f 9/15/34 6/4/35 10/16/36
f 8/14/37 11/17/38 6/4/39
f 6/4/40 11/17/41 10/16/42
f 8/10/43 7/9/44 11/18/45
f 11/18/46 7/9/47 12/19/48
f 7/9/49 5/3/50 12/19/51
f 12/19/52 5/3/53 9/15/54
f 9/15/55 10/16/56 13/5/57
f 13/5/58 10/16/59 14/6/60
f 11/17/61 15/8/62 10/16/63
f 10/16/64 15/8/65 14/6/66
f 11/18/67 12/19/68 15/8/69
f 15/8/70 12/19/71 16/7/72
f 12/19/73 9/15/74 16/7/75
f 16/7/76 9/15/77 13/5/78
