# This file uses centimeters as units for non-parametric coordinates.

mtllib ModelChinchouRightFin.mtl
g default
v 0.108372 -0.000379 0.178962
v -0.370740 -0.310832 0.494720
v 0.111458 -0.024142 0.172110
v -0.367655 -0.334596 0.487868
v 0.103306 0.066114 -0.149874
v -0.392013 -0.064881 -0.474320
v 0.100221 0.089878 -0.143022
v -0.395099 -0.041117 -0.467468
v -0.823256 -0.120855 -0.184216
v -0.796186 -0.362715 0.168830
v -0.821050 -0.138131 -0.185524
v -0.793980 -0.379991 0.167522
v -0.607363 -0.115289 -0.364287
v -0.604700 -0.135869 -0.369254
v -0.581140 -0.381505 0.372813
v -0.583802 -0.360925 0.377780
vt 0.864712 0.705994
vt 0.858002 0.823048
vt 0.859206 0.705839
vt 0.852708 0.822872
vt 0.718016 0.864284
vt 0.789245 0.702092
vt 0.996251 0.877454
vt 0.991306 0.876901
vt 0.939588 0.707051
vt 0.934835 0.708254
vt 0.865168 0.975535
vt 0.863013 0.978874
vt 0.850061 0.920747
vt 0.846263 0.920624
vt 0.758536 0.764197
vt 0.754696 0.762418
vt 0.782162 0.713193
vt 0.778321 0.711414
vt 0.945845 0.938757
vt 0.854819 0.872639
vt 0.949033 0.941137
vt 0.761079 0.935064
vt 0.850139 0.872389
vn 0.608567 -0.145881 0.779978
vn 0.608567 -0.145881 0.779978
vn 0.608567 -0.145881 0.779978
vn 0.608568 -0.145878 0.779977
vn 0.608568 -0.145878 0.779977
vn 0.608570 -0.145879 0.779976
vn 0.400732 -0.879505 -0.256682
vn 0.400732 -0.879505 -0.256682
vn 0.400732 -0.879505 -0.256682
vn 0.400732 -0.879505 -0.256682
vn 0.400732 -0.879505 -0.256682
vn 0.400731 -0.879505 -0.256682
vn 0.465744 0.300472 -0.832345
vn 0.465743 0.300477 -0.832345
vn 0.465743 0.300477 -0.832345
vn 0.465743 0.300477 -0.832345
vn 0.465743 0.300477 -0.832345
vn 0.465741 0.300481 -0.832344
vn -0.400732 0.879504 0.256683
vn -0.400732 0.879504 0.256683
vn -0.400732 0.879504 0.256683
vn -0.400732 0.879504 0.256683
vn -0.400732 0.879504 0.256683
vn -0.400732 0.879504 0.256683
vn -0.991992 -0.125893 -0.010172
vn -0.991994 -0.125878 -0.010172
vn -0.991994 -0.125878 -0.010172
vn -0.991994 -0.125878 -0.010172
vn -0.991994 -0.125878 -0.010172
vn -0.991996 -0.125862 -0.010172
vn 0.991994 0.125873 0.010170
vn 0.991994 0.125876 0.010171
vn 0.991994 0.125876 0.010171
vn 0.991994 0.125876 0.010171
vn 0.991994 0.125876 0.010171
vn 0.991993 0.125879 0.010173
vn -0.198454 0.942417 0.269197
vn -0.286618 0.914039 0.287023
vn -0.286618 0.914039 0.287023
vn -0.286618 0.914039 0.287023
vn -0.286618 0.914039 0.287023
vn -0.372231 0.877532 0.302295
vn -0.481102 0.184640 -0.857000
vn -0.479222 0.166030 -0.861847
vn -0.479222 0.166030 -0.861847
vn -0.479222 0.166030 -0.861847
vn -0.479222 0.166030 -0.861847
vn -0.477164 0.147359 -0.866372
vn 0.182376 -0.945527 -0.269662
vn 0.271255 -0.918423 -0.287958
vn 0.271255 -0.918423 -0.287958
vn 0.271255 -0.918423 -0.287958
vn 0.271255 -0.918423 -0.287958
vn 0.357701 -0.883082 -0.303671
vn -0.403312 -0.301488 0.863970
vn -0.407767 -0.282693 0.868223
vn -0.407767 -0.282693 0.868223
vn -0.407767 -0.282693 0.868223
vn -0.407767 -0.282693 0.868223
vn -0.412062 -0.263787 0.872136
vn -0.644697 0.099523 -0.757932
vn -0.643570 0.038060 -0.764440
vn -0.643570 0.038060 -0.764440
vn -0.643570 0.038060 -0.764440
vn -0.643570 0.038060 -0.764440
vn -0.639984 -0.023549 -0.768027
vn 0.291528 -0.905304 -0.308926
vn -0.064353 -0.899649 -0.431846
vn -0.064353 -0.899649 -0.431846
vn -0.064353 -0.899649 -0.431846
vn -0.064353 -0.899649 -0.431846
vn -0.411108 -0.766430 -0.493533
vn -0.677185 -0.254248 0.690491
vn -0.683597 -0.198299 0.702405
vn -0.683597 -0.198299 0.702405
vn -0.683597 -0.198299 0.702405
vn -0.683597 -0.198299 0.702405
vn -0.687743 -0.141693 0.711992
vn 0.395652 0.771524 0.498208
vn 0.046005 0.899788 0.433896
vn 0.046005 0.899788 0.433896
vn 0.046005 0.899788 0.433896
vn 0.046005 0.899788 0.433896
vn -0.310213 0.899526 0.307606
s off
usemtl initialShadingGroup
f 1/1/1 2/2/2 3/3/3
f 3/3/4 2/2/5 4/4/6
f 4/4/7 6/5/8 3/3/9
f 3/3/10 6/5/11 5/6/12
f 6/7/13 8/8/14 5/9/15
f 5/9/16 8/8/17 7/10/18
f 7/10/19 8/8/20 1/1/21
f 1/1/22 8/8/23 2/2/24
f 9/11/25 11/12/26 10/13/27
f 10/13/28 11/12/29 12/14/30
f 1/15/31 3/16/32 7/17/33
f 7/17/34 3/16/35 5/18/36
f 8/8/37 13/19/38 2/2/39
f 2/2/40 13/19/41 16/20/42
f 8/8/43 6/7/44 13/19/45
f 13/19/46 6/7/47 14/21/48
f 6/5/49 4/4/50 14/22/51
f 14/22/52 4/4/53 15/23/54
f 2/2/55 16/20/56 4/4/57
f 4/4/58 16/20/59 15/23/60
f 14/21/61 11/12/62 13/19/63
f 13/19/64 11/12/65 9/11/66
f 15/23/67 12/14/68 14/22/69
f 14/22/70 12/14/71 11/12/72
f 16/20/73 10/13/74 15/23/75
f 15/23/76 10/13/77 12/14/78
f 9/11/79 10/13/80 13/19/81
f 13/19/82 10/13/83 16/20/84
