# This file uses centimeters as units for non-parametric coordinates.

mtllib ModelChinchouLeftFin.mtl
g default
v -0.108510 -0.000258 0.178586
v 0.370602 -0.310711 0.494344
v -0.111595 -0.024021 0.171734
v 0.367517 -0.334475 0.487492
v -0.103444 0.066235 -0.150250
v 0.391875 -0.064760 -0.474696
v -0.100359 0.090000 -0.143398
v 0.394961 -0.040996 -0.467844
v 0.823118 -0.120734 -0.184592
v 0.796048 -0.362594 0.168454
v 0.820912 -0.138010 -0.185900
v 0.793843 -0.379870 0.167146
v 0.607225 -0.115168 -0.364663
v 0.604562 -0.135748 -0.369630
v 0.581002 -0.381384 0.372437
v 0.583665 -0.360804 0.377404
vt 0.864712 0.705994
vt 0.859206 0.705839
vt 0.858002 0.823048
vt 0.852708 0.822872
vt 0.789245 0.702092
vt 0.718015 0.864284
vt 0.934835 0.708254
vt 0.991306 0.876901
vt 0.939588 0.707051
vt 0.996251 0.877454
vt 0.846263 0.920624
vt 0.863013 0.978874
vt 0.850061 0.920747
vt 0.865168 0.975535
vt 0.778322 0.711414
vt 0.754696 0.762418
vt 0.782162 0.713193
vt 0.758536 0.764197
vt 0.854819 0.872639
vt 0.945845 0.938757
vt 0.949033 0.941137
vt 0.761079 0.935064
vt 0.850139 0.872389
vn -0.608575 -0.145893 0.779969
vn -0.608575 -0.145893 0.779969
vn -0.608575 -0.145893 0.779969
vn -0.608568 -0.145878 0.779977
vn -0.608568 -0.145878 0.779977
vn -0.608568 -0.145880 0.779977
vn -0.400731 -0.879505 -0.256682
vn -0.400732 -0.879505 -0.256682
vn -0.400732 -0.879505 -0.256682
vn -0.400732 -0.879505 -0.256682
vn -0.400732 -0.879505 -0.256682
vn -0.400732 -0.879504 -0.256682
vn -0.465742 0.300478 -0.832345
vn -0.465743 0.300475 -0.832345
vn -0.465743 0.300475 -0.832345
vn -0.465743 0.300475 -0.832345
vn -0.465743 0.300475 -0.832345
vn -0.465744 0.300472 -0.832345
vn 0.400732 0.879504 0.256683
vn 0.400732 0.879504 0.256683
vn 0.400732 0.879504 0.256683
vn 0.400732 0.879504 0.256683
vn 0.400732 0.879504 0.256683
vn 0.400732 0.879504 0.256683
vn 0.992003 -0.125808 -0.010164
vn 0.991997 -0.125851 -0.010164
vn 0.991997 -0.125851 -0.010164
vn 0.991997 -0.125851 -0.010164
vn 0.991997 -0.125851 -0.010164
vn 0.991992 -0.125893 -0.010164
vn -0.991994 0.125878 0.010171
vn -0.991994 0.125875 0.010171
vn -0.991994 0.125875 0.010171
vn -0.991994 0.125875 0.010171
vn -0.991994 0.125875 0.010171
vn -0.991994 0.125873 0.010172
vn 0.372231 0.877532 0.302295
vn 0.286618 0.914039 0.287023
vn 0.286618 0.914039 0.287023
vn 0.286618 0.914039 0.287023
vn 0.286618 0.914039 0.287023
vn 0.198454 0.942417 0.269197
vn 0.481101 0.184639 -0.857001
vn 0.479222 0.166034 -0.861846
vn 0.479222 0.166034 -0.861846
vn 0.479222 0.166034 -0.861846
vn 0.479222 0.166034 -0.861846
vn 0.477164 0.147367 -0.866370
vn -0.182376 -0.945527 -0.269662
vn -0.271255 -0.918423 -0.287958
vn -0.271255 -0.918423 -0.287958
vn -0.271255 -0.918423 -0.287958
vn -0.271255 -0.918423 -0.287958
vn -0.357701 -0.883082 -0.303671
vn 0.412061 -0.263792 0.872135
vn 0.407766 -0.282694 0.868223
vn 0.407766 -0.282694 0.868223
vn 0.407766 -0.282694 0.868223
vn 0.407766 -0.282694 0.868223
vn 0.403312 -0.301485 0.863971
vn 0.639984 -0.023561 -0.768027
vn 0.643570 0.038054 -0.764441
vn 0.643570 0.038054 -0.764441
vn 0.643570 0.038054 -0.764441
vn 0.643570 0.038054 -0.764441
vn 0.644696 0.099524 -0.757933
vn -0.291527 -0.905305 -0.308926
vn 0.064353 -0.899649 -0.431846
vn 0.064353 -0.899649 -0.431846
vn 0.064353 -0.899649 -0.431846
vn 0.064353 -0.899649 -0.431846
vn 0.411108 -0.766430 -0.493533
vn 0.677186 -0.254249 0.690490
vn 0.683597 -0.198302 0.702404
vn 0.683597 -0.198302 0.702404
vn 0.683597 -0.198302 0.702404
vn 0.683597 -0.198302 0.702404
vn 0.687743 -0.141697 0.711991
vn 0.310213 0.899525 0.307607
vn -0.046005 0.899788 0.433896
vn -0.046005 0.899788 0.433896
vn -0.046005 0.899788 0.433896
vn -0.046005 0.899788 0.433896
vn -0.395652 0.771523 0.498208
s off
usemtl initialShadingGroup
f 1/1/1 3/2/2 2/3/3
f 2/3/4 3/2/5 4/4/6
f 5/5/7 6/6/8 3/2/9
f 3/2/10 6/6/11 4/4/12
f 7/7/13 8/8/14 5/9/15
f 5/9/16 8/8/17 6/10/18
f 7/7/19 1/1/20 8/8/21
f 8/8/22 1/1/23 2/3/24
f 12/11/25 11/12/26 10/13/27
f 10/13/28 11/12/29 9/14/30
f 5/15/31 3/16/32 7/17/33
f 7/17/34 3/16/35 1/18/36
f 16/19/37 13/20/38 2/3/39
f 2/3/40 13/20/41 8/8/42
f 8/8/43 13/20/44 6/10/45
f 6/10/46 13/20/47 14/21/48
f 6/6/49 14/22/50 4/4/51
f 4/4/52 14/22/53 15/23/54
f 15/23/55 16/19/56 4/4/57
f 4/4/58 16/19/59 2/3/60
f 9/14/61 11/12/62 13/20/63
f 13/20/64 11/12/65 14/21/66
f 15/23/67 14/22/68 12/11/69
f 12/11/70 14/22/71 11/12/72
f 16/19/73 15/23/74 10/13/75
f 10/13/76 15/23/77 12/11/78
f 16/19/79 10/13/80 13/20/81
f 13/20/82 10/13/83 9/14/84
