# This file uses centimeters as units for non-parametric coordinates.

mtllib Ray19.mtl
g default1
v 2.646674 0.582208 -0.042468
v 2.645370 0.130382 -0.028033
v 2.645553 -0.321444 -0.012561
v 2.297080 -1.168494 -0.025668
v 1.675552 -1.805534 -0.030368
v 0.805900 -2.169881 -0.059726
v 0.356704 -2.166595 -0.032130
v -0.091966 -2.169881 -0.006701
v -0.963418 -1.805452 -0.035769
v -1.584512 -1.169329 -0.044772
v -1.933793 -0.321083 -0.042468
v -1.932488 0.130742 -0.028033
v -1.932679 0.582568 -0.012561
v -1.584199 1.429618 -0.025668
v -0.962670 2.066658 -0.030368
v -0.093026 2.431004 -0.059726
v 0.356177 2.427717 -0.032130
v 0.804847 2.431004 -0.006701
v 1.676292 2.066575 -0.035769
v 2.297393 1.430454 -0.044772
v 2.443198 0.130683 -4.920443
v 2.443488 0.542972 -4.935382
v 2.444251 -0.281606 -4.906222
v 2.125869 -1.055361 -4.906283
v 1.559074 -1.635872 -4.914416
v 0.764144 -1.968749 -4.942782
v 0.354766 -1.965544 -4.917666
v -0.054971 -1.968749 -4.891085
v -0.848687 -1.635927 -4.919680
v -1.415772 -1.054797 -4.924907
v -1.733605 -0.281848 -4.935382
v -1.733315 0.130440 -4.920443
v -1.734361 0.542729 -4.906222
v -1.415986 1.316485 -4.906283
v -0.849191 1.896995 -4.914416
v -0.054253 2.229872 -4.942782
v 0.355117 2.226668 -4.917666
v 0.764854 2.229872 -4.891085
v 1.558570 1.897050 -4.919680
v 2.125655 1.315921 -4.924907
vt 0.665558 0.317432
vt 0.668377 0.268555
vt 0.669681 0.317555
vt 0.672893 0.268709
vt 0.677411 0.268852
vt 0.673803 0.317685
vt 0.682140 0.318373
vt 0.686525 0.269734
vt 0.690203 0.319250
vt 0.695375 0.270651
vt 0.698730 0.320519
vt 0.704705 0.272022
vt 0.702821 0.320807
vt 0.709194 0.272337
vt 0.568058 0.271473
vt 0.574034 0.319985
vt 0.563643 0.272308
vt 0.570007 0.320781
vt 0.582616 0.319293
vt 0.577473 0.270692
vt 0.590700 0.318558
vt 0.586327 0.269923
vt 0.599036 0.317984
vt 0.595465 0.269159
vt 0.603139 0.317566
vt 0.599962 0.268722
vt 0.604459 0.268273
vt 0.607243 0.317154
vt 0.615596 0.316740
vt 0.613608 0.267951
vt 0.623704 0.316546
vt 0.622501 0.267697
vt 0.632322 0.316681
vt 0.631928 0.267829
vt 0.636415 0.316430
vt 0.636418 0.267552
vt 0.640904 0.267295
vt 0.640511 0.316162
vt 0.649109 0.316589
vt 0.650339 0.267739
vt 0.657219 0.316912
vt 0.659218 0.268125
vn 0.999137 -0.002211 -0.041473
vn 0.999137 -0.002211 -0.041473
vn 0.999137 -0.002211 -0.041473
vn 0.999139 -0.004166 -0.041288
vn 0.999139 -0.004166 -0.041288
vn 0.999139 -0.004166 -0.041288
vn 0.999154 -0.001012 -0.041109
vn 0.999154 -0.001012 -0.041109
vn 0.999154 -0.001012 -0.041109
vn 0.999147 0.001119 -0.041288
vn 0.999147 0.001119 -0.041288
vn 0.999147 0.001119 -0.041288
vn 0.923992 -0.380184 -0.041227
vn 0.923992 -0.380184 -0.041227
vn 0.923992 -0.380184 -0.041227
vn 0.924243 -0.379586 -0.041109
vn 0.924243 -0.379586 -0.041109
vn 0.924243 -0.379586 -0.041109
vn 0.715192 -0.697707 -0.041294
vn 0.715192 -0.697707 -0.041294
vn 0.715192 -0.697707 -0.041294
vn 0.715300 -0.697598 -0.041263
vn 0.715300 -0.697598 -0.041263
vn 0.715300 -0.697598 -0.041263
vn 0.387175 -0.921083 -0.041250
vn 0.387175 -0.921083 -0.041250
vn 0.387175 -0.921083 -0.041250
vn 0.387269 -0.921044 -0.041231
vn 0.387269 -0.921044 -0.041231
vn 0.387269 -0.921044 -0.041231
vn -0.010339 -0.999103 -0.041063
vn -0.010339 -0.999103 -0.041063
vn -0.010339 -0.999103 -0.041063
vn -0.009835 -0.999106 -0.041113
vn -0.009835 -0.999106 -0.041113
vn -0.009835 -0.999106 -0.041113
vn 0.004988 -0.999142 -0.041105
vn 0.004988 -0.999142 -0.041105
vn 0.004988 -0.999142 -0.041105
vn 0.005148 -0.999141 -0.041119
vn 0.005148 -0.999141 -0.041119
vn 0.005148 -0.999141 -0.041119
vn -0.385118 -0.921954 -0.041049
vn -0.385118 -0.921954 -0.041049
vn -0.385118 -0.921954 -0.041049
vn -0.384322 -0.922293 -0.040889
vn -0.384322 -0.922293 -0.040889
vn -0.384322 -0.922293 -0.040889
vn -0.714900 -0.698017 -0.041100
vn -0.714900 -0.698018 -0.041100
vn -0.714900 -0.698018 -0.041100
vn -0.714619 -0.698310 -0.041027
vn -0.714619 -0.698310 -0.041027
vn -0.714619 -0.698310 -0.041027
vn -0.923889 -0.380474 -0.040851
vn -0.923889 -0.380474 -0.040851
vn -0.923889 -0.380474 -0.040851
vn -0.923949 -0.380326 -0.040874
vn -0.923949 -0.380326 -0.040874
vn -0.923949 -0.380326 -0.040874
vn -0.999162 0.002245 -0.040862
vn -0.999162 0.002245 -0.040862
vn -0.999162 0.002245 -0.040862
vn -0.999164 0.004138 -0.040677
vn -0.999164 0.004138 -0.040677
vn -0.999164 0.004138 -0.040677
vn -0.999179 0.000977 -0.040500
vn -0.999179 0.000977 -0.040500
vn -0.999179 0.000977 -0.040500
vn -0.999172 -0.001149 -0.040677
vn -0.999172 -0.001149 -0.040677
vn -0.999172 -0.001149 -0.040677
vn -0.924009 0.380204 -0.040659
vn -0.924009 0.380204 -0.040659
vn -0.924009 0.380204 -0.040659
vn -0.924253 0.379622 -0.040547
vn -0.924253 0.379622 -0.040547
vn -0.924253 0.379622 -0.040547
vn -0.715197 0.697728 -0.040855
vn -0.715197 0.697728 -0.040855
vn -0.715197 0.697728 -0.040855
vn -0.715322 0.697602 -0.040824
vn -0.715322 0.697602 -0.040824
vn -0.715322 0.697602 -0.040824
vn -0.387169 0.921096 -0.041014
vn -0.387169 0.921096 -0.041014
vn -0.387169 0.921096 -0.041014
vn -0.387269 0.921055 -0.040994
vn -0.387269 0.921055 -0.040994
vn -0.387269 0.921055 -0.040994
vn 0.010341 0.999103 -0.041069
vn 0.010341 0.999103 -0.041069
vn 0.010341 0.999103 -0.041069
vn 0.009834 0.999106 -0.041120
vn 0.009834 0.999106 -0.041120
vn 0.009834 0.999106 -0.041120
vn -0.004988 0.999143 -0.041102
vn -0.004988 0.999143 -0.041102
vn -0.004988 0.999143 -0.041102
vn -0.005145 0.999141 -0.041114
vn -0.005145 0.999141 -0.041114
vn -0.005145 0.999141 -0.041114
vn 0.385109 0.921947 -0.041285
vn 0.385109 0.921947 -0.041285
vn 0.385109 0.921947 -0.041285
vn 0.384316 0.922285 -0.041125
vn 0.384316 0.922285 -0.041125
vn 0.384316 0.922285 -0.041125
vn 0.714902 0.697990 -0.041540
vn 0.714902 0.697990 -0.041540
vn 0.714902 0.697990 -0.041540
vn 0.714587 0.698317 -0.041463
vn 0.714587 0.698317 -0.041463
vn 0.714587 0.698317 -0.041463
vn 0.923925 0.380322 -0.041440
vn 0.923925 0.380322 -0.041440
vn 0.923925 0.380322 -0.041440
vn 0.923870 0.380458 -0.041416
vn 0.923870 0.380458 -0.041416
vn 0.923870 0.380458 -0.041416
vn 0.000000 -0.000000 1.000000
vn 0.000000 -0.000000 1.000000
vn 0.000000 -0.000000 1.000000
vn 0.000000 -0.000000 1.000000
vn 0.000000 -0.000000 1.000000
vn 0.000000 -0.000000 1.000000
vn 0.000000 -0.000000 1.000000
vn 0.000000 -0.000000 1.000000
vn 0.000000 -0.000000 1.000000
vn 0.000000 -0.000000 1.000000
vn 0.000000 -0.000000 1.000000
vn 0.000000 -0.000000 1.000000
vn 0.000000 -0.000000 1.000000
vn 0.000000 -0.000000 1.000000
vn 0.000000 -0.000000 1.000000
vn 0.000000 -0.000000 1.000000
vn 0.000000 -0.000000 1.000000
vn 0.000000 -0.000000 1.000000
vn 0.000000 -0.000000 1.000000
vn 0.000000 -0.000000 1.000000
vn -0.000001 0.000000 -1.000000
vn -0.000001 0.000000 -1.000000
vn -0.000001 0.000000 -1.000000
vn -0.000001 0.000000 -1.000000
vn -0.000001 0.000000 -1.000000
vn -0.000001 0.000000 -1.000000
vn -0.000001 0.000000 -1.000000
vn -0.000001 0.000000 -1.000000
vn -0.000001 0.000000 -1.000000
vn -0.000001 0.000000 -1.000000
vn -0.000001 0.000000 -1.000000
vn -0.000001 0.000000 -1.000000
vn -0.000001 0.000000 -1.000000
vn -0.000001 0.000000 -1.000000
vn -0.000001 0.000000 -1.000000
vn -0.000001 0.000000 -1.000000
vn -0.000001 0.000000 -1.000000
vn -0.000001 0.000000 -1.000000
vn -0.000001 0.000000 -1.000000
vn -0.000001 0.000000 -1.000000
s off
usemtl initialShadingGroup1
f 22/1/1 1/2/2 21/3/3
f 21/3/4 1/2/5 2/4/6
f 3/5/7 23/6/8 2/4/9
f 2/4/10 23/6/11 21/3/12
f 24/7/13 23/6/14 4/8/15
f 4/8/16 23/6/17 3/5/18
f 25/9/19 24/7/20 5/10/21
f 5/10/22 24/7/23 4/8/24
f 26/11/25 25/9/26 6/12/27
f 6/12/28 25/9/29 5/10/30
f 26/11/31 6/12/32 27/13/33
f 27/13/34 6/12/35 7/14/36
f 8/15/37 28/16/38 7/17/39
f 7/17/40 28/16/41 27/18/42
f 29/19/43 28/16/44 9/20/45
f 9/20/46 28/16/47 8/15/48
f 30/21/49 29/19/50 10/22/51
f 10/22/52 29/19/53 9/20/54
f 31/23/55 30/21/56 11/24/57
f 11/24/58 30/21/59 10/22/60
f 31/23/61 11/24/62 32/25/63
f 32/25/64 11/24/65 12/26/66
f 13/27/67 33/28/68 12/26/69
f 12/26/70 33/28/71 32/25/72
f 34/29/73 33/28/74 14/30/75
f 14/30/76 33/28/77 13/27/78
f 35/31/79 34/29/80 15/32/81
f 15/32/82 34/29/83 14/30/84
f 36/33/85 35/31/86 16/34/87
f 16/34/88 35/31/89 15/32/90
f 36/33/91 16/34/92 37/35/93
f 37/35/94 16/34/95 17/36/96
f 18/37/97 38/38/98 17/36/99
f 17/36/100 38/38/101 37/35/102
f 39/39/103 38/38/104 19/40/105
f 19/40/106 38/38/107 18/37/108
f 40/41/109 39/39/110 20/42/111
f 20/42/112 39/39/113 19/40/114
f 20/42/115 1/2/116 40/41/117
f 40/41/118 1/2/119 22/1/120
