# This file uses centimeters as units for non-parametric coordinates.

mtllib Ray16.mtl
g default1
v 3.184409 0.689483 -0.143095
v 3.181770 0.131147 -0.129843
v 3.186233 -0.427771 -0.095267
v 2.754668 -1.476539 -0.089010
v 1.986846 -2.262744 -0.104147
v 0.905364 -2.712694 -0.146193
v 0.351195 -2.708893 -0.114027
v -0.200623 -2.713959 -0.065756
v -1.275399 -2.262878 -0.112745
v -2.043923 -1.475179 -0.119566
v -2.474168 -0.428359 -0.143095
v -2.474183 0.130268 -0.118162
v -2.475999 0.688895 -0.095267
v -2.044434 1.737663 -0.089010
v -1.276612 2.523868 -0.104147
v -0.198907 2.975083 -0.150542
v 0.352912 2.970016 -0.114027
v 0.908797 2.973817 -0.073508
v 1.985633 2.524002 -0.112745
v 2.754157 1.736303 -0.119566
v 3.145690 0.131389 -3.572920
v 3.145988 0.682862 -3.593733
v 3.150115 -0.420411 -3.543600
v 2.723434 -1.457137 -3.518980
v 1.965667 -2.232476 -3.539885
v 0.897529 -2.677875 -3.585722
v 0.350845 -2.673583 -3.550581
v -0.195985 -2.678586 -3.499289
v -1.255387 -2.232779 -3.548903
v -2.014733 -1.454060 -3.551001
v -2.438439 -0.421738 -3.593733
v -2.439629 0.129898 -3.566366
v -2.442567 0.681535 -3.543600
v -2.015893 1.718260 -3.518980
v -1.258118 2.493600 -3.539885
v -0.192101 2.939708 -3.588164
v 0.353263 2.934707 -3.550581
v 0.902373 2.938998 -3.503645
v 1.962928 2.493903 -3.548903
v 2.722282 1.715183 -3.551001
vt 0.862830 0.059654
vt 0.862878 0.092970
vt 0.857507 0.059853
vt 0.857493 0.093097
vt 0.852102 0.093431
vt 0.852181 0.060136
vt 0.841359 0.060329
vt 0.841164 0.093450
vt 0.830897 0.060044
vt 0.830566 0.093222
vt 0.819729 0.059470
vt 0.819266 0.092689
vt 0.814448 0.059721
vt 0.813918 0.092910
vt 0.808581 0.093292
vt 0.809159 0.060133
vt 0.970082 0.057834
vt 0.981191 0.057846
vt 0.971416 0.090984
vt 0.982679 0.090964
vt 0.959589 0.058212
vt 0.960802 0.091320
vt 0.948813 0.058166
vt 0.949886 0.091463
vt 0.943500 0.058591
vt 0.944509 0.091865
vt 0.939131 0.092249
vt 0.938185 0.058973
vt 0.927377 0.059499
vt 0.928201 0.092601
vt 0.916912 0.059540
vt 0.917604 0.092700
vt 0.905753 0.059291
vt 0.906332 0.092470
vt 0.900496 0.059734
vt 0.901017 0.092905
vt 0.895663 0.093381
vt 0.895204 0.060271
vt 0.884099 0.059965
vt 0.884406 0.093136
vt 0.873602 0.060026
vt 0.873793 0.093154
vn 0.999938 -0.000962 -0.011132
vn 0.999938 -0.000962 -0.011132
vn 0.999938 -0.000962 -0.011132
vn 0.999933 -0.004953 -0.010478
vn 0.999933 -0.004953 -0.010478
vn 0.999933 -0.004953 -0.010478
vn 0.999918 0.007345 -0.010457
vn 0.999918 0.007345 -0.010457
vn 0.999918 0.007345 -0.010457
vn 0.999917 0.007453 -0.010477
vn 0.999917 0.007453 -0.010477
vn 0.999917 0.007453 -0.010477
vn 0.924602 -0.380789 -0.010497
vn 0.924602 -0.380789 -0.010497
vn 0.924602 -0.380789 -0.010497
vn 0.924689 -0.380576 -0.010573
vn 0.924689 -0.380576 -0.010573
vn 0.924689 -0.380576 -0.010573
vn 0.715269 -0.698769 -0.010565
vn 0.715269 -0.698769 -0.010565
vn 0.715269 -0.698769 -0.010565
vn 0.715480 -0.698555 -0.010467
vn 0.715480 -0.698555 -0.010467
vn 0.715480 -0.698555 -0.010467
vn 0.385222 -0.922767 -0.010219
vn 0.385222 -0.922767 -0.010219
vn 0.385222 -0.922767 -0.010219
vn 0.384454 -0.923085 -0.010502
vn 0.384454 -0.923085 -0.010502
vn 0.384454 -0.923085 -0.010502
vn -0.008500 -0.999913 -0.010103
vn -0.008500 -0.999913 -0.010103
vn -0.008500 -0.999913 -0.010103
vn -0.007454 -0.999920 -0.010273
vn -0.007454 -0.999919 -0.010273
vn -0.007454 -0.999919 -0.010273
vn 0.008279 -0.999913 -0.010290
vn 0.008279 -0.999913 -0.010290
vn 0.008279 -0.999913 -0.010290
vn 0.008185 -0.999914 -0.010275
vn 0.008185 -0.999914 -0.010275
vn 0.008185 -0.999914 -0.010275
vn -0.387443 -0.921836 -0.010331
vn -0.387443 -0.921836 -0.010331
vn -0.387443 -0.921836 -0.010331
vn -0.386601 -0.922193 -0.010023
vn -0.386601 -0.922193 -0.010023
vn -0.386601 -0.922193 -0.010023
vn -0.715895 -0.698131 -0.010387
vn -0.715895 -0.698131 -0.010387
vn -0.715895 -0.698131 -0.010387
vn -0.715686 -0.698347 -0.010285
vn -0.715686 -0.698347 -0.010285
vn -0.715686 -0.698347 -0.010285
vn -0.924912 -0.380042 -0.010306
vn -0.924912 -0.380042 -0.010306
vn -0.924912 -0.380042 -0.010306
vn -0.924796 -0.380327 -0.010207
vn -0.924796 -0.380327 -0.010207
vn -0.924796 -0.380327 -0.010207
vn -0.999945 -0.001663 -0.010357
vn -0.999945 -0.001663 -0.010357
vn -0.999945 -0.001663 -0.010357
vn -0.999950 0.000475 -0.010020
vn -0.999950 0.000475 -0.010020
vn -0.999950 0.000475 -0.010020
vn -0.999949 -0.002862 -0.009689
vn -0.999949 -0.002862 -0.009689
vn -0.999949 -0.002862 -0.009689
vn -0.999938 -0.004941 -0.010020
vn -0.999938 -0.004941 -0.010020
vn -0.999938 -0.004941 -0.010020
vn -0.924620 0.380766 -0.009777
vn -0.924620 0.380766 -0.009777
vn -0.924620 0.380766 -0.009777
vn -0.924694 0.380585 -0.009848
vn -0.924694 0.380585 -0.009848
vn -0.924694 0.380585 -0.009848
vn -0.715258 0.698789 -0.010006
vn -0.715258 0.698789 -0.010006
vn -0.715258 0.698789 -0.010006
vn -0.715484 0.698559 -0.009905
vn -0.715484 0.698559 -0.009905
vn -0.715484 0.698559 -0.009905
vn -0.386421 0.922266 -0.010256
vn -0.386421 0.922266 -0.010256
vn -0.386421 0.922266 -0.010256
vn -0.386550 0.922212 -0.010205
vn -0.386550 0.922212 -0.010205
vn -0.386550 0.922212 -0.010205
vn 0.009877 0.999898 -0.010270
vn 0.009877 0.999898 -0.010270
vn 0.009877 0.999899 -0.010270
vn 0.009861 0.999899 -0.010272
vn 0.009861 0.999899 -0.010272
vn 0.009861 0.999899 -0.010272
vn -0.006099 0.999930 -0.010139
vn -0.006099 0.999930 -0.010139
vn -0.006099 0.999930 -0.010139
vn -0.006937 0.999923 -0.010274
vn -0.006937 0.999923 -0.010274
vn -0.006937 0.999923 -0.010274
vn 0.386575 0.922197 -0.010632
vn 0.386575 0.922197 -0.010632
vn 0.386575 0.922197 -0.010632
vn 0.385110 0.922815 -0.010089
vn 0.385110 0.922815 -0.010089
vn 0.385110 0.922815 -0.010089
vn 0.715891 0.698126 -0.010947
vn 0.715891 0.698126 -0.010947
vn 0.715891 0.698126 -0.010947
vn 0.715676 0.698348 -0.010846
vn 0.715676 0.698348 -0.010846
vn 0.715676 0.698348 -0.010846
vn 0.924784 0.380335 -0.010931
vn 0.924784 0.380335 -0.010931
vn 0.924784 0.380335 -0.010931
vn 0.924892 0.380070 -0.011028
vn 0.924892 0.380070 -0.011028
vn 0.924892 0.380070 -0.011028
vn 0.000284 0.000375 1.000000
vn 0.000284 0.000375 1.000000
vn 0.000284 0.000375 1.000000
vn 0.000284 0.000375 1.000000
vn 0.000284 0.000375 1.000000
vn 0.000284 0.000375 1.000000
vn 0.000284 0.000375 1.000000
vn 0.000284 0.000375 1.000000
vn 0.000284 0.000375 1.000000
vn 0.000284 0.000375 1.000000
vn 0.000284 0.000375 1.000000
vn 0.000284 0.000375 1.000000
vn 0.000284 0.000375 1.000000
vn 0.000284 0.000375 1.000000
vn 0.000284 0.000375 1.000000
vn 0.000284 0.000375 1.000000
vn 0.000284 0.000375 1.000000
vn 0.000284 0.000375 1.000000
vn 0.000284 0.000375 1.000000
vn 0.000284 0.000375 1.000000
vn -0.000162 -0.000213 -1.000000
vn -0.000162 -0.000213 -1.000000
vn -0.000162 -0.000213 -1.000000
vn -0.000162 -0.000213 -1.000000
vn -0.000162 -0.000213 -1.000000
vn -0.000162 -0.000213 -1.000000
vn -0.000162 -0.000213 -1.000000
vn -0.000162 -0.000213 -1.000000
vn -0.000162 -0.000213 -1.000000
vn -0.000162 -0.000213 -1.000000
vn -0.000162 -0.000213 -1.000000
vn -0.000162 -0.000213 -1.000000
vn -0.000162 -0.000213 -1.000000
vn -0.000162 -0.000213 -1.000000
vn -0.000162 -0.000213 -1.000000
vn -0.000162 -0.000213 -1.000000
vn -0.000162 -0.000213 -1.000000
vn -0.000162 -0.000213 -1.000000
vn -0.000162 -0.000213 -1.000000
vn -0.000162 -0.000213 -1.000000
s off
usemtl initialShadingGroup1
f 22/1/1 1/2/2 21/3/3
f 21/3/4 1/2/5 2/4/6
f 3/5/7 23/6/8 2/4/9
f 2/4/10 23/6/11 21/3/12
f 23/6/13 3/5/14 24/7/15
f 24/7/16 3/5/17 4/8/18
f 25/9/19 24/7/20 5/10/21
f 5/10/22 24/7/23 4/8/24
f 26/11/25 25/9/26 6/12/27
f 6/12/28 25/9/29 5/10/30
f 26/11/31 6/12/32 27/13/33
f 27/13/34 6/12/35 7/14/36
f 8/15/37 28/16/38 7/14/39
f 7/14/40 28/16/41 27/13/42
f 29/17/43 28/18/44 9/19/45
f 9/19/46 28/18/47 8/20/48
f 30/21/49 29/17/50 10/22/51
f 10/22/52 29/17/53 9/19/54
f 31/23/55 30/21/56 11/24/57
f 11/24/58 30/21/59 10/22/60
f 31/23/61 11/24/62 32/25/63
f 32/25/64 11/24/65 12/26/66
f 13/27/67 33/28/68 12/26/69
f 12/26/70 33/28/71 32/25/72
f 33/28/73 13/27/74 34/29/75
f 34/29/76 13/27/77 14/30/78
f 35/31/79 34/29/80 15/32/81
f 15/32/82 34/29/83 14/30/84
f 36/33/85 35/31/86 16/34/87
f 16/34/88 35/31/89 15/32/90
f 36/33/91 16/34/92 37/35/93
f 37/35/94 16/34/95 17/36/96
f 18/37/97 38/38/98 17/36/99
f 17/36/100 38/38/101 37/35/102
f 39/39/103 38/38/104 19/40/105
f 19/40/106 38/38/107 18/37/108
f 40/41/109 39/39/110 20/42/111
f 20/42/112 39/39/113 19/40/114
f 20/42/115 1/2/116 40/41/117
f 40/41/118 1/2/119 22/1/120
