# This file uses centimeters as units for non-parametric coordinates.

mtllib Ray2.mtl
g default1
v -2.955445 0.758765 -2.721649
v -2.953378 0.114744 -2.745651
v -2.953812 0.115048 -0.060592
v -2.954972 0.758917 -0.039856
v -2.456155 2.154388 -2.710567
v -2.455697 2.207410 -0.047349
v -0.329331 3.506999 -0.097351
v 0.311233 3.504076 -0.060592
v 0.311675 3.478872 -2.734886
v -0.328294 3.482450 -2.777055
v -1.570908 3.150613 -2.727875
v -1.570298 3.230235 -0.056862
v 3.577438 0.758917 -0.081329
v 3.576278 0.115048 -0.060592
v 3.575843 0.115351 -2.745651
v 3.576026 0.759372 -2.772430
v 3.078094 2.056559 -2.743005
v 3.078162 2.083073 -0.073837
v 2.192130 2.965002 -2.737007
v 0.952529 3.482450 -2.687027
v 0.951797 3.506999 -0.023834
v 2.192763 2.990711 -0.064323
v -2.954972 -0.528820 -0.081329
v -2.953561 -0.529275 -2.772430
v -2.455628 -1.737133 -2.743005
v -2.455697 -1.737786 -0.073837
v -1.569665 -2.645578 -2.737007
v -0.330064 -3.163028 -2.687027
v -0.329331 -3.161715 -0.023834
v -1.570298 -2.645427 -0.064323
v 0.310790 -3.159449 -2.734886
v 0.311233 -3.158793 -0.060592
v 3.577911 -0.528668 -2.721649
v 3.577438 -0.528820 -0.039856
v 0.951797 -3.161715 -0.097351
v 0.950759 -3.163028 -2.777055
v 3.078620 -1.738541 -2.710567
v 3.078162 -1.737789 -0.047349
v 2.193374 -2.645440 -2.727875
v 2.192763 -2.645427 -0.056862
vt 0.165389 0.420950
vt 0.165392 0.398059
vt 0.171140 0.420745
vt 0.171141 0.397883
vt 0.183603 0.420651
vt 0.184076 0.397946
vt 0.328925 0.342259
vt 0.328929 0.365058
vt 0.323299 0.342573
vt 0.323308 0.365418
vt 0.312396 0.364999
vt 0.312401 0.342227
vt 0.192499 0.420799
vt 0.193210 0.398027
vt 0.069636 0.300052
vt 0.069639 0.277161
vt 0.075386 0.299875
vt 0.075390 0.276933
vt 0.086973 0.277184
vt 0.087210 0.299939
vt 0.345443 0.365076
vt 0.334556 0.364650
vt 0.345448 0.342291
vt 0.334550 0.341946
vt 0.159642 0.398236
vt 0.159638 0.421178
vt 0.148852 0.420928
vt 0.148846 0.398172
vt 0.245296 0.276939
vt 0.256182 0.277365
vt 0.245291 0.299724
vt 0.256189 0.300069
vt 0.261810 0.276957
vt 0.261814 0.299756
vt 0.063888 0.277366
vt 0.063886 0.300229
vt 0.267440 0.299442
vt 0.267431 0.276597
vt 0.095086 0.277235
vt 0.095315 0.300020
vt 0.140740 0.420876
vt 0.140741 0.398091
vt 0.053084 0.277460
vt 0.053090 0.300165
vt 0.278343 0.277016
vt 0.278338 0.299788
vt 0.044985 0.277313
vt 0.044985 0.300084
vn -0.999995 -0.003222 -0.000162
vn -0.999995 -0.003222 -0.000162
vn -0.999995 -0.003222 -0.000162
vn -0.999998 -0.001803 0.000176
vn -0.999998 -0.001803 0.000176
vn -0.999998 -0.001803 0.000176
vn -0.941556 0.336856 0.000147
vn -0.941556 0.336856 0.000147
vn -0.941556 0.336856 0.000147
vn -0.945408 0.325828 -0.006324
vn -0.945408 0.325828 -0.006324
vn -0.945408 0.325828 -0.006324
vn 0.005104 0.999943 -0.009423
vn 0.005104 0.999943 -0.009423
vn 0.005104 0.999943 -0.009423
vn 0.006194 0.999939 -0.009158
vn 0.006194 0.999939 -0.009158
vn 0.006194 0.999939 -0.009158
vn -0.258325 0.966017 -0.008950
vn -0.258325 0.966017 -0.008950
vn -0.258325 0.966017 -0.008950
vn -0.218486 0.975408 -0.029027
vn -0.218486 0.975408 -0.029027
vn -0.218486 0.975408 -0.029027
vn -0.747561 0.664065 -0.013092
vn -0.747561 0.664065 -0.013092
vn -0.747561 0.664065 -0.013092
vn -0.756023 0.654259 -0.019331
vn -0.756023 0.654260 -0.019331
vn -0.756023 0.654259 -0.019331
vn 0.999998 -0.001809 -0.000162
vn 0.999998 -0.001809 -0.000162
vn 0.999998 -0.001809 -0.000162
vn 1.000000 -0.000299 -0.000525
vn 1.000000 -0.000299 -0.000525
vn 1.000000 -0.000299 -0.000525
vn 0.933580 0.358369 -0.000429
vn 0.933580 0.358369 -0.000429
vn 0.933580 0.358369 -0.000429
vn 0.935685 0.352818 -0.003529
vn 0.935685 0.352818 -0.003529
vn 0.935685 0.352818 -0.003529
vn 0.384890 0.922919 -0.008969
vn 0.384890 0.922919 -0.008969
vn 0.384890 0.922919 -0.008969
vn 0.383871 0.923348 -0.008405
vn 0.383871 0.923348 -0.008405
vn 0.383871 0.923348 -0.008405
vn -0.004879 0.999944 -0.009425
vn -0.004879 0.999944 -0.009425
vn -0.004879 0.999944 -0.009425
vn -0.004034 0.999949 -0.009220
vn -0.004034 0.999949 -0.009220
vn -0.004034 0.999949 -0.009220
vn -0.999998 0.001809 -0.000162
vn -0.999998 0.001809 -0.000162
vn -0.999998 0.001809 -0.000162
vn -1.000000 0.000317 -0.000525
vn -1.000000 0.000317 -0.000525
vn -1.000000 0.000317 -0.000525
vn -0.924521 -0.381130 -0.000420
vn -0.924521 -0.381130 -0.000420
vn -0.924521 -0.381130 -0.000420
vn -0.924285 -0.381702 -0.000117
vn -0.924286 -0.381702 -0.000117
vn -0.924286 -0.381702 -0.000117
vn -0.385215 -0.922827 -0.000039
vn -0.385215 -0.922827 -0.000039
vn -0.385215 -0.922827 -0.000039
vn -0.384134 -0.923277 0.000561
vn -0.384134 -0.923277 0.000561
vn -0.384134 -0.923277 0.000561
vn 0.005603 -0.999984 0.000245
vn 0.005603 -0.999984 0.000245
vn 0.005603 -0.999984 0.000245
vn 0.004590 -0.999989 0.000492
vn 0.004590 -0.999989 0.000492
vn 0.004590 -0.999989 0.000492
vn 0.999995 0.003215 -0.000162
vn 0.999995 0.003215 -0.000162
vn 0.999995 0.003215 -0.000162
vn 0.999998 0.001820 0.000176
vn 0.999998 0.001820 0.000176
vn 0.999998 0.001820 0.000176
vn -0.004547 -0.999990 0.000246
vn -0.004547 -0.999990 0.000246
vn -0.004547 -0.999990 0.000246
vn -0.005560 -0.999984 0.000492
vn -0.005560 -0.999984 0.000492
vn -0.005560 -0.999984 0.000492
vn 0.715871 0.698198 -0.006954
vn 0.715871 0.698198 -0.006954
vn 0.715871 0.698198 -0.006954
vn 0.715771 0.698301 -0.006887
vn 0.715771 0.698301 -0.006887
vn 0.715771 0.698301 -0.006887
vn -0.715905 -0.698197 -0.000189
vn -0.715905 -0.698197 -0.000189
vn -0.715905 -0.698197 -0.000189
vn -0.715825 -0.698280 -0.000130
vn -0.715825 -0.698280 -0.000130
vn -0.715825 -0.698280 -0.000130
vn 0.924376 -0.381482 0.000142
vn 0.924376 -0.381482 0.000142
vn 0.924376 -0.381482 0.000142
vn 0.924286 -0.381700 0.000267
vn 0.924286 -0.381700 0.000267
vn 0.924286 -0.381700 0.000267
vn 0.384497 -0.923126 0.000303
vn 0.384497 -0.923126 0.000303
vn 0.384498 -0.923126 0.000303
vn 0.384119 -0.923284 0.000092
vn 0.384119 -0.923284 0.000092
vn 0.384119 -0.923284 0.000092
vn 0.715603 -0.698507 0.000167
vn 0.715603 -0.698507 0.000167
vn 0.715603 -0.698507 0.000167
vn 0.715816 -0.698289 0.000320
vn 0.715816 -0.698289 0.000320
vn 0.715816 -0.698289 0.000320
vn 0.000312 -0.000000 1.000000
vn 0.000312 -0.000000 1.000000
vn 0.000312 -0.000000 1.000000
vn 0.000312 -0.000000 1.000000
vn 0.000312 -0.000000 1.000000
vn 0.000312 -0.000000 1.000000
vn 0.000312 -0.000000 1.000000
vn 0.000312 -0.000000 1.000000
vn 0.000312 -0.000000 1.000000
vn 0.000312 -0.000000 1.000000
vn 0.000312 -0.000000 1.000000
vn 0.000312 -0.000000 1.000000
vn 0.000312 -0.000000 1.000000
vn 0.000312 -0.000000 1.000000
vn 0.000312 -0.000000 1.000000
vn 0.000312 -0.000000 1.000000
vn 0.000312 -0.000000 1.000000
vn 0.000312 -0.000000 1.000000
vn 0.000312 -0.000000 1.000000
vn 0.000312 -0.000000 1.000000
vn -0.000293 0.000000 -1.000000
vn -0.000293 0.000000 -1.000000
vn -0.000293 0.000000 -1.000000
vn -0.000293 0.000000 -1.000000
vn -0.000293 0.000000 -1.000000
vn -0.000293 0.000000 -1.000000
vn -0.000293 0.000000 -1.000000
vn -0.000293 0.000000 -1.000000
vn -0.000293 0.000000 -1.000000
vn -0.000293 0.000000 -1.000000
vn -0.000293 0.000000 -1.000000
vn -0.000293 0.000000 -1.000000
vn -0.000293 0.000000 -1.000000
vn -0.000293 0.000000 -1.000000
vn -0.000293 0.000000 -1.000000
vn -0.000293 0.000000 -1.000000
vn -0.000293 0.000000 -1.000000
vn -0.000293 0.000000 -1.000000
vn -0.000293 0.000000 -1.000000
vn -0.000293 0.000000 -1.000000
s off
usemtl initialShadingGroup1
f 2/1/1 3/2/2 1/3/3
f 1/3/4 3/2/5 4/4/6
f 1/3/7 4/4/8 5/5/9
f 5/5/10 4/4/11 6/6/12
f 8/7/13 9/8/14 7/9/15
f 7/9/16 9/8/17 10/10/18
f 10/10/19 11/11/20 7/9/21
f 7/9/22 11/11/23 12/12/24
f 5/5/25 6/6/26 11/13/27
f 11/13/28 6/6/29 12/14/30
f 14/15/31 15/16/32 13/17/33
f 13/17/34 15/16/35 16/18/36
f 16/18/37 17/19/38 13/17/39
f 13/17/40 17/19/41 18/20/42
f 19/21/43 20/22/44 22/23/45
f 22/23/46 20/22/47 21/24/48
f 9/8/49 8/7/50 20/22/51
f 20/22/52 8/7/53 21/24/54
f 3/2/55 2/1/56 23/25/57
f 23/25/58 2/1/59 24/26/60
f 24/26/61 25/27/62 23/25/63
f 23/25/64 25/27/65 26/28/66
f 27/29/67 28/30/68 30/31/69
f 30/31/70 28/30/71 29/32/72
f 31/33/73 32/34/74 28/30/75
f 28/30/76 32/34/77 29/32/78
f 15/16/79 14/15/80 33/35/81
f 33/35/82 14/15/83 34/36/84
f 32/34/85 31/33/86 35/37/87
f 35/37/88 31/33/89 36/38/90
f 17/19/91 19/39/92 18/20/93
f 18/20/94 19/39/95 22/40/96
f 25/27/97 27/41/98 26/28/99
f 26/28/100 27/41/101 30/42/102
f 33/35/103 34/36/104 37/43/105
f 37/43/106 34/36/107 38/44/108
f 36/38/109 39/45/110 35/37/111
f 35/37/112 39/45/113 40/46/114
f 39/47/115 37/43/116 40/48/117
f 40/48/118 37/43/119 38/44/120
