# This file uses centimeters as units for non-parametric coordinates.

mtllib Ray3.mtl
g default1
v 3.078094 2.056559 -0.057480
v 2.192130 2.965002 -0.051483
v 0.952529 3.482450 -0.001503
v 0.311675 3.478872 -0.049362
v -0.328294 3.482450 -0.091530
v -1.570908 3.150613 -0.042351
v -2.456155 2.154388 -0.025043
v -2.955445 0.758765 -0.036125
v -2.953378 0.114744 -0.060127
v -2.953561 -0.529275 -0.086906
v -2.455628 -1.737133 -0.057480
v -1.569665 -2.645578 -0.051483
v -0.330064 -3.163028 -0.001503
v 0.310790 -3.159449 -0.049362
v 0.950759 -3.163028 -0.091530
v 2.193374 -2.645440 -0.042351
v 3.078620 -1.738541 -0.025043
v 3.577911 -0.528668 -0.036125
v 3.575843 0.115351 -0.060127
v 3.576026 0.759372 -0.086906
v 3.078025 2.028814 -2.850635
v 2.191466 2.938100 -2.848316
v 0.953300 3.456762 -2.788410
v 0.312141 3.452497 -2.847877
v -0.327203 3.456762 -2.895706
v -1.571557 3.067292 -2.837429
v -2.456635 2.098903 -2.811973
v -2.955933 0.758607 -2.842483
v -2.952920 0.114427 -2.869915
v -2.952073 -0.529752 -2.903015
v -2.455560 -1.736450 -2.850635
v -1.569001 -2.645736 -2.848316
v -0.330834 -3.164400 -2.788410
v 0.310325 -3.160135 -2.847877
v 0.949668 -3.164400 -2.895706
v 2.194022 -2.645453 -2.837429
v 3.079101 -1.739328 -2.811973
v 3.578406 -0.528510 -2.842483
v 3.575385 0.115669 -2.869915
v 3.574546 0.759847 -2.903015
vt 0.086726 0.253372
vt 0.094845 0.253391
vt 0.086973 0.277184
vt 0.095086 0.277235
vt 0.345437 0.388920
vt 0.334563 0.388409
vt 0.345443 0.365076
vt 0.334556 0.364650
vt 0.328933 0.388916
vt 0.328929 0.365058
vt 0.323308 0.365418
vt 0.323318 0.389324
vt 0.312390 0.388827
vt 0.312396 0.364999
vt 0.183107 0.444410
vt 0.183603 0.420651
vt 0.191755 0.444627
vt 0.192499 0.420799
vt 0.171139 0.444670
vt 0.171140 0.420745
vt 0.165386 0.444904
vt 0.165389 0.420950
vt 0.159638 0.421178
vt 0.159634 0.445186
vt 0.148858 0.444740
vt 0.148852 0.420928
vt 0.140740 0.420876
vt 0.140738 0.444720
vt 0.245302 0.253095
vt 0.256176 0.253606
vt 0.245296 0.276939
vt 0.256182 0.277365
vt 0.261806 0.253099
vt 0.261810 0.276957
vt 0.267431 0.276597
vt 0.267421 0.252691
vt 0.278343 0.277016
vt 0.278349 0.253188
vt 0.053084 0.277460
vt 0.044985 0.277313
vt 0.053077 0.253701
vt 0.044985 0.253484
vt 0.063889 0.253441
vt 0.063888 0.277366
vt 0.069642 0.253207
vt 0.069639 0.277161
vt 0.075390 0.276933
vt 0.075394 0.252925
vn 0.715979 0.698088 -0.006952
vn 0.715979 0.698088 -0.006952
vn 0.715979 0.698088 -0.006952
vn 0.715863 0.698206 -0.006886
vn 0.715863 0.698206 -0.006886
vn 0.715863 0.698206 -0.006886
vn 0.385984 0.922462 -0.008964
vn 0.385984 0.922462 -0.008964
vn 0.385984 0.922462 -0.008964
vn 0.384917 0.922913 -0.008400
vn 0.384917 0.922913 -0.008400
vn 0.384917 0.922913 -0.008400
vn -0.005777 0.999939 -0.009425
vn -0.005777 0.999939 -0.009425
vn -0.005777 0.999939 -0.009425
vn -0.004895 0.999946 -0.009218
vn -0.004895 0.999946 -0.009218
vn -0.004895 0.999946 -0.009218
vn 0.006212 0.999936 -0.009423
vn 0.006212 0.999936 -0.009423
vn 0.006212 0.999936 -0.009423
vn 0.007355 0.999931 -0.009157
vn 0.007355 0.999931 -0.009157
vn 0.007355 0.999931 -0.009157
vn -0.299067 0.954191 -0.008858
vn -0.299067 0.954191 -0.008858
vn -0.299067 0.954191 -0.008858
vn -0.258961 0.965461 -0.028720
vn -0.258961 0.965461 -0.028720
vn -0.258961 0.965461 -0.028720
vn -0.738249 0.674397 -0.013300
vn -0.738249 0.674397 -0.013300
vn -0.738249 0.674397 -0.013300
vn -0.747543 0.663924 -0.019618
vn -0.747543 0.663924 -0.019618
vn -0.747543 0.663924 -0.019618
vn -0.937090 0.349087 0.000143
vn -0.937090 0.349087 0.000143
vn -0.937090 0.349087 0.000143
vn -0.941523 0.336885 -0.006544
vn -0.941523 0.336885 -0.006544
vn -0.941523 0.336885 -0.006544
vn -0.999989 -0.004680 -0.000162
vn -0.999989 -0.004680 -0.000162
vn -0.999989 -0.004680 -0.000162
vn -0.999995 -0.003191 0.000174
vn -0.999995 -0.003191 0.000174
vn -0.999995 -0.003191 0.000174
vn -1.000000 0.000277 -0.000163
vn -1.000000 0.000277 -0.000163
vn -1.000000 0.000277 -0.000163
vn -0.999999 -0.001295 -0.000528
vn -0.999999 -0.001295 -0.000528
vn -0.999999 -0.001295 -0.000528
vn -0.924772 -0.380522 -0.000424
vn -0.924772 -0.380522 -0.000424
vn -0.924772 -0.380522 -0.000424
vn -0.924518 -0.381138 -0.000116
vn -0.924518 -0.381138 -0.000116
vn -0.924518 -0.381138 -0.000116
vn -0.715903 -0.698200 -0.000131
vn -0.715903 -0.698200 -0.000131
vn -0.715903 -0.698200 -0.000131
vn -0.716002 -0.698099 -0.000188
vn -0.716002 -0.698099 -0.000188
vn -0.716002 -0.698099 -0.000188
vn -0.386369 -0.922344 -0.000039
vn -0.386369 -0.922344 -0.000039
vn -0.386369 -0.922344 -0.000039
vn -0.385240 -0.922816 0.000560
vn -0.385240 -0.922816 0.000560
vn -0.385240 -0.922816 0.000560
vn 0.006674 -0.999978 0.000244
vn 0.006674 -0.999978 0.000244
vn 0.006674 -0.999978 0.000244
vn 0.005621 -0.999984 0.000490
vn 0.005621 -0.999984 0.000490
vn 0.005621 -0.999984 0.000490
vn -0.005576 -0.999984 0.000246
vn -0.005576 -0.999984 0.000246
vn -0.005576 -0.999985 0.000246
vn -0.006634 -0.999978 0.000492
vn -0.006634 -0.999978 0.000492
vn -0.006634 -0.999978 0.000492
vn 0.384506 -0.923123 0.000094
vn 0.384506 -0.923123 0.000094
vn 0.384506 -0.923123 0.000094
vn 0.384899 -0.922959 0.000302
vn 0.384899 -0.922959 0.000302
vn 0.384899 -0.922959 0.000302
vn 0.715589 -0.698521 0.000321
vn 0.715589 -0.698521 0.000321
vn 0.715589 -0.698521 0.000321
vn 0.715368 -0.698748 0.000169
vn 0.715368 -0.698748 0.000169
vn 0.715368 -0.698748 0.000169
vn 0.924479 -0.381232 0.000142
vn 0.924479 -0.381232 0.000142
vn 0.924479 -0.381232 0.000142
vn 0.924381 -0.381471 0.000267
vn 0.924381 -0.381471 0.000267
vn 0.924381 -0.381471 0.000267
vn 0.999989 0.004672 -0.000162
vn 0.999989 0.004672 -0.000162
vn 0.999989 0.004672 -0.000162
vn 0.999995 0.003242 0.000177
vn 0.999995 0.003242 0.000177
vn 0.999995 0.003242 0.000177
vn 1.000000 -0.000281 -0.000163
vn 1.000000 -0.000281 -0.000163
vn 1.000000 -0.000281 -0.000163
vn 0.999999 0.001262 -0.000525
vn 0.999999 0.001262 -0.000525
vn 0.999999 0.001262 -0.000525
vn 0.931243 0.364398 -0.000428
vn 0.931243 0.364398 -0.000428
vn 0.931243 0.364398 -0.000428
vn 0.933546 0.358439 -0.003583
vn 0.933546 0.358439 -0.003583
vn 0.933546 0.358439 -0.003583
vn 0.000293 0.000000 1.000000
vn 0.000293 0.000000 1.000000
vn 0.000293 0.000000 1.000000
vn 0.000293 0.000000 1.000000
vn 0.000293 0.000000 1.000000
vn 0.000293 0.000000 1.000000
vn 0.000293 0.000000 1.000000
vn 0.000293 0.000000 1.000000
vn 0.000293 0.000000 1.000000
vn 0.000293 0.000000 1.000000
vn 0.000293 0.000000 1.000000
vn 0.000293 0.000000 1.000000
vn 0.000293 0.000000 1.000000
vn 0.000293 0.000000 1.000000
vn 0.000293 0.000000 1.000000
vn 0.000293 0.000000 1.000000
vn 0.000293 0.000000 1.000000
vn 0.000293 0.000000 1.000000
vn 0.000293 0.000000 1.000000
vn 0.000293 0.000000 1.000000
vn -0.000242 0.000000 -1.000000
vn -0.000242 0.000000 -1.000000
vn -0.000242 0.000000 -1.000000
vn -0.000242 0.000000 -1.000000
vn -0.000242 0.000000 -1.000000
vn -0.000242 0.000000 -1.000000
vn -0.000242 0.000000 -1.000000
vn -0.000242 0.000000 -1.000000
vn -0.000242 0.000000 -1.000000
vn -0.000242 0.000000 -1.000000
vn -0.000242 0.000000 -1.000000
vn -0.000242 0.000000 -1.000000
vn -0.000242 0.000000 -1.000000
vn -0.000242 0.000000 -1.000000
vn -0.000242 0.000000 -1.000000
vn -0.000242 0.000000 -1.000000
vn -0.000242 0.000000 -1.000000
vn -0.000242 0.000000 -1.000000
vn -0.000242 0.000000 -1.000000
vn -0.000242 0.000000 -1.000000
s off
usemtl initialShadingGroup1
f 21/1/1 22/2/2 1/3/3
f 1/3/4 22/2/5 2/4/6
f 22/5/7 23/6/8 2/7/9
f 2/7/10 23/6/11 3/8/12
f 24/9/13 4/10/14 23/6/15
f 23/6/16 4/10/17 3/8/18
f 4/10/19 24/9/20 5/11/21
f 5/11/22 24/9/23 25/12/24
f 25/12/25 26/13/26 5/11/27
f 5/11/28 26/13/29 6/14/30
f 27/15/31 7/16/32 26/17/33
f 26/17/34 7/16/35 6/18/36
f 28/19/37 8/20/38 27/15/39
f 27/15/40 8/20/41 7/16/42
f 29/21/43 9/22/44 28/19/45
f 28/19/46 9/22/47 8/20/48
f 9/22/49 29/21/50 10/23/51
f 10/23/52 29/21/53 30/24/54
f 30/24/55 31/25/56 10/23/57
f 10/23/58 31/25/59 11/26/60
f 12/27/61 11/26/62 32/28/63
f 32/28/64 11/26/65 31/25/66
f 32/29/67 33/30/68 12/31/69
f 12/31/70 33/30/71 13/32/72
f 34/33/73 14/34/74 33/30/75
f 33/30/76 14/34/77 13/32/78
f 14/34/79 34/33/80 15/35/81
f 15/35/82 34/33/83 35/36/84
f 16/37/85 15/35/86 36/38/87
f 36/38/88 15/35/89 35/36/90
f 17/39/91 16/40/92 37/41/93
f 37/41/94 16/40/95 36/42/96
f 38/43/97 18/44/98 37/41/99
f 37/41/100 18/44/101 17/39/102
f 39/45/103 19/46/104 38/43/105
f 38/43/106 19/46/107 18/44/108
f 19/46/109 39/45/110 20/47/111
f 20/47/112 39/45/113 40/48/114
f 40/48/115 21/1/116 20/47/117
f 20/47/118 21/1/119 1/3/120
