# This file uses centimeters as units for non-parametric coordinates.

mtllib Ray7.mtl
g default1
v 3.392600 0.728188 -0.034794
v 3.389693 0.129949 -0.016523
v 3.388793 -0.468289 0.005703
v 2.927856 -1.588764 -0.030516
v 2.104484 -2.433273 -0.031740
v 0.954818 -2.915072 -0.071840
v 0.359367 -2.911033 -0.031893
v -0.234292 -2.915072 -0.000057
v -1.390061 -2.432994 -0.039022
v -2.211976 -1.591606 -0.056383
v -2.675660 -0.467064 -0.034794
v -2.672753 0.131175 -0.016523
v -2.671845 0.729412 0.005703
v -2.210915 1.849887 -0.030516
v -1.387536 2.694396 -0.031740
v -0.237878 3.176196 -0.071840
v 0.357574 3.172157 -0.031893
v 0.951232 3.176196 -0.000057
v 2.107009 2.694118 -0.039022
v 2.928924 1.852729 -0.056383
v 0.352050 -2.909708 -3.848610
v 0.946914 -2.912421 -3.872723
v 2.099342 -2.432968 -3.846161
v 2.921577 -1.590085 -3.839920
v 3.385230 -0.467370 -3.835003
v 3.384154 0.130562 -3.848610
v -2.217469 -1.590085 -3.857300
v -1.395242 -2.432968 -3.851055
v -0.242814 -2.912421 -3.824493
v -2.681130 -0.467370 -3.862213
v -2.680047 0.130562 -3.848610
v 2.921577 1.851208 -3.857300
v 2.099342 2.694092 -3.851055
v 0.946914 3.173545 -3.824493
v 0.352050 3.170831 -3.848610
v 3.385230 0.728494 -3.862213
v -0.242814 3.173545 -3.872723
v -1.395242 2.694092 -3.846161
v -2.217469 1.851208 -3.839920
v -2.681130 0.728494 -3.835003
vt 0.853985 0.686923
vt 0.854161 0.711648
vt 0.850116 0.687102
vt 0.850289 0.711929
vt 0.862271 0.711863
vt 0.862108 0.687047
vt 0.869945 0.711825
vt 0.869771 0.687041
vt 0.877829 0.712013
vt 0.877677 0.687024
vt 0.881720 0.711843
vt 0.881568 0.686911
vt 0.964055 0.711126
vt 0.956406 0.711057
vt 0.963895 0.686337
vt 0.956238 0.686341
vt 0.972201 0.711335
vt 0.972013 0.686463
vt 0.846428 0.712157
vt 0.846247 0.687281
vt 0.948497 0.711244
vt 0.948341 0.686357
vt 0.944454 0.686469
vt 0.944608 0.711388
vt 0.901178 0.711563
vt 0.893525 0.711506
vt 0.901028 0.686762
vt 0.893365 0.686777
vt 0.909326 0.711754
vt 0.909152 0.686875
vt 0.913187 0.711517
vt 0.913022 0.686689
vt 0.885612 0.711700
vt 0.885459 0.686798
vt 0.916891 0.686504
vt 0.917058 0.711227
vt 0.925168 0.711425
vt 0.925011 0.686617
vt 0.932838 0.711376
vt 0.932669 0.686603
vt 0.940718 0.711556
vt 0.940567 0.686582
vn -0.004589 -0.999989 -0.000688
vn -0.004589 -0.999989 -0.000688
vn -0.004589 -0.999989 -0.000688
vn -0.006806 -0.999977 -0.000334
vn -0.006806 -0.999977 -0.000334
vn -0.006806 -0.999977 -0.000334
vn 0.386525 -0.922279 -0.000595
vn 0.386525 -0.922279 -0.000595
vn 0.386525 -0.922279 -0.000595
vn 0.384152 -0.923269 -0.001443
vn 0.384152 -0.923269 -0.001443
vn 0.384152 -0.923269 -0.001443
vn 0.716012 -0.698087 -0.000938
vn 0.716012 -0.698087 -0.000938
vn 0.716012 -0.698087 -0.000938
vn 0.715823 -0.698281 -0.001021
vn 0.715823 -0.698281 -0.001021
vn 0.715823 -0.698281 -0.001021
vn 0.924814 -0.380418 -0.000949
vn 0.924814 -0.380418 -0.000949
vn 0.924814 -0.380418 -0.000949
vn 0.924281 -0.381710 -0.001391
vn 0.924281 -0.381710 -0.001391
vn 0.924281 -0.381710 -0.001391
vn 0.999999 -0.001504 -0.000928
vn 0.999999 -0.001504 -0.000928
vn 0.999999 -0.001504 -0.000928
vn 0.999997 0.001758 -0.001445
vn 0.999997 0.001758 -0.001445
vn 0.999997 0.001758 -0.001445
vn -0.715341 -0.698775 0.000967
vn -0.715341 -0.698775 0.000967
vn -0.715341 -0.698775 0.000967
vn -0.715829 -0.698275 0.000755
vn -0.715829 -0.698275 0.000755
vn -0.715829 -0.698275 0.000755
vn -0.384965 -0.922931 0.000218
vn -0.384965 -0.922931 0.000218
vn -0.384965 -0.922931 0.000218
vn -0.384130 -0.923279 0.000516
vn -0.384130 -0.923279 0.000516
vn -0.384130 -0.923279 0.000516
vn 0.006766 -0.999977 -0.000708
vn 0.006766 -0.999977 -0.000708
vn 0.006766 -0.999977 -0.000708
vn 0.004547 -0.999990 -0.000356
vn 0.004547 -0.999990 -0.000356
vn 0.004547 -0.999990 -0.000356
vn -0.924486 -0.381214 0.001352
vn -0.924486 -0.381214 0.001352
vn -0.924486 -0.381214 0.001352
vn -0.924281 -0.381711 0.001183
vn -0.924281 -0.381711 0.001183
vn -0.924281 -0.381711 0.001183
vn -0.999997 0.001802 0.001429
vn -0.999997 0.001802 0.001429
vn -0.999997 0.001802 0.001429
vn -0.999987 0.004792 0.001903
vn -0.999987 0.004792 0.001903
vn -0.999987 0.004792 0.001903
vn 0.715314 0.698802 -0.001444
vn 0.715314 0.698802 -0.001444
vn 0.715314 0.698802 -0.001444
vn 0.715815 0.698288 -0.001663
vn 0.715815 0.698288 -0.001663
vn 0.715815 0.698288 -0.001663
vn 0.384929 0.922946 -0.001075
vn 0.384929 0.922946 -0.001075
vn 0.384929 0.922946 -0.001075
vn 0.384107 0.923288 -0.000779
vn 0.384106 0.923289 -0.000779
vn 0.384107 0.923288 -0.000779
vn -0.006768 0.999977 -0.000685
vn -0.006768 0.999977 -0.000685
vn -0.006768 0.999977 -0.000685
vn -0.004549 0.999990 -0.000341
vn -0.004549 0.999990 -0.000341
vn -0.004549 0.999990 -0.000341
vn 0.924511 0.381152 -0.001750
vn 0.924511 0.381152 -0.001750
vn 0.924511 0.381152 -0.001750
vn 0.924275 0.381722 -0.001939
vn 0.924275 0.381722 -0.001939
vn 0.924275 0.381722 -0.001939
vn 0.999996 -0.001860 -0.001926
vn 0.999996 -0.001860 -0.001926
vn 0.999996 -0.001860 -0.001926
vn 0.999987 -0.004899 -0.001446
vn 0.999987 -0.004899 -0.001446
vn 0.999987 -0.004899 -0.001446
vn 0.004591 0.999989 -0.000704
vn 0.004591 0.999989 -0.000704
vn 0.004591 0.999989 -0.000704
vn 0.006808 0.999977 -0.000357
vn 0.006808 0.999977 -0.000357
vn 0.006808 0.999977 -0.000357
vn -0.386493 0.922292 0.000707
vn -0.386493 0.922292 0.000707
vn -0.386493 0.922292 0.000707
vn -0.384124 0.923281 -0.000145
vn -0.384124 0.923281 -0.000145
vn -0.384124 0.923281 -0.000145
vn -0.715998 0.698101 0.001473
vn -0.715998 0.698101 0.001473
vn -0.715998 0.698101 0.001473
vn -0.715816 0.698287 0.001390
vn -0.715816 0.698287 0.001390
vn -0.715816 0.698287 0.001390
vn -0.924776 0.380507 0.002145
vn -0.924776 0.380507 0.002145
vn -0.924776 0.380507 0.002145
vn -0.924284 0.381703 0.001723
vn -0.924283 0.381703 0.001723
vn -0.924283 0.381703 0.001723
vn -0.999996 0.001432 0.002417
vn -0.999996 0.001432 0.002417
vn -0.999996 0.001432 0.002417
vn -0.999997 -0.001865 0.001904
vn -0.999996 -0.001865 0.001904
vn -0.999997 -0.001865 0.001904
vn 0.000000 -0.000000 1.000000
vn 0.000000 -0.000000 1.000000
vn 0.000000 -0.000000 1.000000
vn 0.000000 -0.000000 1.000000
vn 0.000000 -0.000000 1.000000
vn 0.000000 -0.000000 1.000000
vn 0.000000 -0.000000 1.000000
vn 0.000000 -0.000000 1.000000
vn 0.000000 -0.000000 1.000000
vn 0.000000 -0.000000 1.000000
vn 0.000000 -0.000000 1.000000
vn 0.000000 -0.000000 1.000000
vn 0.000000 -0.000000 1.000000
vn 0.000000 -0.000000 1.000000
vn 0.000000 -0.000000 1.000000
vn 0.000000 -0.000000 1.000000
vn 0.000000 -0.000000 1.000000
vn 0.000000 -0.000000 1.000000
vn 0.000000 -0.000000 1.000000
vn 0.000000 -0.000000 1.000000
vn 0.000000 0.000000 -1.000000
vn 0.000000 0.000000 -1.000000
vn 0.000000 0.000000 -1.000000
vn 0.000000 0.000000 -1.000000
vn 0.000000 0.000000 -1.000000
vn 0.000000 0.000000 -1.000000
vn 0.000000 0.000000 -1.000000
vn 0.000000 0.000000 -1.000000
vn 0.000000 0.000000 -1.000000
vn 0.000000 0.000000 -1.000000
vn 0.000000 0.000000 -1.000000
vn 0.000000 0.000000 -1.000000
vn 0.000000 0.000000 -1.000000
vn 0.000000 0.000000 -1.000000
vn 0.000000 0.000000 -1.000000
vn 0.000000 0.000000 -1.000000
vn 0.000000 0.000000 -1.000000
vn 0.000000 0.000000 -1.000000
vn 0.000000 0.000000 -1.000000
vn 0.000000 0.000000 -1.000000
s off
usemtl initialShadingGroup1
f 22/1/1 6/2/2 21/3/3
f 21/3/4 6/2/5 7/4/6
f 5/5/7 6/2/8 23/6/9
f 23/6/10 6/2/11 22/1/12
f 4/7/13 5/5/14 24/8/15
f 24/8/16 5/5/17 23/6/18
f 3/9/19 4/7/20 25/10/21
f 25/10/22 4/7/23 24/8/24
f 3/9/25 25/10/26 2/11/27
f 2/11/28 25/10/29 26/12/30
f 9/13/31 10/14/32 28/15/33
f 28/15/34 10/14/35 27/16/36
f 8/17/37 9/13/38 29/18/39
f 29/18/40 9/13/41 28/15/42
f 8/19/43 29/20/44 7/4/45
f 7/4/46 29/20/47 21/3/48
f 11/21/49 30/22/50 10/14/51
f 10/14/52 30/22/53 27/16/54
f 30/22/55 11/21/56 31/23/57
f 31/23/58 11/21/59 12/24/60
f 19/25/61 20/26/62 33/27/63
f 33/27/64 20/26/65 32/28/66
f 18/29/67 19/25/68 34/30/69
f 34/30/70 19/25/71 33/27/72
f 18/29/73 34/30/74 17/31/75
f 17/31/76 34/30/77 35/32/78
f 1/33/79 36/34/80 20/26/81
f 20/26/82 36/34/83 32/28/84
f 36/34/85 1/33/86 26/12/87
f 26/12/88 1/33/89 2/11/90
f 37/35/91 16/36/92 35/32/93
f 35/32/94 16/36/95 17/31/96
f 15/37/97 16/36/98 38/38/99
f 38/38/100 16/36/101 37/35/102
f 14/39/103 15/37/104 39/40/105
f 39/40/106 15/37/107 38/38/108
f 13/41/109 14/39/110 40/42/111
f 40/42/112 14/39/113 39/40/114
f 13/41/115 40/42/116 12/24/117
f 12/24/118 40/42/119 31/23/120
