# This file uses centimeters as units for non-parametric coordinates.

mtllib Ray8.mtl
g default1
v 2.099342 -2.432968 0.011492
v 2.921577 -1.590085 0.017733
v 3.385230 -0.467370 0.022650
v 0.352050 -2.909708 0.009043
v 0.946914 -2.912421 -0.015070
v 3.384154 0.130562 0.009043
v -0.242814 -2.912421 0.033159
v -1.395242 -2.432968 0.006598
v -2.217469 -1.590085 0.000353
v -2.681130 -0.467370 -0.004560
v -2.680047 0.130562 0.009043
v 2.099342 2.694092 0.006598
v 2.921577 1.851208 0.000353
v 3.385230 0.728494 -0.004560
v 0.352050 3.170831 0.009043
v 0.946914 3.173545 0.033159
v -0.242814 3.173545 -0.015070
v -1.395242 2.694092 0.011492
v -2.217469 1.851208 0.017733
v -2.681130 0.728494 0.022650
v 3.383285 0.131168 -3.776701
v 3.382407 0.729402 -3.798822
v 3.386176 -0.467068 -3.758486
v 2.922492 -1.591587 -3.737219
v 2.100570 -2.432993 -3.754442
v 0.944839 -2.915040 -3.793257
v 0.351165 -2.911017 -3.761518
v -0.244279 -2.915040 -3.721762
v -1.393975 -2.433270 -3.761698
v -2.217332 -1.588780 -3.762979
v -2.678300 -0.468278 -3.798822
v -2.679177 0.129956 -3.776701
v -2.682069 0.728192 -3.758486
v -2.218385 1.852710 -3.737219
v -1.396470 2.694118 -3.754442
v -0.240731 3.176164 -3.793257
v 0.352935 3.172141 -3.761518
v 0.948386 3.176164 -3.721762
v 2.098075 2.694393 -3.761698
v 2.921439 1.849903 -3.762979
vt 0.885307 0.662110
vt 0.885459 0.686798
vt 0.881415 0.662279
vt 0.881568 0.686911
vt 0.877677 0.687024
vt 0.877523 0.662422
vt 0.869610 0.662610
vt 0.869771 0.687041
vt 0.861956 0.662546
vt 0.862108 0.687047
vt 0.853808 0.662343
vt 0.853985 0.686923
vt 0.849947 0.662574
vt 0.850116 0.687102
vt 0.846247 0.687281
vt 0.846075 0.662857
vt 0.963749 0.661830
vt 0.971858 0.662041
vt 0.963895 0.686337
vt 0.972013 0.686463
vt 0.956079 0.661868
vt 0.956238 0.686341
vt 0.948198 0.661683
vt 0.948341 0.686357
vt 0.944309 0.661851
vt 0.944454 0.686469
vt 0.940567 0.686582
vt 0.940419 0.661993
vt 0.932509 0.662182
vt 0.932669 0.686603
vt 0.924858 0.662122
vt 0.925011 0.686617
vt 0.916711 0.661926
vt 0.916891 0.686504
vt 0.912850 0.662160
vt 0.913022 0.686689
vt 0.909152 0.686875
vt 0.908978 0.662446
vt 0.900866 0.662245
vt 0.901028 0.686762
vt 0.893192 0.662290
vt 0.893365 0.686777
vn 0.999999 0.001416 -0.000744
vn 0.999999 0.001416 -0.000744
vn 0.999999 0.001416 -0.000744
vn 0.999998 -0.001780 -0.000230
vn 0.999998 -0.001780 -0.000230
vn 0.999998 -0.001780 -0.000230
vn 0.999998 0.001795 0.000250
vn 0.999998 0.001795 0.000250
vn 0.999998 0.001795 0.000250
vn 0.999988 0.004851 -0.000229
vn 0.999988 0.004851 -0.000229
vn 0.999988 0.004851 -0.000229
vn 0.924494 -0.381197 0.000201
vn 0.924494 -0.381197 0.000201
vn 0.924494 -0.381197 0.000201
vn 0.924281 -0.381713 0.000378
vn 0.924281 -0.381713 0.000378
vn 0.924281 -0.381713 0.000378
vn 0.715337 -0.698780 0.000238
vn 0.715337 -0.698780 0.000238
vn 0.715337 -0.698780 0.000238
vn 0.715814 -0.698290 0.000454
vn 0.715814 -0.698290 0.000454
vn 0.715814 -0.698290 0.000454
vn 0.384936 -0.922943 0.000428
vn 0.384936 -0.922943 0.000428
vn 0.384936 -0.922943 0.000428
vn 0.384119 -0.923284 0.000131
vn 0.384119 -0.923284 0.000131
vn 0.384119 -0.923284 0.000131
vn -0.006738 -0.999977 0.000697
vn -0.006738 -0.999977 0.000697
vn -0.006738 -0.999977 0.000697
vn -0.004547 -0.999990 0.000348
vn -0.004547 -0.999990 0.000348
vn -0.004547 -0.999990 0.000348
vn 0.004589 -0.999989 0.000696
vn 0.004589 -0.999989 0.000696
vn 0.004589 -0.999989 0.000696
vn 0.006779 -0.999977 0.000346
vn 0.006779 -0.999977 0.000346
vn 0.006779 -0.999977 0.000346
vn -0.386478 -0.922299 -0.000056
vn -0.386478 -0.922299 -0.000056
vn -0.386478 -0.922299 -0.000056
vn -0.384139 -0.923275 0.000794
vn -0.384139 -0.923275 0.000794
vn -0.384139 -0.923275 0.000794
vn -0.716001 -0.698099 -0.000268
vn -0.716001 -0.698099 -0.000268
vn -0.716001 -0.698099 -0.000268
vn -0.715828 -0.698277 -0.000185
vn -0.715828 -0.698277 -0.000185
vn -0.715828 -0.698277 -0.000185
vn -0.924791 -0.380475 -0.000599
vn -0.924791 -0.380475 -0.000599
vn -0.924791 -0.380475 -0.000599
vn -0.924285 -0.381703 -0.000166
vn -0.924285 -0.381703 -0.000166
vn -0.924285 -0.381703 -0.000166
vn -0.999999 -0.001461 -0.000746
vn -0.999999 -0.001461 -0.000746
vn -0.999999 -0.001461 -0.000746
vn -0.999998 0.001807 -0.000230
vn -0.999998 0.001807 -0.000230
vn -0.999998 0.001807 -0.000230
vn -0.999998 -0.001828 0.000248
vn -0.999998 -0.001828 0.000248
vn -0.999998 -0.001828 0.000248
vn -0.999988 -0.004824 -0.000229
vn -0.999988 -0.004824 -0.000229
vn -0.999988 -0.004824 -0.000229
vn -0.924494 0.381197 0.000199
vn -0.924494 0.381197 0.000199
vn -0.924494 0.381197 0.000199
vn -0.924281 0.381713 0.000378
vn -0.924281 0.381713 0.000378
vn -0.924281 0.381713 0.000378
vn -0.715338 0.698779 0.000238
vn -0.715338 0.698779 0.000238
vn -0.715338 0.698779 0.000238
vn -0.715822 0.698283 0.000454
vn -0.715822 0.698283 0.000454
vn -0.715822 0.698283 0.000454
vn -0.384936 0.922943 0.000427
vn -0.384936 0.922943 0.000427
vn -0.384936 0.922943 0.000427
vn -0.384119 0.923284 0.000132
vn -0.384119 0.923284 0.000132
vn -0.384119 0.923284 0.000132
vn 0.006739 0.999977 0.000697
vn 0.006739 0.999977 0.000697
vn 0.006739 0.999977 0.000697
vn 0.004548 0.999990 0.000348
vn 0.004548 0.999990 0.000348
vn 0.004548 0.999990 0.000348
vn -0.004591 0.999989 0.000695
vn -0.004591 0.999989 0.000695
vn -0.004591 0.999989 0.000695
vn -0.006778 0.999977 0.000346
vn -0.006778 0.999977 0.000346
vn -0.006778 0.999977 0.000346
vn 0.386478 0.922299 -0.000056
vn 0.386478 0.922299 -0.000056
vn 0.386478 0.922299 -0.000056
vn 0.384139 0.923275 0.000795
vn 0.384139 0.923275 0.000795
vn 0.384139 0.923275 0.000795
vn 0.716009 0.698092 -0.000268
vn 0.716009 0.698092 -0.000268
vn 0.716009 0.698092 -0.000268
vn 0.715821 0.698283 -0.000185
vn 0.715821 0.698283 -0.000185
vn 0.715821 0.698283 -0.000185
vn 0.924791 0.380475 -0.000597
vn 0.924791 0.380475 -0.000597
vn 0.924791 0.380475 -0.000597
vn 0.924282 0.381710 -0.000166
vn 0.924282 0.381710 -0.000166
vn 0.924282 0.381711 -0.000166
vn 0.000000 0.000000 1.000000
vn 0.000000 0.000000 1.000000
vn 0.000000 0.000000 1.000000
vn 0.000000 0.000000 1.000000
vn 0.000000 0.000000 1.000000
vn 0.000000 0.000000 1.000000
vn 0.000000 0.000000 1.000000
vn 0.000000 0.000000 1.000000
vn 0.000000 0.000000 1.000000
vn 0.000000 0.000000 1.000000
vn 0.000000 0.000000 1.000000
vn 0.000000 0.000000 1.000000
vn 0.000000 0.000000 1.000000
vn 0.000000 0.000000 1.000000
vn 0.000000 0.000000 1.000000
vn 0.000000 0.000000 1.000000
vn 0.000000 0.000000 1.000000
vn 0.000000 0.000000 1.000000
vn 0.000000 0.000000 1.000000
vn 0.000000 0.000000 1.000000
vn -0.000000 0.000000 -1.000000
vn -0.000000 0.000000 -1.000000
vn -0.000000 0.000000 -1.000000
vn -0.000000 0.000000 -1.000000
vn -0.000000 0.000000 -1.000000
vn -0.000000 0.000000 -1.000000
vn -0.000000 0.000000 -1.000000
vn -0.000000 0.000000 -1.000000
vn -0.000000 0.000000 -1.000000
vn -0.000000 0.000000 -1.000000
vn -0.000000 0.000000 -1.000000
vn -0.000000 0.000000 -1.000000
vn -0.000000 0.000000 -1.000000
vn -0.000000 0.000000 -1.000000
vn -0.000000 0.000000 -1.000000
vn -0.000000 0.000000 -1.000000
vn -0.000000 0.000000 -1.000000
vn -0.000000 0.000000 -1.000000
vn -0.000000 0.000000 -1.000000
vn -0.000000 0.000000 -1.000000
s off
usemtl initialShadingGroup1
f 22/1/1 14/2/2 21/3/3
f 21/3/4 14/2/5 6/4/6
f 3/5/7 23/6/8 6/4/9
f 6/4/10 23/6/11 21/3/12
f 23/6/13 3/5/14 24/7/15
f 24/7/16 3/5/17 2/8/18
f 25/9/19 24/7/20 1/10/21
f 1/10/22 24/7/23 2/8/24
f 26/11/25 25/9/26 5/12/27
f 5/12/28 25/9/29 1/10/30
f 26/11/31 5/12/32 27/13/33
f 27/13/34 5/12/35 4/14/36
f 7/15/37 28/16/38 4/14/39
f 4/14/40 28/16/41 27/13/42
f 29/17/43 28/18/44 8/19/45
f 8/19/46 28/18/47 7/20/48
f 30/21/49 29/17/50 9/22/51
f 9/22/52 29/17/53 8/19/54
f 31/23/55 30/21/56 10/24/57
f 10/24/58 30/21/59 9/22/60
f 31/23/61 10/24/62 32/25/63
f 32/25/64 10/24/65 11/26/66
f 20/27/67 33/28/68 11/26/69
f 11/26/70 33/28/71 32/25/72
f 33/28/73 20/27/74 34/29/75
f 34/29/76 20/27/77 19/30/78
f 35/31/79 34/29/80 18/32/81
f 18/32/82 34/29/83 19/30/84
f 36/33/85 35/31/86 17/34/87
f 17/34/88 35/31/89 18/32/90
f 36/33/91 17/34/92 37/35/93
f 37/35/94 17/34/95 15/36/96
f 16/37/97 38/38/98 15/36/99
f 15/36/100 38/38/101 37/35/102
f 39/39/103 38/38/104 12/40/105
f 12/40/106 38/38/107 16/37/108
f 40/41/109 39/39/110 13/42/111
f 13/42/112 39/39/113 12/40/114
f 22/1/115 40/41/116 14/2/117
f 14/2/118 40/41/119 13/42/120
