# This file uses centimeters as units for non-parametric coordinates.

mtllib Ray9.mtl
g default1
v 3.382407 0.729402 -0.050697
v 3.383285 0.131168 -0.028576
v 3.386176 -0.467068 -0.010360
v 2.922492 -1.591587 0.010907
v 2.100570 -2.432993 -0.006317
v 0.944839 -2.915040 -0.045131
v 0.351165 -2.911017 -0.013393
v -0.244279 -2.915040 0.026364
v -1.393975 -2.433270 -0.013572
v -2.217332 -1.588780 -0.014854
v -2.678300 -0.468278 -0.050697
v -2.679177 0.129956 -0.028576
v -2.682069 0.728192 -0.010360
v -2.218385 1.852710 0.010907
v -1.396470 2.694118 -0.006317
v -0.240731 3.176164 -0.045131
v 0.352935 3.172141 -0.013393
v 0.948386 3.176164 0.026364
v 2.098075 2.694393 -0.013572
v 2.921439 1.849903 -0.014854
v 2.101890 -2.433020 -4.044510
v 2.923476 -1.593198 -4.015506
v 0.942611 -2.917849 -4.096470
v 0.350219 -2.912421 -4.056549
v 3.387183 -0.466743 -4.064853
v 3.382354 0.131816 -4.088012
v -0.245850 -2.917849 -4.000015
v -1.392617 -2.433593 -4.054298
v -2.217187 -1.587381 -4.050266
v -2.675271 -0.469252 -4.119266
v -2.678254 0.129308 -4.088012
v 0.949958 3.178972 -4.000015
v 0.353889 3.173545 -4.056549
v 2.096717 2.694717 -4.054298
v 2.921294 1.848504 -4.050266
v 3.379378 0.730375 -4.119266
v -1.397782 2.694144 -4.044510
v -2.219369 1.854322 -4.015506
v -0.238511 3.178972 -4.096470
v -2.683076 0.727867 -4.064853
vt 0.861794 0.636273
vt 0.869437 0.636412
vt 0.861956 0.662546
vt 0.869610 0.662610
vt 0.853618 0.635987
vt 0.853808 0.662343
vt 0.849766 0.636273
vt 0.849947 0.662574
vt 0.877359 0.636041
vt 0.877523 0.662422
vt 0.881415 0.662279
vt 0.881252 0.635865
vt 0.846075 0.662857
vt 0.845891 0.636666
vt 0.963592 0.635552
vt 0.971691 0.635854
vt 0.963749 0.661830
vt 0.971858 0.662041
vt 0.956079 0.661868
vt 0.955908 0.635626
vt 0.948045 0.635225
vt 0.948198 0.661683
vt 0.944153 0.635452
vt 0.944309 0.661851
vt 0.908978 0.662446
vt 0.908792 0.636251
vt 0.912850 0.662160
vt 0.912667 0.635857
vt 0.900692 0.635954
vt 0.900866 0.662245
vt 0.893192 0.662290
vt 0.893007 0.636033
vt 0.885307 0.662110
vt 0.885144 0.635637
vt 0.924695 0.635857
vt 0.932338 0.635996
vt 0.924858 0.662122
vt 0.932509 0.662182
vt 0.916519 0.635572
vt 0.916711 0.661926
vt 0.940260 0.635626
vt 0.940419 0.661993
vn 0.714822 -0.699306 0.000238
vn 0.714822 -0.699306 0.000238
vn 0.714822 -0.699306 0.000238
vn 0.715344 -0.698772 0.000454
vn 0.715344 -0.698772 0.000454
vn 0.715344 -0.698772 0.000454
vn 0.385815 -0.922576 0.000427
vn 0.385815 -0.922576 0.000427
vn 0.385815 -0.922576 0.000427
vn 0.384946 -0.922939 0.000132
vn 0.384946 -0.922939 0.000132
vn 0.384946 -0.922939 0.000132
vn -0.009115 -0.999958 0.000699
vn -0.009115 -0.999958 0.000699
vn -0.009115 -0.999958 0.000699
vn -0.006757 -0.999977 0.000349
vn -0.006757 -0.999977 0.000349
vn -0.006757 -0.999977 0.000349
vn 0.924715 -0.380661 0.000199
vn 0.924715 -0.380661 0.000199
vn 0.924715 -0.380661 0.000199
vn 0.924495 -0.381195 0.000378
vn 0.924495 -0.381195 0.000378
vn 0.924495 -0.381195 0.000378
vn 0.999988 0.004865 0.000249
vn 0.999988 0.004865 0.000249
vn 0.999988 0.004865 0.000249
vn 0.999968 0.008038 -0.000228
vn 0.999968 0.008038 -0.000228
vn 0.999968 0.008038 -0.000228
vn 0.006802 -0.999977 0.000695
vn 0.006802 -0.999977 0.000695
vn 0.006802 -0.999977 0.000695
vn 0.009138 -0.999958 0.000345
vn 0.009138 -0.999958 0.000345
vn 0.009138 -0.999958 0.000345
vn -0.389009 -0.921234 -0.000057
vn -0.389009 -0.921234 -0.000057
vn -0.389009 -0.921234 -0.000057
vn -0.386506 -0.922287 0.000794
vn -0.386506 -0.922287 0.000794
vn -0.386506 -0.922287 0.000794
vn -0.716003 -0.698097 -0.000268
vn -0.716003 -0.698097 -0.000268
vn -0.716003 -0.698097 -0.000268
vn -0.716214 -0.697881 -0.000185
vn -0.716214 -0.697881 -0.000185
vn -0.716214 -0.697881 -0.000185
vn -0.925345 -0.379127 -0.000598
vn -0.925345 -0.379127 -0.000598
vn -0.925345 -0.379127 -0.000598
vn -0.924799 -0.380457 -0.000165
vn -0.924799 -0.380457 -0.000165
vn -0.924799 -0.380456 -0.000165
vn -0.999987 -0.004983 -0.000743
vn -0.999987 -0.004983 -0.000743
vn -0.999987 -0.004983 -0.000743
vn -0.999999 -0.001483 -0.000227
vn -0.999999 -0.001483 -0.000227
vn -0.999999 -0.001483 -0.000227
vn -0.006802 0.999977 0.000695
vn -0.006802 0.999977 0.000695
vn -0.006802 0.999977 0.000695
vn -0.009138 0.999958 0.000345
vn -0.009138 0.999958 0.000345
vn -0.009138 0.999958 0.000345
vn 0.389022 0.921228 -0.000057
vn 0.389022 0.921228 -0.000057
vn 0.389022 0.921228 -0.000057
vn 0.386508 0.922286 0.000794
vn 0.386508 0.922286 0.000794
vn 0.386508 0.922286 0.000794
vn 0.716006 0.698094 -0.000267
vn 0.716006 0.698094 -0.000267
vn 0.716006 0.698094 -0.000267
vn 0.716201 0.697894 -0.000185
vn 0.716201 0.697894 -0.000185
vn 0.716201 0.697894 -0.000185
vn 0.924799 0.380456 -0.000165
vn 0.924799 0.380456 -0.000165
vn 0.924799 0.380456 -0.000165
vn 0.925331 0.379159 -0.000598
vn 0.925331 0.379159 -0.000598
vn 0.925331 0.379159 -0.000598
vn 0.999988 0.004892 -0.000743
vn 0.999988 0.004892 -0.000743
vn 0.999988 0.004892 -0.000743
vn 0.999999 0.001458 -0.000229
vn 0.999999 0.001458 -0.000229
vn 0.999999 0.001458 -0.000229
vn -0.714823 0.699306 0.000237
vn -0.714823 0.699306 0.000237
vn -0.714823 0.699306 0.000237
vn -0.715327 0.698790 0.000455
vn -0.715327 0.698790 0.000455
vn -0.715327 0.698790 0.000455
vn -0.385819 0.922575 0.000429
vn -0.385819 0.922575 0.000429
vn -0.385819 0.922575 0.000429
vn -0.384942 0.922941 0.000131
vn -0.384942 0.922941 0.000131
vn -0.384942 0.922941 0.000131
vn 0.009114 0.999958 0.000698
vn 0.009114 0.999958 0.000698
vn 0.009114 0.999958 0.000698
vn 0.006757 0.999977 0.000349
vn 0.006757 0.999977 0.000349
vn 0.006757 0.999977 0.000349
vn -0.924724 0.380638 0.000199
vn -0.924724 0.380638 0.000199
vn -0.924724 0.380638 0.000199
vn -0.924495 0.381195 0.000379
vn -0.924495 0.381195 0.000379
vn -0.924495 0.381195 0.000379
vn -0.999988 -0.004817 0.000249
vn -0.999988 -0.004817 0.000249
vn -0.999988 -0.004817 0.000249
vn -0.999968 -0.008063 -0.000226
vn -0.999968 -0.008063 -0.000226
vn -0.999968 -0.008063 -0.000226
vn 0.000000 0.000000 1.000000
vn 0.000000 0.000000 1.000000
vn 0.000000 0.000000 1.000000
vn 0.000000 0.000000 1.000000
vn 0.000000 0.000000 1.000000
vn 0.000000 0.000000 1.000000
vn 0.000000 0.000000 1.000000
vn 0.000000 0.000000 1.000000
vn 0.000000 0.000000 1.000000
vn 0.000000 0.000000 1.000000
vn 0.000000 0.000000 1.000000
vn 0.000000 0.000000 1.000000
vn 0.000000 0.000000 1.000000
vn 0.000000 0.000000 1.000000
vn 0.000000 0.000000 1.000000
vn 0.000000 0.000000 1.000000
vn 0.000000 0.000000 1.000000
vn 0.000000 0.000000 1.000000
vn 0.000000 0.000000 1.000000
vn 0.000000 0.000000 1.000000
vn 0.000000 0.000000 -1.000000
vn 0.000000 0.000000 -1.000000
vn 0.000000 0.000000 -1.000000
vn 0.000000 0.000000 -1.000000
vn 0.000000 0.000000 -1.000000
vn 0.000000 0.000000 -1.000000
vn 0.000000 0.000000 -1.000000
vn 0.000000 0.000000 -1.000000
vn 0.000000 0.000000 -1.000000
vn 0.000000 0.000000 -1.000000
vn 0.000000 0.000000 -1.000000
vn 0.000000 0.000000 -1.000000
vn 0.000000 0.000000 -1.000000
vn 0.000000 0.000000 -1.000000
vn 0.000000 0.000000 -1.000000
vn 0.000000 0.000000 -1.000000
vn 0.000000 0.000000 -1.000000
vn 0.000000 0.000000 -1.000000
vn 0.000000 0.000000 -1.000000
vn 0.000000 0.000000 -1.000000
s off
usemtl initialShadingGroup1
f 21/1/1 22/2/2 5/3/3
f 5/3/4 22/2/5 4/4/6
f 23/5/7 21/1/8 6/6/9
f 6/6/10 21/1/11 5/3/12
f 23/5/13 6/6/14 24/7/15
f 24/7/16 6/6/17 7/8/18
f 25/9/19 3/10/20 22/2/21
f 22/2/22 3/10/23 4/4/24
f 3/10/25 25/9/26 2/11/27
f 2/11/28 25/9/29 26/12/30
f 8/13/31 27/14/32 7/8/33
f 7/8/34 27/14/35 24/7/36
f 28/15/37 27/16/38 9/17/39
f 9/17/40 27/16/41 8/18/42
f 10/19/43 29/20/44 9/17/45
f 9/17/46 29/20/47 28/15/48
f 30/21/49 29/20/50 11/22/51
f 11/22/52 29/20/53 10/19/54
f 30/21/55 11/22/56 31/23/57
f 31/23/58 11/22/59 12/24/60
f 18/25/61 32/26/62 17/27/63
f 17/27/64 32/26/65 33/28/66
f 34/29/67 32/26/68 19/30/69
f 19/30/70 32/26/71 18/25/72
f 20/31/73 35/32/74 19/30/75
f 19/30/76 35/32/77 34/29/78
f 20/31/79 1/33/80 35/32/81
f 35/32/82 1/33/83 36/34/84
f 36/34/85 1/33/86 26/12/87
f 26/12/88 1/33/89 2/11/90
f 37/35/91 38/36/92 15/37/93
f 15/37/94 38/36/95 14/38/96
f 39/39/97 37/35/98 16/40/99
f 16/40/100 37/35/101 15/37/102
f 39/39/103 16/40/104 33/28/105
f 33/28/106 16/40/107 17/27/108
f 40/41/109 13/42/110 38/36/111
f 38/36/112 13/42/113 14/38/114
f 13/42/115 40/41/116 12/24/117
f 12/24/118 40/41/119 31/23/120
