# This file uses centimeters as units for non-parametric coordinates.

mtllib OddishBodyCon.mtl
v 0.562122 2.399251 -1.395488
v 0.325546 2.268852 -1.202166
v 0.128444 2.044616 -0.982782
v 0.020062 1.654103 -0.715479
v 0.025641 1.191976 -0.607365
v 0.760188 2.369380 -1.234300
v 0.668607 2.220304 -0.866633
v 0.521557 1.988157 -0.584441
v 0.307514 1.618992 -0.455802
v 0.161985 1.177340 -0.498303
v 0.951572 2.261904 -1.071296
v 1.000094 2.038077 -0.662728
v 0.899648 1.785558 -0.320060
v 0.618480 1.450040 -0.233969
v 0.310416 1.091924 -0.441565
v 0.775878 2.393554 -1.693471
v -0.225213 2.274302 -1.153612
v -0.276517 1.601227 -0.434930
v -0.600274 1.452845 -0.219640
v -0.326964 1.068002 -0.444309
v -0.848067 2.305744 -1.039614
v -0.167525 1.156826 -0.503536
v -0.832672 1.845955 -0.282160
v -0.651830 2.387963 -1.191888
v 0.011774 1.638210 -0.695054
v -0.028933 1.182552 -0.609466
v -0.566739 2.250894 -0.828493
v -0.680398 2.404839 -1.655142
v -0.906631 2.108488 -0.632075
v -0.454650 2.401477 -1.346774
v -0.444572 2.010726 -0.549708
v -0.053565 2.039666 -0.943923
v 1.407044 1.570829 -0.845549
v 1.220782 1.342332 -0.586428
v 0.071181 1.131197 -0.291041
v 1.497778 1.820465 -1.173232
v 1.241181 2.044295 -0.803947
v 0.933499 2.162399 -0.514372
v 0.621525 2.091588 -0.281939
v 0.256754 1.880068 -0.145056
v -0.061123 1.578874 -0.214137
v 1.366088 1.816145 -0.755087
v 1.149844 1.767232 -0.429743
v 0.871339 1.635289 -0.184218
v 0.473099 1.484902 -0.060427
v 0.063784 1.350725 -0.165276
v 0.953251 1.144655 -0.365143
v 0.544037 1.060001 -0.217113
v -1.413982 1.649867 -0.778523
v -1.223792 1.401570 -0.541405
v -0.069452 1.145962 -0.305656
v -1.510849 1.921259 -1.086565
v -1.234543 2.115885 -0.714961
v -0.912994 2.208737 -0.431314
v -0.594209 2.116505 -0.216288
v -0.229979 1.888529 -0.107207
v 0.077163 1.584852 -0.207105
v -1.363286 1.888126 -0.675063
v -1.135984 1.814246 -0.362208
v -0.851696 1.660986 -0.136491
v -0.452969 1.494038 -0.038101
v -0.051580 1.357093 -0.167206
v -0.953088 1.184469 -0.343410
v -0.540777 1.081361 -0.217298
v 0.001585 2.709906 -0.894294
v 0.243517 2.797910 -0.511053
v 0.494888 2.568489 -0.203485
v 0.586896 2.110456 0.002666
v 0.494888 1.609500 0.022331
v 0.182172 1.254009 -0.228593
v 0.001585 2.819764 -0.358777
v 0.001585 2.571141 0.047440
v 0.001585 2.108280 0.287696
v 0.001585 1.609500 0.268687
v 0.001585 1.254009 -0.086361
v -0.240346 2.797910 -0.511054
v -0.491717 2.568489 -0.203485
v -0.583725 2.110456 0.002666
v -0.491717 1.609500 0.022331
v -0.166732 1.254009 -0.228593
v -0.285536 1.324914 -0.283879
v -0.490143 1.120308 -0.283879
v -0.565034 0.840809 -0.283879
v -0.490143 0.561311 -0.283879
v -0.285536 0.356705 -0.283879
v -0.203673 1.324914 -0.481514
v -0.348352 1.120308 -0.626192
v -0.401308 0.840809 -0.679149
v -0.348352 0.561311 -0.626192
v -0.203673 0.356705 -0.481514
v -0.006038 1.324914 -0.563377
v -0.006038 1.120308 -0.767983
v -0.006038 0.840809 -0.842875
v -0.006038 0.561311 -0.767983
v -0.006038 0.356705 -0.563377
v -0.006038 1.399806 -0.283879
v 0.191597 1.324914 -0.481514
v 0.336276 1.120308 -0.626192
v 0.389232 0.840809 -0.679149
v 0.336276 0.561311 -0.626192
v 0.191597 0.356705 -0.481514
v 0.273460 1.324914 -0.283879
v 0.478067 1.120308 -0.283879
v 0.552958 0.840809 -0.283878
v 0.478067 0.561311 -0.283878
v 0.273460 0.356705 -0.283879
v 0.191597 1.324914 -0.086244
v 0.336276 1.120308 0.058435
v 0.389232 0.840809 0.111392
v 0.336276 0.561311 0.058435
v 0.191597 0.356705 -0.086244
v -0.006038 1.324914 -0.004380
v -0.006038 1.120308 0.200226
v -0.006038 0.840809 0.275118
v -0.006038 0.561311 0.200226
v -0.006038 0.356705 -0.004380
v -0.203673 1.324914 -0.086244
v -0.348352 1.120308 0.058435
v -0.401308 0.840809 0.111391
v -0.348352 0.561311 0.058435
v -0.203673 0.356705 -0.086244
v -0.006038 0.281813 -0.283879
vt 0.030808 0.074762
vt 0.091745 0.016989
vt 0.130638 0.055323
vt 0.108698 0.106230
vt 0.091177 0.284927
vt 0.028273 0.234775
vt 0.107426 0.200802
vt 0.125619 0.246900
vt 0.001797 0.154123
vt 0.103799 0.154650
vt 0.164958 0.154877
vt 0.162656 0.194736
vt 0.167322 0.114174
vt 0.169695 0.067018
vt 0.161009 0.238232
vt 0.217684 0.202982
vt 0.195769 0.249001
vt 0.226272 0.156836
vt 0.223968 0.110331
vt 0.208780 0.061061
vt 0.247500 0.031516
vt 0.299368 0.084939
vt 0.294820 0.236386
vt 0.229398 0.289928
vt 0.318631 0.159418
vt 0.299024 0.499916
vt 0.234435 0.562737
vt 0.192555 0.523018
vt 0.213552 0.470135
vt 0.291585 0.338745
vt 0.214794 0.373925
vt 0.195698 0.327848
vt 0.318631 0.416281
vt 0.220094 0.421080
vt 0.154396 0.462775
vt 0.156743 0.421286
vt 0.152264 0.511261
vt 0.158850 0.380816
vt 0.160215 0.336906
vt 0.094256 0.419515
vt 0.102988 0.372686
vt 0.096578 0.466918
vt 0.112144 0.517456
vt 0.125105 0.326191
vt 0.160515 0.287471
vt 0.174546 0.000254
vt 0.147513 0.580486
vt 0.072283 0.547687
vt 0.000254 0.416741
vt 0.024837 0.338754
vt 0.019470 0.492722
vt 0.695659 0.294029
vt 0.794733 0.296104
vt 0.755409 0.399680
vt 0.674683 0.369132
vt 0.867209 0.316984
vt 0.830701 0.404827
vt 0.926780 0.348322
vt 0.908469 0.395330
vt 0.598858 0.294029
vt 0.590746 0.328777
vt 0.634322 0.441619
vt 0.569903 0.358909
vt 0.711186 0.489016
vt 0.800644 0.484551
vt 0.887219 0.445201
vt 0.996547 0.373177
vt 0.676525 0.117698
vt 0.760425 0.089492
vt 0.797305 0.192485
vt 0.699969 0.192365
vt 0.593637 0.158484
vt 0.605112 0.192485
vt 0.834489 0.087014
vt 0.910502 0.096817
vt 0.926554 0.143616
vt 0.867869 0.173811
vt 0.569903 0.127611
vt 0.636734 0.045123
vt 0.718460 0.000254
vt 0.808842 0.008426
vt 0.892728 0.047843
vt 0.999746 0.119129
vt 0.569394 0.219815
vt 0.546138 0.326825
vt 0.444640 0.294972
vt 0.444189 0.204781
vt 0.494675 0.407003
vt 0.445068 0.380702
vt 0.492936 0.000254
vt 0.553735 0.107340
vt 0.443761 0.119359
vt 0.443256 0.018212
vt 0.319140 0.221066
vt 0.333673 0.108440
vt 0.343465 0.327839
vt 0.395728 0.407498
vt 0.395905 0.000254
vt 0.445610 0.489016
vt 0.571181 0.492771
vt 0.653941 0.535536
vt 0.648896 0.589757
vt 0.573156 0.584556
vt 0.319140 0.551914
vt 0.399824 0.511194
vt 0.418501 0.597382
vt 0.332337 0.604228
vt 0.488400 0.489524
vt 0.500028 0.592857
vt 0.504655 0.695206
vt 0.413535 0.687739
vt 0.737453 0.598691
vt 0.660465 0.641819
vt 0.585738 0.675500
vt 0.319140 0.654828
vt 0.485412 0.898150
vt 0.402652 0.855384
vt 0.407697 0.801164
vt 0.483438 0.806364
vt 0.737453 0.839007
vt 0.656770 0.879727
vt 0.638093 0.793538
vt 0.724257 0.786693
vt 0.568194 0.901397
vt 0.556565 0.798064
vt 0.551939 0.695715
vt 0.643058 0.703182
vt 0.319140 0.792231
vt 0.396128 0.749102
vt 0.470856 0.715421
vt 0.737453 0.736093
vn -0.841655 0.505385 0.190270
vn -0.634645 0.772804 -0.000000
vn -0.460598 0.505386 -0.729681
vn -0.448762 0.772803 -0.448763
vn -0.634645 -0.772804 0.000000
vn -0.900444 -0.434972 0.000000
vn -0.448762 -0.772803 -0.448763
vn -0.636710 -0.434972 -0.636710
vn -0.900444 -0.434972 0.000000
vn -0.986748 -0.088133 0.136242
vn -0.636710 -0.434972 -0.636710
vn -0.601398 -0.088132 -0.794074
vn -0.636710 -0.434972 -0.636710
vn -0.601398 -0.088132 -0.794074
vn 0.000000 -0.434973 -0.900444
vn -0.000000 0.000000 -1.000000
vn -0.601398 -0.088132 -0.794074
vn -0.460598 0.505386 -0.729681
vn -0.000000 0.000000 -1.000000
vn -0.000000 0.434972 -0.900444
vn -0.460598 0.505386 -0.729681
vn -0.448762 0.772803 -0.448763
vn -0.000000 0.434972 -0.900444
vn 0.000000 0.772802 -0.634647
vn -0.448762 -0.772803 -0.448763
vn -0.636710 -0.434972 -0.636710
vn 0.000000 -0.772802 -0.634647
vn 0.000000 -0.434973 -0.900444
vn 0.000000 -0.772802 -0.634647
vn 0.000000 -0.434973 -0.900444
vn 0.448763 -0.772803 -0.448763
vn 0.636711 -0.434972 -0.636709
vn 0.000000 -0.434973 -0.900444
vn -0.000000 0.000000 -1.000000
vn 0.636711 -0.434972 -0.636709
vn 0.707107 0.000000 -0.707107
vn -0.000000 0.000000 -1.000000
vn -0.000000 0.434972 -0.900444
vn 0.707107 0.000000 -0.707107
vn 0.636711 0.434971 -0.636710
vn -0.000000 0.434972 -0.900444
vn 0.000000 0.772802 -0.634647
vn 0.636711 0.434971 -0.636710
vn 0.448762 0.772803 -0.448763
vn 0.636711 0.434971 -0.636710
vn 0.448762 0.772803 -0.448763
vn 0.900445 0.434971 0.000000
vn 0.634645 0.772804 0.000000
vn 0.448763 -0.772803 -0.448763
vn 0.636711 -0.434972 -0.636709
vn 0.634645 -0.772803 0.000000
vn 0.900444 -0.434972 0.000000
vn 0.636711 -0.434972 -0.636709
vn 0.707107 0.000000 -0.707107
vn 0.900444 -0.434972 0.000000
vn 1.000000 0.000000 0.000000
vn 0.707107 0.000000 -0.707107
vn 0.636711 0.434971 -0.636710
vn 1.000000 0.000000 0.000000
vn 0.900445 0.434971 0.000000
vn 0.900445 0.434971 0.000000
vn 0.634645 0.772804 0.000000
vn 0.636711 0.434972 0.636710
vn 0.448763 0.772803 0.448762
vn 0.634645 -0.772803 0.000000
vn 0.900444 -0.434972 0.000000
vn 0.448762 -0.772804 0.448762
vn 0.636710 -0.434973 0.636710
vn 0.900444 -0.434972 0.000000
vn 1.000000 0.000000 0.000000
vn 0.636710 -0.434973 0.636710
vn 0.707106 0.000000 0.707107
vn 1.000000 0.000000 0.000000
vn 0.900445 0.434971 0.000000
vn 0.707106 0.000000 0.707107
vn 0.636711 0.434972 0.636710
vn 0.707106 0.000000 0.707107
vn 0.636711 0.434972 0.636710
vn -0.000001 0.000000 1.000000
vn 0.000000 0.434972 0.900444
vn 0.636711 0.434972 0.636710
vn 0.448763 0.772803 0.448762
vn 0.000000 0.434972 0.900444
vn 0.000000 0.772803 0.634646
vn 0.448762 -0.772804 0.448762
vn 0.636710 -0.434973 0.636710
vn 0.000000 -0.772803 0.634646
vn 0.000000 -0.434973 0.900444
vn 0.636710 -0.434973 0.636710
vn 0.707106 0.000000 0.707107
vn 0.000000 -0.434973 0.900444
vn -0.000001 0.000000 1.000000
vn 0.000000 -0.434973 0.900444
vn -0.000001 0.000000 1.000000
vn -0.636710 -0.434972 0.636710
vn -0.707107 0.000000 0.707106
vn -0.000001 0.000000 1.000000
vn 0.000000 0.434972 0.900444
vn -0.707107 0.000000 0.707106
vn -0.636711 0.434971 0.636710
vn 0.000000 0.434972 0.900444
vn 0.000000 0.772803 0.634646
vn -0.636711 0.434971 0.636710
vn -0.448763 0.772803 0.448762
vn 0.000000 -0.772803 0.634646
vn 0.000000 -0.434973 0.900444
vn -0.448763 -0.772803 0.448762
vn -0.636710 -0.434972 0.636710
vn 0.000000 -1.000000 0.000000
vn -0.634645 -0.772804 0.000000
vn -0.448762 -0.772803 -0.448763
vn -0.634645 0.772804 -0.000000
vn 0.000000 1.000000 0.000000
vn -0.448762 0.772803 -0.448763
vn -0.448762 0.772803 -0.448763
vn 0.000000 1.000000 0.000000
vn 0.000000 0.772802 -0.634647
vn 0.000000 -1.000000 0.000000
vn -0.448762 -0.772803 -0.448763
vn 0.000000 -0.772802 -0.634647
vn 0.000000 0.772802 -0.634647
vn 0.000000 1.000000 0.000000
vn 0.448762 0.772803 -0.448763
vn 0.000000 -1.000000 0.000000
vn 0.000000 -0.772802 -0.634647
vn 0.448763 -0.772803 -0.448763
vn 0.448762 0.772803 -0.448763
vn 0.000000 1.000000 0.000000
vn 0.634645 0.772804 0.000000
vn 0.000000 -1.000000 0.000000
vn 0.448763 -0.772803 -0.448763
vn 0.634645 -0.772803 0.000000
vn 0.000000 -1.000000 0.000000
vn 0.634645 -0.772803 0.000000
vn 0.448762 -0.772804 0.448762
vn 0.634645 0.772804 0.000000
vn 0.000000 1.000000 0.000000
vn 0.448763 0.772803 0.448762
vn 0.000000 -1.000000 0.000000
vn 0.448762 -0.772804 0.448762
vn 0.000000 -0.772803 0.634646
vn 0.448763 0.772803 0.448762
vn 0.000000 1.000000 0.000000
vn 0.000000 0.772803 0.634646
vn 0.000000 -1.000000 0.000000
vn 0.000000 -0.772803 0.634646
vn -0.448763 -0.772803 0.448762
vn 0.000000 0.772803 0.634646
vn 0.000000 1.000000 0.000000
vn -0.448763 0.772803 0.448762
vn -0.448763 0.772803 0.448762
vn 0.000000 1.000000 0.000000
vn -0.634645 0.772804 -0.000000
vn -0.636710 -0.434972 0.636710
vn -0.707107 0.000000 0.707106
vn -0.900444 -0.434972 0.000000
vn -0.986748 -0.088133 0.136242
vn -0.707107 0.000000 0.707106
vn -0.636711 0.434971 0.636710
vn -0.986748 -0.088133 0.136242
vn -0.841655 0.505385 0.190270
vn 0.000000 -1.000000 0.000000
vn -0.448763 -0.772803 0.448762
vn -0.634645 -0.772804 0.000000
vn -0.636711 0.434971 0.636710
vn -0.448763 0.772803 0.448762
vn -0.841655 0.505385 0.190270
vn -0.634645 0.772804 -0.000000
vn -0.448763 -0.772803 0.448762
vn -0.636710 -0.434972 0.636710
vn -0.634645 -0.772804 0.000000
vn -0.900444 -0.434972 0.000000
vn 0.896809 -0.240298 0.371471
vn 0.896809 -0.240298 0.371471
vn 0.896809 -0.240298 0.371471
vn 0.896809 -0.240298 0.371471
vn 0.447989 -0.699950 -0.556215
vn 0.304870 -0.677643 -0.669219
vn 0.578808 -0.445693 -0.682890
vn 0.496422 -0.377166 -0.781864
vn 0.294603 -0.853593 -0.429637
vn 0.116584 -0.859718 -0.497286
vn 0.447989 -0.699950 -0.556215
vn 0.304870 -0.677643 -0.669219
vn 0.112649 -0.954314 -0.276757
vn -0.057012 -0.953038 -0.297436
vn 0.294603 -0.853593 -0.429637
vn 0.116584 -0.859718 -0.497286
vn 0.578808 -0.445693 -0.682890
vn 0.496422 -0.377166 -0.781864
vn 0.638290 -0.153601 -0.754316
vn 0.575886 -0.085854 -0.813010
vn 0.575886 -0.085854 -0.813010
vn 0.496422 -0.377166 -0.781864
vn 0.510106 -0.020418 -0.859869
vn 0.395010 -0.333401 -0.856044
vn 0.304870 -0.677643 -0.669219
vn 0.196381 -0.613827 -0.764625
vn 0.496422 -0.377166 -0.781864
vn 0.395010 -0.333401 -0.856044
vn 0.116584 -0.859718 -0.497286
vn -0.053962 -0.811157 -0.582334
vn 0.304870 -0.677643 -0.669219
vn 0.196381 -0.613827 -0.764625
vn -0.057012 -0.953038 -0.297436
vn -0.210577 -0.890714 -0.402847
vn 0.116584 -0.859718 -0.497286
vn -0.053962 -0.811157 -0.582334
vn 0.112649 -0.954314 -0.276757
vn -0.239423 -0.969109 -0.059201
vn -0.057012 -0.953038 -0.297436
vn -0.057012 -0.953038 -0.297436
vn -0.239423 -0.969109 -0.059201
vn -0.210577 -0.890714 -0.402847
vn -0.537166 -0.278056 -0.796327
vn -0.377452 -0.620886 -0.687045
vn -0.616783 -0.356806 -0.701619
vn -0.509774 -0.637991 -0.577147
vn -0.578179 0.005462 -0.815892
vn -0.537166 -0.278056 -0.796327
vn -0.644274 -0.063260 -0.762174
vn -0.616783 -0.356806 -0.701619
vn -0.179696 -0.854692 -0.487042
vn 0.003892 -0.963962 -0.266012
vn -0.346150 -0.836886 -0.424031
vn -0.151855 -0.957477 -0.245313
vn -0.377452 -0.620886 -0.687045
vn -0.179696 -0.854692 -0.487042
vn -0.509774 -0.637991 -0.577147
vn -0.346150 -0.836886 -0.424031
vn -0.449016 -0.235890 -0.861824
vn -0.537166 -0.278056 -0.796327
vn -0.516489 0.063883 -0.853907
vn -0.578179 0.005462 -0.815892
vn -0.449016 -0.235890 -0.861824
vn -0.284271 -0.552479 -0.783554
vn -0.537166 -0.278056 -0.796327
vn -0.377452 -0.620886 -0.687045
vn -0.284271 -0.552479 -0.783554
vn -0.019046 -0.820938 -0.570699
vn -0.377452 -0.620886 -0.687045
vn -0.179696 -0.854692 -0.487042
vn -0.019046 -0.820938 -0.570699
vn 0.146725 -0.919207 -0.365417
vn -0.179696 -0.854692 -0.487042
vn 0.003892 -0.963962 -0.266012
vn 0.003892 -0.963962 -0.266012
vn 0.161771 -0.985761 -0.045887
vn -0.151855 -0.957477 -0.245313
vn 0.146725 -0.919207 -0.365417
vn 0.161771 -0.985761 -0.045887
vn 0.003892 -0.963962 -0.266012
vn 0.372599 0.595535 0.711693
vn 0.000000 0.611937 0.790906
vn 0.432673 0.220799 0.874095
vn 0.000000 0.209242 0.977864
vn 0.214587 0.924062 0.316326
vn 0.000000 0.921653 0.388016
vn 0.372599 0.595535 0.711693
vn 0.000000 0.611937 0.790906
vn 0.360708 -0.691802 0.625540
vn 0.440921 -0.258489 0.859519
vn -0.002016 -0.743952 0.668230
vn 0.000000 -0.304522 0.952505
vn 0.432673 0.220799 0.874095
vn 0.000000 0.209242 0.977864
vn 0.440921 -0.258489 0.859519
vn 0.000000 -0.304522 0.952505
vn 0.000000 -0.304522 0.952505
vn 0.000000 0.209242 0.977864
vn -0.442587 -0.256150 0.859362
vn -0.432674 0.220799 0.874095
vn 0.000000 0.209242 0.977864
vn 0.000000 0.611937 0.790906
vn -0.432674 0.220799 0.874095
vn -0.372600 0.595536 0.711693
vn 0.000000 0.611937 0.790906
vn 0.000000 0.921653 0.388016
vn -0.372600 0.595536 0.711693
vn -0.214588 0.924062 0.316326
vn 0.000000 -0.304522 0.952505
vn -0.442587 -0.256150 0.859362
vn -0.002016 -0.743952 0.668230
vn -0.364171 -0.694927 0.620046
vn 0.214587 0.924062 0.316326
vn 0.000000 0.979600 -0.200958
vn 0.000000 0.921653 0.388016
vn 0.000000 0.921653 0.388016
vn 0.000000 0.979600 -0.200958
vn -0.214588 0.924062 0.316326
vn -0.552640 -0.452451 -0.699912
vn -0.717211 -0.497219 -0.488244
vn -0.688324 -0.194550 -0.698828
vn -0.832994 -0.237649 -0.499644
vn 0.266196 -0.060293 -0.962031
vn -0.014691 -0.217073 -0.976045
vn 0.213163 0.193157 -0.957733
vn -0.104225 0.060164 -0.992732
vn -0.014691 -0.217073 -0.976045
vn -0.322785 -0.363839 -0.873745
vn -0.104225 0.060164 -0.992732
vn -0.454730 -0.078177 -0.887192
vn -0.322785 -0.363839 -0.873745
vn -0.552640 -0.452451 -0.699912
vn -0.454730 -0.078177 -0.887192
vn -0.688324 -0.194550 -0.698828
vn -0.104225 0.060164 -0.992732
vn -0.454730 -0.078177 -0.887192
vn -0.186395 0.331337 -0.924918
vn -0.530047 0.214074 -0.820501
vn -0.717211 -0.497219 -0.488244
vn -0.914934 -0.279632 -0.291037
vn -0.832994 -0.237649 -0.499644
vn -0.688324 -0.194550 -0.698828
vn -0.832994 -0.237649 -0.499644
vn -0.747003 0.116641 -0.654508
vn -0.867948 0.037711 -0.495221
vn -0.104225 0.060164 -0.992732
vn -0.186395 0.331337 -0.924918
vn 0.213163 0.193157 -0.957733
vn 0.152597 0.412231 -0.898209
vn -0.832994 -0.237649 -0.499644
vn -0.914934 -0.279632 -0.291037
vn -0.867948 0.037711 -0.495221
vn -0.688324 -0.194550 -0.698828
vn -0.747003 0.116641 -0.654508
vn -0.454730 -0.078177 -0.887192
vn -0.530047 0.214074 -0.820501
vn -0.513446 0.421200 0.747638
vn -0.684854 0.482739 0.545837
vn -0.655645 0.167081 0.736352
vn -0.806734 0.225722 0.546104
vn 0.304554 -0.005298 0.952480
vn 0.028533 0.156811 0.987216
vn 0.244909 -0.256700 0.934946
vn -0.067376 -0.118770 0.990633
vn 0.028533 0.156811 0.987216
vn -0.279408 0.316725 0.906431
vn -0.067376 -0.118770 0.990633
vn -0.418024 0.033924 0.907802
vn -0.279408 0.316725 0.906431
vn -0.513446 0.421200 0.747638
vn -0.418024 0.033924 0.907802
vn -0.655645 0.167081 0.736352
vn -0.067376 -0.118770 0.990633
vn -0.418024 0.033924 0.907802
vn -0.159031 -0.383265 0.909845
vn -0.503332 -0.251831 0.826582
vn -0.684854 0.482739 0.545837
vn -0.895553 0.282370 0.343878
vn -0.806734 0.225722 0.546104
vn -0.655645 0.167081 0.736352
vn -0.806734 0.225722 0.546104
vn -0.723956 -0.139338 0.675627
vn -0.848889 -0.047953 0.526392
vn -0.067376 -0.118770 0.990633
vn -0.159031 -0.383265 0.909845
vn 0.244909 -0.256700 0.934946
vn 0.176492 -0.470221 0.864721
vn -0.806734 0.225722 0.546104
vn -0.895553 0.282370 0.343878
vn -0.848889 -0.047953 0.526392
vn -0.655645 0.167081 0.736352
vn -0.723956 -0.139338 0.675627
vn -0.418024 0.033924 0.907802
vn -0.503332 -0.251831 0.826582
s 1
usemtl OddishBody:Oddish
f 82/1/1 81/2/2 87/4/3
f 87/4/3 81/2/2 86/3/4
s 2
f 85/5/5 84/6/6 90/8/7
f 90/8/7 84/6/6 89/7/8
s 3
f 84/6/9 83/9/10 89/7/11
f 89/7/11 83/9/10 88/10/12
s 4
f 89/7/13 88/10/14 94/12/15
f 94/12/15 88/10/14 93/11/16
s 5
f 88/10/17 87/4/18 93/11/19
f 93/11/19 87/4/18 92/13/20
s 6
f 87/4/21 86/3/22 92/13/23
f 92/13/23 86/3/22 91/14/24
s 7
f 90/8/25 89/7/26 95/15/27
f 95/15/27 89/7/26 94/12/28
s 8
f 95/15/29 94/12/30 101/17/31
f 101/17/31 94/12/30 100/16/32
s 9
f 94/12/33 93/11/34 100/16/35
f 100/16/35 93/11/34 99/18/36
s 10
f 93/11/37 92/13/38 99/18/39
f 99/18/39 92/13/38 98/19/40
s 11
f 92/13/41 91/14/42 98/19/43
f 98/19/43 91/14/42 97/20/44
s 12
f 98/19/45 97/20/46 103/22/47
f 103/22/47 97/20/46 102/21/48
s 13
f 101/17/49 100/16/50 106/24/51
f 106/24/51 100/16/50 105/23/52
s 14
f 100/16/53 99/18/54 105/23/55
f 105/23/55 99/18/54 104/25/56
s 15
f 99/18/57 98/19/58 104/25/59
f 104/25/59 98/19/58 103/22/60
s 16
f 103/26/61 102/27/62 108/29/63
f 108/29/63 102/27/62 107/28/64
s 17
f 106/24/65 105/30/66 111/32/67
f 111/32/67 105/30/66 110/31/68
s 18
f 105/30/69 104/33/70 110/31/71
f 110/31/71 104/33/70 109/34/72
s 19
f 104/33/73 103/26/74 109/34/75
f 109/34/75 103/26/74 108/29/76
s 20
f 109/34/77 108/29/78 114/36/79
f 114/36/79 108/29/78 113/35/80
s 21
f 108/29/81 107/28/82 113/35/83
f 113/35/83 107/28/82 112/37/84
s 22
f 111/32/85 110/31/86 116/39/87
f 116/39/87 110/31/86 115/38/88
s 23
f 110/31/89 109/34/90 115/38/91
f 115/38/91 109/34/90 114/36/92
s 24
f 115/38/93 114/36/94 120/41/95
f 120/41/95 114/36/94 119/40/96
s 25
f 114/36/97 113/35/98 119/40/99
f 119/40/99 113/35/98 118/42/100
s 26
f 113/35/101 112/37/102 118/42/103
f 118/42/103 112/37/102 117/43/104
s 27
f 116/39/105 115/38/106 121/44/107
f 121/44/107 115/38/106 120/41/108
s off
f 122/45/109 85/5/110 90/8/111
f 81/2/112 96/46/113 86/3/114
f 86/3/115 96/46/116 91/14/117
f 122/45/118 90/8/119 95/15/120
f 91/14/121 96/46/122 97/20/123
f 122/45/124 95/15/125 101/17/126
f 97/20/127 96/46/128 102/21/129
f 122/45/130 101/17/131 106/24/132
f 122/45/133 106/24/134 111/32/135
f 102/27/136 96/47/137 107/28/138
f 122/45/139 111/32/140 116/39/141
f 107/28/142 96/47/143 112/37/144
f 122/45/145 116/39/146 121/44/147
f 112/37/148 96/47/149 117/43/150
f 117/43/151 96/47/152 81/48/153
s 28
f 120/41/154 119/40/155 84/50/156
f 84/50/156 119/40/155 83/49/157
s 29
f 119/40/158 118/42/159 83/49/160
f 83/49/160 118/42/159 82/51/161
s off
f 122/45/162 121/44/163 85/5/164
s 30
f 118/42/165 117/43/166 82/51/167
f 82/51/167 117/43/166 81/48/168
s 31
f 121/44/169 120/41/170 85/5/171
f 85/5/171 120/41/170 84/50/172
s 32
f 82/1/173 83/9/174 87/4/175
f 87/4/175 83/9/174 88/10/176
s 33
usemtl OddishBody:Oddish_oddishbackLeaves_png
f 3/53/177 8/54/178 4/52/179
f 4/52/179 8/54/178 9/55/180
s 34
f 2/56/181 7/57/182 3/53/183
f 3/53/183 7/57/182 8/54/184
s 35
f 1/58/185 6/59/186 2/56/187
f 2/56/187 6/59/186 7/57/188
s 36
f 4/52/189 9/55/190 5/60/191
f 5/60/191 9/55/190 10/61/192
s 37
f 10/61/193 9/55/194 15/63/195
f 15/63/195 9/55/194 14/62/196
s 38
f 8/54/197 13/64/198 9/55/199
f 9/55/199 13/64/198 14/62/200
s 39
f 7/57/201 12/65/202 8/54/203
f 8/54/203 12/65/202 13/64/204
s 40
f 6/59/205 11/66/206 7/57/207
f 7/57/207 11/66/206 12/65/208
s off
f 1/58/209 16/67/210 6/59/211
f 6/59/212 16/67/213 11/66/214
s 41
f 18/68/215 31/69/216 25/71/217
f 25/71/217 31/69/216 32/70/218
s 42
f 22/72/219 18/68/220 26/73/221
f 26/73/221 18/68/220 25/71/222
s 43
f 27/74/223 24/75/224 17/77/225
f 17/77/225 24/75/224 30/76/226
s 44
f 31/69/227 27/74/228 32/70/229
f 32/70/229 27/74/228 17/77/230
s 45
f 19/79/231 18/68/232 20/78/233
f 20/78/233 18/68/232 22/72/234
s 46
f 19/79/235 23/80/236 18/68/237
f 18/68/237 23/80/236 31/69/238
s 47
f 23/80/239 29/81/240 31/69/241
f 31/69/241 29/81/240 27/74/242
s 48
f 29/81/243 21/82/244 27/74/245
f 27/74/245 21/82/244 24/75/246
s off
f 24/75/247 28/83/248 30/76/249
f 21/82/250 28/83/251 24/75/252
s 49
usemtl OddishBody:Oddish_oddishfrontleaf_png
f 67/85/253 72/86/254 68/84/255
f 68/84/255 72/86/254 73/87/256
s 50
f 66/88/257 71/89/258 67/85/259
f 67/85/259 71/89/258 72/86/260
s 51
f 70/90/261 69/91/262 75/93/263
f 75/93/263 69/91/262 74/92/264
s 52
f 68/84/265 73/87/266 69/91/267
f 69/91/267 73/87/266 74/92/268
s 53
f 74/92/269 73/87/270 79/95/271
f 79/95/271 73/87/270 78/94/272
s 54
f 73/87/273 72/86/274 78/94/275
f 78/94/275 72/86/274 77/96/276
s 55
f 72/86/277 71/89/278 77/96/279
f 77/96/279 71/89/278 76/97/280
s 56
f 74/92/281 79/95/282 75/93/283
f 75/93/283 79/95/282 80/98/284
s off
f 66/88/285 65/99/286 71/89/287
f 71/89/288 65/99/289 76/97/290
s 57
usemtl OddishBody:Oddish_oddishSideLeaves_png
f 38/100/291 37/101/292 43/103/293
f 43/103/293 37/101/292 42/102/294
s 58
f 41/104/295 40/105/296 46/107/297
f 46/107/297 40/105/296 45/106/298
s 59
f 40/105/299 39/108/300 45/106/301
f 45/106/301 39/108/300 44/109/302
s 60
f 39/108/303 38/100/304 44/109/305
f 44/109/305 38/100/304 43/103/306
s 61
f 45/106/307 44/109/308 48/111/309
f 48/111/309 44/109/308 47/110/310
s off
f 37/101/311 36/112/312 42/102/313
s 62
f 43/103/314 42/102/315 34/114/316
f 34/114/316 42/102/315 33/113/317
s 63
f 45/106/318 48/111/319 46/107/320
f 46/107/320 48/111/319 35/115/321
s off
f 42/102/322 36/112/323 33/113/324
s 64
f 43/103/325 34/114/326 44/109/327
f 44/109/327 34/114/326 47/110/328
s 65
f 54/116/329 53/117/330 59/119/331
f 59/119/331 53/117/330 58/118/332
s 66
f 57/120/333 56/121/334 62/123/335
f 62/123/335 56/121/334 61/122/336
s 67
f 56/121/337 55/124/338 61/122/339
f 61/122/339 55/124/338 60/125/340
s 68
f 55/124/341 54/116/342 60/125/343
f 60/125/343 54/116/342 59/119/344
s 69
f 61/122/345 60/125/346 64/127/347
f 64/127/347 60/125/346 63/126/348
s off
f 53/117/349 52/128/350 58/118/351
s 70
f 59/119/352 58/118/353 50/130/354
f 50/130/354 58/118/353 49/129/355
s 71
f 61/122/356 64/127/357 62/123/358
f 62/123/358 64/127/357 51/131/359
s off
f 58/118/360 52/128/361 49/129/362
s 72
f 59/119/363 50/130/364 60/125/365
f 60/125/365 50/130/364 63/126/366
