# This file uses centimeters as units for non-parametric coordinates.

mtllib GrotleBackRightLeg.mtl
g default
v 0.083894 -5.724167 2.604640
v -0.647701 -5.730412 2.604640
v -0.156210 -5.085615 2.262582
v -0.388845 -5.085615 2.262582
v -0.156210 -4.964211 1.971952
v -0.388845 -4.964211 1.971952
v 0.083894 -5.724167 1.898425
v -0.647701 -5.730412 1.898425
v 0.086739 -5.540339 2.556688
v 0.086739 -5.540339 1.898425
v -0.596103 -5.545301 1.898425
v -0.596103 -5.545301 2.556688
v -0.634263 -5.724167 2.758095
v -1.641025 -5.730412 2.758095
v -0.865767 -4.950404 2.352152
v -1.383713 -4.950404 2.352152
v -0.865767 -4.829000 2.007243
v -1.383713 -4.829000 2.007243
v -0.634263 -5.724167 1.919983
v -1.641025 -5.730412 1.919983
v -0.647752 -5.540339 2.701188
v -0.647752 -5.540339 1.919983
v -1.622236 -5.545301 1.919983
v -1.622236 -5.545301 2.701188
v -1.598630 -5.724167 2.604640
v -2.330226 -5.730412 2.604640
v -1.843983 -5.179862 2.408825
v -2.066118 -5.179862 2.408825
v -1.843983 -4.957711 1.900455
v -2.066118 -4.957711 1.900455
v -1.598630 -5.724167 1.898425
v -2.330226 -5.730412 1.898425
v -1.595784 -5.540339 2.556688
v -1.595784 -5.540339 1.898425
v -2.278627 -5.545301 1.898425
v -2.278627 -5.545301 2.556688
v 0.754227 -1.668367 1.492863
v -0.573419 -0.198061 1.229726
v 0.812770 0.099731 0.699097
v 0.178775 0.627651 0.699097
v 0.812770 0.099423 -0.594926
v 0.178775 0.627342 -0.594926
v 0.557364 -1.664843 -1.536380
v -0.859898 -0.194536 -1.312227
v 0.448811 -2.339176 -1.536380
v -0.903387 -1.106430 -1.536380
v -1.190483 -1.109954 1.492863
v 0.622410 -2.342701 1.492863
v 0.474005 -3.053380 -1.714762
v -1.803010 -2.366063 -1.714762
v -1.803010 -2.369587 1.671244
v 0.474005 -3.056905 1.671244
v 0.205931 -5.733393 -2.169147
v -2.284392 -5.727232 -2.169147
v -2.284392 -5.730756 2.097013
v 0.205931 -5.736917 2.097013
v -1.434333 -0.196213 -0.069505
v -2.051398 -1.108106 -0.069505
v -2.663925 -2.367739 -0.078180
v -3.145307 -5.728908 -0.100278
v 0.938604 -5.735069 -0.100278
v 0.843682 -3.055057 -0.078180
v 0.950534 -2.340853 -0.069505
v 1.059087 -1.666519 -0.069505
v 0.812770 0.209920 0.046531
v -0.682140 0.627489 0.046531
v -1.970935 -3.711088 1.891663
v -2.831851 -3.700185 -0.086464
v -1.970935 -3.707564 -1.920871
v 0.274988 -3.707127 -1.920871
v 0.878823 -3.708803 -0.086464
v 0.274988 -3.710651 1.891663
vt 0.049133 0.270571
vt 0.091774 0.270571
vt 0.049133 0.261815
vt 0.091774 0.261815
vt 0.049133 0.304456
vt 0.049133 0.347097
vt 0.091774 0.304456
vt 0.091774 0.347097
vt 0.049133 0.380981
vt 0.049133 0.389738
vt 0.091774 0.380981
vt 0.091774 0.389738
vt 0.049133 0.432378
vt 0.091774 0.432378
vt 0.134415 0.261815
vt 0.134415 0.270571
vt 0.006492 0.270571
vt 0.006492 0.261815
vt 0.006492 0.304456
vt 0.134415 0.304456
vt 0.049133 0.270571
vt 0.091774 0.270571
vt 0.049133 0.261815
vt 0.091774 0.261815
vt 0.049133 0.304456
vt 0.049133 0.347097
vt 0.091774 0.304456
vt 0.091774 0.347097
vt 0.049133 0.380981
vt 0.049133 0.389738
vt 0.091774 0.380981
vt 0.091774 0.389738
vt 0.049133 0.432378
vt 0.091774 0.432378
vt 0.134415 0.261815
vt 0.134415 0.270571
vt 0.006492 0.270571
vt 0.006492 0.261815
vt 0.006492 0.304456
vt 0.134415 0.304456
vt 0.049133 0.270571
vt 0.091774 0.270571
vt 0.049133 0.261815
vt 0.091774 0.261815
vt 0.049133 0.304456
vt 0.049133 0.347097
vt 0.091774 0.304456
vt 0.091774 0.347097
vt 0.049133 0.380981
vt 0.049133 0.389738
vt 0.091774 0.380981
vt 0.091774 0.389738
vt 0.049133 0.432378
vt 0.091774 0.432378
vt 0.134415 0.261815
vt 0.134415 0.270571
vt 0.006492 0.270571
vt 0.006492 0.261815
vt 0.006492 0.304456
vt 0.134415 0.304456
vt 0.107939 0.156721
vt 0.160098 0.217579
vt 0.182097 0.166150
vt 0.188746 0.209185
vt 0.305791 0.216006
vt 0.276522 0.208639
vt 0.300676 0.242264
vt 0.232315 0.203177
vt 0.352028 0.146752
vt 0.279967 0.156825
vt 0.183573 0.352182
vt 0.238470 0.378315
vt 0.184775 0.293187
vt 0.232892 0.278828
vt 0.234139 0.152520
vt 0.385918 0.195931
vt 0.368233 0.125300
vt 0.298618 0.126175
vt 0.233589 0.108389
vt 0.171913 0.123341
vt 0.091528 0.136577
vt 0.408198 0.173967
vt 0.385440 0.101199
vt 0.300185 0.068788
vt 0.232370 0.056243
vt 0.160861 0.072600
vt 0.076122 0.109433
vt 0.429232 0.151247
vt 0.395891 0.074670
vt 0.319277 0.020250
vt 0.231500 0.003914
vt 0.138860 0.025155
vt 0.065110 0.083673
vt 0.448370 0.132860
vt 0.292104 0.352904
vt 0.283832 0.296742
vt 0.010080 0.146833
vt 0.029436 0.164790
vt 0.051434 0.186661
vt 0.074974 0.207538
vt 0.165346 0.243609
vt 0.233393 0.219147
vt 0.331518 0.270002
vt 0.140751 0.268012
vt 0.146981 0.384722
vt 0.239062 0.429343
vt 0.334562 0.382969
vn -0.001834 0.252433 0.967613
vn -0.001834 0.252433 0.967613
vn -0.001834 0.252433 0.967613
vn -0.001990 0.251880 0.967757
vn -0.002004 0.401073 0.916044
vn -0.002146 0.251328 0.967900
vn 0.000000 0.922730 0.385447
vn 0.000000 0.922730 0.385448
vn 0.000000 0.922730 0.385448
vn 0.000000 0.922730 0.385448
vn 0.000000 0.922730 0.385448
vn 0.000000 0.922730 0.385448
vn -0.000460 0.063234 -0.997999
vn 0.000000 0.000000 -1.000000
vn -0.000230 0.063062 -0.998010
vn -0.000230 0.063062 -0.998010
vn 0.000000 0.000000 -1.000000
vn 0.000000 0.000000 -1.000000
vn 0.008536 -0.999964 0.000000
vn 0.008536 -0.999964 0.000000
vn 0.008536 -0.999964 0.000000
vn 0.008536 -0.999964 0.000000
vn 0.008536 -0.999964 0.000000
vn 0.008536 -0.999964 0.000000
vn -0.963279 0.268503 0.000000
vn -0.948485 0.316822 0.000000
vn -0.963278 0.268506 0.000000
vn -0.963278 0.268506 0.000000
vn -0.948485 0.316822 0.000000
vn -0.941585 0.333829 0.044456
vn 0.958068 0.281688 0.052509
vn 0.988529 0.151030 0.000000
vn 0.999880 -0.015476 0.000000
vn 0.999880 -0.015476 0.000000
vn 0.988529 0.151030 0.000000
vn 0.999880 -0.015476 0.000000
vn 0.917374 0.367270 0.153418
vn 0.903721 0.421131 0.077053
vn 0.958068 0.281688 0.052509
vn 0.958068 0.281688 0.052509
vn 0.903721 0.421131 0.077053
vn 0.988529 0.151030 0.000000
vn -0.000460 0.063234 -0.997999
vn -0.000230 0.063062 -0.998010
vn -0.000459 0.125874 -0.992046
vn -0.000459 0.125874 -0.992046
vn -0.000230 0.063062 -0.998010
vn 0.000000 0.125532 -0.992090
vn -0.948485 0.316822 0.000000
vn -0.928321 0.365756 0.066646
vn -0.941585 0.333829 0.044456
vn -0.941585 0.333829 0.044456
vn -0.928321 0.365756 0.066646
vn -0.938734 0.318012 0.132842
vn -0.002922 0.402060 0.915609
vn -0.001968 0.540267 0.841491
vn -0.002004 0.401073 0.916044
vn -0.002004 0.401073 0.916044
vn -0.001968 0.540267 0.841491
vn 0.000000 0.538932 0.842349
vn -0.001370 0.439858 0.898066
vn -0.001982 0.367686 0.929948
vn -0.001665 0.294822 0.955551
vn -0.001665 0.294822 0.955551
vn -0.001982 0.367686 0.929948
vn -0.001824 0.294021 0.955797
vn 0.000000 0.943272 0.332021
vn 0.000000 0.943272 0.332020
vn 0.000000 0.943272 0.332020
vn 0.000000 0.943272 0.332020
vn 0.000000 0.943272 0.332020
vn 0.000000 0.943272 0.332020
vn -0.000206 0.081095 -0.996706
vn 0.000000 0.000000 -1.000000
vn -0.000206 0.040442 -0.999182
vn -0.000206 0.040442 -0.999182
vn 0.000000 0.000000 -1.000000
vn 0.000000 0.000000 -1.000000
vn 0.006203 -0.999981 0.000000
vn 0.006203 -0.999981 0.000000
vn 0.006203 -0.999981 0.000000
vn 0.006203 -0.999981 0.000000
vn 0.006203 -0.999981 0.000000
vn 0.006203 -0.999981 0.000000
vn -0.994889 0.100975 0.000000
vn -0.981189 0.193048 0.000000
vn -0.994889 0.100977 0.000000
vn -0.994889 0.100977 0.000000
vn -0.981189 0.193048 0.000000
vn -0.964760 0.260687 0.035782
vn 0.971337 0.235377 0.033184
vn 0.986162 0.165786 0.000000
vn 0.997319 0.073183 0.000000
vn 0.997319 0.073183 0.000000
vn 0.986162 0.165786 0.000000
vn 0.997318 0.073188 0.000000
vn 0.954760 0.280508 0.098736
vn 0.948087 0.314143 0.049457
vn 0.971337 0.235377 0.033184
vn 0.971337 0.235377 0.033184
vn 0.948087 0.314143 0.049457
vn 0.986162 0.165786 0.000000
vn 0.000000 0.121757 -0.992560
vn -0.000206 0.081095 -0.996706
vn -0.000308 0.121443 -0.992598
vn -0.000308 0.121443 -0.992598
vn -0.000206 0.081095 -0.996706
vn -0.000206 0.040442 -0.999182
vn -0.981189 0.193048 0.000000
vn -0.939635 0.337997 0.053339
vn -0.964760 0.260687 0.035782
vn -0.964760 0.260687 0.035782
vn -0.939635 0.337997 0.053339
vn -0.947204 0.302443 0.106457
vn 0.000000 0.509203 0.860647
vn -0.001291 0.508009 0.861351
vn -0.001370 0.439858 0.898066
vn -0.001370 0.439858 0.898066
vn -0.001291 0.508009 0.861351
vn -0.001982 0.367686 0.929948
vn -0.002295 0.315848 0.948807
vn -0.001685 0.314859 0.949137
vn -0.001990 0.251880 0.967757
vn -0.001990 0.251880 0.967757
vn -0.001685 0.314859 0.949137
vn -0.002146 0.251327 0.967900
vn 0.000000 0.916330 0.400425
vn 0.000000 0.916330 0.400424
vn 0.000000 0.916330 0.400424
vn 0.000000 0.916330 0.400424
vn 0.000000 0.916330 0.400424
vn 0.000000 0.916330 0.400423
vn -0.000013 0.001737 -0.999999
vn 0.000000 0.000000 -1.000000
vn -0.000006 0.001733 -0.999999
vn -0.000006 0.001733 -0.999999
vn 0.000000 0.000000 -1.000000
vn 0.000000 0.000000 -1.000000
vn 0.008536 -0.999964 0.000000
vn 0.008536 -0.999964 0.000000
vn 0.008536 -0.999964 0.000000
vn 0.008536 -0.999964 0.000000
vn 0.008536 -0.999964 0.000000
vn 0.008536 -0.999964 0.000000
vn -0.963277 0.268510 0.000000
vn -0.937090 0.349087 0.000000
vn -0.963277 0.268509 0.000000
vn -0.963277 0.268509 0.000000
vn -0.937090 0.349087 0.000000
vn -0.926889 0.372078 0.049338
vn 0.944206 0.324156 0.058299
vn 0.982444 0.186559 0.000000
vn 0.999880 -0.015480 0.000000
vn 0.999880 -0.015480 0.000000
vn 0.982444 0.186559 0.000000
vn 0.999880 -0.015476 0.000000
vn 0.907042 0.385812 0.168595
vn 0.872822 0.480576 0.085026
vn 0.944206 0.324156 0.058299
vn 0.944206 0.324156 0.058299
vn 0.872822 0.480576 0.085026
vn 0.982444 0.186559 0.000000
vn -0.000013 0.001737 -0.999999
vn -0.000006 0.001733 -0.999999
vn -0.000013 0.003465 -0.999994
vn -0.000013 0.003465 -0.999994
vn -0.000006 0.001733 -0.999999
vn 0.000000 0.003456 -0.999994
vn -0.937090 0.349087 0.000000
vn -0.903496 0.422176 0.073905
vn -0.926889 0.372078 0.049338
vn -0.926889 0.372078 0.049338
vn -0.903496 0.422176 0.073905
vn -0.930361 0.335969 0.146814
vn -0.002295 0.315848 0.948807
vn -0.001373 0.376481 0.926423
vn -0.001685 0.314859 0.949137
vn -0.001685 0.314859 0.949137
vn -0.001373 0.376481 0.926423
vn 0.000000 0.375079 0.926993
vn 0.255291 0.388940 0.885185
vn 0.265186 0.359667 0.894604
vn 0.265186 0.359667 0.894604
vn 0.265186 0.359667 0.894604
vn 0.265186 0.359667 0.894604
vn 0.274803 0.330019 0.903090
vn 0.634357 0.761820 -0.131232
vn 0.466911 0.877494 0.109540
vn 0.466911 0.877494 0.109540
vn 0.466911 0.877494 0.109540
vn 0.466911 0.877494 0.109540
vn 0.253057 0.905954 0.339426
vn 0.295645 0.416078 -0.859926
vn 0.302825 0.394196 -0.867702
vn 0.302825 0.394196 -0.867702
vn 0.302825 0.394196 -0.867702
vn 0.302825 0.394196 -0.867702
vn 0.309827 0.372080 -0.874965
vn -0.002474 -0.999997 0.000066
vn -0.001991 -0.999998 -0.000686
vn -0.001991 -0.999998 -0.000686
vn -0.001991 -0.999998 -0.000686
vn -0.001991 -0.999998 -0.000686
vn -0.001509 -0.999998 -0.001438
vn -0.338352 0.824094 -0.454298
vn -0.519261 0.759608 -0.391618
vn -0.519261 0.759608 -0.391618
vn -0.519261 0.759608 -0.391618
vn -0.519261 0.759608 -0.391618
vn -0.678976 0.664117 -0.312953
vn 0.945595 0.035676 -0.323385
vn 0.980875 0.084669 -0.175261
vn 0.980875 0.084669 -0.175261
vn 0.980875 0.084669 -0.175261
vn 0.980875 0.084669 -0.175261
vn 0.991058 0.131495 -0.022652
vn 0.000000 0.000000 -1.000000
vn 0.045034 0.117806 -0.992015
vn 0.045034 0.117806 -0.992015
vn 0.045034 0.117806 -0.992015
vn 0.045034 0.117806 -0.992015
vn 0.089349 0.233730 -0.968187
vn -0.898219 0.144848 -0.414997
vn -0.813526 0.314131 -0.489384
vn -0.813526 0.314131 -0.489384
vn -0.813526 0.314131 -0.489384
vn -0.813526 0.314131 -0.489384
vn -0.695183 0.470421 -0.543529
vn 0.067285 0.234323 0.969827
vn 0.033899 0.118056 0.992428
vn 0.033899 0.118056 0.992428
vn 0.033899 0.118056 0.992428
vn 0.033899 0.118056 0.992428
vn 0.000000 0.000000 1.000000
vn 0.935344 -0.150570 -0.320093
vn 0.935344 -0.150570 -0.320093
vn 0.935344 -0.150570 -0.320093
vn 0.935344 -0.150570 -0.320093
vn 0.935344 -0.150570 -0.320093
vn 0.935345 -0.150570 -0.320092
vn 0.073684 0.244106 -0.966945
vn 0.075924 0.165189 -0.983335
vn 0.075924 0.165189 -0.983335
vn 0.075924 0.165189 -0.983335
vn 0.075924 0.165189 -0.983335
vn 0.077671 0.085197 -0.993332
vn -0.660607 0.544928 -0.516384
vn -0.741257 0.474523 -0.474728
vn -0.741257 0.474523 -0.474728
vn -0.741257 0.474523 -0.474728
vn -0.741257 0.474523 -0.474728
vn -0.812125 0.397855 -0.426807
vn 0.071775 0.105553 0.991820
vn 0.070472 0.167223 0.983397
vn 0.070472 0.167223 0.983397
vn 0.070472 0.167223 0.983397
vn 0.070472 0.167223 0.983397
vn 0.068896 0.228245 0.971163
vn 0.937302 -0.136335 -0.320746
vn 0.961950 -0.023822 -0.272185
vn 0.961950 -0.023822 -0.272185
vn 0.961950 -0.023822 -0.272185
vn 0.961950 -0.023822 -0.272185
vn 0.971568 0.089064 -0.219370
vn 0.083444 0.276441 -0.957401
vn 0.027885 0.183887 -0.982552
vn 0.041830 0.214782 -0.975766
vn 0.041830 0.214782 -0.975766
vn 0.027885 0.183887 -0.982552
vn 0.000083 0.131829 -0.991272
vn -0.889764 0.182573 -0.418314
vn -0.893966 0.155795 -0.420183
vn -0.885757 0.144887 -0.440955
vn -0.885757 0.144887 -0.440955
vn -0.893966 0.155795 -0.420183
vn -0.879327 0.113695 -0.462448
vn 0.000066 0.121412 0.992602
vn 0.029680 0.186417 0.982022
vn 0.044485 0.228766 0.972465
vn 0.044485 0.228766 0.972465
vn 0.029680 0.186417 0.982022
vn 0.088707 0.293878 0.951718
vn 0.973953 0.055140 -0.219943
vn 0.958839 -0.034196 -0.281883
vn 0.961702 -0.066575 -0.265891
vn 0.961702 -0.066575 -0.265891
vn 0.958839 -0.034196 -0.281883
vn 0.946309 -0.049654 -0.319428
vn -0.753260 0.509720 0.415673
vn -0.715310 0.548802 0.432607
vn -0.715310 0.548802 0.432607
vn -0.715310 0.548802 0.432607
vn -0.715310 0.548802 0.432607
vn -0.675032 0.586097 0.448132
vn -0.823149 0.397483 0.405503
vn -0.804490 0.420486 0.419509
vn -0.804490 0.420486 0.419509
vn -0.804490 0.420486 0.419509
vn -0.804490 0.420486 0.419509
vn -0.784966 0.443037 0.433066
vn -0.901796 0.178749 0.393462
vn -0.897650 0.143738 0.416611
vn -0.905095 0.151915 0.397147
vn -0.905095 0.151915 0.397147
vn -0.897650 0.143738 0.416611
vn -0.891783 0.109660 0.438974
vn -0.002474 -0.999996 -0.001666
vn -0.001991 -0.999998 -0.000958
vn -0.001991 -0.999998 -0.000958
vn -0.001991 -0.999998 -0.000958
vn -0.001991 -0.999998 -0.000958
vn -0.001509 -0.999999 -0.000250
vn 0.952478 -0.054714 0.299654
vn 0.963937 -0.037982 0.263408
vn 0.966065 -0.070274 0.248558
vn 0.966065 -0.070274 0.248558
vn 0.963937 -0.037982 0.263408
vn 0.977164 0.049909 0.206541
vn 0.967358 -0.149992 0.204257
vn 0.967686 -0.148642 0.203691
vn 0.967686 -0.148642 0.203691
vn 0.967686 -0.148642 0.203691
vn 0.967686 -0.148642 0.203691
vn 0.968011 -0.147291 0.203125
vn 0.961262 -0.187906 0.201659
vn 0.965530 -0.172014 0.195355
vn 0.965530 -0.172014 0.195355
vn 0.965530 -0.172014 0.195355
vn 0.965530 -0.172014 0.195355
vn 0.969498 -0.156067 0.188990
vn 0.991432 0.128799 0.021749
vn 0.990040 0.091511 0.106988
vn 0.990040 0.091511 0.106988
vn 0.990040 0.091511 0.106988
vn 0.990040 0.091511 0.106988
vn 0.980076 0.053431 0.191302
vn 0.634572 0.762076 0.128682
vn 0.466838 0.877688 -0.108287
vn 0.466838 0.877688 -0.108287
vn 0.466838 0.877688 -0.108287
vn 0.466838 0.877688 -0.108287
vn 0.253514 0.907590 -0.334681
vn -0.414100 0.728191 0.546131
vn -0.558798 0.655144 0.508460
vn -0.558798 0.655144 0.508460
vn -0.558798 0.655144 0.508460
vn -0.558798 0.655144 0.508460
vn -0.688021 0.563954 0.456709
vn -0.921877 0.139978 0.361316
vn -0.912083 0.160013 0.377492
vn -0.905095 0.151915 0.397147
vn -0.905095 0.151915 0.397147
vn -0.912083 0.160013 0.377492
vn -0.901796 0.178749 0.393462
vn -0.889764 0.182573 -0.418314
vn -0.901620 0.166604 -0.399156
vn -0.893966 0.155795 -0.420183
vn -0.893966 0.155795 -0.420183
vn -0.901620 0.166604 -0.399156
vn -0.913704 0.143764 -0.380102
vn 0.027885 0.183887 -0.982552
vn 0.000139 0.121793 -0.992555
vn 0.000083 0.131829 -0.991272
vn 0.000083 0.131829 -0.991272
vn 0.000139 0.121793 -0.992555
vn 0.000302 0.121965 -0.992534
vn 0.958839 -0.034196 -0.281883
vn 0.946133 0.019461 -0.323193
vn 0.946309 -0.049654 -0.319428
vn 0.946309 -0.049654 -0.319428
vn 0.946133 0.019461 -0.323193
vn 0.942601 0.008776 -0.333807
vn 0.948652 -0.000274 0.316322
vn 0.952535 0.012974 0.304152
vn 0.952478 -0.054714 0.299654
vn 0.952478 -0.054714 0.299654
vn 0.952535 0.012974 0.304152
vn 0.963937 -0.037982 0.263408
vn 0.000250 0.101115 0.994875
vn 0.000115 0.100972 0.994889
vn 0.000066 0.121412 0.992602
vn 0.000066 0.121412 0.992602
vn 0.000115 0.100972 0.994889
vn 0.029680 0.186417 0.982022
s off
g rightBackLeg
usemtl initialShadingGroup
f 9/1/1 12/2/2 1/3/3
f 1/3/4 12/2/5 2/4/6
f 3/5/7 5/6/8 4/7/9
f 4/7/10 5/6/11 6/8/12
f 10/9/13 7/10/14 11/11/15
f 11/11/16 7/10/17 8/12/18
f 7/10/19 1/13/20 8/12/21
f 8/12/22 1/13/23 2/14/24
f 2/4/25 12/2/26 8/15/27
f 8/15/28 12/2/29 11/16/30
f 10/17/31 9/1/32 7/18/33
f 7/18/34 9/1/35 1/3/36
f 5/19/37 3/5/38 10/17/39
f 10/17/40 3/5/41 9/1/42
f 10/9/43 11/11/44 5/6/45
f 5/6/46 11/11/47 6/8/48
f 12/2/49 4/7/50 11/16/51
f 11/16/52 4/7/53 6/20/54
f 9/1/55 3/5/56 12/2/57
f 12/2/58 3/5/59 4/7/60
f 21/21/61 24/22/62 13/23/63
f 13/23/64 24/22/65 14/24/66
f 15/25/67 17/26/68 16/27/69
f 16/27/70 17/26/71 18/28/72
f 22/29/73 19/30/74 23/31/75
f 23/31/76 19/30/77 20/32/78
f 19/30/79 13/33/80 20/32/81
f 20/32/82 13/33/83 14/34/84
f 14/24/85 24/22/86 20/35/87
f 20/35/88 24/22/89 23/36/90
f 22/37/91 21/21/92 19/38/93
f 19/38/94 21/21/95 13/23/96
f 17/39/97 15/25/98 22/37/99
f 22/37/100 15/25/101 21/21/102
f 17/26/103 22/29/104 18/28/105
f 18/28/106 22/29/107 23/31/108
f 24/22/109 16/27/110 23/36/111
f 23/36/112 16/27/113 18/40/114
f 15/25/115 16/27/116 21/21/117
f 21/21/118 16/27/119 24/22/120
f 33/41/121 36/42/122 25/43/123
f 25/43/124 36/42/125 26/44/126
f 27/45/127 29/46/128 28/47/129
f 28/47/130 29/46/131 30/48/132
f 34/49/133 31/50/134 35/51/135
f 35/51/136 31/50/137 32/52/138
f 31/50/139 25/53/140 32/52/141
f 32/52/142 25/53/143 26/54/144
f 26/44/145 36/42/146 32/55/147
f 32/55/148 36/42/149 35/56/150
f 34/57/151 33/41/152 31/58/153
f 31/58/154 33/41/155 25/43/156
f 29/59/157 27/45/158 34/57/159
f 34/57/160 27/45/161 33/41/162
f 34/49/163 35/51/164 29/46/165
f 29/46/166 35/51/167 30/48/168
f 36/42/169 28/47/170 35/56/171
f 35/56/172 28/47/173 30/60/174
f 33/41/175 27/45/176 36/42/177
f 36/42/178 27/45/179 28/47/180
f 37/61/181 39/62/182 38/63/183
f 38/63/184 39/62/185 40/64/186
f 41/65/187 42/66/188 65/67/189
f 65/67/190 42/66/191 66/68/192
f 43/69/193 44/70/194 41/65/195
f 41/65/196 44/70/197 42/66/198
f 53/71/199 61/72/200 54/73/201
f 54/73/202 61/72/203 60/74/204
f 42/66/205 44/70/206 66/68/207
f 66/68/208 44/70/209 57/75/210
f 43/69/211 41/65/212 64/76/213
f 64/76/214 41/65/215 65/67/216
f 45/77/217 46/78/218 43/69/219
f 43/69/220 46/78/221 44/70/222
f 44/70/223 46/78/224 57/75/225
f 57/75/226 46/78/227 58/79/228
f 38/63/229 47/80/230 37/61/231
f 37/61/232 47/80/233 48/81/234
f 64/76/235 63/82/236 43/69/237
f 43/69/238 63/82/239 45/77/240
f 49/83/241 50/84/242 45/77/243
f 45/77/244 50/84/245 46/78/246
f 46/78/247 50/84/248 58/79/249
f 58/79/250 50/84/251 59/85/252
f 47/80/253 51/86/254 48/81/255
f 48/81/256 51/86/257 52/87/258
f 63/82/259 62/88/260 45/77/261
f 45/77/262 62/88/263 49/83/264
f 49/83/265 70/89/266 50/84/267
f 50/84/268 70/89/269 69/90/270
f 69/90/271 68/91/272 50/84/273
f 50/84/274 68/91/275 59/85/276
f 67/92/277 72/93/278 51/86/279
f 51/86/280 72/93/281 52/87/282
f 62/88/283 71/94/284 49/83/285
f 49/83/286 71/94/287 70/89/288
f 58/79/289 47/80/290 57/75/291
f 57/75/292 47/80/293 38/63/294
f 59/85/295 51/86/296 58/79/297
f 58/79/298 51/86/299 47/80/300
f 67/92/301 51/86/302 68/91/303
f 68/91/304 51/86/305 59/85/306
f 56/95/307 55/96/308 61/72/309
f 61/72/310 55/96/311 60/74/312
f 72/93/313 71/97/314 52/87/315
f 52/87/316 71/97/317 62/98/318
f 52/87/319 62/98/320 48/81/321
f 48/81/322 62/98/323 63/99/324
f 48/81/325 63/99/326 37/61/327
f 37/61/328 63/99/329 64/100/330
f 65/101/331 39/62/332 64/100/333
f 64/100/334 39/62/335 37/61/336
f 39/62/337 65/101/338 40/64/339
f 40/64/340 65/101/341 66/68/342
f 40/64/343 66/68/344 38/63/345
f 38/63/346 66/68/347 57/75/348
f 60/74/349 55/96/350 68/102/351
f 68/102/352 55/96/353 67/103/354
f 69/104/355 54/73/356 68/102/357
f 68/102/358 54/73/359 60/74/360
f 70/105/361 53/71/362 69/104/363
f 69/104/364 53/71/365 54/73/366
f 71/106/367 61/72/368 70/105/369
f 70/105/370 61/72/371 53/71/372
f 56/95/373 61/72/374 72/107/375
f 72/107/376 61/72/377 71/106/378
f 55/96/379 56/95/380 67/103/381
f 67/103/382 56/95/383 72/107/384
