# This file uses centimeters as units for non-parametric coordinates.

mtllib GrotleFrontLeftLeg.mtl
g default
v -0.754227 -1.668367 1.296360
v 0.573418 -0.198061 1.296360
v -0.812770 0.557783 0.502593
v -0.178775 1.085703 0.502593
v -0.812770 0.557474 -0.791429
v -0.178775 1.085394 -0.791429
v -0.557364 -1.664843 -1.732883
v 0.859898 -0.194536 -1.732883
v -0.448811 -2.339176 -1.732883
v 0.903387 -1.106430 -1.732883
v 1.190483 -1.109954 1.296360
v -0.622409 -2.342701 1.296360
v -0.474005 -3.053380 -1.911265
v 1.803010 -2.366063 -1.911265
v 1.803010 -2.369587 1.474742
v -0.474005 -3.056905 1.474742
v -0.205931 -5.733393 -2.365651
v 2.284392 -5.727232 -2.365651
v 2.284392 -5.730756 1.900510
v -0.205931 -5.736917 1.900510
v 1.434333 -0.196213 -0.266008
v 2.051398 -1.108106 -0.266008
v 2.663925 -2.367739 -0.274683
v 3.145307 -5.728908 -0.296781
v -0.938605 -5.735069 -0.296781
v -0.843682 -3.055057 -0.274683
v -0.950534 -2.340853 -0.266008
v -1.059087 -1.666519 -0.266008
v -0.812770 0.667972 -0.149972
v 0.682140 1.085541 -0.149972
v 1.970936 -3.711088 1.695160
v 2.831851 -3.700185 -0.282967
v 1.970936 -3.707564 -2.117374
v -0.274989 -3.707127 -2.117374
v -0.878823 -3.708803 -0.282967
v -0.274989 -3.710651 1.695160
v -0.083894 -5.724167 2.408137
v 0.647701 -5.730412 2.408137
v 0.164804 -5.085615 2.066079
v 0.380250 -5.085615 2.066079
v 0.164804 -4.964211 1.775448
v 0.380250 -4.964211 1.775448
v -0.083894 -5.724167 1.701921
v 0.647701 -5.730412 1.701921
v -0.086740 -5.540339 2.360185
v -0.086740 -5.540339 1.701921
v 0.596103 -5.545301 1.701921
v 0.596103 -5.545301 2.360185
v 0.634263 -5.724167 2.561593
v 1.641025 -5.730412 2.561593
v 0.908911 -4.950404 2.155649
v 1.340570 -4.950404 2.155649
v 0.908911 -4.829000 1.810739
v 1.340570 -4.829000 1.810739
v 0.634263 -5.724167 1.723480
v 1.641025 -5.730412 1.723480
v 0.647752 -5.540339 2.504685
v 0.647752 -5.540339 1.723480
v 1.622236 -5.545301 1.723480
v 1.622236 -5.545301 2.504685
v 1.598630 -5.724167 2.408137
v 2.330225 -5.730412 2.408137
v 1.870910 -5.179862 2.212322
v 2.039192 -5.179862 2.212322
v 1.870910 -4.957711 1.703952
v 2.039192 -4.957711 1.703952
v 1.598630 -5.724167 1.701921
v 2.330225 -5.730412 1.701921
v 1.595784 -5.540339 2.360185
v 1.595784 -5.540339 1.701921
v 2.278627 -5.545301 1.701921
v 2.278627 -5.545301 2.360185
vt 0.106291 0.156319
vt 0.175341 0.161559
vt 0.164206 0.219901
vt 0.191437 0.213312
vt 0.232878 0.210052
vt 0.274304 0.212482
vt 0.299046 0.243429
vt 0.301970 0.218296
vt 0.284962 0.154427
vt 0.353785 0.145635
vt 0.183573 0.352182
vt 0.184775 0.293187
vt 0.238470 0.378315
vt 0.232892 0.278828
vt 0.234076 0.147520
vt 0.387881 0.191711
vt 0.298604 0.126051
vt 0.368938 0.124645
vt 0.233628 0.106332
vt 0.172219 0.123440
vt 0.090348 0.135306
vt 0.408289 0.171618
vt 0.300043 0.069024
vt 0.385532 0.101629
vt 0.232282 0.056082
vt 0.161113 0.072766
vt 0.076408 0.110513
vt 0.427828 0.151266
vt 0.395522 0.076291
vt 0.318451 0.021017
vt 0.231388 0.005648
vt 0.065031 0.084842
vt 0.139884 0.025706
vt 0.446551 0.133255
vt 0.283832 0.296742
vt 0.292104 0.352904
vt 0.031266 0.164270
vt 0.011349 0.147315
vt 0.051820 0.184186
vt 0.072453 0.203987
vt 0.167682 0.245129
vt 0.233393 0.219147
vt 0.331518 0.270002
vt 0.140751 0.268012
vt 0.146981 0.384722
vt 0.239062 0.429343
vt 0.334562 0.382969
vt 0.091774 0.261815
vt 0.091774 0.270571
vt 0.049133 0.261815
vt 0.049133 0.270571
vt 0.049133 0.304456
vt 0.091774 0.304456
vt 0.049133 0.347097
vt 0.091774 0.347097
vt 0.049133 0.380981
vt 0.091774 0.380981
vt 0.049133 0.389738
vt 0.091774 0.389738
vt 0.049133 0.432378
vt 0.091774 0.432378
vt 0.134415 0.261815
vt 0.134415 0.270571
vt 0.006492 0.261815
vt 0.006492 0.270571
vt 0.006492 0.304456
vt 0.134415 0.304456
vt 0.091774 0.261815
vt 0.091774 0.270571
vt 0.049133 0.261815
vt 0.049133 0.270571
vt 0.049133 0.304456
vt 0.091774 0.304456
vt 0.049133 0.347097
vt 0.091774 0.347097
vt 0.049133 0.380981
vt 0.091774 0.380981
vt 0.049133 0.389738
vt 0.091774 0.389738
vt 0.049133 0.432378
vt 0.091774 0.432378
vt 0.134415 0.261815
vt 0.134415 0.270571
vt 0.006492 0.261815
vt 0.006492 0.270571
vt 0.006492 0.304456
vt 0.134415 0.304456
vt 0.091774 0.261815
vt 0.091774 0.270571
vt 0.049133 0.261815
vt 0.049133 0.270571
vt 0.049133 0.304456
vt 0.091774 0.304456
vt 0.049133 0.347097
vt 0.091774 0.347097
vt 0.049133 0.380981
vt 0.091774 0.380981
vt 0.049133 0.389738
vt 0.091774 0.389738
vt 0.049133 0.432378
vt 0.091774 0.432378
vt 0.134415 0.261815
vt 0.134415 0.270571
vt 0.006492 0.261815
vt 0.006492 0.270571
vt 0.006492 0.304456
vt 0.134415 0.304456
vn -0.340848 0.307777 0.888311
vn -0.340848 0.307777 0.888311
vn -0.340848 0.307777 0.888311
vn -0.322805 0.336857 0.884491
vn -0.322805 0.336857 0.884491
vn -0.304379 0.365538 0.879622
vn -0.253057 0.905954 0.339425
vn -0.466910 0.877494 0.109540
vn -0.466910 0.877494 0.109540
vn -0.466910 0.877494 0.109540
vn -0.466910 0.877494 0.109540
vn -0.634357 0.761820 -0.131233
vn -0.317377 0.381148 -0.868330
vn -0.331190 0.356867 -0.873475
vn -0.331190 0.356867 -0.873475
vn -0.331190 0.356867 -0.873475
vn -0.331190 0.356867 -0.873475
vn -0.344735 0.332297 -0.877916
vn 0.002474 -0.999997 0.000066
vn 0.001991 -0.999998 -0.000686
vn 0.001991 -0.999998 -0.000686
vn 0.001991 -0.999998 -0.000686
vn 0.001991 -0.999998 -0.000686
vn 0.001509 -0.999998 -0.001438
vn 0.805830 0.501414 -0.314994
vn 0.627595 0.638322 -0.445724
vn 0.627595 0.638322 -0.445724
vn 0.627595 0.638322 -0.445724
vn 0.627595 0.638322 -0.445724
vn 0.406933 0.732078 -0.546322
vn -0.945814 0.028333 -0.323469
vn -0.982566 0.067938 -0.173058
vn -0.982566 0.067938 -0.173058
vn -0.982566 0.067938 -0.173058
vn -0.982566 0.067938 -0.173058
vn -0.994220 0.105808 -0.018227
vn -0.000001 0.000000 -1.000000
vn -0.000001 0.000000 -1.000000
vn -0.000001 0.000000 -1.000000
vn -0.000001 0.000000 -1.000000
vn -0.000001 0.000000 -1.000000
vn -0.000000 0.000000 -1.000000
vn 0.930248 0.044365 -0.364239
vn 0.841496 0.266507 -0.469957
vn 0.841496 0.266507 -0.469957
vn 0.841496 0.266507 -0.469957
vn 0.841496 0.266507 -0.469957
vn 0.695184 0.470421 -0.543529
vn 0.000000 0.000000 1.000000
vn 0.000000 0.000000 1.000000
vn 0.000000 0.000000 1.000000
vn 0.000000 0.000000 1.000000
vn 0.000000 0.000000 1.000000
vn 0.000000 0.000000 1.000000
vn -0.935344 -0.150570 -0.320093
vn -0.935344 -0.150570 -0.320093
vn -0.935344 -0.150570 -0.320093
vn -0.935344 -0.150570 -0.320093
vn -0.935344 -0.150570 -0.320093
vn -0.935344 -0.150570 -0.320093
vn -0.077671 0.085197 -0.993332
vn -0.075924 0.165189 -0.983335
vn -0.075924 0.165189 -0.983335
vn -0.075924 0.165189 -0.983335
vn -0.075924 0.165189 -0.983335
vn -0.073684 0.244106 -0.966945
vn 0.660606 0.544929 -0.516383
vn 0.741257 0.474523 -0.474728
vn 0.741257 0.474523 -0.474728
vn 0.741257 0.474523 -0.474728
vn 0.741257 0.474523 -0.474728
vn 0.812125 0.397855 -0.426807
vn -0.071775 0.105553 0.991820
vn -0.070472 0.167223 0.983397
vn -0.070472 0.167223 0.983397
vn -0.070472 0.167223 0.983397
vn -0.070472 0.167223 0.983397
vn -0.068896 0.228245 0.971163
vn -0.937302 -0.136334 -0.320746
vn -0.961950 -0.023822 -0.272184
vn -0.961950 -0.023822 -0.272184
vn -0.961950 -0.023822 -0.272184
vn -0.961950 -0.023822 -0.272184
vn -0.971568 0.089063 -0.219370
vn -0.083444 0.276441 -0.957401
vn -0.041830 0.214783 -0.975766
vn -0.027885 0.183887 -0.982552
vn -0.027885 0.183887 -0.982552
vn -0.041830 0.214783 -0.975766
vn -0.000083 0.131830 -0.991272
vn 0.879327 0.113695 -0.462448
vn 0.893966 0.155795 -0.420183
vn 0.885757 0.144887 -0.440955
vn 0.885757 0.144887 -0.440955
vn 0.893966 0.155795 -0.420183
vn 0.889764 0.182573 -0.418314
vn -0.088707 0.293878 0.951718
vn -0.029680 0.186416 0.982023
vn -0.044485 0.228765 0.972465
vn -0.044485 0.228765 0.972465
vn -0.029680 0.186416 0.982023
vn -0.000066 0.121411 0.992602
vn -0.973953 0.055141 -0.219943
vn -0.961702 -0.066575 -0.265891
vn -0.958839 -0.034196 -0.281883
vn -0.958839 -0.034196 -0.281883
vn -0.961702 -0.066575 -0.265891
vn -0.946309 -0.049654 -0.319428
vn 0.753260 0.509720 0.415673
vn 0.753260 0.509720 0.415673
vn 0.753260 0.509720 0.415673
vn 0.753260 0.509720 0.415673
vn 0.753260 0.509720 0.415673
vn 0.753260 0.509720 0.415673
vn 0.823150 0.397483 0.405502
vn 0.804490 0.420486 0.419509
vn 0.804490 0.420486 0.419509
vn 0.804490 0.420486 0.419509
vn 0.804490 0.420486 0.419509
vn 0.784966 0.443037 0.433066
vn 0.891783 0.109661 0.438974
vn 0.897649 0.143738 0.416611
vn 0.905095 0.151915 0.397147
vn 0.905095 0.151915 0.397147
vn 0.897649 0.143738 0.416611
vn 0.901796 0.178749 0.393462
vn 0.001509 -0.999999 -0.000250
vn 0.001991 -0.999998 -0.000958
vn 0.001991 -0.999998 -0.000958
vn 0.001991 -0.999998 -0.000958
vn 0.001991 -0.999998 -0.000958
vn 0.002474 -0.999996 -0.001666
vn -0.977164 0.049909 0.206541
vn -0.963937 -0.037982 0.263408
vn -0.966065 -0.070274 0.248558
vn -0.966065 -0.070274 0.248558
vn -0.963937 -0.037982 0.263408
vn -0.952478 -0.054713 0.299654
vn -0.968011 -0.147292 0.203125
vn -0.967686 -0.148642 0.203691
vn -0.967686 -0.148642 0.203691
vn -0.967686 -0.148642 0.203691
vn -0.967686 -0.148642 0.203691
vn -0.967358 -0.149991 0.204257
vn -0.969498 -0.156068 0.188990
vn -0.965530 -0.172014 0.195355
vn -0.965530 -0.172014 0.195355
vn -0.965530 -0.172014 0.195355
vn -0.965530 -0.172014 0.195355
vn -0.961262 -0.187905 0.201659
vn -0.994417 0.104050 0.017569
vn -0.991755 0.073568 0.104929
vn -0.991755 0.073568 0.104929
vn -0.991755 0.073568 0.104929
vn -0.991755 0.073568 0.104929
vn -0.980595 0.042456 0.191390
vn -0.634572 0.762076 0.128681
vn -0.466838 0.877688 -0.108287
vn -0.466838 0.877688 -0.108287
vn -0.466838 0.877688 -0.108287
vn -0.466838 0.877688 -0.108287
vn -0.253515 0.907590 -0.334680
vn 0.792403 0.425445 0.437143
vn 0.641993 0.548851 0.535358
vn 0.641993 0.548851 0.535358
vn 0.641993 0.548851 0.535358
vn 0.641993 0.548851 0.535358
vn 0.461089 0.646188 0.608144
vn 0.921877 0.139978 0.361316
vn 0.905095 0.151915 0.397147
vn 0.912083 0.160013 0.377492
vn 0.912083 0.160013 0.377492
vn 0.905095 0.151915 0.397147
vn 0.901796 0.178749 0.393462
vn 0.889764 0.182573 -0.418314
vn 0.893966 0.155795 -0.420183
vn 0.901620 0.166604 -0.399155
vn 0.901620 0.166604 -0.399155
vn 0.893966 0.155795 -0.420183
vn 0.913704 0.143763 -0.380102
vn -0.027885 0.183887 -0.982552
vn -0.000083 0.131830 -0.991272
vn -0.000139 0.121793 -0.992555
vn -0.000139 0.121793 -0.992555
vn -0.000083 0.131830 -0.991272
vn -0.000302 0.121965 -0.992534
vn -0.958839 -0.034196 -0.281883
vn -0.946309 -0.049654 -0.319428
vn -0.946133 0.019461 -0.323193
vn -0.946133 0.019461 -0.323193
vn -0.946309 -0.049654 -0.319428
vn -0.942601 0.008776 -0.333807
vn -0.963937 -0.037982 0.263408
vn -0.952535 0.012974 0.304152
vn -0.952478 -0.054713 0.299654
vn -0.952478 -0.054713 0.299654
vn -0.952535 0.012974 0.304152
vn -0.948652 -0.000274 0.316322
vn -0.029680 0.186416 0.982023
vn -0.000115 0.100972 0.994889
vn -0.000066 0.121411 0.992602
vn -0.000066 0.121411 0.992602
vn -0.000115 0.100972 0.994889
vn -0.000250 0.101115 0.994875
vn 0.002145 0.251327 0.967900
vn 0.002004 0.401059 0.916050
vn 0.001989 0.251879 0.967757
vn 0.001989 0.251879 0.967757
vn 0.002004 0.401059 0.916050
vn 0.002922 0.402031 0.915621
vn 0.000000 0.922730 0.385448
vn 0.000000 0.922730 0.385448
vn 0.000000 0.922730 0.385448
vn 0.000000 0.922730 0.385448
vn 0.000000 0.922730 0.385448
vn 0.000000 0.922730 0.385447
vn 0.000459 0.063228 -0.997999
vn 0.000230 0.063059 -0.998010
vn 0.000001 0.000000 -1.000000
vn 0.000001 0.000000 -1.000000
vn 0.000230 0.063059 -0.998010
vn 0.000001 0.000000 -1.000000
vn -0.008536 -0.999964 0.000000
vn -0.008536 -0.999964 0.000000
vn -0.008536 -0.999964 0.000000
vn -0.008536 -0.999964 0.000000
vn -0.008536 -0.999964 0.000000
vn -0.008536 -0.999964 0.000000
vn 0.963279 0.268503 0.000000
vn 0.963278 0.268506 0.000000
vn 0.946848 0.321682 0.000000
vn 0.946848 0.321682 0.000000
vn 0.963278 0.268506 0.000000
vn 0.938363 0.342563 0.046093
vn -0.999880 -0.015480 0.000000
vn -0.987806 0.155688 0.000000
vn -0.999880 -0.015478 0.000000
vn -0.999880 -0.015478 0.000000
vn -0.987806 0.155688 0.000000
vn -0.955420 0.290245 0.054144
vn -0.987806 0.155688 0.000000
vn -0.897837 0.433120 0.079347
vn -0.955420 0.290245 0.054144
vn -0.955420 0.290245 0.054144
vn -0.897837 0.433120 0.079347
vn -0.912186 0.378112 0.157948
vn 0.000000 0.125533 -0.992089
vn 0.000230 0.063059 -0.998010
vn 0.000458 0.125868 -0.992047
vn 0.000458 0.125868 -0.992047
vn 0.000230 0.063059 -0.998010
vn 0.000459 0.063228 -0.997999
vn 0.946848 0.321682 0.000000
vn 0.938363 0.342563 0.046093
vn 0.922953 0.378663 0.069080
vn 0.922953 0.378663 0.069080
vn 0.938363 0.342563 0.046093
vn 0.934050 0.329545 0.137660
vn 0.002922 0.402031 0.915621
vn 0.002004 0.401059 0.916050
vn 0.001968 0.540241 0.841508
vn 0.001968 0.540241 0.841508
vn 0.002004 0.401059 0.916050
vn 0.000000 0.538933 0.842348
vn 0.001823 0.294023 0.955797
vn 0.001982 0.367737 0.929928
vn 0.001664 0.294824 0.955550
vn 0.001664 0.294824 0.955550
vn 0.001982 0.367737 0.929928
vn 0.001370 0.439907 0.898042
vn 0.000000 0.943272 0.332020
vn 0.000000 0.943272 0.332020
vn 0.000000 0.943272 0.332020
vn 0.000000 0.943272 0.332020
vn 0.000000 0.943272 0.332020
vn 0.000000 0.943273 0.332019
vn 0.000206 0.081107 -0.996705
vn 0.000206 0.040454 -0.999181
vn 0.000000 0.000000 -1.000000
vn 0.000000 0.000000 -1.000000
vn 0.000206 0.040454 -0.999181
vn 0.000000 0.000000 -1.000000
vn -0.006203 -0.999981 0.000000
vn -0.006203 -0.999981 0.000000
vn -0.006203 -0.999981 0.000000
vn -0.006203 -0.999981 0.000000
vn -0.006203 -0.999981 0.000000
vn -0.006203 -0.999981 0.000000
vn 0.994889 0.100976 0.000000
vn 0.994889 0.100977 0.000000
vn 0.977117 0.212702 0.000000
vn 0.977117 0.212702 0.000000
vn 0.994889 0.100977 0.000000
vn 0.954085 0.296636 0.041588
vn -0.997318 0.073188 0.000000
vn -0.982520 0.186155 0.000000
vn -0.997319 0.073183 0.000000
vn -0.997319 0.073183 0.000000
vn -0.982520 0.186155 0.000000
vn -0.961335 0.272582 0.039168
vn -0.982520 0.186155 0.000000
vn -0.927936 0.368173 0.058175
vn -0.961335 0.272582 0.039168
vn -0.961335 0.272582 0.039168
vn -0.927936 0.368173 0.058175
vn -0.936911 0.329738 0.116064
vn 0.000000 0.121757 -0.992560
vn 0.000308 0.121461 -0.992596
vn 0.000206 0.081107 -0.996705
vn 0.000206 0.081107 -0.996705
vn 0.000308 0.121461 -0.992596
vn 0.000206 0.040454 -0.999181
vn 0.977117 0.212702 0.000000
vn 0.954085 0.296636 0.041588
vn 0.918701 0.390092 0.061788
vn 0.918701 0.390092 0.061788
vn 0.954085 0.296636 0.041588
vn 0.928563 0.350120 0.123238
vn 0.001982 0.367737 0.929928
vn 0.001290 0.508079 0.861309
vn 0.001370 0.439907 0.898042
vn 0.001370 0.439907 0.898042
vn 0.001290 0.508079 0.861309
vn 0.000000 0.509203 0.860646
vn 0.002145 0.251326 0.967900
vn 0.001685 0.314814 0.949152
vn 0.001989 0.251879 0.967757
vn 0.001989 0.251879 0.967757
vn 0.001685 0.314814 0.949152
vn 0.002295 0.315757 0.948837
vn 0.000000 0.916330 0.400423
vn 0.000000 0.916330 0.400424
vn 0.000000 0.916330 0.400424
vn 0.000000 0.916330 0.400424
vn 0.000000 0.916330 0.400424
vn 0.000000 0.916330 0.400425
vn 0.000013 0.001737 -0.999999
vn 0.000007 0.001732 -0.999999
vn 0.000001 0.000000 -1.000000
vn 0.000001 0.000000 -1.000000
vn 0.000007 0.001732 -0.999999
vn 0.000001 0.000000 -1.000000
vn -0.008536 -0.999964 0.000000
vn -0.008536 -0.999964 0.000000
vn -0.008536 -0.999964 0.000000
vn -0.008536 -0.999964 0.000000
vn -0.008536 -0.999964 0.000000
vn -0.008536 -0.999964 0.000000
vn 0.963278 0.268507 0.000000
vn 0.963278 0.268506 0.000000
vn 0.930799 0.365531 0.000000
vn 0.930799 0.365531 0.000000
vn 0.963278 0.268506 0.000000
vn 0.914637 0.400549 0.054770
vn -0.999880 -0.015476 0.000000
vn -0.979431 0.201778 0.000000
vn -0.999880 -0.015480 0.000000
vn -0.999880 -0.015480 0.000000
vn -0.979431 0.201778 0.000000
vn -0.933969 0.351622 0.063752
vn -0.979431 0.201778 0.000000
vn -0.850346 0.518029 0.092505
vn -0.933969 0.351622 0.063752
vn -0.933969 0.351622 0.063752
vn -0.850346 0.518029 0.092505
vn -0.889192 0.419253 0.183207
vn 0.000000 0.003456 -0.999994
vn 0.000007 0.001732 -0.999999
vn 0.000013 0.003465 -0.999994
vn 0.000013 0.003465 -0.999994
vn 0.000007 0.001732 -0.999999
vn 0.000013 0.001737 -0.999999
vn 0.930799 0.365531 0.000000
vn 0.914637 0.400549 0.054770
vn 0.882228 0.463644 0.081901
vn 0.882228 0.463644 0.081901
vn 0.914637 0.400549 0.054770
vn 0.913954 0.371863 0.162499
vn 0.002295 0.315757 0.948837
vn 0.001685 0.314814 0.949152
vn 0.001373 0.376394 0.926459
vn 0.001373 0.376394 0.926459
vn 0.001685 0.314814 0.949152
vn 0.000000 0.375081 0.926992
s off
g leftFrontLeg
usemtl initialShadingGroup
f 1/1/1 2/2/2 3/3/3
f 3/3/4 2/2/5 4/4/6
f 30/5/7 6/6/8 29/7/9
f 29/7/10 6/6/11 5/8/12
f 6/6/13 8/9/14 5/8/15
f 5/8/16 8/9/17 7/10/18
f 17/11/19 18/12/20 25/13/21
f 25/13/22 18/12/23 24/14/24
f 21/15/25 8/9/26 30/5/27
f 30/5/28 8/9/29 6/6/30
f 7/10/31 28/16/32 5/8/33
f 5/8/34 28/16/35 29/7/36
f 8/9/37 10/17/38 7/10/39
f 7/10/40 10/17/41 9/18/42
f 8/9/43 21/15/44 10/17/45
f 10/17/46 21/15/47 22/19/48
f 2/2/49 1/1/50 11/20/51
f 11/20/52 1/1/53 12/21/54
f 28/16/55 7/10/56 27/22/57
f 27/22/58 7/10/59 9/18/60
f 10/17/61 14/23/62 9/18/63
f 9/18/64 14/23/65 13/24/66
f 10/17/67 22/19/68 14/23/69
f 14/23/70 22/19/71 23/25/72
f 11/20/73 12/21/74 15/26/75
f 15/26/76 12/21/77 16/27/78
f 27/22/79 9/18/80 26/28/81
f 26/28/82 9/18/83 13/24/84
f 13/24/85 14/23/86 34/29/87
f 34/29/88 14/23/89 33/30/90
f 23/25/91 32/31/92 14/23/93
f 14/23/94 32/31/95 33/30/96
f 16/27/97 36/32/98 15/26/99
f 15/26/100 36/32/101 31/33/102
f 26/28/103 13/24/104 35/34/105
f 35/34/106 13/24/107 34/29/108
f 2/2/109 11/20/110 21/15/111
f 21/15/112 11/20/113 22/19/114
f 23/25/115 22/19/116 15/26/117
f 15/26/118 22/19/119 11/20/120
f 23/25/121 15/26/122 32/31/123
f 32/31/124 15/26/125 31/33/126
f 24/14/127 19/35/128 25/13/129
f 25/13/130 19/35/131 20/36/132
f 26/37/133 35/38/134 16/27/135
f 16/27/136 35/38/137 36/32/138
f 27/39/139 26/37/140 12/21/141
f 12/21/142 26/37/143 16/27/144
f 28/40/145 27/39/146 1/1/147
f 1/1/148 27/39/149 12/21/150
f 29/41/151 28/40/152 3/3/153
f 3/3/154 28/40/155 1/1/156
f 3/3/157 4/4/158 29/41/159
f 29/41/160 4/4/161 30/5/162
f 21/15/163 30/5/164 2/2/165
f 2/2/166 30/5/167 4/4/168
f 24/14/169 32/42/170 19/35/171
f 19/35/172 32/42/173 31/43/174
f 33/44/175 32/42/176 18/12/177
f 18/12/178 32/42/179 24/14/180
f 34/45/181 33/44/182 17/11/183
f 17/11/184 33/44/185 18/12/186
f 35/46/187 34/45/188 25/13/189
f 25/13/190 34/45/191 17/11/192
f 35/46/193 25/13/194 36/47/195
f 36/47/196 25/13/197 20/36/198
f 36/47/199 20/36/200 31/43/201
f 31/43/202 20/36/203 19/35/204
f 38/48/205 48/49/206 37/50/207
f 37/50/208 48/49/209 45/51/210
f 39/52/211 40/53/212 41/54/213
f 41/54/214 40/53/215 42/55/216
f 46/56/217 47/57/218 43/58/219
f 43/58/220 47/57/221 44/59/222
f 43/58/223 44/59/224 37/60/225
f 37/60/226 44/59/227 38/61/228
f 38/48/229 44/62/230 48/49/231
f 48/49/232 44/62/233 47/63/234
f 37/50/235 45/51/236 43/64/237
f 43/64/238 45/51/239 46/65/240
f 45/51/241 39/52/242 46/65/243
f 46/65/244 39/52/245 41/66/246
f 42/55/247 47/57/248 41/54/249
f 41/54/250 47/57/251 46/56/252
f 48/49/253 47/63/254 40/53/255
f 40/53/256 47/63/257 42/67/258
f 45/51/259 48/49/260 39/52/261
f 39/52/262 48/49/263 40/53/264
f 50/68/265 60/69/266 49/70/267
f 49/70/268 60/69/269 57/71/270
f 51/72/271 52/73/272 53/74/273
f 53/74/274 52/73/275 54/75/276
f 58/76/277 59/77/278 55/78/279
f 55/78/280 59/77/281 56/79/282
f 55/78/283 56/79/284 49/80/285
f 49/80/286 56/79/287 50/81/288
f 50/68/289 56/82/290 60/69/291
f 60/69/292 56/82/293 59/83/294
f 49/70/295 57/71/296 55/84/297
f 55/84/298 57/71/299 58/85/300
f 57/71/301 51/72/302 58/85/303
f 58/85/304 51/72/305 53/86/306
f 53/74/307 54/75/308 58/76/309
f 58/76/310 54/75/311 59/77/312
f 60/69/313 59/83/314 52/73/315
f 52/73/316 59/83/317 54/87/318
f 60/69/319 52/73/320 57/71/321
f 57/71/322 52/73/323 51/72/324
f 62/88/325 72/89/326 61/90/327
f 61/90/328 72/89/329 69/91/330
f 63/92/331 64/93/332 65/94/333
f 65/94/334 64/93/335 66/95/336
f 70/96/337 71/97/338 67/98/339
f 67/98/340 71/97/341 68/99/342
f 67/98/343 68/99/344 61/100/345
f 61/100/346 68/99/347 62/101/348
f 62/88/349 68/102/350 72/89/351
f 72/89/352 68/102/353 71/103/354
f 61/90/355 69/91/356 67/104/357
f 67/104/358 69/91/359 70/105/360
f 69/91/361 63/92/362 70/105/363
f 70/105/364 63/92/365 65/106/366
f 66/95/367 71/97/368 65/94/369
f 65/94/370 71/97/371 70/96/372
f 72/89/373 71/103/374 64/93/375
f 64/93/376 71/103/377 66/107/378
f 69/91/379 72/89/380 63/92/381
f 63/92/382 72/89/383 64/93/384
