# 3ds Max Wavefront OBJ Exporter v0.97b - (c)2007 guruware
# File Created: 29.07.2013 12:54:28

mtllib PoliwrathLegLeft.mtl

#
# object LegL
#

v  12.9811 2.0337 -7.5638
v  11.6505 13.5834 -8.0584
v  14.8619 14.2141 -12.5629
v  16.8308 3.8891 -13.9641
v  19.5219 15.2283 -10.8423
v  22.4827 4.7090 -11.8604
v  19.1231 15.2235 -6.1957
v  21.3135 4.0295 -3.9920
v  14.8619 14.2141 -4.4752
v  14.9603 2.7818 -1.8883
v  8.2693 19.0301 -8.0429
v  11.9635 19.7556 -13.2247
v  17.9410 20.9295 -11.2454
v  17.9410 20.9295 -4.8403
v  11.9635 19.7556 -2.8610
v  2.5085 25.0124 -8.0429
v  7.5609 26.0047 -15.1298
v  15.7360 27.6102 -12.4229
v  15.7360 27.6102 -3.6629
v  7.5609 26.0047 -0.9559
v  3.2175 31.7968 -8.0429
v  6.9117 32.5223 -13.2247
v  12.6444 33.0515 -11.0309
v  12.6444 33.0515 -5.0859
v  7.0964 31.9619 -3.2488
v  20.0307 8.4185 -6.2575
v  21.0393 7.2893 -11.6399
v  18.0273 7.2537 -11.7092
v  23.6711 7.3204 -9.5147
v  24.9176 7.3351 -6.1454
v  24.3026 7.3279 -2.8189
v  22.0610 7.3014 -0.8058
v  19.0491 7.2658 -0.8751
v  16.4173 7.2347 -3.0003
v  15.1708 7.2199 -6.3696
v  15.7858 7.2272 -9.6961
v  21.6854 4.6633 -14.9664
v  16.8120 4.6057 -15.0786
v  25.9438 4.7136 -11.5278
v  27.9606 4.7375 -6.0761
v  27.2292 4.2644 0.0040
v  24.0555 3.7666 4.4716
v  18.7288 4.1639 3.1491
v  14.2068 4.5749 -0.9872
v  12.1900 4.5511 -6.4389
v  13.1851 4.5628 -11.8213
v  21.7365 0.3324 -14.9664
v  16.8631 0.2748 -15.0786
v  25.9949 0.3827 -11.5278
v  28.0118 0.4065 -6.0761
v  27.2749 0.3978 0.0040
v  24.1927 0.3614 4.7339
v  18.7745 0.2974 3.1491
v  14.2580 0.2440 -0.9872
v  12.2412 0.2201 -6.4389
v  13.2362 0.2319 -11.8213
# 56 vertices

vn -0.9924 0.0863 -0.0881
vn -0.9938 -0.1092 0.0204
vn -0.2618 -0.0365 -0.9644
vn -0.3287 0.1234 -0.9363
vn 0.8484 0.0617 -0.5258
vn 0.8628 0.0995 -0.4957
vn 0.8274 0.0132 0.5615
vn 0.7191 0.1209 0.6843
vn -0.1759 0.0009 0.9844
vn -0.4323 0.1967 0.8800
vn -0.8783 -0.4780 0.0074
vn -0.2596 -0.2770 -0.9252
vn 0.8221 0.0238 -0.5689
vn 0.8075 -0.0506 0.5876
vn -0.2369 -0.3384 0.9107
vn -0.9928 -0.1194 -0.0000
vn -0.3449 -0.0386 -0.9379
vn 0.7719 0.1735 -0.6115
vn 0.7714 0.1746 0.6119
vn -0.3449 -0.0183 0.9385
vn -0.9491 0.3150 -0.0056
vn -0.2774 0.2936 -0.9148
vn 0.7535 0.3546 -0.5536
vn 0.7475 0.3805 0.5444
vn -0.2651 0.3742 0.8886
vn 0.1819 0.9614 -0.2065
vn 0.3187 0.9307 -0.1795
vn 0.4008 0.9122 -0.0847
vn 0.3993 0.9159 0.0419
vn 0.3130 0.9372 0.1537
vn 0.1725 0.9631 0.2065
vn 0.0337 0.9832 0.1795
vn -0.0496 0.9952 0.0847
vn -0.0469 0.9980 -0.0419
vn 0.0414 0.9872 -0.1537
vn 0.1562 0.7697 -0.6190
vn 0.5451 0.6609 -0.5157
vn 0.7637 0.6002 -0.2377
vn 0.7804 0.6113 0.1311
vn 0.5620 0.7178 0.4110
vn 0.0937 0.8040 0.5871
vn -0.2720 0.8051 0.5270
vn -0.4999 0.8329 0.2377
vn -0.5055 0.8544 -0.1205
vn -0.2646 0.8472 -0.4607
vn 0.0226 -0.0042 -0.9997
vn 0.6178 -0.1138 -0.7780
vn 0.9224 -0.1699 -0.3470
vn 0.9763 -0.1798 0.1203
vn 0.8175 -0.1187 0.5636
vn -0.2499 0.0779 0.9651
vn -0.6642 0.1223 0.7375
vn -0.9224 0.1699 0.3470
vn -0.9671 0.1781 -0.1818
vn -0.6571 0.1210 -0.7440
vn -0.1811 -0.9835 -0.0000
vn -0.1811 -0.9835 0.0000
# 57 vertex normals

vt 0.1509 0.8660 0.0000
vt 0.1559 0.8426 0.0000
vt 0.1667 0.8512 0.0000
vt 0.1583 0.8714 0.0000
vt 0.1020 0.8369 0.0000
vt 0.1177 0.8232 0.0000
vt 0.1223 0.8257 0.0000
vt 0.1138 0.8486 0.0000
vt 0.1326 0.8308 0.0000
vt 0.1290 0.8557 0.0000
vt 0.1443 0.8366 0.0000
vt 0.1407 0.8613 0.0000
vt 0.1640 0.8318 0.0000
vt 0.1750 0.8413 0.0000
vt 0.1200 0.8110 0.0000
vt 0.1262 0.8143 0.0000
vt 0.1385 0.8201 0.0000
vt 0.1513 0.8250 0.0000
vt 0.1740 0.8182 0.0000
vt 0.1851 0.8288 0.0000
vt 0.1221 0.7953 0.0000
vt 0.1298 0.8002 0.0000
vt 0.1456 0.8073 0.0000
vt 0.1609 0.8120 0.0000
vt 0.1816 0.8068 0.0000
vt 0.1943 0.8184 0.0000
vt 0.1313 0.7853 0.0000
vt 0.1368 0.7892 0.0000
vt 0.1503 0.7951 0.0000
vt 0.1655 0.7999 0.0000
vt 0.1243 0.6776 0.0000
vt 0.1307 0.6906 0.0000
vt 0.1232 0.6935 0.0000
vt 0.1363 0.6832 0.0000
vt 0.1373 0.6735 0.0000
vt 0.1331 0.6650 0.0000
vt 0.1255 0.6613 0.0000
vt 0.1174 0.6646 0.0000
vt 0.1121 0.6733 0.0000
vt 0.1118 0.6837 0.0000
vt 0.1161 0.6912 0.0000
vt 0.1352 0.6998 0.0000
vt 0.1228 0.7044 0.0000
vt 0.1457 0.6881 0.0000
vt 0.1478 0.6711 0.0000
vt 0.1410 0.6535 0.0000
vt 0.1263 0.6420 0.0000
vt 0.1106 0.6529 0.0000
vt 0.1021 0.6706 0.0000
vt 0.1023 0.6890 0.0000
vt 0.1108 0.7025 0.0000
vt 0.1383 0.7085 0.0000
vt 0.1231 0.7138 0.0000
vt 0.1561 0.6935 0.0000
vt 0.1598 0.6698 0.0000
vt 0.1502 0.6478 0.0000
vt 0.1357 0.6342 0.0000
vt 0.1021 0.6466 0.0000
vt 0.1175 0.6338 0.0000
vt 0.0904 0.6684 0.0000
vt 0.0916 0.6940 0.0000
vt 0.1089 0.7164 0.0000
vt 0.1027 0.7457 0.0000
vt 0.1024 0.7296 0.0000
vt 0.1474 0.7240 0.0000
vt 0.1480 0.7437 0.0000
vt 0.1390 0.7615 0.0000
vt 0.1110 0.7616 0.0000
vt 0.1247 0.7720 0.0000
# 69 texture coords

g LegL
usemtl 02___Default
s 8
f 1/1/1 2/2/2 3/3/3
f 3/3/3 4/4/4 1/1/1
f 4/5/4 3/6/3 5/7/5
f 5/7/5 6/8/6 4/5/4
f 6/8/6 5/7/5 7/9/7
f 7/9/7 8/10/8 6/8/6
f 8/10/8 7/9/7 9/11/9
f 9/11/9 10/12/10 8/10/8
f 10/12/10 9/11/9 2/2/2
f 2/2/2 1/1/1 10/12/10
f 2/2/2 11/13/11 12/14/12
f 12/14/12 3/3/3 2/2/2
f 3/6/3 12/15/12 13/16/13
f 13/16/13 5/7/5 3/6/3
f 5/7/5 13/16/13 14/17/14
f 14/17/14 7/9/7 5/7/5
f 7/9/7 14/17/14 15/18/15
f 15/18/15 9/11/9 7/9/7
f 9/11/9 15/18/15 11/13/11
f 11/13/11 2/2/2 9/11/9
f 11/13/11 16/19/16 17/20/17
f 17/20/17 12/14/12 11/13/11
f 12/15/12 17/21/17 18/22/18
f 18/22/18 13/16/13 12/15/12
f 13/16/13 18/22/18 19/23/19
f 19/23/19 14/17/14 13/16/13
f 14/17/14 19/23/19 20/24/20
f 20/24/20 15/18/15 14/17/14
f 15/18/15 20/24/20 16/19/16
f 16/19/16 11/13/11 15/18/15
f 16/19/16 21/25/21 22/26/22
f 22/26/22 17/20/17 16/19/16
f 17/21/17 22/27/22 23/28/23
f 23/28/23 18/22/18 17/21/17
f 18/22/18 23/28/23 24/29/24
f 24/29/24 19/23/19 18/22/18
f 19/23/19 24/29/24 25/30/25
f 25/30/25 20/24/20 19/23/19
f 20/24/20 25/30/25 21/25/21
f 21/25/21 16/19/16 20/24/20
s off
f 26/31/26 27/32/26 28/33/26
f 26/31/27 29/34/27 27/32/27
f 26/31/28 30/35/28 29/34/28
f 26/31/29 31/36/29 30/35/29
f 26/31/30 32/37/30 31/36/30
f 26/31/31 33/38/31 32/37/31
f 26/31/32 34/39/32 33/38/32
f 26/31/33 35/40/33 34/39/33
f 26/31/34 36/41/34 35/40/34
f 26/31/35 28/33/35 36/41/35
f 37/42/36 38/43/36 28/33/36
f 28/33/36 27/32/36 37/42/36
f 39/44/37 37/42/37 27/32/37
f 27/32/37 29/34/37 39/44/37
f 40/45/38 39/44/38 29/34/38
f 29/34/38 30/35/38 40/45/38
f 41/46/39 40/45/39 30/35/39
f 30/35/39 31/36/39 41/46/39
f 42/47/40 41/46/40 31/36/40
f 31/36/40 32/37/40 42/47/40
f 43/48/41 42/47/41 32/37/41
f 32/37/41 33/38/41 43/48/41
f 44/49/42 43/48/42 33/38/42
f 33/38/42 34/39/42 44/49/42
f 45/50/43 44/49/43 34/39/43
f 34/39/43 35/40/43 45/50/43
f 46/51/44 45/50/44 35/40/44
f 35/40/44 36/41/44 46/51/44
f 38/43/45 46/51/45 36/41/45
f 36/41/45 28/33/45 38/43/45
f 47/52/46 48/53/46 38/43/46
f 38/43/46 37/42/46 47/52/46
f 49/54/47 47/52/47 37/42/47
f 37/42/47 39/44/47 49/54/47
f 50/55/48 49/54/48 39/44/48
f 39/44/48 40/45/48 50/55/48
f 51/56/49 50/55/49 40/45/49
f 40/45/49 41/46/49 51/56/49
f 52/57/50 51/56/50 41/46/50
f 41/46/50 42/47/50 52/57/50
f 53/58/51 52/59/51 42/47/51
f 42/47/51 43/48/51 53/58/51
f 54/60/52 53/58/52 43/48/52
f 43/48/52 44/49/52 54/60/52
f 55/61/53 54/60/53 44/49/53
f 44/49/53 45/50/53 55/61/53
f 56/62/54 55/61/54 45/50/54
f 45/50/54 46/51/54 56/62/54
f 48/53/55 56/62/55 46/51/55
f 46/51/55 38/43/55 48/53/55
f 54/63/56 55/64/56 49/65/56
f 49/65/56 50/66/56 54/63/56
f 49/65/56 55/64/56 56/62/56
f 56/62/56 47/52/56 49/65/56
f 51/67/57 53/68/57 54/63/57
f 54/63/57 50/66/57 51/67/57
f 56/62/57 48/53/57 47/52/57
f 52/69/56 53/68/56 51/67/56
# 43 polygons - 12 triangles

