# This file uses centimeters as units for non-parametric coordinates.

mtllib PoliwrathUpperArmLeftCon.mtl
g default
v 27.225735 -18.892365 -6.024660
v 23.975236 -20.154866 -8.281561
v 18.141234 -10.460065 -8.103861
v 21.582936 -9.713467 -4.050161
v 20.529935 -21.367368 -8.976960
v 14.181636 -13.252366 -9.099461
v 17.423834 -23.794167 -6.972760
v 10.042235 -15.111768 -6.875960
v 17.455735 -24.265767 -3.275360
v 9.490334 -16.777367 -1.354161
v 20.274235 -23.888566 -1.353961
v 13.257535 -17.293965 2.358339
v 24.005635 -22.909066 -0.460561
v 16.846736 -15.273465 3.546239
v 26.653435 -20.505967 -1.261461
v 21.010434 -11.336366 0.707539
v 14.982335 -6.133664 -7.815460
v 18.424134 -5.187367 -3.058261
v 10.988635 -9.268765 -10.058761
v 5.027335 -13.602166 -6.048161
v 4.633334 -15.031964 -0.526361
v 7.431134 -14.619466 4.230839
v 13.431035 -11.063966 5.458839
v 17.872235 -6.852967 2.463539
v 1.540735 -1.333066 -3.820261
v 6.447035 -0.218366 -1.006061
v -0.215765 -2.854966 -5.151661
v -1.084965 -4.639165 -3.339460
v -1.636865 -6.304765 1.453239
v -0.406165 -4.320065 4.405239
v 1.269535 -2.710564 5.009039
v 3.124535 -1.689965 4.555639
v 23.337235 -23.735867 -4.634661
v -0.186665 -0.034966 -0.131761
vt 0.032000 0.984300
vt 0.029400 0.986300
vt 0.017100 0.966300
vt 0.024500 0.966300
vt 0.025500 0.989300
vt 0.009800 0.968300
vt 0.059000 0.987300
vt 0.054800 0.982200
vt 0.066800 0.962300
vt 0.074300 0.967000
vt 0.050300 0.980800
vt 0.057000 0.961200
vt 0.045700 0.982500
vt 0.048600 0.964300
vt 0.040900 0.983900
vt 0.041900 0.964800
vt 0.037300 0.982900
vt 0.031600 0.965400
vt 0.017200 0.954400
vt 0.023800 0.956900
vt 0.009500 0.951300
vt 0.064200 0.951300
vt 0.078100 0.951400
vt 0.057100 0.952200
vt 0.050400 0.954200
vt 0.040400 0.956700
vt 0.030800 0.957000
vt 0.031200 0.927900
vt 0.035500 0.935900
vt 0.027600 0.925200
vt 0.056300 0.929500
vt 0.058400 0.927100
vt 0.052200 0.932500
vt 0.049800 0.931900
vt 0.049000 0.932100
vt 0.047300 0.933900
vt 0.042400 0.990300
vt 0.042100 0.924900
vn 0.991803 -0.058100 -0.113800
vn 0.553703 -0.163001 -0.816605
vn 0.999629 0.023501 -0.013800
vn 0.680005 -0.113901 -0.724306
vn 0.553703 -0.163001 -0.816605
vn 0.070600 -0.213000 -0.974498
vn 0.680005 -0.113901 -0.724306
vn 0.038301 -0.296911 -0.954137
vn 0.070600 -0.213000 -0.974498
vn -0.695006 -0.269202 -0.666706
vn 0.038301 -0.296911 -0.954137
vn -0.568097 -0.401998 -0.718097
vn -0.932610 -0.296103 0.206302
vn -0.884073 -0.465486 -0.041699
vn -0.695006 -0.269202 -0.666706
vn -0.568097 -0.401998 -0.718097
vn -0.598797 -0.268099 0.754696
vn -0.664872 -0.309387 0.679871
vn -0.932610 -0.296103 0.206302
vn -0.884073 -0.465486 -0.041699
vn -0.121198 -0.112899 0.986187
vn -0.074401 -0.155001 0.985109
vn -0.598797 -0.268099 0.754696
vn -0.664872 -0.309387 0.679871
vn 0.538290 0.011200 0.842685
vn 0.669194 -0.017000 0.742893
vn -0.121198 -0.112899 0.986187
vn -0.074401 -0.155001 0.985109
vn 0.538290 0.011200 0.842685
vn 0.991803 -0.058100 -0.113800
vn 0.669194 -0.017000 0.742893
vn 0.999629 0.023501 -0.013800
vn 0.999629 0.023501 -0.013800
vn 0.680005 -0.113901 -0.724306
vn 0.947438 0.319813 -0.009000
vn 0.729187 0.252596 -0.635989
vn 0.680005 -0.113901 -0.724306
vn 0.038301 -0.296911 -0.954137
vn 0.729187 0.252596 -0.635989
vn 0.127996 -0.059798 -0.989970
vn 0.038301 -0.296911 -0.954137
vn -0.568097 -0.401998 -0.718097
vn 0.127996 -0.059798 -0.989970
vn -0.673753 -0.303279 -0.673853
vn -0.568097 -0.401998 -0.718097
vn -0.884073 -0.465486 -0.041699
vn -0.673753 -0.303279 -0.673853
vn -0.942397 -0.333299 -0.028300
vn -0.664872 -0.309387 0.679871
vn -0.721771 -0.203392 0.661573
vn -0.884073 -0.465486 -0.041699
vn -0.942397 -0.333299 -0.028300
vn -0.074401 -0.155001 0.985109
vn -0.023300 0.053400 0.998301
vn -0.664872 -0.309387 0.679871
vn -0.721771 -0.203392 0.661573
vn 0.669194 -0.017000 0.742893
vn 0.650403 0.251901 0.716604
vn -0.074401 -0.155001 0.985109
vn -0.023300 0.053400 0.998301
vn 0.999629 0.023501 -0.013800
vn 0.947438 0.319813 -0.009000
vn 0.669194 -0.017000 0.742893
vn 0.650403 0.251901 0.716604
vn 0.947438 0.319813 -0.009000
vn 0.729187 0.252596 -0.635989
vn 0.801132 0.582923 -0.135605
vn 0.572114 0.429511 -0.698717
vn 0.729187 0.252596 -0.635989
vn 0.127996 -0.059798 -0.989970
vn 0.572114 0.429511 -0.698717
vn -0.117898 0.073699 -0.990287
vn 0.127996 -0.059798 -0.989970
vn -0.673753 -0.303279 -0.673853
vn -0.117898 0.073699 -0.990287
vn -0.721606 -0.093901 -0.685906
vn -0.673753 -0.303279 -0.673853
vn -0.942397 -0.333299 -0.028300
vn -0.721606 -0.093901 -0.685906
vn -0.994320 -0.056501 0.090202
vn -0.942397 -0.333299 -0.028300
vn -0.721771 -0.203392 0.661573
vn -0.994320 -0.056501 0.090202
vn -0.673685 0.067998 0.735884
vn -0.023300 0.053400 0.998301
vn -0.231210 0.214609 0.948939
vn -0.721771 -0.203392 0.661573
vn -0.673685 0.067998 0.735884
vn 0.650403 0.251901 0.716604
vn 0.285106 0.437709 0.852717
vn -0.023300 0.053400 0.998301
vn -0.231210 0.214609 0.948939
vn 0.947438 0.319813 -0.009000
vn 0.801132 0.582923 -0.135605
vn 0.650403 0.251901 0.716604
vn 0.285106 0.437709 0.852717
vn 0.240907 -0.955826 0.168405
vn -0.066801 -0.960511 0.270103
vn -0.081901 -0.995209 -0.053400
vn -0.066801 -0.960511 0.270103
vn -0.428490 -0.883580 0.188896
vn -0.081901 -0.995209 -0.053400
vn -0.428490 -0.883580 0.188896
vn -0.464523 -0.885143 0.027201
vn -0.081901 -0.995209 -0.053400
vn -0.464523 -0.885143 0.027201
vn -0.315603 -0.917907 -0.240502
vn -0.081901 -0.995209 -0.053400
vn -0.315603 -0.917907 -0.240502
vn -0.053099 -0.889679 -0.453489
vn -0.081901 -0.995209 -0.053400
vn -0.053099 -0.889679 -0.453489
vn 0.145401 -0.914108 -0.378503
vn -0.081901 -0.995209 -0.053400
vn 0.145401 -0.914108 -0.378503
vn 0.276603 -0.956910 -0.088401
vn -0.081901 -0.995209 -0.053400
vn 0.276603 -0.956910 -0.088401
vn 0.240907 -0.955826 0.168405
vn -0.081901 -0.995209 -0.053400
vn 0.560672 0.827259 -0.035898
vn 0.370207 0.774314 -0.513210
vn -0.029601 0.986624 -0.160304
vn 0.370207 0.774314 -0.513210
vn -0.312689 0.795671 -0.518781
vn -0.029601 0.986624 -0.160304
vn -0.312689 0.795671 -0.518781
vn -0.634889 0.686889 -0.353694
vn -0.029601 0.986624 -0.160304
vn -0.634889 0.686889 -0.353694
vn -0.676935 0.718037 -0.161808
vn -0.029601 0.986624 -0.160304
vn -0.676935 0.718037 -0.161808
vn -0.532792 0.840588 0.097699
vn -0.029601 0.986624 -0.160304
vn -0.532792 0.840588 0.097699
vn -0.150405 0.938430 0.311010
vn -0.029601 0.986624 -0.160304
vn -0.150405 0.938430 0.311010
vn 0.284217 0.907254 0.310018
vn -0.029601 0.986624 -0.160304
vn 0.284217 0.907254 0.310018
vn 0.560672 0.827259 -0.035898
vn -0.029601 0.986624 -0.160304
s 1
usemtl PoliwrathUpperArmLeft:___Default
f 1/1/1 2/2/2 4/4/3
f 4/4/3 2/2/2 3/3/4
s 2
f 2/2/5 5/5/6 3/3/7
f 3/3/7 5/5/6 6/6/8
s 3
f 5/7/9 7/8/10 6/10/11
f 6/10/11 7/8/10 8/9/12
s 4
f 9/11/13 10/12/14 7/8/15
f 7/8/15 10/12/14 8/9/16
s 5
f 11/13/17 12/14/18 9/11/19
f 9/11/19 12/14/18 10/12/20
s 6
f 13/15/21 14/16/22 11/13/23
f 11/13/23 14/16/22 12/14/24
s 7
f 15/17/25 16/18/26 13/15/27
f 13/15/27 16/18/26 14/16/28
s 8
f 15/17/29 1/1/30 16/18/31
f 16/18/31 1/1/30 4/4/32
s 9
f 4/4/33 3/3/34 18/20/35
f 18/20/35 3/3/34 17/19/36
s 10
f 3/3/37 6/6/38 17/19/39
f 17/19/39 6/6/38 19/21/40
s 11
f 6/10/41 8/9/42 19/23/43
f 19/23/43 8/9/42 20/22/44
s 12
f 8/9/45 10/12/46 20/22/47
f 20/22/47 10/12/46 21/24/48
s 13
f 12/14/49 22/25/50 10/12/51
f 10/12/51 22/25/50 21/24/52
s 14
f 14/16/53 23/26/54 12/14/55
f 12/14/55 23/26/54 22/25/56
s 15
f 16/18/57 24/27/58 14/16/59
f 14/16/59 24/27/58 23/26/60
s 16
f 4/4/61 18/20/62 16/18/63
f 16/18/63 18/20/62 24/27/64
s 17
f 18/20/65 17/19/66 26/29/67
f 26/29/67 17/19/66 25/28/68
s 18
f 17/19/69 19/21/70 25/28/71
f 25/28/71 19/21/70 27/30/72
s 19
f 19/23/73 20/22/74 27/32/75
f 27/32/75 20/22/74 28/31/76
s 20
f 20/22/77 21/24/78 28/31/79
f 28/31/79 21/24/78 29/33/80
s 21
f 21/24/81 22/25/82 29/33/83
f 29/33/83 22/25/82 30/34/84
s 22
f 23/26/85 31/35/86 22/25/87
f 22/25/87 31/35/86 30/34/88
s 23
f 24/27/89 32/36/90 23/26/91
f 23/26/91 32/36/90 31/35/92
s 24
f 18/20/93 26/29/94 24/27/95
f 24/27/95 26/29/94 32/36/96
s off
f 15/17/97 13/15/98 33/37/99
f 13/15/100 11/13/101 33/37/102
f 11/13/103 9/11/104 33/37/105
f 9/11/106 7/8/107 33/37/108
f 7/8/109 5/7/110 33/37/111
f 5/5/112 2/2/113 33/37/114
f 2/2/115 1/1/116 33/37/117
f 1/1/118 15/17/119 33/37/120
f 26/29/121 25/28/122 34/38/123
f 25/28/124 27/30/125 34/38/126
f 27/32/127 28/31/128 34/38/129
f 28/31/130 29/33/131 34/38/132
f 29/33/133 30/34/134 34/38/135
f 30/34/136 31/35/137 34/38/138
f 31/35/139 32/36/140 34/38/141
f 32/36/142 26/29/143 34/38/144
g default
v 27.225735 -18.892365 -6.024660
v 23.975236 -20.154866 -8.281561
v 18.141234 -10.460065 -8.103861
v 21.582936 -9.713467 -4.050161
v 20.529935 -21.367368 -8.976960
v 14.181636 -13.252366 -9.099461
v 17.423834 -23.794167 -6.972760
v 10.042235 -15.111768 -6.875960
v 17.455735 -24.265767 -3.275360
v 9.490334 -16.777367 -1.354161
v 20.274235 -23.888566 -1.353961
v 13.257535 -17.293965 2.358339
v 24.005635 -22.909066 -0.460561
v 16.846736 -15.273465 3.546239
v 26.653435 -20.505967 -1.261461
v 21.010434 -11.336366 0.707539
v 14.982335 -6.133664 -7.815460
v 18.424134 -5.187367 -3.058261
v 10.988635 -9.268765 -10.058761
v 5.027335 -13.602166 -6.048161
v 4.633334 -15.031964 -0.526361
v 7.431134 -14.619466 4.230839
v 13.431035 -11.063966 5.458839
v 17.872235 -6.852967 2.463539
v 1.540735 -1.333066 -3.820261
v 6.447035 -0.218366 -1.006061
v -0.215765 -2.854966 -5.151661
v -1.084965 -4.639165 -3.339460
v -1.636865 -6.304765 1.453239
v -0.406165 -4.320065 4.405239
v 1.269535 -2.710564 5.009039
v 3.124535 -1.689965 4.555639
v 23.337235 -23.735867 -4.634661
v -0.186665 -0.034966 -0.131761
vt 0.032000 0.984300
vt 0.029400 0.986300
vt 0.017100 0.966300
vt 0.024500 0.966300
vt 0.025500 0.989300
vt 0.009800 0.968300
vt 0.059000 0.987300
vt 0.054800 0.982200
vt 0.066800 0.962300
vt 0.074300 0.967000
vt 0.050300 0.980800
vt 0.057000 0.961200
vt 0.045700 0.982500
vt 0.048600 0.964300
vt 0.040900 0.983900
vt 0.041900 0.964800
vt 0.037300 0.982900
vt 0.031600 0.965400
vt 0.017200 0.954400
vt 0.023800 0.956900
vt 0.009500 0.951300
vt 0.064200 0.951300
vt 0.078100 0.951400
vt 0.057100 0.952200
vt 0.050400 0.954200
vt 0.040400 0.956700
vt 0.030800 0.957000
vt 0.031200 0.927900
vt 0.035500 0.935900
vt 0.027600 0.925200
vt 0.056300 0.929500
vt 0.058400 0.927100
vt 0.052200 0.932500
vt 0.049800 0.931900
vt 0.049000 0.932100
vt 0.047300 0.933900
vt 0.042400 0.990300
vt 0.042100 0.924900
vn 0.991803 -0.058100 -0.113800
vn 0.553703 -0.163001 -0.816605
vn 0.999629 0.023501 -0.013800
vn 0.680005 -0.113901 -0.724306
vn 0.553703 -0.163001 -0.816605
vn 0.070600 -0.213000 -0.974498
vn 0.680005 -0.113901 -0.724306
vn 0.038301 -0.296911 -0.954137
vn 0.070600 -0.213000 -0.974498
vn -0.695006 -0.269202 -0.666706
vn 0.038301 -0.296911 -0.954137
vn -0.568097 -0.401998 -0.718097
vn -0.932610 -0.296103 0.206302
vn -0.884073 -0.465486 -0.041699
vn -0.695006 -0.269202 -0.666706
vn -0.568097 -0.401998 -0.718097
vn -0.598797 -0.268099 0.754696
vn -0.664872 -0.309387 0.679871
vn -0.932610 -0.296103 0.206302
vn -0.884073 -0.465486 -0.041699
vn -0.121198 -0.112899 0.986187
vn -0.074401 -0.155001 0.985109
vn -0.598797 -0.268099 0.754696
vn -0.664872 -0.309387 0.679871
vn 0.538290 0.011200 0.842685
vn 0.669194 -0.017000 0.742893
vn -0.121198 -0.112899 0.986187
vn -0.074401 -0.155001 0.985109
vn 0.538290 0.011200 0.842685
vn 0.991803 -0.058100 -0.113800
vn 0.669194 -0.017000 0.742893
vn 0.999629 0.023501 -0.013800
vn 0.999629 0.023501 -0.013800
vn 0.680005 -0.113901 -0.724306
vn 0.947438 0.319813 -0.009000
vn 0.729187 0.252596 -0.635989
vn 0.680005 -0.113901 -0.724306
vn 0.038301 -0.296911 -0.954137
vn 0.729187 0.252596 -0.635989
vn 0.127996 -0.059798 -0.989970
vn 0.038301 -0.296911 -0.954137
vn -0.568097 -0.401998 -0.718097
vn 0.127996 -0.059798 -0.989970
vn -0.673753 -0.303279 -0.673853
vn -0.568097 -0.401998 -0.718097
vn -0.884073 -0.465486 -0.041699
vn -0.673753 -0.303279 -0.673853
vn -0.942397 -0.333299 -0.028300
vn -0.664872 -0.309387 0.679871
vn -0.721771 -0.203392 0.661573
vn -0.884073 -0.465486 -0.041699
vn -0.942397 -0.333299 -0.028300
vn -0.074401 -0.155001 0.985109
vn -0.023300 0.053400 0.998301
vn -0.664872 -0.309387 0.679871
vn -0.721771 -0.203392 0.661573
vn 0.669194 -0.017000 0.742893
vn 0.650403 0.251901 0.716604
vn -0.074401 -0.155001 0.985109
vn -0.023300 0.053400 0.998301
vn 0.999629 0.023501 -0.013800
vn 0.947438 0.319813 -0.009000
vn 0.669194 -0.017000 0.742893
vn 0.650403 0.251901 0.716604
vn 0.947438 0.319813 -0.009000
vn 0.729187 0.252596 -0.635989
vn 0.801132 0.582923 -0.135605
vn 0.572114 0.429511 -0.698717
vn 0.729187 0.252596 -0.635989
vn 0.127996 -0.059798 -0.989970
vn 0.572114 0.429511 -0.698717
vn -0.117898 0.073699 -0.990287
vn 0.127996 -0.059798 -0.989970
vn -0.673753 -0.303279 -0.673853
vn -0.117898 0.073699 -0.990287
vn -0.721606 -0.093901 -0.685906
vn -0.673753 -0.303279 -0.673853
vn -0.942397 -0.333299 -0.028300
vn -0.721606 -0.093901 -0.685906
vn -0.994320 -0.056501 0.090202
vn -0.942397 -0.333299 -0.028300
vn -0.721771 -0.203392 0.661573
vn -0.994320 -0.056501 0.090202
vn -0.673685 0.067998 0.735884
vn -0.023300 0.053400 0.998301
vn -0.231210 0.214609 0.948939
vn -0.721771 -0.203392 0.661573
vn -0.673685 0.067998 0.735884
vn 0.650403 0.251901 0.716604
vn 0.285106 0.437709 0.852717
vn -0.023300 0.053400 0.998301
vn -0.231210 0.214609 0.948939
vn 0.947438 0.319813 -0.009000
vn 0.801132 0.582923 -0.135605
vn 0.650403 0.251901 0.716604
vn 0.285106 0.437709 0.852717
vn 0.240907 -0.955826 0.168405
vn -0.066801 -0.960511 0.270103
vn -0.081901 -0.995209 -0.053400
vn -0.066801 -0.960511 0.270103
vn -0.428490 -0.883580 0.188896
vn -0.081901 -0.995209 -0.053400
vn -0.428490 -0.883580 0.188896
vn -0.464523 -0.885143 0.027201
vn -0.081901 -0.995209 -0.053400
vn -0.464523 -0.885143 0.027201
vn -0.315603 -0.917907 -0.240502
vn -0.081901 -0.995209 -0.053400
vn -0.315603 -0.917907 -0.240502
vn -0.053099 -0.889679 -0.453489
vn -0.081901 -0.995209 -0.053400
vn -0.053099 -0.889679 -0.453489
vn 0.145401 -0.914108 -0.378503
vn -0.081901 -0.995209 -0.053400
vn 0.145401 -0.914108 -0.378503
vn 0.276603 -0.956910 -0.088401
vn -0.081901 -0.995209 -0.053400
vn 0.276603 -0.956910 -0.088401
vn 0.240907 -0.955826 0.168405
vn -0.081901 -0.995209 -0.053400
vn 0.560672 0.827259 -0.035898
vn 0.370207 0.774314 -0.513210
vn -0.029601 0.986624 -0.160304
vn 0.370207 0.774314 -0.513210
vn -0.312689 0.795671 -0.518781
vn -0.029601 0.986624 -0.160304
vn -0.312689 0.795671 -0.518781
vn -0.634889 0.686889 -0.353694
vn -0.029601 0.986624 -0.160304
vn -0.634889 0.686889 -0.353694
vn -0.676935 0.718037 -0.161808
vn -0.029601 0.986624 -0.160304
vn -0.676935 0.718037 -0.161808
vn -0.532792 0.840588 0.097699
vn -0.029601 0.986624 -0.160304
vn -0.532792 0.840588 0.097699
vn -0.150405 0.938430 0.311010
vn -0.029601 0.986624 -0.160304
vn -0.150405 0.938430 0.311010
vn 0.284217 0.907254 0.310018
vn -0.029601 0.986624 -0.160304
vn 0.284217 0.907254 0.310018
vn 0.560672 0.827259 -0.035898
vn -0.029601 0.986624 -0.160304
s 1
f 35/39/145 36/40/146 38/42/147
f 38/42/147 36/40/146 37/41/148
s 2
f 36/40/149 39/43/150 37/41/151
f 37/41/151 39/43/150 40/44/152
s 3
f 39/45/153 41/46/154 40/48/155
f 40/48/155 41/46/154 42/47/156
s 4
f 43/49/157 44/50/158 41/46/159
f 41/46/159 44/50/158 42/47/160
s 5
f 45/51/161 46/52/162 43/49/163
f 43/49/163 46/52/162 44/50/164
s 6
f 47/53/165 48/54/166 45/51/167
f 45/51/167 48/54/166 46/52/168
s 7
f 49/55/169 50/56/170 47/53/171
f 47/53/171 50/56/170 48/54/172
s 8
f 49/55/173 35/39/174 50/56/175
f 50/56/175 35/39/174 38/42/176
s 9
f 38/42/177 37/41/178 52/58/179
f 52/58/179 37/41/178 51/57/180
s 10
f 37/41/181 40/44/182 51/57/183
f 51/57/183 40/44/182 53/59/184
s 11
f 40/48/185 42/47/186 53/61/187
f 53/61/187 42/47/186 54/60/188
s 12
f 42/47/189 44/50/190 54/60/191
f 54/60/191 44/50/190 55/62/192
s 13
f 46/52/193 56/63/194 44/50/195
f 44/50/195 56/63/194 55/62/196
s 14
f 48/54/197 57/64/198 46/52/199
f 46/52/199 57/64/198 56/63/200
s 15
f 50/56/201 58/65/202 48/54/203
f 48/54/203 58/65/202 57/64/204
s 16
f 38/42/205 52/58/206 50/56/207
f 50/56/207 52/58/206 58/65/208
s 17
f 52/58/209 51/57/210 60/67/211
f 60/67/211 51/57/210 59/66/212
s 18
f 51/57/213 53/59/214 59/66/215
f 59/66/215 53/59/214 61/68/216
s 19
f 53/61/217 54/60/218 61/70/219
f 61/70/219 54/60/218 62/69/220
s 20
f 54/60/221 55/62/222 62/69/223
f 62/69/223 55/62/222 63/71/224
s 21
f 55/62/225 56/63/226 63/71/227
f 63/71/227 56/63/226 64/72/228
s 22
f 57/64/229 65/73/230 56/63/231
f 56/63/231 65/73/230 64/72/232
s 23
f 58/65/233 66/74/234 57/64/235
f 57/64/235 66/74/234 65/73/236
s 24
f 52/58/237 60/67/238 58/65/239
f 58/65/239 60/67/238 66/74/240
s off
f 49/55/241 47/53/242 67/75/243
f 47/53/244 45/51/245 67/75/246
f 45/51/247 43/49/248 67/75/249
f 43/49/250 41/46/251 67/75/252
f 41/46/253 39/45/254 67/75/255
f 39/43/256 36/40/257 67/75/258
f 36/40/259 35/39/260 67/75/261
f 35/39/262 49/55/263 67/75/264
f 60/67/265 59/66/266 68/76/267
f 59/66/268 61/68/269 68/76/270
f 61/70/271 62/69/272 68/76/273
f 62/69/274 63/71/275 68/76/276
f 63/71/277 64/72/278 68/76/279
f 64/72/280 65/73/281 68/76/282
f 65/73/283 66/74/284 68/76/285
f 66/74/286 60/67/287 68/76/288
